<svg width="428" height="179" viewBox="0 0 428 179" fill="none" xmlns="http://www.w3.org/2000/svg">
<g>
<ellipse cx="179.059" cy="38.4837" rx="38.9472" ry="36.6104" fill="#D2D58B"/>
</g>
<g>
<path d="M168.852 77.1025C167.357 77.1025 166.145 75.8908 166.145 74.396C166.145 72.9012 167.357 71.6894 168.852 71.6894L175.404 71.6894C176.899 71.6894 178.111 72.9012 178.111 74.396C178.111 75.8908 176.899 77.1025 175.404 77.1025L168.852 77.1025Z" fill="#746B5E"/>
<path d="M166.153 74.0553C166.153 72.9539 167.046 72.061 168.147 72.061C169.249 72.061 170.141 72.9539 170.141 74.0553L170.141 77.1893C170.141 78.2907 169.249 79.1836 168.147 79.1836C167.046 79.1836 166.153 78.2907 166.153 77.1893L166.153 74.0553Z" fill="#746B5E"/>
<path d="M170.139 74.0553C170.139 72.9539 171.032 72.061 172.133 72.061C173.235 72.061 174.128 72.9539 174.128 74.0553L174.128 77.1893C174.128 78.2907 173.235 79.1836 172.133 79.1836C171.032 79.1836 170.139 78.2907 170.139 77.1893L170.139 74.0553Z" fill="#746B5E"/>
<path d="M174.13 74.0553C174.13 72.9539 175.023 72.061 176.125 72.061C177.226 72.061 178.119 72.9539 178.119 74.0553L178.119 77.1893C178.119 78.2907 177.226 79.1836 176.125 79.1836C175.023 79.1836 174.13 78.2907 174.13 77.1893L174.13 74.0553Z" fill="#746B5E"/>
</g>
<g>
<path d="M185.159 77.1033C183.664 77.1033 182.452 75.8915 182.452 74.3967C182.452 72.9019 183.664 71.6901 185.159 71.6901L191.711 71.6901C193.206 71.6901 194.418 72.9019 194.418 74.3967C194.418 75.8915 193.206 77.1033 191.711 77.1033L185.159 77.1033Z" fill="#746B5E"/>
<path d="M182.46 74.0578C182.46 72.9564 183.353 72.0635 184.455 72.0635C185.556 72.0635 186.449 72.9564 186.449 74.0578L186.449 77.1917C186.449 78.2931 185.556 79.186 184.455 79.186C183.353 79.186 182.46 78.2931 182.46 77.1917L182.46 74.0578Z" fill="#746B5E"/>
<path d="M186.447 74.059C186.447 72.9576 187.34 72.0647 188.442 72.0647C189.543 72.0647 190.436 72.9576 190.436 74.059L190.436 77.1929C190.436 78.2943 189.543 79.1872 188.442 79.1872C187.34 79.1872 186.447 78.2943 186.447 77.1929L186.447 74.059Z" fill="#746B5E"/>
<path d="M190.438 74.059C190.438 72.9576 191.331 72.0647 192.432 72.0647C193.534 72.0647 194.427 72.9576 194.427 74.059L194.427 77.1929C194.427 78.2943 193.534 79.1872 192.432 79.1872C191.331 79.1872 190.438 78.2943 190.438 77.1929L190.438 74.059Z" fill="#746B5E"/>
</g>
<g>
<path d="M149.833 12.5663L147.57 16.7606C155.984 12.0959 171.756 4.07704 166.947 4.69527C161.988 5.33277 154.455 6.13862 151.209 5.96896C148.605 5.83303 147.55 2.11128 145.13 3.38646C143.165 4.4216 146.433 14.1084 149.833 12.5663Z" fill="#D2D58B"/>
</g>
<g>
<path d="M208.036 12.5663L210.299 16.7606C201.885 12.0959 186.113 4.07704 190.922 4.69527C195.881 5.33277 203.414 6.13862 206.661 5.96896C209.264 5.83303 210.319 2.11128 212.74 3.38646C214.705 4.4216 211.437 14.1084 208.036 12.5663Z" fill="#D2D58B"/>
</g>
<path d="M162.673 33.0835C168.304 34.4499 173.98 30.982 175.35 25.3376C176.719 19.6933 173.264 14.01 167.632 12.6435C162 11.2771 156.324 14.7451 154.955 20.3894C153.585 26.0337 157.041 31.7171 162.673 33.0835Z" fill="white"/>
<path d="M168.873 29.5482C171.505 30.187 174.158 28.5659 174.799 25.9274C175.439 23.2889 173.823 20.6322 171.191 19.9935C168.558 19.3547 165.905 20.9758 165.265 23.6143C164.625 26.2528 166.24 28.9095 168.873 29.5482Z" fill="#291505"/>
<path d="M171.637 24.3435C172.531 24.5602 173.431 24.0102 173.648 23.115C173.865 22.2199 173.317 21.3186 172.424 21.1018C171.531 20.8851 170.631 21.4351 170.413 22.3303C170.196 23.2254 170.744 24.1268 171.637 24.3435Z" fill="white"/>
<path d="M190.455 33.0835C196.087 34.4499 201.763 30.982 203.132 25.3376C204.502 19.6933 201.046 14.01 195.414 12.6435C189.782 11.2771 184.107 14.7451 182.737 20.3894C181.368 26.0337 184.823 31.7171 190.455 33.0835Z" fill="white"/>
<path d="M187.008 29.548C189.641 30.1867 192.294 28.5656 192.934 25.9271C193.574 23.2887 191.959 20.632 189.326 19.9932C186.694 19.3545 184.041 20.9756 183.4 23.6141C182.76 26.2525 184.376 28.9093 187.008 29.548Z" fill="#291505"/>
<path d="M185.607 24.3891C186.5 24.6058 187.4 24.0558 187.617 23.1607C187.834 22.2655 187.286 21.3642 186.393 21.1475C185.5 20.9308 184.6 21.4808 184.383 22.3759C184.165 23.2711 184.713 24.1724 185.607 24.3891Z" fill="white"/>
<path d="M178.162 30.801L179.799 30.801C181.865 30.801 182.898 30.801 183.287 31.4723C183.675 32.1436 183.161 33.0396 182.133 34.8317L181.328 36.2344C180.306 38.0151 179.795 38.9054 179.022 38.9108C178.249 38.9163 177.725 38.0332 176.679 36.267L175.847 34.8643C174.778 33.0614 174.244 32.16 174.631 31.4805C175.018 30.801 176.066 30.801 178.162 30.801Z" fill="#37271A"/>
<mask id="mask0_6811_15685" style="mask-type:alpha" maskUnits="userSpaceOnUse" x="174" y="30" width="10" height="9">
<path d="M178.162 30.8013L179.799 30.8013C181.865 30.8013 182.898 30.8013 183.287 31.4725C183.675 32.1438 183.161 33.0398 182.133 34.8319L181.328 36.2346C180.306 38.0153 179.795 38.9057 179.022 38.9111C178.249 38.9165 177.725 38.0334 176.679 36.2673L175.847 34.8646C174.778 33.0617 174.244 32.1602 174.631 31.4807C175.018 30.8013 176.066 30.8013 178.162 30.8013Z" fill="#37271A"/>
</mask>
<g mask="url(#mask0_6811_15685)">
<ellipse cx="181.651" cy="34.8795" rx="2.80323" ry="6.79086" transform="rotate(1.96959 181.651 34.8795)" fill="#443122"/>
</g>
<g>
<path d="M144.233 27.7189C146.631 28.7362 147.751 31.5052 146.734 33.9038C145.717 36.3023 142.948 37.4221 140.549 36.4048L119.317 27.4001C116.918 26.3829 115.798 23.6139 116.816 21.2153C117.833 18.8168 120.602 17.697 123 18.7142L144.233 27.7189Z" fill="#2C2D1C"/>
<path d="M141.163 34.9572C143.561 35.9744 144.681 38.7435 143.664 41.142C142.647 43.5406 139.878 44.6603 137.479 43.6431L120.107 36.2756C117.709 35.2584 116.589 32.4893 117.606 30.0908C118.624 27.6922 121.393 26.5725 123.791 27.5897L141.163 34.9572Z" fill="#2C2D1C"/>
<path d="M146.938 33.4212L143.459 41.6246L137.669 39.1687L141.148 30.9654L146.938 33.4212Z" fill="#2C2D1C"/>
</g>
<path d="M108.656 10.9774C108.055 10.4032 108.028 9.44391 108.659 8.90282C109.804 7.92134 111.092 7.11424 112.483 6.50965C114.336 5.70418 116.336 5.27391 118.368 5.24341C120.399 5.2129 122.424 5.58276 124.325 6.33186C125.767 6.90001 127.117 7.6779 128.331 8.63776C128.973 9.14508 128.991 10.0889 128.426 10.6805C127.861 11.2722 126.928 11.2858 126.275 10.793C125.354 10.0983 124.343 9.53041 123.268 9.10689C121.734 8.50237 120.1 8.2039 118.46 8.22852C116.82 8.25313 115.207 8.60036 113.711 9.25037C112.678 9.69944 111.715 10.287 110.848 10.9952C110.205 11.5211 109.257 11.5515 108.656 10.9774Z" fill="#E7E2DB"/>
<path d="M96.193 33.958C95.3765 34.114 94.8337 34.9054 95.0701 35.7024C95.4989 37.148 96.1428 38.5249 96.983 39.7875C98.1024 41.4697 99.5484 42.9163 101.238 44.0446C102.929 45.1729 104.83 45.9609 106.833 46.3635C108.353 46.6689 109.909 46.7481 111.449 46.6008C112.264 46.523 112.791 45.7398 112.637 44.9363C112.484 44.1327 111.708 43.6149 110.892 43.6744C109.742 43.7584 108.584 43.6866 107.451 43.4589C105.834 43.134 104.3 42.4981 102.936 41.5876C101.572 40.677 100.405 39.5097 99.5021 38.1521C98.878 37.2142 98.3882 36.1983 98.0443 35.1329C97.789 34.3418 97.0095 33.8021 96.193 33.958Z" fill="#E7E2DB"/>
<path d="M110.046 4.12062C109.553 3.4482 109.697 2.49537 110.418 2.07531C112.152 1.06441 114.078 0.403485 116.087 0.135403C118.118 -0.13547 120.183 0.00144941 122.164 0.53269C122.95 0.743341 123.342 1.59457 123.068 2.36036C122.789 3.13899 121.929 3.53079 121.125 3.33678C119.621 2.97379 118.062 2.89013 116.529 3.09471C114.999 3.29879 113.53 3.78501 112.193 4.52431C111.469 4.92489 110.536 4.78776 110.046 4.12062Z" fill="#E7E2DB"/>
<path d="M93.6399 40.473C92.8604 40.7699 92.4647 41.6487 92.8421 42.3926C93.7502 44.1829 95.0089 45.783 96.5512 47.0987C98.1096 48.4281 99.9188 49.434 101.871 50.063C102.645 50.3124 103.436 49.81 103.622 49.018C103.81 48.2128 103.3 47.4169 102.52 47.1436C101.06 46.6322 99.7052 45.8568 98.5282 44.8528C97.3541 43.8512 96.3836 42.6453 95.6622 41.299C95.2713 40.5695 94.4133 40.1784 93.6399 40.473Z" fill="#E7E2DB"/>
<g>
<rect width="449.996" height="123.342" rx="13.5541" transform="matrix(-1 0 0 1 452.707 52.1233)" fill="white"/>
</g>
<rect x="10.8433" y="60.2559" width="433.731" height="59.638" rx="10.8433" fill="#F1EDE8"/>
<path d="M36.046 83.3489V84.7531H30.2963V89.2124H34.9643V90.6166H30.2963V96.575H28.5695V83.3489H36.046ZM39.8583 87.8651C40.1619 87.2705 40.592 86.8088 41.1487 86.4799C41.7179 86.151 42.4074 85.9865 43.217 85.9865V87.7702H42.7616C40.8261 87.7702 39.8583 88.8202 39.8583 90.9202V96.575H38.1315V86.1763H39.8583V87.8651ZM44.5652 91.3377C44.5652 90.275 44.7802 89.3452 45.2103 88.5482C45.6405 87.7386 46.2287 87.1124 46.9751 86.6696C47.7341 86.2269 48.5754 86.0055 49.4989 86.0055C50.4097 86.0055 51.2003 86.2016 51.8708 86.5937C52.5413 86.9859 53.041 87.4793 53.3699 88.0738V86.1763H55.1157V96.575H53.3699V94.6394C53.0283 95.2467 52.516 95.7527 51.8329 96.1575C51.1624 96.5497 50.3781 96.7457 49.4799 96.7457C48.5564 96.7457 47.7215 96.518 46.9751 96.0626C46.2287 95.6072 45.6405 94.9683 45.2103 94.1461C44.7802 93.3238 44.5652 92.3876 44.5652 91.3377ZM53.3699 91.3566C53.3699 90.5723 53.2118 89.8892 52.8955 89.3073C52.5792 88.7253 52.1491 88.2826 51.6052 87.979C51.0738 87.6627 50.4856 87.5046 49.8404 87.5046C49.1952 87.5046 48.607 87.6564 48.0757 87.96C47.5444 88.2636 47.1206 88.7064 46.8043 89.2883C46.488 89.8702 46.3299 90.5533 46.3299 91.3377C46.3299 92.1346 46.488 92.8304 46.8043 93.425C47.1206 94.0069 47.5444 94.456 48.0757 94.7723C48.607 95.0759 49.1952 95.2277 49.8404 95.2277C50.4856 95.2277 51.0738 95.0759 51.6052 94.7723C52.1491 94.456 52.5792 94.0069 52.8955 93.425C53.2118 92.8304 53.3699 92.141 53.3699 91.3566ZM62.3223 86.0055C63.2205 86.0055 64.0048 86.2016 64.6753 86.5937C65.3584 86.9859 65.8644 87.4793 66.1933 88.0738V86.1763H67.9391V96.8027C67.9391 97.7514 67.7367 98.5927 67.3319 99.3264C66.9271 100.073 66.3451 100.655 65.5861 101.072C64.8397 101.49 63.9669 101.698 62.9675 101.698C61.6012 101.698 60.4627 101.376 59.5518 100.731C58.641 100.085 58.1034 99.2063 57.9389 98.093H59.6467C59.8365 98.7255 60.2286 99.2316 60.8232 99.6111C61.4178 100.003 62.1325 100.199 62.9675 100.199C63.9163 100.199 64.6879 99.902 65.2825 99.3075C65.8897 98.7129 66.1933 97.878 66.1933 96.8027V94.6205C65.8518 95.2277 65.3458 95.7337 64.6753 96.1385C64.0048 96.5433 63.2205 96.7457 62.3223 96.7457C61.3988 96.7457 60.5575 96.518 59.7985 96.0626C59.0521 95.6072 58.4639 94.9683 58.0338 94.1461C57.6037 93.3238 57.3886 92.3876 57.3886 91.3377C57.3886 90.275 57.6037 89.3452 58.0338 88.5482C58.4639 87.7386 59.0521 87.1124 59.7985 86.6696C60.5575 86.2269 61.3988 86.0055 62.3223 86.0055ZM66.1933 91.3566C66.1933 90.5723 66.0352 89.8892 65.7189 89.3073C65.4027 88.7253 64.9726 88.2826 64.4286 87.979C63.8973 87.6627 63.309 87.5046 62.6639 87.5046C62.0187 87.5046 61.4304 87.6564 60.8991 87.96C60.3678 88.2636 59.944 88.7064 59.6277 89.2883C59.3115 89.8702 59.1533 90.5533 59.1533 91.3377C59.1533 92.1346 59.3115 92.8304 59.6277 93.425C59.944 94.0069 60.3678 94.456 60.8991 94.7723C61.4304 95.0759 62.0187 95.2277 62.6639 95.2277C63.309 95.2277 63.8973 95.0759 64.4286 94.7723C64.9726 94.456 65.4027 94.0069 65.7189 93.425C66.0352 92.8304 66.1933 92.141 66.1933 91.3566ZM88.4212 85.9865C89.2308 85.9865 89.9519 86.1573 90.5844 86.4988C91.2169 86.8278 91.7166 87.3275 92.0835 87.9979C92.4503 88.6684 92.6338 89.4844 92.6338 90.4458V96.575H90.926V90.6925C90.926 89.6551 90.6666 88.8645 90.148 88.3205C89.6419 87.7639 88.9525 87.4856 88.0796 87.4856C87.1814 87.4856 86.4667 87.7765 85.9353 88.3585C85.404 88.9277 85.1384 89.7563 85.1384 90.8443V96.575H83.4306V90.6925C83.4306 89.6551 83.1712 88.8645 82.6525 88.3205C82.1465 87.7639 81.4571 87.4856 80.5842 87.4856C79.686 87.4856 78.9713 87.7765 78.4399 88.3585C77.9086 88.9277 77.643 89.7563 77.643 90.8443V96.575H75.9162V86.1763H77.643V87.6753C77.9845 87.1314 78.4399 86.7139 79.0092 86.4229C79.5911 86.132 80.23 85.9865 80.9258 85.9865C81.7986 85.9865 82.5703 86.1826 83.2408 86.5747C83.9113 86.9669 84.411 87.5425 84.7399 88.3015C85.0308 87.5678 85.5116 86.9985 86.182 86.5937C86.8525 86.1889 87.5989 85.9865 88.4212 85.9865ZM96.3582 84.4874C96.0293 84.4874 95.751 84.3736 95.5233 84.1459C95.2956 83.9181 95.1817 83.6398 95.1817 83.3109C95.1817 82.982 95.2956 82.7037 95.5233 82.476C95.751 82.2483 96.0293 82.1344 96.3582 82.1344C96.6745 82.1344 96.9401 82.2483 97.1552 82.476C97.3829 82.7037 97.4968 82.982 97.4968 83.3109C97.4968 83.6398 97.3829 83.9181 97.1552 84.1459C96.9401 84.3736 96.6745 84.4874 96.3582 84.4874ZM97.1931 86.1763V96.575H95.4663V86.1763H97.1931ZM99.491 91.3566C99.491 90.2813 99.706 89.3452 100.136 88.5482C100.566 87.7386 101.161 87.1124 101.92 86.6696C102.692 86.2269 103.571 86.0055 104.557 86.0055C105.835 86.0055 106.885 86.3154 107.707 86.9353C108.542 87.5552 109.093 88.4154 109.358 89.516H107.499C107.322 88.8835 106.974 88.3838 106.455 88.0169C105.949 87.65 105.317 87.4666 104.557 87.4666C103.571 87.4666 102.774 87.8082 102.167 88.4913C101.559 89.1618 101.256 90.1169 101.256 91.3566C101.256 92.609 101.559 93.5768 102.167 94.2599C102.774 94.943 103.571 95.2846 104.557 95.2846C105.317 95.2846 105.949 95.1075 106.455 94.7533C106.961 94.3991 107.309 93.893 107.499 93.2352H109.358C109.08 94.2979 108.523 95.1518 107.688 95.7969C106.854 96.4295 105.81 96.7457 104.557 96.7457C103.571 96.7457 102.692 96.5243 101.92 96.0816C101.161 95.6388 100.566 95.0126 100.136 94.203C99.706 93.3934 99.491 92.4446 99.491 91.3566ZM116.824 85.9865C117.608 85.9865 118.317 86.1573 118.949 86.4988C119.582 86.8278 120.075 87.3275 120.429 87.9979C120.796 88.6684 120.979 89.4844 120.979 90.4458V96.575H119.272V90.6925C119.272 89.6551 119.012 88.8645 118.494 88.3205C117.975 87.7639 117.267 87.4856 116.368 87.4856C115.458 87.4856 114.73 87.7702 114.186 88.3395C113.655 88.9088 113.389 89.7374 113.389 90.8253V96.575H111.662V82.5329H113.389V87.6564C113.731 87.125 114.199 86.7139 114.793 86.4229C115.401 86.132 116.077 85.9865 116.824 85.9865ZM133.926 85.9865C135.191 85.9865 136.215 86.3723 137 87.144C137.784 87.903 138.176 89.0036 138.176 90.4458V96.575H136.468V90.6925C136.468 89.6551 136.209 88.8645 135.69 88.3205C135.172 87.7639 134.463 87.4856 133.565 87.4856C132.654 87.4856 131.927 87.7702 131.383 88.3395C130.852 88.9088 130.586 89.7374 130.586 90.8253V96.575H128.859V86.1763H130.586V87.6564C130.928 87.125 131.389 86.7139 131.971 86.4229C132.566 86.132 133.217 85.9865 133.926 85.9865ZM140.352 91.3377C140.352 90.275 140.567 89.3452 140.997 88.5482C141.427 87.7386 142.015 87.1124 142.762 86.6696C143.521 86.2269 144.362 86.0055 145.285 86.0055C146.196 86.0055 146.987 86.2016 147.657 86.5937C148.328 86.9859 148.828 87.4793 149.157 88.0738V86.1763H150.902V96.575H149.157V94.6394C148.815 95.2467 148.303 95.7527 147.619 96.1575C146.949 96.5497 146.165 96.7457 145.266 96.7457C144.343 96.7457 143.508 96.518 142.762 96.0626C142.015 95.6072 141.427 94.9683 140.997 94.1461C140.567 93.3238 140.352 92.3876 140.352 91.3377ZM149.157 91.3566C149.157 90.5723 148.998 89.8892 148.682 89.3073C148.366 88.7253 147.936 88.2826 147.392 87.979C146.86 87.6627 146.272 87.5046 145.627 87.5046C144.982 87.5046 144.394 87.6564 143.862 87.96C143.331 88.2636 142.907 88.7064 142.591 89.2883C142.275 89.8702 142.117 90.5533 142.117 91.3377C142.117 92.1346 142.275 92.8304 142.591 93.425C142.907 94.0069 143.331 94.456 143.862 94.7723C144.394 95.0759 144.982 95.2277 145.627 95.2277C146.272 95.2277 146.86 95.0759 147.392 94.7723C147.936 94.456 148.366 94.0069 148.682 93.425C148.998 92.8304 149.157 92.141 149.157 91.3566ZM153.175 91.3566C153.175 90.2813 153.39 89.3452 153.82 88.5482C154.25 87.7386 154.845 87.1124 155.604 86.6696C156.376 86.2269 157.255 86.0055 158.242 86.0055C159.519 86.0055 160.569 86.3154 161.392 86.9353C162.227 87.5552 162.777 88.4154 163.043 89.516H161.183C161.006 88.8835 160.658 88.3838 160.139 88.0169C159.633 87.65 159.001 87.4666 158.242 87.4666C157.255 87.4666 156.458 87.8082 155.851 88.4913C155.244 89.1618 154.94 90.1169 154.94 91.3566C154.94 92.609 155.244 93.5768 155.851 94.2599C156.458 94.943 157.255 95.2846 158.242 95.2846C159.001 95.2846 159.633 95.1075 160.139 94.7533C160.645 94.3991 160.993 93.893 161.183 93.2352H163.043C162.764 94.2979 162.208 95.1518 161.373 95.7969C160.538 96.4295 159.494 96.7457 158.242 96.7457C157.255 96.7457 156.376 96.5243 155.604 96.0816C154.845 95.6388 154.25 95.0126 153.82 94.203C153.39 93.3934 153.175 92.4446 153.175 91.3566ZM170.508 85.9865C171.292 85.9865 172.001 86.1573 172.633 86.4988C173.266 86.8278 173.759 87.3275 174.113 87.9979C174.48 88.6684 174.664 89.4844 174.664 90.4458V96.575H172.956V90.6925C172.956 89.6551 172.697 88.8645 172.178 88.3205C171.659 87.7639 170.951 87.4856 170.053 87.4856C169.142 87.4856 168.414 87.7702 167.87 88.3395C167.339 88.9088 167.073 89.7374 167.073 90.8253V96.575H165.347V82.5329H167.073V87.6564C167.415 87.125 167.883 86.7139 168.478 86.4229C169.085 86.132 169.762 85.9865 170.508 85.9865Z" fill="black" fill-opacity="0.4"/>
<path d="M209.576 85.2397L203.646 79.3098C203.567 79.2312 203.474 79.1688 203.371 79.1263C203.268 79.0838 203.158 79.0619 203.047 79.062H192.881C192.432 79.062 192.001 79.2405 191.683 79.5582C191.366 79.876 191.187 80.3069 191.187 80.7563V99.3931C191.187 99.8425 191.366 100.273 191.683 100.591C192.001 100.909 192.432 101.087 192.881 101.087H208.13C208.579 101.087 209.01 100.909 209.328 100.591C209.645 100.273 209.824 99.8425 209.824 99.3931V85.8391C209.824 85.7278 209.802 85.6176 209.76 85.5147C209.717 85.4119 209.655 85.3184 209.576 85.2397ZM203.894 81.9539L206.932 84.9919H203.894V81.9539ZM208.13 99.3931H192.881V80.7563H202.2V85.8391C202.2 86.0637 202.289 86.2792 202.448 86.4381C202.607 86.5969 202.822 86.6862 203.047 86.6862H208.13V99.3931Z" fill="black"/>
<path d="M228.761 93.6337H222.992L221.929 96.575H220.108L224.89 83.4248H226.882L231.645 96.575H229.823L228.761 93.6337ZM228.267 92.2295L225.876 85.5501L223.485 92.2295H228.267ZM242.951 86.1763V96.575H241.224V95.0379C240.895 95.5692 240.434 95.9867 239.839 96.2903C239.257 96.5813 238.612 96.7268 237.904 96.7268C237.094 96.7268 236.367 96.5623 235.721 96.2334C235.076 95.8918 234.564 95.3858 234.184 94.7153C233.818 94.0449 233.634 93.2289 233.634 92.2675V86.1763H235.342V92.0398C235.342 93.0644 235.601 93.8551 236.12 94.4117C236.639 94.9557 237.347 95.2277 238.245 95.2277C239.169 95.2277 239.896 94.943 240.427 94.3738C240.959 93.8045 241.224 92.9759 241.224 91.8879V86.1763H242.951ZM247.973 87.5994V93.7286C247.973 94.2346 248.081 94.5952 248.296 94.8102C248.511 95.0126 248.884 95.1138 249.415 95.1138H250.687V96.575H249.131C248.169 96.575 247.448 96.3536 246.967 95.9108C246.487 95.468 246.246 94.7406 246.246 93.7286V87.5994H244.899V86.1763H246.246V83.5576H247.973V86.1763H250.687V87.5994H247.973ZM257.314 96.7457C256.34 96.7457 255.454 96.5243 254.657 96.0816C253.873 95.6388 253.253 95.0126 252.798 94.203C252.355 93.3807 252.134 92.4319 252.134 91.3566C252.134 90.294 252.361 89.3579 252.817 88.5482C253.285 87.7259 253.917 87.0997 254.714 86.6696C255.511 86.2269 256.403 86.0055 257.39 86.0055C258.377 86.0055 259.268 86.2269 260.065 86.6696C260.862 87.0997 261.489 87.7196 261.944 88.5292C262.412 89.3389 262.646 90.2813 262.646 91.3566C262.646 92.4319 262.406 93.3807 261.925 94.203C261.457 95.0126 260.818 95.6388 260.009 96.0816C259.199 96.5243 258.301 96.7457 257.314 96.7457ZM257.314 95.2277C257.934 95.2277 258.516 95.0822 259.06 94.7912C259.604 94.5003 260.04 94.0638 260.369 93.4819C260.711 92.9 260.881 92.1916 260.881 91.3566C260.881 90.5217 260.717 89.8133 260.388 89.2313C260.059 88.6494 259.629 88.2193 259.098 87.941C258.566 87.65 257.991 87.5046 257.371 87.5046C256.738 87.5046 256.156 87.65 255.625 87.941C255.106 88.2193 254.689 88.6494 254.373 89.2313C254.056 89.8133 253.898 90.5217 253.898 91.3566C253.898 92.2042 254.05 92.919 254.354 93.5009C254.67 94.0828 255.088 94.5192 255.606 94.8102C256.125 95.0885 256.694 95.2277 257.314 95.2277ZM268.788 94.981L272.013 86.1763H273.854L269.774 96.575H267.763L263.683 86.1763H265.543L268.788 94.981ZM285.041 90.9771C285.041 91.306 285.022 91.6539 284.984 92.0208H276.673C276.736 93.0455 277.084 93.8488 277.717 94.4307C278.362 95 279.14 95.2846 280.051 95.2846C280.797 95.2846 281.417 95.1138 281.91 94.7723C282.416 94.418 282.77 93.95 282.973 93.3681H284.832C284.554 94.3674 283.998 95.1834 283.163 95.8159C282.328 96.4358 281.29 96.7457 280.051 96.7457C279.064 96.7457 278.178 96.5243 277.394 96.0816C276.622 95.6388 276.015 95.0126 275.572 94.203C275.13 93.3807 274.908 92.4319 274.908 91.3566C274.908 90.2813 275.123 89.3389 275.553 88.5292C275.983 87.7196 276.584 87.0997 277.356 86.6696C278.14 86.2269 279.039 86.0055 280.051 86.0055C281.037 86.0055 281.91 86.2205 282.669 86.6507C283.428 87.0808 284.01 87.6753 284.415 88.4344C284.832 89.1807 285.041 90.0283 285.041 90.9771ZM283.257 90.6166C283.257 89.9588 283.112 89.3958 282.821 88.9277C282.53 88.447 282.132 88.0865 281.626 87.8461C281.132 87.5931 280.582 87.4666 279.975 87.4666C279.102 87.4666 278.355 87.7449 277.736 88.3015C277.128 88.8582 276.78 89.6298 276.692 90.6166H283.257ZM289.047 87.8651C289.351 87.2705 289.781 86.8088 290.338 86.4799C290.907 86.151 291.596 85.9865 292.406 85.9865V87.7702H291.951C290.015 87.7702 289.047 88.8202 289.047 90.9202V96.575H287.321V86.1763H289.047V87.8651ZM298.081 96.7457C297.284 96.7457 296.569 96.6129 295.936 96.3472C295.304 96.0689 294.804 95.6894 294.437 95.2087C294.07 94.7153 293.868 94.1524 293.83 93.5199H295.614C295.664 94.0385 295.905 94.4623 296.335 94.7912C296.778 95.1201 297.353 95.2846 298.062 95.2846C298.719 95.2846 299.238 95.1391 299.618 94.8482C299.997 94.5572 300.187 94.1903 300.187 93.7476C300.187 93.2922 299.985 92.9569 299.58 92.7419C299.175 92.5141 298.549 92.2928 297.701 92.0777C296.929 91.8753 296.297 91.6729 295.804 91.4705C295.323 91.2554 294.905 90.9455 294.551 90.5407C294.21 90.1232 294.039 89.5792 294.039 88.9088C294.039 88.3774 294.197 87.8904 294.513 87.4476C294.829 87.0049 295.279 86.657 295.86 86.404C296.442 86.1383 297.107 86.0055 297.853 86.0055C299.004 86.0055 299.934 86.2964 300.642 86.8784C301.351 87.4603 301.73 88.2573 301.781 89.2693H300.054C300.016 88.7253 299.795 88.2889 299.39 87.96C298.998 87.6311 298.466 87.4666 297.796 87.4666C297.176 87.4666 296.683 87.5994 296.316 87.8651C295.949 88.1308 295.766 88.4786 295.766 88.9088C295.766 89.2503 295.873 89.535 296.088 89.7627C296.316 89.9777 296.594 90.1548 296.923 90.294C297.265 90.4205 297.733 90.566 298.327 90.7304C299.074 90.9328 299.681 91.1352 300.149 91.3377C300.617 91.5274 301.016 91.8184 301.344 92.2105C301.686 92.6027 301.863 93.115 301.876 93.7476C301.876 94.3168 301.718 94.8292 301.401 95.2846C301.085 95.74 300.636 96.1006 300.054 96.3662C299.485 96.6192 298.827 96.7457 298.081 96.7457ZM305.205 84.4874C304.876 84.4874 304.598 84.3736 304.37 84.1459C304.143 83.9181 304.029 83.6398 304.029 83.3109C304.029 82.982 304.143 82.7037 304.37 82.476C304.598 82.2483 304.876 82.1344 305.205 82.1344C305.522 82.1344 305.787 82.2483 306.002 82.476C306.23 82.7037 306.344 82.982 306.344 83.3109C306.344 83.6398 306.23 83.9181 306.002 84.1459C305.787 84.3736 305.522 84.4874 305.205 84.4874ZM306.04 86.1763V96.575H304.313V86.1763H306.04ZM308.338 91.3566C308.338 90.2813 308.553 89.3452 308.983 88.5482C309.413 87.7386 310.008 87.1124 310.767 86.6696C311.539 86.2269 312.418 86.0055 313.405 86.0055C314.682 86.0055 315.732 86.3154 316.555 86.9353C317.389 87.5552 317.94 88.4154 318.205 89.516H316.346C316.169 88.8835 315.821 88.3838 315.302 88.0169C314.796 87.65 314.164 87.4666 313.405 87.4666C312.418 87.4666 311.621 87.8082 311.014 88.4913C310.406 89.1618 310.103 90.1169 310.103 91.3566C310.103 92.609 310.406 93.5768 311.014 94.2599C311.621 94.943 312.418 95.2846 313.405 95.2846C314.164 95.2846 314.796 95.1075 315.302 94.7533C315.808 94.3991 316.156 93.893 316.346 93.2352H318.205C317.927 94.2979 317.371 95.1518 316.536 95.7969C315.701 96.4295 314.657 96.7457 313.405 96.7457C312.418 96.7457 311.539 96.5243 310.767 96.0816C310.008 95.6388 309.413 95.0126 308.983 94.203C308.553 93.3934 308.338 92.4446 308.338 91.3566ZM325.671 85.9865C326.455 85.9865 327.164 86.1573 327.796 86.4988C328.429 86.8278 328.922 87.3275 329.276 87.9979C329.643 88.6684 329.827 89.4844 329.827 90.4458V96.575H328.119V90.6925C328.119 89.6551 327.859 88.8645 327.341 88.3205C326.822 87.7639 326.114 87.4856 325.215 87.4856C324.305 87.4856 323.577 87.7702 323.033 88.3395C322.502 88.9088 322.236 89.7374 322.236 90.8253V96.575H320.51V82.5329H322.236V87.6564C322.578 87.125 323.046 86.7139 323.64 86.4229C324.248 86.132 324.925 85.9865 325.671 85.9865ZM342.135 90.9771C342.135 91.306 342.116 91.6539 342.078 92.0208H333.767C333.83 93.0455 334.178 93.8488 334.811 94.4307C335.456 95 336.234 95.2846 337.145 95.2846C337.891 95.2846 338.511 95.1138 339.004 94.7723C339.51 94.418 339.864 93.95 340.067 93.3681H341.926C341.648 94.3674 341.091 95.1834 340.257 95.8159C339.422 96.4358 338.384 96.7457 337.145 96.7457C336.158 96.7457 335.272 96.5243 334.488 96.0816C333.716 95.6388 333.109 95.0126 332.666 94.203C332.223 93.3807 332.002 92.4319 332.002 91.3566C332.002 90.2813 332.217 89.3389 332.647 88.5292C333.077 87.7196 333.678 87.0997 334.45 86.6696C335.234 86.2269 336.132 86.0055 337.145 86.0055C338.131 86.0055 339.004 86.2205 339.763 86.6507C340.522 87.0808 341.104 87.6753 341.509 88.4344C341.926 89.1807 342.135 90.0283 342.135 90.9771ZM340.351 90.6166C340.351 89.9588 340.206 89.3958 339.915 88.9277C339.624 88.447 339.226 88.0865 338.72 87.8461C338.226 87.5931 337.676 87.4666 337.069 87.4666C336.196 87.4666 335.449 87.7449 334.829 88.3015C334.222 88.8582 333.874 89.6298 333.786 90.6166H340.351ZM346.141 87.8651C346.445 87.2705 346.875 86.8088 347.432 86.4799C348.001 86.151 348.69 85.9865 349.5 85.9865V87.7702H349.045C347.109 87.7702 346.141 88.8202 346.141 90.9202V96.575H344.414V86.1763H346.141V87.8651ZM360.715 86.1763V96.575H358.989V95.0379C358.66 95.5692 358.198 95.9867 357.603 96.2903C357.022 96.5813 356.376 96.7268 355.668 96.7268C354.858 96.7268 354.131 96.5623 353.486 96.2334C352.841 95.8918 352.328 95.3858 351.949 94.7153C351.582 94.0449 351.398 93.2289 351.398 92.2675V86.1763H353.106V92.0398C353.106 93.0644 353.366 93.8551 353.884 94.4117C354.403 94.9557 355.111 95.2277 356.01 95.2277C356.933 95.2277 357.66 94.943 358.192 94.3738C358.723 93.8045 358.989 92.9759 358.989 91.8879V86.1763H360.715ZM368.698 85.9865C369.963 85.9865 370.987 86.3723 371.772 87.144C372.556 87.903 372.948 89.0036 372.948 90.4458V96.575H371.24V90.6925C371.24 89.6551 370.981 88.8645 370.462 88.3205C369.944 87.7639 369.235 87.4856 368.337 87.4856C367.426 87.4856 366.699 87.7702 366.155 88.3395C365.624 88.9088 365.358 89.7374 365.358 90.8253V96.575H363.631V86.1763H365.358V87.6564C365.699 87.125 366.161 86.7139 366.743 86.4229C367.338 86.132 367.989 85.9865 368.698 85.9865ZM380.057 86.0055C380.956 86.0055 381.74 86.2016 382.41 86.5937C383.093 86.9859 383.6 87.4793 383.928 88.0738V86.1763H385.674V96.8027C385.674 97.7514 385.472 98.5927 385.067 99.3264C384.662 100.073 384.08 100.655 383.321 101.072C382.575 101.49 381.702 101.698 380.703 101.698C379.336 101.698 378.198 101.376 377.287 100.731C376.376 100.085 375.838 99.2063 375.674 98.093H377.382C377.572 98.7255 377.964 99.2316 378.558 99.6111C379.153 100.003 379.868 100.199 380.703 100.199C381.651 100.199 382.423 99.902 383.018 99.3075C383.625 98.7129 383.928 97.878 383.928 96.8027V94.6205C383.587 95.2277 383.081 95.7337 382.41 96.1385C381.74 96.5433 380.956 96.7457 380.057 96.7457C379.134 96.7457 378.293 96.518 377.534 96.0626C376.787 95.6072 376.199 94.9683 375.769 94.1461C375.339 93.3238 375.124 92.3876 375.124 91.3377C375.124 90.275 375.339 89.3452 375.769 88.5482C376.199 87.7386 376.787 87.1124 377.534 86.6696C378.293 86.2269 379.134 86.0055 380.057 86.0055ZM383.928 91.3566C383.928 90.5723 383.77 89.8892 383.454 89.3073C383.138 88.7253 382.708 88.2826 382.164 87.979C381.632 87.6627 381.044 87.5046 380.399 87.5046C379.754 87.5046 379.166 87.6564 378.634 87.96C378.103 88.2636 377.679 88.7064 377.363 89.2883C377.047 89.8702 376.888 90.5533 376.888 91.3377C376.888 92.1346 377.047 92.8304 377.363 93.425C377.679 94.0069 378.103 94.456 378.634 94.7723C379.166 95.0759 379.754 95.2277 380.399 95.2277C381.044 95.2277 381.632 95.0759 382.164 94.7723C382.708 94.456 383.138 94.0069 383.454 93.425C383.77 92.8304 383.928 92.141 383.928 91.3566Z" fill="black"/>
<path d="M33.7309 148.372C33.7309 148.589 33.6448 148.797 33.4915 148.95C33.3383 149.104 33.1304 149.19 32.9136 149.19H24.7404V157.363C24.7404 157.58 24.6543 157.787 24.501 157.941C24.3477 158.094 24.1398 158.18 23.9231 158.18C23.7063 158.18 23.4984 158.094 23.3451 157.941C23.1919 157.787 23.1058 157.58 23.1058 157.363V149.19H14.9326C14.7158 149.19 14.5079 149.104 14.3546 148.95C14.2013 148.797 14.1152 148.589 14.1152 148.372C14.1152 148.156 14.2013 147.948 14.3546 147.794C14.5079 147.641 14.7158 147.555 14.9326 147.555H23.1058V139.382C23.1058 139.165 23.1919 138.957 23.3451 138.804C23.4984 138.651 23.7063 138.564 23.9231 138.564C24.1398 138.564 24.3477 138.651 24.501 138.804C24.6543 138.957 24.7404 139.165 24.7404 139.382V147.555H32.9136C33.1304 147.555 33.3383 147.641 33.4915 147.794C33.6448 147.948 33.7309 148.156 33.7309 148.372Z" fill="black"/>
<rect x="58.6841" y="130.936" width="34.8723" height="34.8723" rx="17.4362" fill="black"/>
<path d="M76.1185 153.275C77.4187 153.274 78.6652 152.756 79.5846 151.837C80.504 150.918 81.0211 149.671 81.0224 148.371V141.832C81.0224 140.532 80.5058 139.284 79.5861 138.365C78.6664 137.445 77.4191 136.928 76.1185 136.928C74.8179 136.928 73.5706 137.445 72.6509 138.365C71.7313 139.284 71.2146 140.532 71.2146 141.832V148.371C71.2159 149.671 71.733 150.918 72.6524 151.837C73.5718 152.756 74.8183 153.274 76.1185 153.275ZM72.8492 141.832C72.8492 140.965 73.1937 140.134 73.8068 139.521C74.4199 138.908 75.2514 138.563 76.1185 138.563C76.9856 138.563 77.8171 138.908 78.4302 139.521C79.0434 140.134 79.3878 140.965 79.3878 141.832V148.371C79.3878 149.238 79.0434 150.07 78.4302 150.683C77.8171 151.296 76.9856 151.64 76.1185 151.64C75.2514 151.64 74.4199 151.296 73.8068 150.683C73.1937 150.07 72.8492 149.238 72.8492 148.371V141.832ZM76.9358 156.503V159.813C76.9358 160.03 76.8497 160.238 76.6964 160.391C76.5432 160.545 76.3353 160.631 76.1185 160.631C75.9017 160.631 75.6939 160.545 75.5406 160.391C75.3873 160.238 75.3012 160.03 75.3012 159.813V156.503C73.2861 156.298 71.4187 155.353 70.06 153.851C68.7013 152.349 67.9478 150.396 67.9453 148.371C67.9453 148.154 68.0314 147.946 68.1847 147.793C68.338 147.64 68.5459 147.554 68.7626 147.554C68.9794 147.554 69.1873 147.64 69.3406 147.793C69.4938 147.946 69.58 148.154 69.58 148.371C69.58 150.105 70.2688 151.768 71.4951 152.994C72.7213 154.221 74.3844 154.91 76.1185 154.91C77.8527 154.91 79.5158 154.221 80.742 152.994C81.9682 151.768 82.6571 150.105 82.6571 148.371C82.6571 148.154 82.7432 147.946 82.8965 147.793C83.0497 147.64 83.2576 147.554 83.4744 147.554C83.6912 147.554 83.8991 147.64 84.0523 147.793C84.2056 147.946 84.2917 148.154 84.2917 148.371C84.2892 150.396 83.5358 152.349 82.1771 153.851C80.8183 155.353 78.9509 156.298 76.9358 156.503Z" fill="white"/>
<g>
<path d="M215.235 41.1755C214.091 38.8344 215.062 36.0097 217.403 34.8664C219.744 33.723 222.569 34.694 223.712 37.035L233.833 57.7584C234.977 60.0994 234.006 62.9241 231.665 64.0675C229.324 65.2108 226.499 64.2399 225.356 61.8988L215.235 41.1755Z" fill="#2C2D1C"/>
<path d="M208.17 44.6258C207.026 42.2848 207.997 39.4601 210.338 38.3167C212.68 37.1734 215.504 38.1443 216.648 40.4854L224.928 57.4409C226.072 59.7819 225.101 62.6066 222.76 63.7499C220.419 64.8933 217.594 63.9224 216.451 61.5813L208.17 44.6258Z" fill="#2C2D1C"/>
<path d="M209.867 38.5468L217.874 34.6364L220.635 40.2882L212.628 44.1986L209.867 38.5468Z" fill="#2C2D1C"/>
</g>
<defs>
</defs>
</svg>
