<svg width="225" height="249" viewBox="0 0 225 249" fill="none" xmlns="http://www.w3.org/2000/svg">
<g>
<ellipse cx="107.082" cy="168.903" rx="67.5134" ry="63.4626" fill="#D2D58B"/>
</g>
<g>
<path d="M89.388 235.849C86.7968 235.849 84.6963 233.748 84.6963 231.157C84.6963 228.566 86.7968 226.465 89.388 226.465L100.747 226.465C103.338 226.465 105.439 228.566 105.439 231.157C105.439 233.748 103.338 235.849 100.747 235.849L89.388 235.849Z" fill="#746B5E"/>
<path d="M84.71 230.567C84.71 228.658 86.2577 227.11 88.167 227.11C90.0763 227.11 91.6241 228.658 91.6241 230.567L91.6241 235.999C91.6241 237.909 90.0763 239.456 88.167 239.456C86.2577 239.456 84.71 237.909 84.71 235.999L84.71 230.567Z" fill="#746B5E"/>
<path d="M91.6201 230.568C91.6201 228.659 93.1679 227.111 95.0772 227.111C96.9864 227.111 98.5342 228.659 98.5342 230.568L98.5342 236.001C98.5342 237.91 96.9864 239.458 95.0772 239.458C93.1679 239.458 91.6201 237.91 91.6201 236.001L91.6201 230.568Z" fill="#746B5E"/>
<path d="M98.5386 230.567C98.5386 228.658 100.086 227.11 101.996 227.11C103.905 227.11 105.453 228.658 105.453 230.567L105.453 235.999C105.453 237.909 103.905 239.456 101.996 239.456C100.086 239.456 98.5386 237.909 98.5386 235.999L98.5386 230.567Z" fill="#746B5E"/>
</g>
<g>
<path d="M117.657 235.849C115.066 235.849 112.965 233.748 112.965 231.157C112.965 228.566 115.066 226.465 117.657 226.465L129.016 226.465C131.607 226.465 133.708 228.566 133.708 231.157C133.708 233.748 131.607 235.849 129.016 235.849L117.657 235.849Z" fill="#746B5E"/>
<path d="M112.98 230.569C112.98 228.659 114.528 227.112 116.437 227.112C118.346 227.112 119.894 228.659 119.894 230.569L119.894 236.001C119.894 237.91 118.346 239.458 116.437 239.458C114.528 239.458 112.98 237.91 112.98 236.001L112.98 230.569Z" fill="#746B5E"/>
<path d="M119.89 230.57C119.89 228.661 121.437 227.113 123.347 227.113C125.256 227.113 126.804 228.661 126.804 230.57L126.804 236.003C126.804 237.912 125.256 239.46 123.347 239.46C121.437 239.46 119.89 237.912 119.89 236.003L119.89 230.57Z" fill="#746B5E"/>
<path d="M126.809 230.572C126.809 228.662 128.356 227.115 130.266 227.115C132.175 227.115 133.723 228.662 133.723 230.572L133.723 236.004C133.723 237.913 132.175 239.461 130.266 239.461C128.356 239.461 126.809 237.913 126.809 236.004L126.809 230.572Z" fill="#746B5E"/>
</g>
<g>
<path d="M51.2381 129.768L48.4333 137.606C61.7491 127.566 86.882 109.729 78.7759 111.952C70.4172 114.244 57.6198 117.618 52.0056 118.111C47.5044 118.506 44.7942 112.373 40.947 115.146C37.8241 117.398 45.7735 133.236 51.2381 129.768Z" fill="#D2D58B"/>
</g>
<g>
<path d="M151.483 115.66L160.006 129.899C144.437 123.924 111.8 106.384 120.205 106.283C128.872 106.179 141.996 105.743 147.528 104.668C151.964 103.806 152.876 97.1622 157.339 98.7664C160.962 100.069 157.693 117.486 151.483 115.66Z" fill="#D2D58B"/>
</g>
<path d="M77.8132 162.108C87.8164 163.034 96.6784 155.658 97.6071 145.633C98.5358 135.608 91.1794 126.73 81.1763 125.803C71.1731 124.877 62.3111 132.252 61.3824 142.278C60.4538 152.303 67.8101 161.181 77.8132 162.108Z" fill="white"/>
<path d="M87.5572 154.485C92.2333 154.918 96.3759 151.47 96.81 146.784C97.2441 142.097 93.8054 137.947 89.1293 137.514C84.4533 137.081 80.3107 140.529 79.8766 145.215C79.4424 149.901 82.8812 154.052 87.5572 154.485Z" fill="#291505"/>
<path d="M90.9905 144.863C92.5769 145.01 93.9824 143.84 94.1297 142.25C94.2769 140.66 93.1103 139.252 91.5238 139.105C89.9374 138.958 88.532 140.128 88.3847 141.718C88.2374 143.308 89.4041 144.716 90.9905 144.863Z" fill="white"/>
<path d="M125.463 155.118C135.466 156.045 144.328 148.669 145.257 138.644C146.186 128.619 138.829 119.74 128.826 118.814C118.823 117.887 109.961 125.263 109.032 135.288C108.104 145.313 115.46 154.192 125.463 155.118Z" fill="white"/>
<path d="M118.661 149.922C123.337 150.355 127.48 146.907 127.914 142.22C128.348 137.534 124.909 133.384 120.233 132.951C115.557 132.518 111.415 135.966 110.981 140.652C110.546 145.338 113.985 149.488 118.661 149.922Z" fill="#291505"/>
<path d="M114.96 141.426C116.546 141.573 117.952 140.403 118.099 138.814C118.246 137.224 117.08 135.816 115.493 135.669C113.907 135.522 112.501 136.691 112.354 138.281C112.207 139.871 113.373 141.279 114.96 141.426Z" fill="white"/>
<path d="M103.805 154.297L106.612 153.885C110.156 153.365 111.928 153.105 112.763 154.159C113.599 155.212 112.942 156.878 111.629 160.211L110.601 162.819C109.297 166.13 108.644 167.786 107.32 167.99C105.996 168.193 104.876 166.81 102.636 164.045L100.857 161.848C98.5707 159.025 97.4274 157.613 97.9204 156.35C98.4134 155.088 100.211 154.824 103.805 154.297Z" fill="#37271A"/>
<mask id="mask0_6811_15629" style="mask-type:alpha" maskUnits="userSpaceOnUse" x="97" y="153" width="17" height="16">
<path d="M103.805 154.297L106.612 153.885C110.156 153.365 111.928 153.105 112.763 154.159C113.599 155.212 112.942 156.878 111.629 160.211L110.601 162.819C109.297 166.13 108.644 167.786 107.32 167.99C105.996 168.193 104.876 166.81 102.636 164.045L100.857 161.848C98.5707 159.025 97.4274 157.613 97.9204 156.35C98.4134 155.088 100.211 154.824 103.805 154.297Z" fill="#37271A"/>
</mask>
<g mask="url(#mask0_6811_15629)">
<ellipse cx="110.815" cy="160.413" rx="4.85928" ry="11.7717" transform="rotate(-6.37545 110.815 160.413)" fill="#443122"/>
</g>
<path d="M218.59 143.637C218.989 143.637 219.313 143.96 219.299 144.359C219.211 146.841 218.672 149.289 217.705 151.587C216.644 154.107 215.089 156.397 213.129 158.326C211.169 160.255 208.842 161.786 206.281 162.83C203.939 163.784 201.443 164.315 198.913 164.399C198.521 164.412 198.203 164.093 198.203 163.701C198.203 163.309 198.521 162.992 198.913 162.978C201.253 162.895 203.562 162.401 205.729 161.518C208.115 160.545 210.283 159.12 212.109 157.322C213.935 155.525 215.384 153.392 216.372 151.044C217.267 148.918 217.768 146.654 217.855 144.359C217.87 143.96 218.192 143.637 218.59 143.637Z" fill="#E7E2DB"/>
<path d="M208.758 108.427C208.989 108.103 208.915 107.651 208.582 107.431C206.511 106.061 204.205 105.078 201.772 104.531C199.104 103.931 196.337 103.867 193.628 104.342C190.92 104.818 188.323 105.823 185.985 107.302C183.848 108.654 181.966 110.378 180.429 112.388C180.191 112.7 180.266 113.144 180.585 113.372C180.904 113.599 181.346 113.524 181.585 113.214C183.012 111.357 184.755 109.764 186.733 108.513C188.91 107.136 191.33 106.199 193.853 105.756C196.377 105.313 198.955 105.373 201.44 105.932C203.691 106.438 205.825 107.344 207.744 108.607C208.077 108.826 208.527 108.751 208.758 108.427Z" fill="#E7E2DB"/>
<path d="M223.625 151.878C224.019 151.948 224.282 152.325 224.196 152.715C223.517 155.806 222.13 158.707 220.136 161.194C218.135 163.69 215.581 165.697 212.673 167.066C212.32 167.232 211.904 167.069 211.746 166.713C211.585 166.351 211.751 165.928 212.109 165.758C214.794 164.483 217.153 162.623 219.003 160.315C220.852 158.008 222.141 155.32 222.777 152.456C222.863 152.068 223.235 151.809 223.625 151.878Z" fill="#E7E2DB"/>
<path d="M204.973 99.5433C205.145 99.1823 204.991 98.7492 204.623 98.5923C201.713 97.3498 198.545 96.7947 195.362 96.9736C192.169 97.153 189.051 98.0659 186.248 99.6382C185.908 99.8289 185.799 100.263 185.997 100.598C186.198 100.94 186.639 101.05 186.985 100.857C189.583 99.4118 192.467 98.5723 195.42 98.4064C198.372 98.2406 201.309 98.7521 204.01 99.8982C204.375 100.053 204.802 99.9014 204.973 99.5433Z" fill="#E7E2DB"/>
<g>
<path d="M30.3155 171.944C29.589 167.486 32.6135 163.284 37.0709 162.557C41.5283 161.831 45.7308 164.855 46.4573 169.313L52.8886 208.77C53.6151 213.227 50.5906 217.43 46.1332 218.156C41.6757 218.883 37.4733 215.858 36.7468 211.401L30.3155 171.944Z" fill="#2C2D1C"/>
<path d="M43.767 169.751C43.0405 165.294 46.065 161.091 50.5224 160.365C54.9799 159.638 59.1823 162.663 59.9088 167.12L65.1708 199.403C65.8973 203.861 62.8728 208.063 58.4153 208.79C53.9579 209.516 49.7555 206.492 49.029 202.034L43.767 169.751Z" fill="#2C2D1C"/>
<path d="M36.1741 162.703L51.4192 160.219L53.1732 170.98L37.9281 173.465L36.1741 162.703Z" fill="#2C2D1C"/>
</g>
<g>
<path d="M169.946 160.371C166.569 163.37 161.4 163.064 158.401 159.687C155.402 156.311 155.708 151.142 159.084 148.143L188.974 121.594C192.351 118.595 197.519 118.901 200.519 122.277C203.518 125.654 203.212 130.822 199.835 133.821L169.946 160.371Z" fill="#2C2D1C"/>
<path d="M178.997 170.56C175.62 173.559 170.451 173.254 167.452 169.877C164.453 166.5 164.759 161.332 168.135 158.333L192.591 136.611C195.967 133.611 201.136 133.917 204.135 137.294C207.134 140.67 206.828 145.839 203.452 148.838L178.997 170.56Z" fill="#2C2D1C"/>
<path d="M168.056 170.556L157.798 159.008L165.95 151.767L176.207 163.316L168.056 170.556Z" fill="#2C2D1C"/>
</g>
<ellipse opacity="0.21" cx="110.083" cy="237.454" rx="62.3202" ry="11.3919" fill="#C0B7AC"/>
<g>
<circle cx="108.058" cy="17.0582" r="17.0582" fill="#D2D58B"/>
</g>
<g>
<rect x="174" y="43.9634" width="33.0812" height="11.028" rx="5.51398" transform="rotate(-17.5292 174 43.9634)" fill="#A0BEAD"/>
</g>
<g>
<rect x="177.324" y="54.48" width="33.0812" height="11.028" rx="5.51398" transform="rotate(-17.5292 177.324 54.48)" fill="#A0BEAD"/>
</g>
<g>
<rect x="180.644" y="64.9946" width="33.0812" height="11.028" rx="5.51398" transform="rotate(-17.5292 180.644 64.9946)" fill="#A0BEAD"/>
</g>
<g>
<path d="M18.4547 73.0441C20.2281 77.2535 18.2534 82.1036 14.044 83.877C9.83457 85.6504 4.98452 83.6757 3.21109 79.4663C1.43765 75.2569 3.4124 70.4068 7.62181 68.6334C11.8312 66.86 16.6813 68.8347 18.4547 73.0441Z" fill="#B6C4DB"/>
<path d="M24.8769 88.2878C26.6503 92.4972 24.6756 97.3472 20.4662 99.1206C16.2568 100.894 11.4067 98.9193 9.63328 94.7099C7.85985 90.5005 9.83457 85.6504 14.044 83.877C18.2534 82.1036 23.1035 84.0784 24.8769 88.2878Z" fill="#B6C4DB"/>
<path d="M33.6983 66.6219C35.4718 70.8313 33.497 75.6814 29.2876 77.4548C25.0782 79.2282 20.2281 77.2535 18.4547 73.0441C16.6813 68.8347 18.656 63.9846 22.8654 62.2112C27.0749 60.4378 31.9249 62.4125 33.6983 66.6219Z" fill="#B6C4DB"/>
<path d="M40.1205 81.8656C41.8939 86.075 39.9192 90.925 35.7098 92.6985C31.5004 94.4719 26.6503 92.4972 24.8769 88.2878C23.1035 84.0784 25.0782 79.2282 29.2876 77.4548C33.497 75.6814 38.3471 77.6562 40.1205 81.8656Z" fill="#B6C4DB"/>
<path d="M28.7777 77.5761C30.4587 81.5663 28.5868 86.1637 24.5967 87.8448C20.6065 89.5259 16.009 87.654 14.328 83.6638C12.6469 79.6737 14.5188 75.0762 18.509 73.3951C22.4991 71.7141 27.0966 73.586 28.7777 77.5761Z" fill="#B6C4DB"/>
</g>
<defs>
</defs>
</svg>
