<svg width="453" height="123" viewBox="0 0 453 123" fill="none" xmlns="http://www.w3.org/2000/svg">
<g>
<path d="M122.049 30.9021L153.254 22.5409L168.358 78.9105L125.41 90.4184L113.003 44.1148L122.049 30.9021Z" fill="white"/>
</g>
<g>
<rect x="136.573" y="32.7644" width="12.5053" height="12.5053" transform="rotate(-15 136.573 32.7644)" fill="#DED5C9"/>
</g>
<g>
<rect x="121.607" y="54.7559" width="32.6528" height="3.4737" transform="rotate(-15 121.607 54.7559)" fill="#DED5C9"/>
</g>
<g>
<rect x="123.405" y="61.4663" width="32.6528" height="3.4737" transform="rotate(-15 123.405 61.4663)" fill="#DED5C9"/>
</g>
<g>
<rect x="125.203" y="68.1772" width="32.6528" height="3.4737" transform="rotate(-15 125.203 68.1772)" fill="#DED5C9"/>
</g>
<g>
<rect x="127.001" y="74.8877" width="32.6528" height="3.4737" transform="rotate(-15 127.001 74.8877)" fill="#DED5C9"/>
</g>
<g>
<path d="M48.2716 81.1951L67.5931 70.0398L87.7447 104.943L61.1515 120.297L44.5985 91.6261L48.2716 81.1951Z" fill="white"/>
</g>
<g>
<rect x="58.2935" y="79.8411" width="8.63638" height="8.63638" transform="rotate(-30 58.2935 79.8411)" fill="#DED5C9"/>
</g>
<g>
<rect x="52.2397" y="97.1863" width="22.5505" height="2.39899" transform="rotate(-30 52.2397 97.1863)" fill="#DED5C9"/>
</g>
<g>
<rect x="54.6382" y="101.342" width="22.5505" height="2.39899" transform="rotate(-30 54.6382 101.342)" fill="#DED5C9"/>
</g>
<g>
<rect x="57.0381" y="105.496" width="22.5505" height="2.39899" transform="rotate(-30 57.0381 105.496)" fill="#DED5C9"/>
</g>
<g>
<rect x="59.436" y="109.652" width="22.5505" height="2.39899" transform="rotate(-30 59.436 109.652)" fill="#DED5C9"/>
</g>
<g>
<path d="M331.459 30.9021L300.254 22.5409L285.15 78.9105L328.098 90.4184L340.505 44.1148L331.459 30.9021Z" fill="white"/>
</g>
<g>
<rect width="12.5053" height="12.5053" transform="matrix(-0.965926 -0.258819 -0.258819 0.965926 316.935 32.7644)" fill="#DED5C9"/>
</g>
<g>
<rect width="32.6528" height="3.4737" transform="matrix(-0.965926 -0.258819 -0.258819 0.965926 331.901 54.7559)" fill="#DED5C9"/>
</g>
<g>
<rect width="32.6528" height="3.4737" transform="matrix(-0.965926 -0.258819 -0.258819 0.965926 330.104 61.4663)" fill="#DED5C9"/>
</g>
<g>
<rect width="32.6528" height="3.4737" transform="matrix(-0.965926 -0.258819 -0.258819 0.965926 328.305 68.1772)" fill="#DED5C9"/>
</g>
<g>
<rect width="32.6528" height="3.4737" transform="matrix(-0.965926 -0.258819 -0.258819 0.965926 326.507 74.8877)" fill="#DED5C9"/>
</g>
<g>
<path d="M406.117 80.4312L385.739 68.6663L364.486 105.477L392.533 121.67L409.991 91.4323L406.117 80.4312Z" fill="white"/>
</g>
<g>
<rect width="9.10834" height="9.10834" transform="matrix(-0.866025 -0.5 -0.5 0.866025 395.547 79.0032)" fill="#DED5C9"/>
</g>
<g>
<rect width="23.7829" height="2.53009" transform="matrix(-0.866025 -0.5 -0.5 0.866025 401.932 97.2961)" fill="#DED5C9"/>
</g>
<g>
<rect width="23.7829" height="2.53009" transform="matrix(-0.866025 -0.5 -0.5 0.866025 399.401 101.679)" fill="#DED5C9"/>
</g>
<g>
<rect width="23.7829" height="2.53009" transform="matrix(-0.866025 -0.5 -0.5 0.866025 396.871 106.061)" fill="#DED5C9"/>
</g>
<g>
<rect width="23.7829" height="2.53009" transform="matrix(-0.866025 -0.5 -0.5 0.866025 394.342 110.443)" fill="#DED5C9"/>
</g>
<path d="M255.077 50.7107V67.3723C255.077 83.0581 247.484 92.5642 241.114 97.7769C234.253 103.388 227.428 105.295 227.13 105.373C226.721 105.484 226.29 105.484 225.881 105.373C225.583 105.295 218.767 103.388 211.897 97.7769C205.545 92.5642 197.952 83.0581 197.952 67.3723V50.7107C197.952 49.4481 198.453 48.2373 199.346 47.3445C200.239 46.4517 201.45 45.9502 202.712 45.9502H250.317C251.579 45.9502 252.79 46.4517 253.683 47.3445C254.576 48.2373 255.077 49.4481 255.077 50.7107Z" fill="#B6C4DB"/>
<mask id="mask0_6781_17524" style="mask-type:alpha" maskUnits="userSpaceOnUse" x="197" y="45" width="59" height="61">
<path d="M255.077 50.7107V67.3723C255.077 83.0581 247.484 92.5642 241.114 97.7769C234.253 103.388 227.428 105.295 227.13 105.373C226.721 105.484 226.29 105.484 225.881 105.373C225.583 105.295 218.767 103.388 211.897 97.7769C205.545 92.5642 197.952 83.0581 197.952 67.3723V50.7107C197.952 49.4481 198.453 48.2373 199.346 47.3445C200.239 46.4517 201.45 45.9502 202.712 45.9502H250.317C251.579 45.9502 252.79 46.4517 253.683 47.3445C254.576 48.2373 255.077 49.4481 255.077 50.7107Z" fill="#B6C4DB"/>
</mask>
<g mask="url(#mask0_6781_17524)">
<path d="M198.103 46.1389H227.119C227.119 46.1389 225.91 60.8995 225.91 72.9722C225.91 85.045 227.119 107.798 227.119 107.798H198.103V46.1389Z" fill="#A7B7D2"/>
</g>
<path d="M240.562 66.0804L223.636 83.0065C223.538 83.1049 223.421 83.1829 223.293 83.2361C223.164 83.2894 223.027 83.3168 222.887 83.3168C222.748 83.3168 222.611 83.2894 222.482 83.2361C222.354 83.1829 222.237 83.1049 222.139 83.0065L214.734 75.6013C214.535 75.4028 214.424 75.1336 214.424 74.8529C214.424 74.5721 214.535 74.3029 214.734 74.1044C214.932 73.9059 215.202 73.7944 215.482 73.7944C215.763 73.7944 216.032 73.9059 216.231 74.1044L222.887 80.7625L239.065 64.5835C239.264 64.385 239.533 64.2734 239.814 64.2734C240.094 64.2734 240.364 64.385 240.562 64.5835C240.761 64.782 240.872 65.0512 240.872 65.3319C240.872 65.6126 240.761 65.8819 240.562 66.0804Z" fill="#19234A"/>
<g>
<path d="M227.065 11.7803C227.062 17.9187 222.084 22.8929 215.946 22.8905C209.807 22.8881 204.833 17.9099 204.835 11.7715C204.838 5.63314 209.816 0.658943 215.954 0.661363C222.093 0.663782 227.067 5.6419 227.065 11.7803Z" fill="#B6C4DB"/>
<path d="M227.056 34.0095C227.053 40.1479 222.075 45.1221 215.937 45.1197C209.798 45.1173 204.824 40.1392 204.827 34.0008C204.829 27.8623 209.807 22.8881 215.946 22.8905C222.084 22.8929 227.058 27.8711 227.056 34.0095Z" fill="#B6C4DB"/>
<path d="M249.294 11.7891C249.291 17.9275 244.313 22.9017 238.175 22.8992C232.036 22.8968 227.062 17.9187 227.065 11.7803C227.067 5.6419 232.045 0.667704 238.184 0.670123C244.322 0.672542 249.296 5.65066 249.294 11.7891Z" fill="#B6C4DB"/>
<path d="M249.285 34.0183C249.283 40.1567 244.304 45.1309 238.166 45.1284C232.028 45.126 227.053 40.1479 227.056 34.0095C227.058 27.8711 232.036 22.8968 238.175 22.8992C244.313 22.9017 249.287 27.8799 249.285 34.0183Z" fill="#B6C4DB"/>
<path d="M237.48 22.7831C237.478 28.6018 232.759 33.317 226.94 33.3147C221.121 33.3124 216.406 28.5935 216.409 22.7748C216.411 16.9561 221.13 12.241 226.948 12.2433C232.767 12.2456 237.482 16.9644 237.48 22.7831Z" fill="#B6C4DB"/>
</g>
<path d="M211.903 46.0876C210.971 46.0872 210.216 45.3318 210.216 44.4002V44.4002C210.217 43.4687 210.972 42.7138 211.904 42.7142L215.987 42.7158C216.919 42.7162 217.674 43.4716 217.673 44.4032V44.4032C217.673 45.3347 216.918 46.0896 215.986 46.0892L211.903 46.0876Z" fill="#746B5E"/>
<path d="M210.221 44.1906C210.221 43.5042 210.778 42.948 211.465 42.9482V42.9482C212.151 42.9485 212.707 43.5052 212.707 44.1916L212.706 46.1446C212.706 46.831 212.149 47.3872 211.463 47.3869V47.3869C210.776 47.3866 210.22 46.83 210.22 46.1436L210.221 44.1906Z" fill="#746B5E"/>
<path d="M212.707 44.1911C212.707 43.5047 213.263 42.9485 213.95 42.9487V42.9487C214.636 42.949 215.192 43.5057 215.192 44.1921L215.191 46.1451C215.191 46.8315 214.635 47.3877 213.948 47.3874V47.3874C213.262 47.3871 212.706 46.8305 212.706 46.1441L212.707 44.1911Z" fill="#746B5E"/>
<path d="M215.193 44.1925C215.193 43.5061 215.75 42.9499 216.436 42.9502V42.9502C217.123 42.9505 217.679 43.5071 217.679 44.1935L217.678 46.1465C217.677 46.8329 217.121 47.3891 216.434 47.3889V47.3889C215.748 47.3886 215.192 46.8319 215.192 46.1456L215.193 44.1925Z" fill="#746B5E"/>
<path d="M235.231 46.0988C234.299 46.0984 233.544 45.343 233.545 44.4114V44.4114C233.545 43.4799 234.3 42.725 235.232 42.7254L239.316 42.727C240.247 42.7274 241.002 43.4829 241.002 44.4144V44.4144C241.001 45.3459 240.246 46.1008 239.314 46.1004L235.231 46.0988Z" fill="#746B5E"/>
<path d="M233.549 44.1996C233.55 43.5132 234.106 42.957 234.793 42.9573V42.9573C235.479 42.9575 236.035 43.5142 236.035 44.2006L236.034 46.1536C236.034 46.84 235.477 47.3962 234.791 47.396V47.396C234.104 47.3957 233.548 46.839 233.549 46.1526L233.549 44.1996Z" fill="#746B5E"/>
<path d="M236.034 44.2016C236.034 43.5152 236.591 42.959 237.277 42.9592V42.9592C237.964 42.9595 238.52 43.5162 238.52 44.2025L238.519 46.1556C238.519 46.842 237.962 47.3982 237.276 47.3979V47.3979C236.589 47.3976 236.033 46.841 236.033 46.1546L236.034 44.2016Z" fill="#746B5E"/>
<path d="M238.521 44.2021C238.522 43.5157 239.078 42.9594 239.765 42.9597V42.9597C240.451 42.96 241.007 43.5166 241.007 44.203L241.006 46.1561C241.006 46.8424 240.449 47.3987 239.763 47.3984V47.3984C239.077 47.3981 238.52 46.8415 238.521 46.1551L238.521 44.2021Z" fill="#746B5E"/>
<g>
<path d="M206.649 5.97026L205.268 8.52942C210.402 5.68326 220.025 0.790492 217.091 1.16771C214.065 1.55668 209.469 2.04838 207.488 1.94486C205.9 1.86192 205.256 -0.408923 203.779 0.36913C202.58 1.00073 204.574 6.91119 206.649 5.97026Z" fill="#B6C4DB"/>
</g>
<g>
<path d="M247.061 5.97026L248.442 8.52942C243.308 5.68326 233.684 0.790492 236.619 1.16771C239.645 1.55668 244.24 2.04838 246.221 1.94486C247.81 1.86192 248.454 -0.408923 249.931 0.36913C251.13 1.00073 249.136 6.91119 247.061 5.97026Z" fill="#B6C4DB"/>
</g>
<g>
<path d="M209.329 22.2579C210.453 23.382 210.453 25.2044 209.329 26.3285C208.205 27.4526 206.382 27.4526 205.258 26.3285L195.308 16.3782C194.184 15.2541 194.184 13.4317 195.308 12.3076C196.432 11.1835 198.255 11.1835 199.379 12.3076L209.329 22.2579Z" fill="#19234A"/>
<path d="M205.937 25.6501C207.061 26.7741 207.061 28.5966 205.937 29.7207C204.813 30.8447 202.99 30.8447 201.866 29.7207L193.725 21.5795C192.601 20.4554 192.601 18.633 193.725 17.5089C194.849 16.3848 196.672 16.3848 197.796 17.5089L205.937 25.6501Z" fill="#19234A"/>
<path d="M209.555 26.1024L205.711 29.9468L202.997 27.2331L206.841 23.3886L209.555 26.1024Z" fill="#19234A"/>
</g>
<g>
<path d="M248.393 26.3286C247.269 27.4527 245.446 27.4527 244.322 26.3286C243.198 25.2046 243.198 23.3821 244.322 22.2581L254.272 12.3077C255.396 11.1837 257.219 11.1837 258.343 12.3077C259.467 13.4318 259.467 15.2543 258.343 16.3783L248.393 26.3286Z" fill="#19234A"/>
<path d="M251.785 29.7208C250.661 30.8449 248.838 30.8449 247.714 29.7208C246.59 28.5967 246.59 26.7743 247.714 25.6502L255.855 17.509C256.979 16.385 258.802 16.385 259.926 17.509C261.05 18.6331 261.05 20.4556 259.926 21.5796L251.785 29.7208Z" fill="#19234A"/>
<path d="M247.94 29.947L244.096 26.1025L246.81 23.3888L250.654 27.2332L247.94 29.947Z" fill="#19234A"/>
</g>
<path d="M217.082 18.5651C220.519 19.3988 223.982 17.2829 224.817 13.8389C225.653 10.395 223.545 6.92731 220.108 6.09358C216.672 5.25985 213.209 7.37584 212.373 10.8198C211.538 14.2637 213.646 17.7314 217.082 18.5651Z" fill="white"/>
<path d="M220.865 16.4081C222.472 16.7979 224.09 15.8087 224.481 14.1988C224.872 12.589 223.886 10.968 222.28 10.5782C220.673 10.1885 219.054 11.1776 218.664 12.7875C218.273 14.3974 219.259 16.0184 220.865 16.4081Z" fill="#291505"/>
<path d="M222.552 13.2324C223.097 13.3647 223.647 13.0291 223.779 12.4829C223.912 11.9367 223.577 11.3868 223.032 11.2545C222.487 11.1223 221.938 11.4579 221.805 12.0041C221.673 12.5503 222.007 13.1002 222.552 13.2324Z" fill="white"/>
<path d="M234.034 18.5651C237.471 19.3988 240.934 17.2829 241.769 13.8389C242.605 10.395 240.496 6.92731 237.06 6.09358C233.624 5.25985 230.161 7.37584 229.325 10.8198C228.489 14.2637 230.598 17.7314 234.034 18.5651Z" fill="white"/>
<path d="M231.931 16.4079C233.537 16.7976 235.156 15.8085 235.546 14.1986C235.937 12.5887 234.951 10.9677 233.345 10.578C231.739 10.1883 230.12 11.1774 229.729 12.7873C229.339 14.3971 230.324 16.0182 231.931 16.4079Z" fill="#291505"/>
<path d="M231.075 13.2603C231.62 13.3925 232.169 13.0569 232.302 12.5107C232.434 11.9646 232.1 11.4146 231.555 11.2824C231.01 11.1502 230.461 11.4857 230.328 12.0319C230.196 12.5781 230.53 13.128 231.075 13.2603Z" fill="white"/>
<path d="M226.533 17.1726L227.532 17.1726C228.793 17.1726 229.423 17.1726 229.66 17.5822C229.897 17.9918 229.584 18.5385 228.956 19.6319L228.465 20.4878C227.841 21.5743 227.529 22.1175 227.058 22.1209C226.586 22.1242 226.267 21.5853 225.628 20.5077L225.121 19.6518C224.469 18.5518 224.143 18.0018 224.379 17.5872C224.615 17.1726 225.255 17.1726 226.533 17.1726Z" fill="#37271A"/>
<mask id="mask1_6781_17524" style="mask-type:alpha" maskUnits="userSpaceOnUse" x="224" y="17" width="6" height="6">
<path d="M226.533 17.1726L227.532 17.1726C228.793 17.1726 229.423 17.1726 229.66 17.5822C229.897 17.9918 229.584 18.5385 228.956 19.6319L228.465 20.4878C227.841 21.5743 227.529 22.1175 227.058 22.1209C226.586 22.1242 226.267 21.5853 225.628 20.5077L225.121 19.6518C224.469 18.5518 224.143 18.0018 224.379 17.5872C224.615 17.1726 225.255 17.1726 226.533 17.1726Z" fill="#37271A"/>
</mask>
<g mask="url(#mask1_6781_17524)">
<ellipse cx="228.662" cy="19.661" rx="1.7104" ry="4.14348" transform="rotate(1.96959 228.662 19.661)" fill="#443122"/>
</g>
<defs>
</defs>
</svg>
