<svg width="856" height="167" viewBox="0 0 856 167" fill="none" xmlns="http://www.w3.org/2000/svg">
<g filter="url(#filter0_g_10715_17130)">
<rect x="3.5" y="3.5" width="161.148" height="46.3091" rx="23.1546" fill="#A8AC4A"/>
</g>
<g filter="url(#filter1_g_10715_17130)">
<rect x="3.5" y="57.8086" width="161.148" height="46.3091" rx="23.1546" fill="#A8AC4A"/>
</g>
<g filter="url(#filter2_g_10715_17130)">
<rect x="3.5" y="112.117" width="161.148" height="46.3091" rx="23.1546" fill="#A8AC4A"/>
</g>
<g filter="url(#filter3_g_10715_17130)">
<path d="M308.961 35.5C318.734 35.5 326.114 38.0239 331.103 43.0716C336.144 48.0677 338.664 56.1029 338.664 67.1769V121.5C338.664 122.605 337.769 123.5 336.664 123.5H317.056C315.952 123.5 315.056 122.605 315.056 121.5V73.0487C315.056 66.8679 314.002 62.2065 311.893 59.0645C309.784 55.9226 306.518 54.3516 302.095 54.3516C295.872 54.3516 291.449 56.5922 288.825 61.0733C286.202 65.5029 284.891 71.8641 284.891 80.1567V121.5C284.891 122.605 283.995 123.5 282.891 123.5H263.36C262.256 123.5 261.36 122.605 261.36 121.5V73.0487C261.36 68.9282 260.897 65.4772 259.971 62.6958C259.046 59.9144 257.631 57.8284 255.728 56.4377C253.825 55.047 251.382 54.3516 248.399 54.3516C244.027 54.3516 240.581 55.459 238.061 57.6738C235.592 59.8371 233.818 63.0563 232.738 67.3314C231.709 71.555 231.195 76.7315 231.195 82.8608V121.5C231.195 122.605 230.299 123.5 229.195 123.5H209.664C208.559 123.5 207.664 122.605 207.664 121.5V39.1225C207.664 38.0179 208.559 37.1225 209.664 37.1225H224.132C225.025 37.1225 225.809 37.7139 226.055 38.572L228.598 47.4546C228.719 47.8785 229.107 48.1708 229.548 48.1708C229.899 48.1708 230.222 47.9838 230.406 47.6847C232.104 44.9197 234.193 42.6609 236.672 40.9083C239.347 39.054 242.279 37.6891 245.467 36.8134C248.656 35.9378 251.896 35.5 255.188 35.5C261.514 35.5 266.864 36.5301 271.235 38.5904C275.34 40.5025 278.559 43.3904 280.892 47.2543C281.229 47.8121 281.824 48.1708 282.476 48.1708C283.111 48.1708 283.694 47.8297 284.035 47.2937C286.566 43.3137 290.014 40.3869 294.38 38.5132C299.112 36.5044 303.972 35.5 308.961 35.5Z" fill="#A8AC4A"/>
</g>
<g filter="url(#filter4_g_10715_17130)">
<path d="M529.951 123.952C529.012 123.952 528.199 123.298 527.998 122.381L521.696 93.684C521.336 91.8778 520.743 89.22 519.919 85.7107C519.094 82.1497 518.193 78.3566 517.214 74.3312C516.286 70.2542 515.41 66.4869 514.586 63.0292C513.866 59.8064 513.325 57.3906 512.962 55.7818C512.918 55.5834 512.741 55.4429 512.538 55.4429C512.335 55.4429 512.159 55.5834 512.114 55.7818C511.752 57.3906 511.21 59.8064 510.49 63.0292C509.717 66.4869 508.841 70.2542 507.863 74.3312C506.935 78.4082 506.059 82.253 505.235 85.8655C504.411 89.4264 503.792 92.1358 503.38 93.9937L496.784 122.404C496.574 123.31 495.766 123.952 494.836 123.952H472.587C471.693 123.952 470.907 123.358 470.663 122.498L447.223 39.9524C446.86 38.6755 447.82 37.4061 449.147 37.4061H468.448C469.358 37.4061 470.154 38.0212 470.383 38.9025L479.963 75.7246C480.633 78.4082 481.277 81.6079 481.896 85.3236C482.514 88.9877 483.055 92.5486 483.518 96.0063C484.009 99.2476 484.382 101.858 484.639 103.837C484.661 104.008 484.806 104.135 484.978 104.135C485.157 104.135 485.305 103.996 485.319 103.817C485.428 102.361 485.626 100.48 485.914 98.1739C486.275 95.6967 486.661 93.1421 487.073 90.5101C487.537 87.8266 487.949 85.4268 488.31 83.3109C488.722 81.1434 489.031 79.6726 489.237 78.8985L499.516 38.9082C499.744 38.0241 500.541 37.4061 501.453 37.4061H524.299C525.221 37.4061 526.023 38.0363 526.242 38.932L535.993 78.8985C536.354 80.3951 536.818 82.769 537.385 86.0203C538.003 89.2716 538.544 92.6261 539.008 96.0838C539.446 99.3067 539.701 101.883 539.77 103.812C539.777 103.992 539.924 104.135 540.104 104.135C540.272 104.135 540.413 104.009 540.433 103.842C540.644 102.095 540.993 99.5865 541.481 96.316C541.996 92.8583 542.588 89.2458 543.258 85.4784C543.979 81.6595 544.701 78.4082 545.422 75.7246L555.378 38.8843C555.614 38.012 556.405 37.4061 557.309 37.4061H576.229C577.559 37.4061 578.519 38.6804 578.151 39.9588L554.417 122.504C554.17 123.361 553.386 123.952 552.494 123.952H529.951Z" fill="#A8AC4A"/>
<path d="M627.269 35.6256C638.862 35.6256 647.749 38.1544 653.932 43.2119C660.114 48.2695 663.206 55.959 663.206 66.2805V121.952C663.206 123.056 662.31 123.952 661.206 123.952H648.114C647.289 123.952 646.548 123.444 646.249 122.674L642.316 112.524C642.237 112.32 642.04 112.185 641.822 112.185C641.66 112.185 641.508 112.259 641.407 112.384C638.985 115.39 636.513 117.853 633.993 119.772C631.417 121.733 628.454 123.178 625.105 124.107C621.756 125.036 617.686 125.5 612.895 125.5C607.794 125.5 603.208 124.519 599.138 122.558C595.12 120.597 591.951 117.604 589.632 113.579C587.314 109.502 586.155 104.341 586.155 98.0964C586.155 88.9103 589.375 82.1497 595.815 77.8147C602.255 73.4281 611.916 71.0025 624.796 70.5381L637.851 70.1336C638.931 70.1002 639.789 69.2151 639.789 68.1346V66.2805C639.789 61.739 638.604 58.4103 636.234 56.2944C633.864 54.1785 630.567 53.1206 626.342 53.1206C622.168 53.1206 618.072 53.714 614.054 54.901C610.626 55.9134 607.198 57.1511 603.771 58.6141C602.778 59.0377 601.621 58.6216 601.147 57.6525L595.044 45.1851C594.569 44.2149 594.949 43.0397 595.92 42.5669C600.055 40.5537 604.606 38.9366 609.571 37.7157C615.29 36.3223 621.19 35.6256 627.269 35.6256ZM639.789 85.9219C639.789 84.7907 638.852 83.8846 637.721 83.923L630.67 84.1624C623.044 84.3689 617.738 85.7365 614.749 88.2652C611.813 90.794 610.344 94.1227 610.344 98.2513C610.344 101.864 611.4 104.444 613.513 105.992C615.625 107.489 618.382 108.237 621.782 108.237C626.831 108.237 631.082 106.741 634.534 103.747C638.037 100.754 639.789 96.4966 639.789 90.9746V85.9219Z" fill="#A8AC4A"/>
<path d="M705.121 121.952C705.121 123.056 704.226 123.952 703.121 123.952H683.55C682.445 123.952 681.55 123.056 681.55 121.952V5.5C681.55 4.39543 682.445 3.5 683.55 3.5H703.121C704.226 3.5 705.121 4.39543 705.121 5.5V121.952Z" fill="#A8AC4A"/>
<path d="M748.5 121.952C748.5 123.056 747.605 123.952 746.5 123.952H726.929C725.824 123.952 724.929 123.056 724.929 121.952V5.5C724.929 4.39543 725.824 3.5 726.929 3.5H746.5C747.605 3.5 748.5 4.39543 748.5 5.5V121.952Z" fill="#A8AC4A"/>
</g>
<g filter="url(#filter5_g_10715_17130)">
<path d="M799.446 163.024C798.5 163.52 797.352 163.106 796.871 162.152L789.483 147.497C789.051 146.64 789.302 145.607 789.959 144.908C791.406 143.37 792.661 141.199 793.727 138.394L795.38 133.973C795.545 133.531 795.549 133.046 795.391 132.602L762.286 39.5257C761.823 38.2236 762.788 36.8555 764.17 36.8555H783.502C784.382 36.8555 785.158 37.43 785.415 38.271L806.638 107.726C806.723 108.006 806.982 108.197 807.275 108.197C807.567 108.197 807.826 108.006 807.911 107.726L829.194 38.2695C829.452 37.4292 830.228 36.8555 831.107 36.8555H850.497C851.88 36.8555 852.846 38.2263 852.38 39.5289L815.464 142.761C813.699 147.763 811.359 152.047 808.444 155.614C805.933 158.723 802.933 161.193 799.446 163.024Z" fill="#A8AC4A"/>
</g>
<g filter="url(#filter6_g_10715_17130)">
<path d="M382.61 163.024C381.665 163.52 380.516 163.106 380.035 162.152L372.647 147.497C372.215 146.64 372.466 145.607 373.124 144.908C374.57 143.37 375.826 141.199 376.891 138.394L378.544 133.973C378.709 133.531 378.713 133.046 378.555 132.602L345.45 39.5257C344.987 38.2236 345.952 36.8555 347.334 36.8555H366.666C367.546 36.8555 368.322 37.43 368.579 38.271L389.802 107.726C389.887 108.006 390.146 108.197 390.439 108.197C390.731 108.197 390.99 108.006 391.075 107.726L412.359 38.2695C412.616 37.4292 413.392 36.8555 414.271 36.8555H433.661C435.044 36.8555 436.01 38.2263 435.544 39.5289L398.629 142.761C396.863 147.763 394.523 152.047 391.608 155.614C389.097 158.723 386.097 161.193 382.61 163.024Z" fill="#A8AC4A"/>
</g>
<defs>
<filter id="filter0_g_10715_17130" x="0" y="0" width="168.148" height="53.3086" filterUnits="userSpaceOnUse" color-interpolation-filters="sRGB">
<feFlood flood-opacity="0" result="BackgroundImageFix"/>
<feBlend mode="normal" in="SourceGraphic" in2="BackgroundImageFix" result="shape"/>
<feTurbulence type="fractalNoise" baseFrequency="0.095238097012042999 0.095238097012042999" numOctaves="3" seed="2822" />
<feDisplacementMap in="shape" scale="7" xChannelSelector="R" yChannelSelector="G" result="displacedImage" width="100%" height="100%" />
<feMerge result="effect1_texture_10715_17130">
<feMergeNode in="displacedImage"/>
</feMerge>
</filter>
<filter id="filter1_g_10715_17130" x="0" y="54.3086" width="168.148" height="53.3086" filterUnits="userSpaceOnUse" color-interpolation-filters="sRGB">
<feFlood flood-opacity="0" result="BackgroundImageFix"/>
<feBlend mode="normal" in="SourceGraphic" in2="BackgroundImageFix" result="shape"/>
<feTurbulence type="fractalNoise" baseFrequency="0.095238097012042999 0.095238097012042999" numOctaves="3" seed="2822" />
<feDisplacementMap in="shape" scale="7" xChannelSelector="R" yChannelSelector="G" result="displacedImage" width="100%" height="100%" />
<feMerge result="effect1_texture_10715_17130">
<feMergeNode in="displacedImage"/>
</feMerge>
</filter>
<filter id="filter2_g_10715_17130" x="0" y="108.617" width="168.148" height="53.3086" filterUnits="userSpaceOnUse" color-interpolation-filters="sRGB">
<feFlood flood-opacity="0" result="BackgroundImageFix"/>
<feBlend mode="normal" in="SourceGraphic" in2="BackgroundImageFix" result="shape"/>
<feTurbulence type="fractalNoise" baseFrequency="0.095238097012042999 0.095238097012042999" numOctaves="3" seed="2822" />
<feDisplacementMap in="shape" scale="7" xChannelSelector="R" yChannelSelector="G" result="displacedImage" width="100%" height="100%" />
<feMerge result="effect1_texture_10715_17130">
<feMergeNode in="displacedImage"/>
</feMerge>
</filter>
<filter id="filter3_g_10715_17130" x="204.164" y="32" width="138" height="95" filterUnits="userSpaceOnUse" color-interpolation-filters="sRGB">
<feFlood flood-opacity="0" result="BackgroundImageFix"/>
<feBlend mode="normal" in="SourceGraphic" in2="BackgroundImageFix" result="shape"/>
<feTurbulence type="fractalNoise" baseFrequency="0.095238097012042999 0.095238097012042999" numOctaves="3" seed="2822" />
<feDisplacementMap in="shape" scale="7" xChannelSelector="R" yChannelSelector="G" result="displacedImage" width="100%" height="100%" />
<feMerge result="effect1_texture_10715_17130">
<feMergeNode in="displacedImage"/>
</feMerge>
</filter>
<filter id="filter4_g_10715_17130" x="443.646" y="0" width="308.354" height="129" filterUnits="userSpaceOnUse" color-interpolation-filters="sRGB">
<feFlood flood-opacity="0" result="BackgroundImageFix"/>
<feBlend mode="normal" in="SourceGraphic" in2="BackgroundImageFix" result="shape"/>
<feTurbulence type="fractalNoise" baseFrequency="0.095238097012042999 0.095238097012042999" numOctaves="3" seed="2822" />
<feDisplacementMap in="shape" scale="7" xChannelSelector="R" yChannelSelector="G" result="displacedImage" width="100%" height="100%" />
<feMerge result="effect1_texture_10715_17130">
<feMergeNode in="displacedImage"/>
</feMerge>
</filter>
<filter id="filter5_g_10715_17130" x="758.668" y="33.3555" width="97.3301" height="133.379" filterUnits="userSpaceOnUse" color-interpolation-filters="sRGB">
<feFlood flood-opacity="0" result="BackgroundImageFix"/>
<feBlend mode="normal" in="SourceGraphic" in2="BackgroundImageFix" result="shape"/>
<feTurbulence type="fractalNoise" baseFrequency="0.095238097012042999 0.095238097012042999" numOctaves="3" seed="2822" />
<feDisplacementMap in="shape" scale="7" xChannelSelector="R" yChannelSelector="G" result="displacedImage" width="100%" height="100%" />
<feMerge result="effect1_texture_10715_17130">
<feMergeNode in="displacedImage"/>
</feMerge>
</filter>
<filter id="filter6_g_10715_17130" x="341.832" y="33.3555" width="97.3301" height="133.379" filterUnits="userSpaceOnUse" color-interpolation-filters="sRGB">
<feFlood flood-opacity="0" result="BackgroundImageFix"/>
<feBlend mode="normal" in="SourceGraphic" in2="BackgroundImageFix" result="shape"/>
<feTurbulence type="fractalNoise" baseFrequency="0.095238097012042999 0.095238097012042999" numOctaves="3" seed="2822" />
<feDisplacementMap in="shape" scale="7" xChannelSelector="R" yChannelSelector="G" result="displacedImage" width="100%" height="100%" />
<feMerge result="effect1_texture_10715_17130">
<feMergeNode in="displacedImage"/>
</feMerge>
</filter>
</defs>
</svg>
