<svg width="138" height="26" viewBox="0 0 138 26" fill="none" xmlns="http://www.w3.org/2000/svg">
<path d="M34.2076 3.28977L34.1926 21.8298H32.4718H30.751L30.766 3.28977H34.2076Z" fill="#4F5125"/>
<path d="M40.1966 9.08125V21.8225H36.755V9.08125H40.1966ZM36.3049 5.32474C36.3049 4.16644 37.2845 3.26555 38.4758 3.26555C39.6671 3.26555 40.6467 4.16644 40.6467 5.32474C40.6467 6.48304 39.6671 7.38394 38.4758 7.38394C37.2845 7.38394 36.3049 6.48304 36.3049 5.32474Z" fill="#4F5125"/>
<path d="M53.0446 4.22038L51.668 6.56271C51.2709 6.30531 50.7679 6.12513 50.2384 6.12513C49.7089 6.12513 49.2589 6.35679 49.0206 6.66567C48.8088 6.92307 48.6764 7.25769 48.6764 8.15858V9.21392H52.5152V11.9166H48.6764V25.6066H45.2348V11.9166H42.1903V9.21392H45.2348V8.18432C45.2348 6.22809 45.8172 4.96683 46.8232 4.1689C47.6175 3.5254 48.65 3.16504 49.8148 3.16504C51.112 3.16504 52.2239 3.55114 53.0446 4.22038Z" fill="#4F5125"/>
<path d="M63.5614 17.7964L65.4675 19.7526C64.1703 21.194 62.1583 21.992 60.0933 21.992C56.3075 21.992 53.4748 19.3922 53.4748 15.5055C53.4748 12.0306 55.831 8.9933 59.7227 8.9933C63.4025 8.9933 65.7852 11.9019 65.7852 15.3768C65.7852 15.7114 65.7587 16.046 65.7058 16.3292H56.784C56.9694 18.0795 58.4519 19.1606 60.2786 19.1606C61.7347 19.1606 62.8995 18.4141 63.5614 17.7964ZM56.8899 14.0126H62.3436C62.2377 12.8286 61.2581 11.7475 59.7227 11.7475C58.1607 11.7475 57.0488 12.8028 56.8899 14.0126Z" fill="#4F5125"/>
<path d="M77.0151 13.8849L74.0118 21.8984H71.7393L66.6792 9.07707H70.088L73.128 16.7229L75.956 9.07707H78.2285L81.1071 16.7726L83.9625 9.07707H87.2703L82.4453 21.8984H80.1728L77.0151 13.8849Z" fill="#4F5125"/>
<path d="M97.6244 9.73144H100.654V21.7994H97.6244V20.7543C96.6902 21.5257 95.4529 22.0482 93.9126 22.0482C90.5796 22.0482 87.9031 19.4356 87.9031 15.753C87.9031 12.0953 90.5544 9.48262 93.8621 9.48262C95.2761 9.48262 96.5639 9.9305 97.6244 10.7765V9.73144ZM91.1856 15.753C91.1856 17.7436 92.6501 19.1121 94.4176 19.1121C95.6549 19.1121 96.6649 18.5647 97.3719 17.6938V13.837C96.5639 12.9164 95.5286 12.4187 94.3671 12.4187C92.6249 12.4187 91.1856 13.8121 91.1856 15.753Z" fill="#4F5125"/>
<path d="M106.41 3.31104V21.8984H103.127V3.31104H106.41Z" fill="#4F5125"/>
<path d="M112.188 3.31104V21.8984H108.906V3.31104H112.188Z" fill="#4F5125"/>
<path d="M124.209 17.7478L126.124 19.6389C124.821 21.0323 122.799 21.8036 120.724 21.8036C116.92 21.8036 114.074 19.2905 114.074 15.5333C114.074 12.1742 116.441 9.23805 120.352 9.23805C124.049 9.23805 126.444 12.0498 126.444 15.4089C126.444 15.7323 126.417 16.0558 126.364 16.3295H117.399C117.585 18.0215 119.075 19.0666 120.91 19.0666C122.373 19.0666 123.544 18.345 124.209 17.7478ZM117.505 14.0901H122.985C122.879 12.9455 121.895 11.9005 120.352 11.9005C118.782 11.9005 117.665 12.9206 117.505 14.0901Z" fill="#4F5125"/>
<path d="M133.533 11.4392L133.462 17.4736C133.462 18.1205 133.563 18.5186 133.79 18.7426C134.043 18.9914 134.447 19.1158 134.926 19.1158C135.507 19.1158 135.987 18.9416 136.441 18.7177L137.502 21.0069C136.669 21.5792 135.684 21.9026 134.447 21.9026C133.26 21.9026 131.997 21.604 131.139 20.6336C130.533 19.9369 130.179 19.0163 130.179 17.5233L130.251 11.4392H127.347V8.82654H130.251L130.179 3.36836H133.462L133.533 8.82654H137.194V11.4392H133.533Z" fill="#4F5125"/>
<g>
<rect x="0.501953" y="0.501953" width="24.5577" height="8.09234" rx="4.04617" fill="#4F5125"/>
</g>
<g>
<rect x="0.501953" y="8.59424" width="24.5577" height="8.09234" rx="4.04617" fill="#4F5125"/>
</g>
<g>
<rect x="0.501953" y="16.687" width="24.5577" height="8.09234" rx="4.04617" fill="#4F5125"/>
</g>
<defs>
<filter id="filter0_g_6518_12475" x="-0.000141084" y="-0.000141084" width="25.5618" height="9.09647" filterUnits="userSpaceOnUse" color-interpolation-filters="sRGB">
<feFlood flood-opacity="0" result="BackgroundImageFix"/>
<feBlend mode="normal" in="SourceGraphic" in2="BackgroundImageFix" result="shape"/>
<feTurbulence type="fractalNoise" baseFrequency="0.28452259302139282 0.28452259302139282" numOctaves="3" seed="2822" />
<feDisplacementMap in="shape" scale="1.0041884183883667" xChannelSelector="R" yChannelSelector="G" result="displacedImage" width="100%" height="100%" />
<feMerge result="effect1_texture_6518_12475">
<feMergeNode in="displacedImage"/>
</feMerge>
</filter>
<filter id="filter1_g_6518_12475" x="-0.000141084" y="8.09214" width="25.5618" height="9.09647" filterUnits="userSpaceOnUse" color-interpolation-filters="sRGB">
<feFlood flood-opacity="0" result="BackgroundImageFix"/>
<feBlend mode="normal" in="SourceGraphic" in2="BackgroundImageFix" result="shape"/>
<feTurbulence type="fractalNoise" baseFrequency="0.28452259302139282 0.28452259302139282" numOctaves="3" seed="2822" />
<feDisplacementMap in="shape" scale="1.0041884183883667" xChannelSelector="R" yChannelSelector="G" result="displacedImage" width="100%" height="100%" />
<feMerge result="effect1_texture_6518_12475">
<feMergeNode in="displacedImage"/>
</feMerge>
</filter>
<filter id="filter2_g_6518_12475" x="-0.000141084" y="16.1849" width="25.5618" height="9.09647" filterUnits="userSpaceOnUse" color-interpolation-filters="sRGB">
<feFlood flood-opacity="0" result="BackgroundImageFix"/>
<feBlend mode="normal" in="SourceGraphic" in2="BackgroundImageFix" result="shape"/>
<feTurbulence type="fractalNoise" baseFrequency="0.28452259302139282 0.28452259302139282" numOctaves="3" seed="2822" />
<feDisplacementMap in="shape" scale="1.0041884183883667" xChannelSelector="R" yChannelSelector="G" result="displacedImage" width="100%" height="100%" />
<feMerge result="effect1_texture_6518_12475">
<feMergeNode in="displacedImage"/>
</feMerge>
</filter>
</defs>
</svg>
