<svg width="851" height="162" viewBox="0 0 851 162" fill="none" xmlns="http://www.w3.org/2000/svg">
<g filter="url(#filter0_g_10601_26752)">
<rect x="1" y="1" width="161.148" height="46.3091" rx="23.1546" fill="#A8AC4A"/>
</g>
<g filter="url(#filter1_g_10601_26752)">
<rect x="1" y="55.3086" width="161.148" height="46.3091" rx="23.1546" fill="#A8AC4A"/>
</g>
<g filter="url(#filter2_g_10601_26752)">
<rect x="1" y="109.617" width="161.148" height="46.3091" rx="23.1546" fill="#A8AC4A"/>
</g>
<g filter="url(#filter3_g_10601_26752)">
<path d="M306.461 33C316.234 33 323.614 35.5239 328.603 40.5716C333.644 45.5677 336.164 53.6029 336.164 64.6769V119C336.164 120.105 335.269 121 334.164 121H314.556C313.452 121 312.556 120.105 312.556 119V70.5487C312.556 64.3679 311.502 59.7065 309.393 56.5645C307.284 53.4226 304.018 51.8516 299.595 51.8516C293.372 51.8516 288.949 54.0922 286.325 58.5733C283.702 63.0029 282.391 69.3641 282.391 77.6567V119C282.391 120.105 281.495 121 280.391 121H260.86C259.756 121 258.86 120.105 258.86 119V70.5487C258.86 66.4282 258.397 62.9772 257.471 60.1958C256.546 57.4144 255.131 55.3284 253.228 53.9377C251.325 52.547 248.882 51.8516 245.899 51.8516C241.527 51.8516 238.081 52.959 235.561 55.1738C233.092 57.3371 231.318 60.5563 230.238 64.8314C229.209 69.055 228.695 74.2315 228.695 80.3608V119C228.695 120.105 227.799 121 226.695 121H207.164C206.059 121 205.164 120.105 205.164 119V36.6225C205.164 35.5179 206.059 34.6225 207.164 34.6225H221.632C222.525 34.6225 223.309 35.2139 223.555 36.072L226.098 44.9546C226.219 45.3785 226.607 45.6708 227.048 45.6708C227.399 45.6708 227.722 45.4838 227.906 45.1847C229.604 42.4197 231.693 40.1609 234.172 38.4083C236.847 36.554 239.779 35.1891 242.967 34.3134C246.156 33.4378 249.396 33 252.688 33C259.014 33 264.364 34.0301 268.735 36.0904C272.84 38.0025 276.059 40.8904 278.392 44.7543C278.729 45.3121 279.324 45.6708 279.976 45.6708C280.611 45.6708 281.194 45.3297 281.535 44.7937C284.066 40.8137 287.514 37.8869 291.88 36.0132C296.612 34.0044 301.472 33 306.461 33Z" fill="#A8AC4A"/>
</g>
<g filter="url(#filter4_g_10601_26752)">
<path d="M527.451 121.452C526.512 121.452 525.699 120.798 525.498 119.881L519.196 91.184C518.836 89.3778 518.243 86.72 517.419 83.2107C516.594 79.6497 515.693 75.8566 514.714 71.8312C513.786 67.7542 512.91 63.9869 512.086 60.5292C511.366 57.3064 510.825 54.8906 510.462 53.2818C510.418 53.0834 510.241 52.9429 510.038 52.9429C509.835 52.9429 509.659 53.0834 509.614 53.2818C509.252 54.8906 508.71 57.3064 507.99 60.5292C507.217 63.9869 506.341 67.7542 505.363 71.8312C504.435 75.9082 503.559 79.753 502.735 83.3655C501.911 86.9264 501.292 89.6358 500.88 91.4937L494.284 119.904C494.074 120.81 493.266 121.452 492.336 121.452H470.087C469.193 121.452 468.407 120.858 468.163 119.998L444.723 37.4524C444.36 36.1755 445.32 34.9061 446.647 34.9061H465.948C466.858 34.9061 467.654 35.5212 467.883 36.4025L477.463 73.2246C478.133 75.9082 478.777 79.1079 479.396 82.8236C480.014 86.4877 480.555 90.0486 481.018 93.5063C481.509 96.7476 481.882 99.358 482.139 101.337C482.161 101.508 482.306 101.635 482.478 101.635C482.657 101.635 482.805 101.496 482.819 101.317C482.928 99.8611 483.126 97.9799 483.414 95.6739C483.775 93.1967 484.161 90.6421 484.573 88.0101C485.037 85.3266 485.449 82.9268 485.81 80.8109C486.222 78.6434 486.531 77.1726 486.737 76.3985L497.016 36.4082C497.244 35.5241 498.041 34.9061 498.953 34.9061H521.799C522.721 34.9061 523.523 35.5363 523.742 36.432L533.493 76.3985C533.854 77.8951 534.318 80.269 534.885 83.5203C535.503 86.7716 536.044 90.1261 536.508 93.5838C536.946 96.8067 537.201 99.3828 537.27 101.312C537.277 101.492 537.424 101.635 537.604 101.635C537.772 101.635 537.913 101.509 537.933 101.342C538.144 99.5951 538.493 97.0865 538.981 93.816C539.496 90.3583 540.088 86.7458 540.758 82.9784C541.479 79.1595 542.201 75.9082 542.922 73.2246L552.878 36.3843C553.114 35.512 553.905 34.9061 554.809 34.9061H573.729C575.059 34.9061 576.019 36.1804 575.651 37.4588L551.917 120.004C551.67 120.861 550.886 121.452 549.994 121.452H527.451Z" fill="#A8AC4A"/>
<path d="M624.769 33.1256C636.362 33.1256 645.249 35.6544 651.432 40.7119C657.614 45.7695 660.706 53.459 660.706 63.7805V119.452C660.706 120.556 659.81 121.452 658.706 121.452H645.614C644.789 121.452 644.048 120.944 643.749 120.174L639.816 110.024C639.737 109.82 639.54 109.685 639.322 109.685C639.16 109.685 639.008 109.759 638.907 109.884C636.485 112.89 634.013 115.353 631.493 117.272C628.917 119.233 625.954 120.678 622.605 121.607C619.256 122.536 615.186 123 610.395 123C605.294 123 600.708 122.019 596.638 120.058C592.62 118.097 589.451 115.104 587.132 111.079C584.814 107.002 583.655 101.841 583.655 95.5964C583.655 86.4103 586.875 79.6497 593.315 75.3147C599.755 70.9281 609.416 68.5025 622.296 68.0381L635.351 67.6336C636.431 67.6002 637.289 66.7151 637.289 65.6346V63.7805C637.289 59.239 636.104 55.9103 633.734 53.7944C631.364 51.6785 628.067 50.6206 623.842 50.6206C619.668 50.6206 615.572 51.214 611.554 52.401C608.126 53.4134 604.698 54.6511 601.271 56.1141C600.278 56.5377 599.121 56.1216 598.647 55.1525L592.544 42.6851C592.069 41.7149 592.449 40.5397 593.42 40.0669C597.555 38.0537 602.106 36.4366 607.071 35.2157C612.79 33.8223 618.69 33.1256 624.769 33.1256ZM637.289 83.4219C637.289 82.2907 636.352 81.3846 635.221 81.423L628.17 81.6624C620.544 81.8689 615.238 83.2365 612.249 85.7652C609.313 88.294 607.844 91.6227 607.844 95.7513C607.844 99.3638 608.9 101.944 611.013 103.492C613.125 104.989 615.882 105.737 619.282 105.737C624.331 105.737 628.582 104.241 632.034 101.247C635.537 98.2542 637.289 93.9966 637.289 88.4746V83.4219Z" fill="#A8AC4A"/>
<path d="M702.621 119.452C702.621 120.556 701.726 121.452 700.621 121.452H681.05C679.945 121.452 679.05 120.556 679.05 119.452V3C679.05 1.89543 679.945 1 681.05 1H700.621C701.726 1 702.621 1.89543 702.621 3V119.452Z" fill="#A8AC4A"/>
<path d="M746 119.452C746 120.556 745.105 121.452 744 121.452H724.429C723.324 121.452 722.429 120.556 722.429 119.452V3C722.429 1.89543 723.324 1 724.429 1H744C745.105 1 746 1.89543 746 3V119.452Z" fill="#A8AC4A"/>
</g>
<g filter="url(#filter5_g_10601_26752)">
<path d="M796.946 160.524C796 161.02 794.852 160.606 794.371 159.652L786.983 144.997C786.551 144.14 786.802 143.107 787.459 142.408C788.906 140.87 790.161 138.699 791.227 135.894L792.88 131.473C793.045 131.031 793.049 130.546 792.891 130.102L759.786 37.0257C759.323 35.7236 760.288 34.3555 761.67 34.3555H781.002C781.882 34.3555 782.658 34.93 782.915 35.771L804.138 105.226C804.223 105.506 804.482 105.697 804.775 105.697C805.067 105.697 805.326 105.506 805.411 105.226L826.694 35.7695C826.952 34.9292 827.728 34.3555 828.607 34.3555H847.997C849.38 34.3555 850.346 35.7263 849.88 37.0289L812.964 140.261C811.199 145.263 808.859 149.547 805.944 153.114C803.433 156.223 800.433 158.693 796.946 160.524Z" fill="#A8AC4A"/>
</g>
<g filter="url(#filter6_g_10601_26752)">
<path d="M380.11 160.524C379.165 161.02 378.016 160.606 377.535 159.652L370.147 144.997C369.715 144.14 369.966 143.107 370.624 142.408C372.07 140.87 373.326 138.699 374.391 135.894L376.044 131.473C376.209 131.031 376.213 130.546 376.055 130.102L342.95 37.0257C342.487 35.7236 343.452 34.3555 344.834 34.3555H364.166C365.046 34.3555 365.822 34.93 366.079 35.771L387.302 105.226C387.387 105.506 387.646 105.697 387.939 105.697C388.231 105.697 388.49 105.506 388.575 105.226L409.859 35.7695C410.116 34.9292 410.892 34.3555 411.771 34.3555H431.161C432.544 34.3555 433.51 35.7263 433.044 37.0289L396.129 140.261C394.363 145.263 392.023 149.547 389.108 153.114C386.597 156.223 383.597 158.693 380.11 160.524Z" fill="#A8AC4A"/>
</g>
<defs>
<filter id="filter0_g_10601_26752" x="0" y="0" width="163.148" height="48.3086" filterUnits="userSpaceOnUse" color-interpolation-filters="sRGB">
<feFlood flood-opacity="0" result="BackgroundImageFix"/>
<feBlend mode="normal" in="SourceGraphic" in2="BackgroundImageFix" result="shape"/>
<feTurbulence type="fractalNoise" baseFrequency="0.25 0.25" numOctaves="3" seed="2822" />
<feDisplacementMap in="shape" scale="2" xChannelSelector="R" yChannelSelector="G" result="displacedImage" width="100%" height="100%" />
<feMerge result="effect1_texture_10601_26752">
<feMergeNode in="displacedImage"/>
</feMerge>
</filter>
<filter id="filter1_g_10601_26752" x="0" y="54.3086" width="163.148" height="48.3086" filterUnits="userSpaceOnUse" color-interpolation-filters="sRGB">
<feFlood flood-opacity="0" result="BackgroundImageFix"/>
<feBlend mode="normal" in="SourceGraphic" in2="BackgroundImageFix" result="shape"/>
<feTurbulence type="fractalNoise" baseFrequency="0.25 0.25" numOctaves="3" seed="2822" />
<feDisplacementMap in="shape" scale="2" xChannelSelector="R" yChannelSelector="G" result="displacedImage" width="100%" height="100%" />
<feMerge result="effect1_texture_10601_26752">
<feMergeNode in="displacedImage"/>
</feMerge>
</filter>
<filter id="filter2_g_10601_26752" x="0" y="108.617" width="163.148" height="48.3086" filterUnits="userSpaceOnUse" color-interpolation-filters="sRGB">
<feFlood flood-opacity="0" result="BackgroundImageFix"/>
<feBlend mode="normal" in="SourceGraphic" in2="BackgroundImageFix" result="shape"/>
<feTurbulence type="fractalNoise" baseFrequency="0.25 0.25" numOctaves="3" seed="2822" />
<feDisplacementMap in="shape" scale="2" xChannelSelector="R" yChannelSelector="G" result="displacedImage" width="100%" height="100%" />
<feMerge result="effect1_texture_10601_26752">
<feMergeNode in="displacedImage"/>
</feMerge>
</filter>
<filter id="filter3_g_10601_26752" x="204.164" y="32" width="133" height="90" filterUnits="userSpaceOnUse" color-interpolation-filters="sRGB">
<feFlood flood-opacity="0" result="BackgroundImageFix"/>
<feBlend mode="normal" in="SourceGraphic" in2="BackgroundImageFix" result="shape"/>
<feTurbulence type="fractalNoise" baseFrequency="0.25 0.25" numOctaves="3" seed="2822" />
<feDisplacementMap in="shape" scale="2" xChannelSelector="R" yChannelSelector="G" result="displacedImage" width="100%" height="100%" />
<feMerge result="effect1_texture_10601_26752">
<feMergeNode in="displacedImage"/>
</feMerge>
</filter>
<filter id="filter4_g_10601_26752" x="443.646" y="0" width="303.354" height="124" filterUnits="userSpaceOnUse" color-interpolation-filters="sRGB">
<feFlood flood-opacity="0" result="BackgroundImageFix"/>
<feBlend mode="normal" in="SourceGraphic" in2="BackgroundImageFix" result="shape"/>
<feTurbulence type="fractalNoise" baseFrequency="0.25 0.25" numOctaves="3" seed="2822" />
<feDisplacementMap in="shape" scale="2" xChannelSelector="R" yChannelSelector="G" result="displacedImage" width="100%" height="100%" />
<feMerge result="effect1_texture_10601_26752">
<feMergeNode in="displacedImage"/>
</feMerge>
</filter>
<filter id="filter5_g_10601_26752" x="758.668" y="33.3555" width="92.3301" height="128.379" filterUnits="userSpaceOnUse" color-interpolation-filters="sRGB">
<feFlood flood-opacity="0" result="BackgroundImageFix"/>
<feBlend mode="normal" in="SourceGraphic" in2="BackgroundImageFix" result="shape"/>
<feTurbulence type="fractalNoise" baseFrequency="0.25 0.25" numOctaves="3" seed="2822" />
<feDisplacementMap in="shape" scale="2" xChannelSelector="R" yChannelSelector="G" result="displacedImage" width="100%" height="100%" />
<feMerge result="effect1_texture_10601_26752">
<feMergeNode in="displacedImage"/>
</feMerge>
</filter>
<filter id="filter6_g_10601_26752" x="341.832" y="33.3555" width="92.3301" height="128.379" filterUnits="userSpaceOnUse" color-interpolation-filters="sRGB">
<feFlood flood-opacity="0" result="BackgroundImageFix"/>
<feBlend mode="normal" in="SourceGraphic" in2="BackgroundImageFix" result="shape"/>
<feTurbulence type="fractalNoise" baseFrequency="0.25 0.25" numOctaves="3" seed="2822" />
<feDisplacementMap in="shape" scale="2" xChannelSelector="R" yChannelSelector="G" result="displacedImage" width="100%" height="100%" />
<feMerge result="effect1_texture_10601_26752">
<feMergeNode in="displacedImage"/>
</feMerge>
</filter>
</defs>
</svg>
