<svg width="29" height="25" viewBox="0 0 29 25" fill="none" xmlns="http://www.w3.org/2000/svg">
<g>
<ellipse cx="13.9376" cy="11.6271" rx="12.2555" ry="11.5201" fill="#D2D58B"/>
</g>
<g>
<path d="M10.7257 23.7793C10.2553 23.7793 9.87402 23.398 9.87402 22.9276V22.9276C9.87402 22.4573 10.2553 22.076 10.7257 22.076L12.7876 22.076C13.258 22.076 13.6393 22.4573 13.6393 22.9276V22.9276C13.6393 23.398 13.258 23.7793 12.7876 23.7793L10.7257 23.7793Z" fill="#746B5E"/>
<path d="M9.87646 22.8204C9.87646 22.4738 10.1574 22.1929 10.504 22.1929V22.1929C10.8506 22.1929 11.1316 22.4738 11.1316 22.8204L11.1316 23.8066C11.1316 24.1531 10.8506 24.4341 10.504 24.4341V24.4341C10.1574 24.4341 9.87646 24.1531 9.87646 23.8066L9.87646 22.8204Z" fill="#746B5E"/>
<path d="M11.1309 22.8204C11.1309 22.4738 11.4118 22.1929 11.7584 22.1929V22.1929C12.105 22.1929 12.386 22.4738 12.386 22.8204L12.386 23.8066C12.386 24.1531 12.105 24.4341 11.7584 24.4341V24.4341C11.4118 24.4341 11.1309 24.1531 11.1309 23.8066L11.1309 22.8204Z" fill="#746B5E"/>
<path d="M12.3867 22.8204C12.3867 22.4738 12.6677 22.1929 13.0143 22.1929V22.1929C13.3608 22.1929 13.6418 22.4738 13.6418 22.8204L13.6418 23.8066C13.6418 24.1531 13.3608 24.4341 13.0143 24.4341V24.4341C12.6677 24.4341 12.3867 24.1531 12.3867 23.8066L12.3867 22.8204Z" fill="#746B5E"/>
</g>
<g>
<path d="M15.857 23.7793C15.3867 23.7793 15.0054 23.398 15.0054 22.9276V22.9276C15.0054 22.4573 15.3867 22.076 15.857 22.076L17.919 22.076C18.3893 22.076 18.7707 22.4573 18.7707 22.9276V22.9276C18.7707 23.398 18.3893 23.7793 17.919 23.7793L15.857 23.7793Z" fill="#746B5E"/>
<path d="M15.0078 22.8209C15.0078 22.4743 15.2888 22.1934 15.6354 22.1934V22.1934C15.9819 22.1934 16.2629 22.4743 16.2629 22.8209L16.2629 23.8071C16.2629 24.1536 15.9819 24.4346 15.6354 24.4346V24.4346C15.2888 24.4346 15.0078 24.1536 15.0078 23.8071L15.0078 22.8209Z" fill="#746B5E"/>
<path d="M16.2622 22.8209C16.2622 22.4743 16.5432 22.1934 16.8898 22.1934V22.1934C17.2363 22.1934 17.5173 22.4743 17.5173 22.8209L17.5173 23.8071C17.5173 24.1536 17.2363 24.4346 16.8898 24.4346V24.4346C16.5432 24.4346 16.2622 24.1536 16.2622 23.8071L16.2622 22.8209Z" fill="#746B5E"/>
<path d="M17.5181 22.8214C17.5181 22.4748 17.799 22.1938 18.1456 22.1938V22.1938C18.4922 22.1938 18.7732 22.4748 18.7732 22.8214L18.7732 23.8075C18.7732 24.1541 18.4922 24.4351 18.1456 24.4351V24.4351C17.799 24.4351 17.5181 24.1541 17.5181 23.8075L17.5181 22.8214Z" fill="#746B5E"/>
</g>
<g>
<path d="M4.84052 3.47202L4.1284 4.79182C6.77593 3.32401 11.7391 0.800708 10.2257 0.995247C8.66522 1.19585 6.29501 1.44942 5.27336 1.39604C4.45424 1.35326 4.12221 0.182147 3.3605 0.583404C2.74218 0.90913 3.77049 3.95727 4.84052 3.47202Z" fill="#D2D58B"/>
</g>
<g>
<path d="M23.4432 3.47202L24.0068 5.10693C21.3593 3.63912 16.5446 0.800708 18.058 0.995247C19.6185 1.19585 21.9887 1.44942 23.0103 1.39604C23.8295 1.35326 24.1615 0.182147 24.9232 0.583404C25.5415 0.90913 24.5132 3.95727 23.4432 3.47202Z" fill="#D2D58B"/>
</g>
<g>
<path d="M0.616667 11.8167C0.673855 10.9989 1.38319 10.3823 2.20102 10.4395C3.01884 10.4967 3.63546 11.206 3.57827 12.0238L3.07203 19.2633C3.01485 20.0811 2.30551 20.6977 1.48769 20.6406C0.669864 20.5834 0.0532466 19.874 0.110434 19.0562L0.616667 11.8167Z" fill="#2C2D1C"/>
<path d="M3.08467 11.9893C3.14186 11.1715 3.85119 10.5549 4.66902 10.6121C5.48684 10.6693 6.10346 11.3786 6.04627 12.1964L5.63208 18.1196C5.57489 18.9374 4.86555 19.5541 4.04773 19.4969C3.22991 19.4397 2.61329 18.7303 2.67048 17.9125L3.08467 11.9893Z" fill="#2C2D1C"/>
<path d="M2.03648 10.428L4.83355 10.6236L4.69549 12.598L1.89842 12.4024L2.03648 10.428Z" fill="#2C2D1C"/>
</g>
<g>
<path d="M24.4353 12.024C24.3781 11.2062 24.9947 10.4969 25.8126 10.4397C26.6304 10.3825 27.3397 10.9991 27.3969 11.8169L27.9032 19.0564C27.9603 19.8742 27.3437 20.5836 26.5259 20.6408C25.7081 20.698 24.9987 20.0813 24.9416 19.2635L24.4353 12.024Z" fill="#2C2D1C"/>
<path d="M21.9673 12.1966C21.9101 11.3788 22.5267 10.6695 23.3446 10.6123C24.1624 10.5551 24.8717 11.1717 24.9289 11.9895L25.3431 17.9127C25.4003 18.7306 24.7837 19.4399 23.9659 19.4971C23.148 19.5543 22.4387 18.9376 22.3815 18.1198L21.9673 12.1966Z" fill="#2C2D1C"/>
<path d="M23.18 10.6238L25.9771 10.4282L26.1152 12.4026L23.3181 12.5982L23.18 10.6238Z" fill="#2C2D1C"/>
</g>
<path d="M8.88079 9.92763C10.653 10.3576 12.439 9.26634 12.8699 7.49025C13.3008 5.71415 12.2135 3.92578 10.4413 3.49581C8.66907 3.06584 6.8831 4.1571 6.45218 5.93319C6.02127 7.70929 7.10859 9.49766 8.88079 9.92763Z" fill="white"/>
<path d="M10.8316 8.81534C11.66 9.01634 12.4949 8.50622 12.6963 7.67598C12.8977 6.84573 12.3895 6.00974 11.561 5.80875C10.7326 5.60776 9.89774 6.11787 9.69631 6.94812C9.49487 7.77837 10.0032 8.61435 10.8316 8.81534Z" fill="#291505"/>
<path d="M11.7018 7.17769C11.9829 7.24588 12.2661 7.07281 12.3345 6.79114C12.4028 6.50946 12.2304 6.22584 11.9493 6.15765C11.6683 6.08946 11.385 6.26252 11.3167 6.5442C11.2483 6.82587 11.4208 7.1095 11.7018 7.17769Z" fill="white"/>
<path d="M17.623 9.92763C19.3952 10.3576 21.1812 9.26634 21.6121 7.49025C22.043 5.71415 20.9557 3.92578 19.1835 3.49581C17.4113 3.06584 15.6253 4.1571 15.1944 5.93319C14.7635 7.70929 15.8508 9.49766 17.623 9.92763Z" fill="white"/>
<path d="M16.5381 8.81486C17.3665 9.01585 18.2014 8.50573 18.4028 7.67549C18.6043 6.84524 18.096 6.00926 17.2676 5.80826C16.4391 5.60727 15.6043 6.11738 15.4029 6.94763C15.2014 7.77788 15.7097 8.61386 16.5381 8.81486Z" fill="#291505"/>
<path d="M16.0969 7.19136C16.3779 7.25955 16.6612 7.08648 16.7295 6.80481C16.7978 6.52313 16.6254 6.23951 16.3443 6.17132C16.0633 6.10313 15.78 6.27619 15.7117 6.55787C15.6434 6.83955 15.8158 7.12317 16.0969 7.19136Z" fill="white"/>
<path d="M13.7546 9.20947L14.2696 9.20947C14.9198 9.20947 15.2449 9.20947 15.3672 9.4207C15.4895 9.63193 15.3277 9.91388 15.004 10.4778L14.7507 10.9192C14.4291 11.4795 14.2683 11.7597 14.0252 11.7614C13.782 11.7631 13.6173 11.4852 13.2878 10.9295L13.0262 10.4881C12.6899 9.92075 12.5218 9.63709 12.6436 9.42328C12.7654 9.20947 13.0952 9.20947 13.7546 9.20947Z" fill="#37271A"/>
<mask id="mask0_6824_16323" style="mask-type:alpha" maskUnits="userSpaceOnUse" x="12" y="9" width="4" height="3">
<path d="M13.7546 9.20947L14.2696 9.20947C14.9198 9.20947 15.2449 9.20947 15.3672 9.4207C15.4895 9.63193 15.3277 9.91388 15.004 10.4778L14.7507 10.9192C14.4291 11.4795 14.2683 11.7597 14.0252 11.7614C13.782 11.7631 13.6173 11.4852 13.2878 10.9295L13.0262 10.4881C12.6899 9.92075 12.5218 9.63709 12.6436 9.42328C12.7654 9.20947 13.0952 9.20947 13.7546 9.20947Z" fill="#37271A"/>
</mask>
<g mask="url(#mask0_6824_16323)">
<ellipse cx="14.8526" cy="10.4931" rx="0.882088" ry="2.13687" transform="rotate(1.96959 14.8526 10.4931)" fill="#443122"/>
</g>
<defs>
<filter id="filter0_g_6824_16323" x="1.57532" y="0.000126243" width="24.7244" height="23.2537" filterUnits="userSpaceOnUse" color-interpolation-filters="sRGB">
<feFlood flood-opacity="0" result="BackgroundImageFix"/>
<feBlend mode="normal" in="SourceGraphic" in2="BackgroundImageFix" result="shape"/>
<feTurbulence type="fractalNoise" baseFrequency="0.99900001287460327 0.99900001287460327" numOctaves="3" seed="2822" />
<feDisplacementMap in="shape" scale="0.21361470222473145" xChannelSelector="R" yChannelSelector="G" result="displacedImage" width="100%" height="100%" />
<feMerge result="effect1_texture_6824_16323">
<feMergeNode in="displacedImage"/>
</feMerge>
</filter>
<filter id="filter1_g_6824_16323" x="9.76722" y="21.9694" width="3.98119" height="2.57152" filterUnits="userSpaceOnUse" color-interpolation-filters="sRGB">
<feFlood flood-opacity="0" result="BackgroundImageFix"/>
<feBlend mode="normal" in="SourceGraphic" in2="BackgroundImageFix" result="shape"/>
<feTurbulence type="fractalNoise" baseFrequency="0.99900001287460327 0.99900001287460327" numOctaves="3" seed="2822" />
<feDisplacementMap in="shape" scale="0.21361470222473145" xChannelSelector="R" yChannelSelector="G" result="displacedImage" width="100%" height="100%" />
<feMerge result="effect1_texture_6824_16323">
<feMergeNode in="displacedImage"/>
</feMerge>
</filter>
<filter id="filter2_g_6824_16323" x="14.8986" y="21.9694" width="3.98119" height="2.5725" filterUnits="userSpaceOnUse" color-interpolation-filters="sRGB">
<feFlood flood-opacity="0" result="BackgroundImageFix"/>
<feBlend mode="normal" in="SourceGraphic" in2="BackgroundImageFix" result="shape"/>
<feTurbulence type="fractalNoise" baseFrequency="0.99900001287460327 0.99900001287460327" numOctaves="3" seed="2822" />
<feDisplacementMap in="shape" scale="0.21361470222473145" xChannelSelector="R" yChannelSelector="G" result="displacedImage" width="100%" height="100%" />
<feMerge result="effect1_texture_6824_16323">
<feMergeNode in="displacedImage"/>
</feMerge>
</filter>
<filter id="filter3_g_6824_16323" x="3.06702" y="0.393193" width="7.54662" height="4.50561" filterUnits="userSpaceOnUse" color-interpolation-filters="sRGB">
<feFlood flood-opacity="0" result="BackgroundImageFix"/>
<feBlend mode="normal" in="SourceGraphic" in2="BackgroundImageFix" result="shape"/>
<feTurbulence type="fractalNoise" baseFrequency="0.99900001287460327 0.99900001287460327" numOctaves="3" seed="2822" />
<feDisplacementMap in="shape" scale="0.21361470222473145" xChannelSelector="R" yChannelSelector="G" result="displacedImage" width="100%" height="100%" />
<feMerge result="effect1_texture_6824_16323">
<feMergeNode in="displacedImage"/>
</feMerge>
</filter>
<filter id="filter4_g_6824_16323" x="17.6632" y="0.393193" width="7.55346" height="4.82055" filterUnits="userSpaceOnUse" color-interpolation-filters="sRGB">
<feFlood flood-opacity="0" result="BackgroundImageFix"/>
<feBlend mode="normal" in="SourceGraphic" in2="BackgroundImageFix" result="shape"/>
<feTurbulence type="fractalNoise" baseFrequency="0.99900001287460327 0.99900001287460327" numOctaves="3" seed="2822" />
<feDisplacementMap in="shape" scale="0.21361470222473145" xChannelSelector="R" yChannelSelector="G" result="displacedImage" width="100%" height="100%" />
<feMerge result="effect1_texture_6824_16323">
<feMergeNode in="displacedImage"/>
</feMerge>
</filter>
<filter id="filter5_g_6824_16323" x="0.000126243" y="10.3214" width="6.15649" height="10.4294" filterUnits="userSpaceOnUse" color-interpolation-filters="sRGB">
<feFlood flood-opacity="0" result="BackgroundImageFix"/>
<feBlend mode="normal" in="SourceGraphic" in2="BackgroundImageFix" result="shape"/>
<feTurbulence type="fractalNoise" baseFrequency="0.99900001287460327 0.99900001287460327" numOctaves="3" seed="2822" />
<feDisplacementMap in="shape" scale="0.21361470222473145" xChannelSelector="R" yChannelSelector="G" result="displacedImage" width="100%" height="100%" />
<feMerge result="effect1_texture_6824_16323">
<feMergeNode in="displacedImage"/>
</feMerge>
</filter>
<filter id="filter6_g_6824_16323" x="21.8571" y="10.3214" width="6.15649" height="10.4299" filterUnits="userSpaceOnUse" color-interpolation-filters="sRGB">
<feFlood flood-opacity="0" result="BackgroundImageFix"/>
<feBlend mode="normal" in="SourceGraphic" in2="BackgroundImageFix" result="shape"/>
<feTurbulence type="fractalNoise" baseFrequency="0.99900001287460327 0.99900001287460327" numOctaves="3" seed="2822" />
<feDisplacementMap in="shape" scale="0.21361470222473145" xChannelSelector="R" yChannelSelector="G" result="displacedImage" width="100%" height="100%" />
<feMerge result="effect1_texture_6824_16323">
<feMergeNode in="displacedImage"/>
</feMerge>
</filter>
</defs>
</svg>
