<svg width="375" height="91" viewBox="0 0 375 91" fill="none" xmlns="http://www.w3.org/2000/svg">
<g filter="url(#filter0_d_6559_17480)">
<rect x="13.6001" y="9.6001" width="347" height="63" rx="24" fill="#F1EDE8"/>
</g>
<path d="M72.0701 28.0301C72.4434 28.0968 72.7601 28.2934 73.0201 28.6201C73.2801 28.9468 73.4101 29.3168 73.4101 29.7301C73.4101 30.0834 73.3168 30.4034 73.1301 30.6901C72.9501 30.9701 72.6868 31.1934 72.3401 31.3601C71.9934 31.5201 71.5901 31.6001 71.1301 31.6001H68.3501V24.6501H71.0001C71.4734 24.6501 71.8801 24.7301 72.2201 24.8901C72.5601 25.0501 72.8168 25.2668 72.9901 25.5401C73.1634 25.8068 73.2501 26.1068 73.2501 26.4401C73.2501 26.8401 73.1434 27.1734 72.9301 27.4401C72.7168 27.7068 72.4301 27.9034 72.0701 28.0301ZM69.4901 27.5701H70.9001C71.2734 27.5701 71.5634 27.4868 71.7701 27.3201C71.9834 27.1468 72.0901 26.9001 72.0901 26.5801C72.0901 26.2668 71.9834 26.0234 71.7701 25.8501C71.5634 25.6701 71.2734 25.5801 70.9001 25.5801H69.4901V27.5701ZM71.0301 30.6701C71.4168 30.6701 71.7201 30.5768 71.9401 30.3901C72.1601 30.2034 72.2701 29.9434 72.2701 29.6101C72.2701 29.2701 72.1534 29.0001 71.9201 28.8001C71.6868 28.6001 71.3768 28.5001 70.9901 28.5001H69.4901V30.6701H71.0301ZM79.6989 28.7101C79.6989 28.9168 79.6856 29.1034 79.6589 29.2701H75.4489C75.4823 29.7101 75.6456 30.0634 75.9389 30.3301C76.2323 30.5968 76.5923 30.7301 77.0189 30.7301C77.6323 30.7301 78.0656 30.4734 78.3189 29.9601H79.5489C79.3823 30.4668 79.0789 30.8834 78.6389 31.2101C78.2056 31.5301 77.6656 31.6901 77.0189 31.6901C76.4923 31.6901 76.0189 31.5734 75.5989 31.3401C75.1856 31.1001 74.8589 30.7668 74.6189 30.3401C74.3856 29.9068 74.2689 29.4068 74.2689 28.8401C74.2689 28.2734 74.3823 27.7768 74.6089 27.3501C74.8423 26.9168 75.1656 26.5834 75.5789 26.3501C75.9989 26.1168 76.4789 26.0001 77.0189 26.0001C77.5389 26.0001 78.0023 26.1134 78.4089 26.3401C78.8156 26.5668 79.1323 26.8868 79.3589 27.3001C79.5856 27.7068 79.6989 28.1768 79.6989 28.7101ZM78.5089 28.3501C78.5023 27.9301 78.3523 27.5934 78.0589 27.3401C77.7656 27.0868 77.4023 26.9601 76.9689 26.9601C76.5756 26.9601 76.2389 27.0868 75.9589 27.3401C75.6789 27.5868 75.5123 27.9234 75.4589 28.3501H78.5089ZM83.6008 26.0001C84.0341 26.0001 84.4208 26.0901 84.7608 26.2701C85.1075 26.4501 85.3775 26.7168 85.5708 27.0701C85.7641 27.4234 85.8608 27.8501 85.8608 28.3501V31.6001H84.7308V28.5201C84.7308 28.0268 84.6075 27.6501 84.3608 27.3901C84.1141 27.1234 83.7775 26.9901 83.3508 26.9901C82.9241 26.9901 82.5841 27.1234 82.3308 27.3901C82.0841 27.6501 81.9608 28.0268 81.9608 28.5201V31.6001H80.8208V26.0901H81.9608V26.7201C82.1475 26.4934 82.3841 26.3168 82.6708 26.1901C82.9641 26.0634 83.2741 26.0001 83.6008 26.0001ZM86.9349 28.8201C86.9349 28.2668 87.0483 27.7768 87.2749 27.3501C87.5083 26.9234 87.8216 26.5934 88.2149 26.3601C88.6149 26.1201 89.0549 26.0001 89.5349 26.0001C89.9683 26.0001 90.3449 26.0868 90.6649 26.2601C90.9916 26.4268 91.2516 26.6368 91.4449 26.8901V26.0901H92.5949V31.6001H91.4449V30.7801C91.2516 31.0401 90.9883 31.2568 90.6549 31.4301C90.3216 31.6034 89.9416 31.6901 89.5149 31.6901C89.0416 31.6901 88.6083 31.5701 88.2149 31.3301C87.8216 31.0834 87.5083 30.7434 87.2749 30.3101C87.0483 29.8701 86.9349 29.3734 86.9349 28.8201ZM91.4449 28.8401C91.4449 28.4601 91.3649 28.1301 91.2049 27.8501C91.0516 27.5701 90.8483 27.3568 90.5949 27.2101C90.3416 27.0634 90.0683 26.9901 89.7749 26.9901C89.4816 26.9901 89.2083 27.0634 88.9549 27.2101C88.7016 27.3501 88.4949 27.5601 88.3349 27.8401C88.1816 28.1134 88.1049 28.4401 88.1049 28.8201C88.1049 29.2001 88.1816 29.5334 88.3349 29.8201C88.4949 30.1068 88.7016 30.3268 88.9549 30.4801C89.2149 30.6268 89.4883 30.7001 89.7749 30.7001C90.0683 30.7001 90.3416 30.6268 90.5949 30.4801C90.8483 30.3334 91.0516 30.1201 91.2049 29.8401C91.3649 29.5534 91.4449 29.2201 91.4449 28.8401ZM93.7123 28.8401C93.7123 28.2734 93.8256 27.7768 94.0523 27.3501C94.2856 26.9168 94.6056 26.5834 95.0123 26.3501C95.419 26.1168 95.8856 26.0001 96.4123 26.0001C97.079 26.0001 97.629 26.1601 98.0623 26.4801C98.5023 26.7934 98.799 27.2434 98.9523 27.8301H97.7223C97.6223 27.5568 97.4623 27.3434 97.2423 27.1901C97.0223 27.0368 96.7456 26.9601 96.4123 26.9601C95.9456 26.9601 95.5723 27.1268 95.2923 27.4601C95.019 27.7868 94.8823 28.2468 94.8823 28.8401C94.8823 29.4334 95.019 29.8968 95.2923 30.2301C95.5723 30.5634 95.9456 30.7301 96.4123 30.7301C97.0723 30.7301 97.509 30.4401 97.7223 29.8601H98.9523C98.7923 30.4201 98.4923 30.8668 98.0523 31.2001C97.6123 31.5268 97.0656 31.6901 96.4123 31.6901C95.8856 31.6901 95.419 31.5734 95.0123 31.3401C94.6056 31.1001 94.2856 30.7668 94.0523 30.3401C93.8256 29.9068 93.7123 29.4068 93.7123 28.8401ZM102.938 26.0001C103.358 26.0001 103.732 26.0901 104.058 26.2701C104.392 26.4501 104.652 26.7168 104.838 27.0701C105.032 27.4234 105.128 27.8501 105.128 28.3501V31.6001H103.998V28.5201C103.998 28.0268 103.875 27.6501 103.628 27.3901C103.382 27.1234 103.045 26.9901 102.618 26.9901C102.192 26.9901 101.852 27.1234 101.598 27.3901C101.352 27.6501 101.228 28.0268 101.228 28.5201V31.6001H100.088V24.2001H101.228V26.7301C101.422 26.4968 101.665 26.3168 101.958 26.1901C102.258 26.0634 102.585 26.0001 102.938 26.0001ZM107.723 26.8901C107.889 26.6101 108.109 26.3934 108.383 26.2401C108.663 26.0801 108.993 26.0001 109.373 26.0001V27.1801H109.083C108.636 27.1801 108.296 27.2934 108.063 27.5201C107.836 27.7468 107.723 28.1401 107.723 28.7001V31.6001H106.583V26.0901H107.723V26.8901ZM111 25.3601C110.794 25.3601 110.62 25.2901 110.48 25.1501C110.34 25.0101 110.27 24.8368 110.27 24.6301C110.27 24.4234 110.34 24.2501 110.48 24.1101C110.62 23.9701 110.794 23.9001 111 23.9001C111.2 23.9001 111.37 23.9701 111.51 24.1101C111.65 24.2501 111.72 24.4234 111.72 24.6301C111.72 24.8368 111.65 25.0101 111.51 25.1501C111.37 25.2901 111.2 25.3601 111 25.3601ZM111.56 26.0901V31.6001H110.42V26.0901H111.56ZM112.677 28.8401C112.677 28.2734 112.79 27.7768 113.017 27.3501C113.25 26.9168 113.57 26.5834 113.977 26.3501C114.384 26.1168 114.85 26.0001 115.377 26.0001C116.044 26.0001 116.594 26.1601 117.027 26.4801C117.467 26.7934 117.764 27.2434 117.917 27.8301H116.687C116.587 27.5568 116.427 27.3434 116.207 27.1901C115.987 27.0368 115.71 26.9601 115.377 26.9601C114.91 26.9601 114.537 27.1268 114.257 27.4601C113.984 27.7868 113.847 28.2468 113.847 28.8401C113.847 29.4334 113.984 29.8968 114.257 30.2301C114.537 30.5634 114.91 30.7301 115.377 30.7301C116.037 30.7301 116.474 30.4401 116.687 29.8601H117.917C117.757 30.4201 117.457 30.8668 117.017 31.2001C116.577 31.5268 116.03 31.6901 115.377 31.6901C114.85 31.6901 114.384 31.5734 113.977 31.3401C113.57 31.1001 113.25 30.7668 113.017 30.3401C112.79 29.9068 112.677 29.4068 112.677 28.8401ZM121.903 26.0001C122.323 26.0001 122.697 26.0901 123.023 26.2701C123.357 26.4501 123.617 26.7168 123.803 27.0701C123.997 27.4234 124.093 27.8501 124.093 28.3501V31.6001H122.963V28.5201C122.963 28.0268 122.84 27.6501 122.593 27.3901C122.347 27.1234 122.01 26.9901 121.583 26.9901C121.157 26.9901 120.817 27.1234 120.563 27.3901C120.317 27.6501 120.193 28.0268 120.193 28.5201V31.6001H119.053V24.2001H120.193V26.7301C120.387 26.4968 120.63 26.3168 120.923 26.1901C121.223 26.0634 121.55 26.0001 121.903 26.0001ZM126.877 27.0201V30.0701C126.877 30.2768 126.924 30.4268 127.017 30.5201C127.117 30.6068 127.284 30.6501 127.517 30.6501H128.217V31.6001H127.317C126.804 31.6001 126.411 31.4801 126.137 31.2401C125.864 31.0001 125.727 30.6101 125.727 30.0701V27.0201H125.077V26.0901H125.727V24.7201H126.877V26.0901H128.217V27.0201H126.877ZM129.848 25.3601C129.641 25.3601 129.468 25.2901 129.328 25.1501C129.188 25.0101 129.118 24.8368 129.118 24.6301C129.118 24.4234 129.188 24.2501 129.328 24.1101C129.468 23.9701 129.641 23.9001 129.848 23.9001C130.048 23.9001 130.218 23.9701 130.358 24.1101C130.498 24.2501 130.568 24.4234 130.568 24.6301C130.568 24.8368 130.498 25.0101 130.358 25.1501C130.218 25.2901 130.048 25.3601 129.848 25.3601ZM130.408 26.0901V31.6001H129.268V26.0901H130.408ZM136.895 26.0901V31.6001H135.755V30.9501C135.575 31.1768 135.338 31.3568 135.045 31.4901C134.758 31.6168 134.451 31.6801 134.125 31.6801C133.691 31.6801 133.301 31.5901 132.955 31.4101C132.615 31.2301 132.345 30.9634 132.145 30.6101C131.951 30.2568 131.855 29.8301 131.855 29.3301V26.0901H132.985V29.1601C132.985 29.6534 133.108 30.0334 133.355 30.3001C133.601 30.5601 133.938 30.6901 134.365 30.6901C134.791 30.6901 135.128 30.5601 135.375 30.3001C135.628 30.0334 135.755 29.6534 135.755 29.1601V26.0901H136.895ZM141.179 26.0001C141.612 26.0001 141.999 26.0901 142.339 26.2701C142.686 26.4501 142.956 26.7168 143.149 27.0701C143.342 27.4234 143.439 27.8501 143.439 28.3501V31.6001H142.309V28.5201C142.309 28.0268 142.186 27.6501 141.939 27.3901C141.692 27.1234 141.356 26.9901 140.929 26.9901C140.502 26.9901 140.162 27.1234 139.909 27.3901C139.662 27.6501 139.539 28.0268 139.539 28.5201V31.6001H138.399V26.0901H139.539V26.7201C139.726 26.4934 139.962 26.3168 140.249 26.1901C140.542 26.0634 140.852 26.0001 141.179 26.0001ZM147.113 26.0001C147.54 26.0001 147.916 26.0868 148.243 26.2601C148.576 26.4268 148.836 26.6368 149.023 26.8901V26.0901H150.173V31.6901C150.173 32.1968 150.066 32.6468 149.853 33.0401C149.64 33.4401 149.33 33.7534 148.923 33.9801C148.523 34.2068 148.043 34.3201 147.483 34.3201C146.736 34.3201 146.116 34.1434 145.623 33.7901C145.13 33.4434 144.85 32.9701 144.783 32.3701H145.913C146 32.6568 146.183 32.8868 146.463 33.0601C146.75 33.2401 147.09 33.3301 147.483 33.3301C147.943 33.3301 148.313 33.1901 148.593 32.9101C148.88 32.6301 149.023 32.2234 149.023 31.6901V30.7701C148.83 31.0301 148.566 31.2501 148.233 31.4301C147.906 31.6034 147.533 31.6901 147.113 31.6901C146.633 31.6901 146.193 31.5701 145.793 31.3301C145.4 31.0834 145.086 30.7434 144.853 30.3101C144.626 29.8701 144.513 29.3734 144.513 28.8201C144.513 28.2668 144.626 27.7768 144.853 27.3501C145.086 26.9234 145.4 26.5934 145.793 26.3601C146.193 26.1201 146.633 26.0001 147.113 26.0001ZM149.023 28.8401C149.023 28.4601 148.943 28.1301 148.783 27.8501C148.63 27.5701 148.426 27.3568 148.173 27.2101C147.92 27.0634 147.646 26.9901 147.353 26.9901C147.06 26.9901 146.786 27.0634 146.533 27.2101C146.28 27.3501 146.073 27.5601 145.913 27.8401C145.76 28.1134 145.683 28.4401 145.683 28.8201C145.683 29.2001 145.76 29.5334 145.913 29.8201C146.073 30.1068 146.28 30.3268 146.533 30.4801C146.793 30.6268 147.066 30.7001 147.353 30.7001C147.646 30.7001 147.92 30.6268 148.173 30.4801C148.426 30.3334 148.63 30.1201 148.783 29.8401C148.943 29.5534 149.023 29.2201 149.023 28.8401Z" fill="black"/>
<path d="M71.8281 43.8701C72.8641 43.8701 73.7694 44.0708 74.5441 44.4721C75.3281 44.8641 75.9301 45.4334 76.3501 46.1801C76.7794 46.9174 76.9941 47.7808 76.9941 48.7701C76.9941 49.7594 76.7794 50.6181 76.3501 51.3461C75.9301 52.0741 75.3281 52.6341 74.5441 53.0261C73.7694 53.4088 72.8641 53.6001 71.8281 53.6001H68.6501V43.8701H71.8281ZM71.8281 52.2981C72.9668 52.2981 73.8394 51.9901 74.4461 51.3741C75.0528 50.7581 75.3561 49.8901 75.3561 48.7701C75.3561 47.6408 75.0528 46.7588 74.4461 46.1241C73.8394 45.4894 72.9668 45.1721 71.8281 45.1721H70.2461V52.2981H71.8281ZM85.6459 49.5541C85.6459 49.8434 85.6272 50.1048 85.5899 50.3381H79.6959C79.7425 50.9541 79.9712 51.4488 80.3819 51.8221C80.7925 52.1954 81.2965 52.3821 81.8939 52.3821C82.7525 52.3821 83.3592 52.0228 83.7139 51.3041H85.4359C85.2025 52.0134 84.7779 52.5968 84.1619 53.0541C83.5552 53.5021 82.7992 53.7261 81.8939 53.7261C81.1565 53.7261 80.4939 53.5628 79.9059 53.2361C79.3272 52.9001 78.8699 52.4334 78.5339 51.8361C78.2072 51.2294 78.0439 50.5294 78.0439 49.7361C78.0439 48.9428 78.2025 48.2474 78.5199 47.6501C78.8465 47.0434 79.2992 46.5768 79.8779 46.2501C80.4659 45.9234 81.1379 45.7601 81.8939 45.7601C82.6219 45.7601 83.2705 45.9188 83.8399 46.2361C84.4092 46.5534 84.8525 47.0014 85.1699 47.5801C85.4872 48.1494 85.6459 48.8074 85.6459 49.5541ZM83.9799 49.0501C83.9705 48.4621 83.7605 47.9908 83.3499 47.6361C82.9392 47.2814 82.4305 47.1041 81.8239 47.1041C81.2732 47.1041 80.8019 47.2814 80.4099 47.6361C80.0179 47.9814 79.7845 48.4528 79.7099 49.0501H83.9799ZM88.0285 44.8641C87.7392 44.8641 87.4965 44.7661 87.3005 44.5701C87.1045 44.3741 87.0065 44.1314 87.0065 43.8421C87.0065 43.5528 87.1045 43.3101 87.3005 43.1141C87.4965 42.9181 87.7392 42.8201 88.0285 42.8201C88.3085 42.8201 88.5465 42.9181 88.7425 43.1141C88.9385 43.3101 89.0365 43.5528 89.0365 43.8421C89.0365 44.1314 88.9385 44.3741 88.7425 44.5701C88.5465 44.7661 88.3085 44.8641 88.0285 44.8641ZM88.8125 45.8861V53.6001H87.2165V45.8861H88.8125ZM94.7999 45.7601C95.4066 45.7601 95.9479 45.8861 96.4239 46.1381C96.9092 46.3901 97.2872 46.7634 97.5579 47.2581C97.8286 47.7528 97.9639 48.3501 97.9639 49.0501V53.6001H96.3819V49.2881C96.3819 48.5974 96.2092 48.0701 95.8639 47.7061C95.5186 47.3328 95.0472 47.1461 94.4499 47.1461C93.8526 47.1461 93.3766 47.3328 93.0219 47.7061C92.6766 48.0701 92.5039 48.5974 92.5039 49.2881V53.6001H90.9079V45.8861H92.5039V46.7681C92.7652 46.4508 93.0966 46.2034 93.4979 46.0261C93.9086 45.8488 94.3426 45.7601 94.7999 45.7601ZM108.69 53.6001L106.45 49.7081H105.232V53.6001H103.636V43.8701H106.996C107.743 43.8701 108.373 44.0008 108.886 44.2621C109.409 44.5234 109.796 44.8734 110.048 45.3121C110.31 45.7508 110.44 46.2408 110.44 46.7821C110.44 47.4168 110.254 47.9954 109.88 48.5181C109.516 49.0314 108.952 49.3814 108.186 49.5681L110.594 53.6001H108.69ZM105.232 48.4341H106.996C107.594 48.4341 108.042 48.2848 108.34 47.9861C108.648 47.6874 108.802 47.2861 108.802 46.7821C108.802 46.2781 108.653 45.8861 108.354 45.6061C108.056 45.3168 107.603 45.1721 106.996 45.1721H105.232V48.4341ZM119.552 49.5541C119.552 49.8434 119.533 50.1048 119.496 50.3381H113.602C113.649 50.9541 113.877 51.4488 114.288 51.8221C114.699 52.1954 115.203 52.3821 115.8 52.3821C116.659 52.3821 117.265 52.0228 117.62 51.3041H119.342C119.109 52.0134 118.684 52.5968 118.068 53.0541C117.461 53.5021 116.705 53.7261 115.8 53.7261C115.063 53.7261 114.4 53.5628 113.812 53.2361C113.233 52.9001 112.776 52.4334 112.44 51.8361C112.113 51.2294 111.95 50.5294 111.95 49.7361C111.95 48.9428 112.109 48.2474 112.426 47.6501C112.753 47.0434 113.205 46.5768 113.784 46.2501C114.372 45.9234 115.044 45.7601 115.8 45.7601C116.528 45.7601 117.177 45.9188 117.746 46.2361C118.315 46.5534 118.759 47.0014 119.076 47.5801C119.393 48.1494 119.552 48.8074 119.552 49.5541ZM117.886 49.0501C117.877 48.4621 117.667 47.9908 117.256 47.6361C116.845 47.2814 116.337 47.1041 115.73 47.1041C115.179 47.1041 114.708 47.2814 114.316 47.6361C113.924 47.9814 113.691 48.4528 113.616 49.0501H117.886ZM121.935 44.8641C121.645 44.8641 121.403 44.7661 121.207 44.5701C121.011 44.3741 120.913 44.1314 120.913 43.8421C120.913 43.5528 121.011 43.3101 121.207 43.1141C121.403 42.9181 121.645 42.8201 121.935 42.8201C122.215 42.8201 122.453 42.9181 122.649 43.1141C122.845 43.3101 122.943 43.5528 122.943 43.8421C122.943 44.1314 122.845 44.3741 122.649 44.5701C122.453 44.7661 122.215 44.8641 121.935 44.8641ZM122.719 45.8861V53.6001H121.123V45.8861H122.719ZM127.614 53.7261C127.007 53.7261 126.461 53.6188 125.976 53.4041C125.5 53.1801 125.122 52.8814 124.842 52.5081C124.562 52.1254 124.413 51.7008 124.394 51.2341H126.046C126.074 51.5608 126.228 51.8361 126.508 52.0601C126.797 52.2748 127.157 52.3821 127.586 52.3821C128.034 52.3821 128.379 52.2981 128.622 52.1301C128.874 51.9528 129 51.7288 129 51.4581C129 51.1688 128.86 50.9541 128.58 50.8141C128.309 50.6741 127.875 50.5201 127.278 50.3521C126.699 50.1934 126.228 50.0394 125.864 49.8901C125.5 49.7408 125.183 49.5121 124.912 49.2041C124.651 48.8961 124.52 48.4901 124.52 47.9861C124.52 47.5754 124.641 47.2021 124.884 46.8661C125.127 46.5208 125.472 46.2501 125.92 46.0541C126.377 45.8581 126.9 45.7601 127.488 45.7601C128.365 45.7601 129.07 45.9841 129.602 46.4321C130.143 46.8708 130.433 47.4728 130.47 48.2381H128.874C128.846 47.8928 128.706 47.6174 128.454 47.4121C128.202 47.2068 127.861 47.1041 127.432 47.1041C127.012 47.1041 126.69 47.1834 126.466 47.3421C126.242 47.5008 126.13 47.7108 126.13 47.9721C126.13 48.1774 126.205 48.3501 126.354 48.4901C126.503 48.6301 126.685 48.7421 126.9 48.8261C127.115 48.9008 127.432 48.9988 127.852 49.1201C128.412 49.2694 128.869 49.4234 129.224 49.5821C129.588 49.7314 129.901 49.9554 130.162 50.2541C130.423 50.5528 130.559 50.9494 130.568 51.4441C130.568 51.8828 130.447 52.2748 130.204 52.6201C129.961 52.9654 129.616 53.2361 129.168 53.4321C128.729 53.6281 128.211 53.7261 127.614 53.7261ZM139.363 49.5541C139.363 49.8434 139.344 50.1048 139.307 50.3381H133.413C133.459 50.9541 133.688 51.4488 134.099 51.8221C134.509 52.1954 135.013 52.3821 135.611 52.3821C136.469 52.3821 137.076 52.0228 137.431 51.3041H139.153C138.919 52.0134 138.495 52.5968 137.879 53.0541C137.272 53.5021 136.516 53.7261 135.611 53.7261C134.873 53.7261 134.211 53.5628 133.623 53.2361C133.044 52.9001 132.587 52.4334 132.251 51.8361C131.924 51.2294 131.761 50.5294 131.761 49.7361C131.761 48.9428 131.919 48.2474 132.237 47.6501C132.563 47.0434 133.016 46.5768 133.595 46.2501C134.183 45.9234 134.855 45.7601 135.611 45.7601C136.339 45.7601 136.987 45.9188 137.557 46.2361C138.126 46.5534 138.569 47.0014 138.887 47.5801C139.204 48.1494 139.363 48.8074 139.363 49.5541ZM137.697 49.0501C137.687 48.4621 137.477 47.9908 137.067 47.6361C136.656 47.2814 136.147 47.1041 135.541 47.1041C134.99 47.1041 134.519 47.2814 134.127 47.6361C133.735 47.9814 133.501 48.4528 133.427 49.0501H137.697ZM142.529 47.0201C142.8 46.6654 143.169 46.3668 143.635 46.1241C144.102 45.8814 144.629 45.7601 145.217 45.7601C145.889 45.7601 146.501 45.9281 147.051 46.2641C147.611 46.5908 148.05 47.0528 148.367 47.6501C148.685 48.2474 148.843 48.9334 148.843 49.7081C148.843 50.4828 148.685 51.1781 148.367 51.7941C148.05 52.4008 147.611 52.8768 147.051 53.2221C146.501 53.5581 145.889 53.7261 145.217 53.7261C144.629 53.7261 144.107 53.6094 143.649 53.3761C143.192 53.1334 142.819 52.8348 142.529 52.4801V57.2681H140.933V45.8861H142.529V47.0201ZM147.219 49.7081C147.219 49.1761 147.107 48.7188 146.883 48.3361C146.669 47.9441 146.379 47.6501 146.015 47.4541C145.661 47.2488 145.278 47.1461 144.867 47.1461C144.466 47.1461 144.083 47.2488 143.719 47.4541C143.365 47.6594 143.075 47.9581 142.851 48.3501C142.637 48.7421 142.529 49.2041 142.529 49.7361C142.529 50.2681 142.637 50.7348 142.851 51.1361C143.075 51.5281 143.365 51.8268 143.719 52.0321C144.083 52.2374 144.466 52.3401 144.867 52.3401C145.278 52.3401 145.661 52.2374 146.015 52.0321C146.379 51.8174 146.669 51.5094 146.883 51.1081C147.107 50.7068 147.219 50.2401 147.219 49.7081ZM149.89 49.7081C149.89 48.9334 150.048 48.2474 150.366 47.6501C150.692 47.0528 151.131 46.5908 151.682 46.2641C152.242 45.9281 152.858 45.7601 153.53 45.7601C154.136 45.7601 154.664 45.8814 155.112 46.1241C155.569 46.3574 155.933 46.6514 156.204 47.0061V45.8861H157.814V53.6001H156.204V52.4521C155.933 52.8161 155.564 53.1194 155.098 53.3621C154.631 53.6048 154.099 53.7261 153.502 53.7261C152.839 53.7261 152.232 53.5581 151.682 53.2221C151.131 52.8768 150.692 52.4008 150.366 51.7941C150.048 51.1781 149.89 50.4828 149.89 49.7081ZM156.204 49.7361C156.204 49.2041 156.092 48.7421 155.868 48.3501C155.653 47.9581 155.368 47.6594 155.014 47.4541C154.659 47.2488 154.276 47.1461 153.866 47.1461C153.455 47.1461 153.072 47.2488 152.718 47.4541C152.363 47.6501 152.074 47.9441 151.85 48.3361C151.635 48.7188 151.528 49.1761 151.528 49.7081C151.528 50.2401 151.635 50.7068 151.85 51.1081C152.074 51.5094 152.363 51.8174 152.718 52.0321C153.082 52.2374 153.464 52.3401 153.866 52.3401C154.276 52.3401 154.659 52.2374 155.014 52.0321C155.368 51.8268 155.653 51.5281 155.868 51.1361C156.092 50.7348 156.204 50.2681 156.204 49.7361ZM162.71 53.7261C162.103 53.7261 161.557 53.6188 161.072 53.4041C160.596 53.1801 160.218 52.8814 159.938 52.5081C159.658 52.1254 159.509 51.7008 159.49 51.2341H161.142C161.17 51.5608 161.324 51.8361 161.604 52.0601C161.893 52.2748 162.253 52.3821 162.682 52.3821C163.13 52.3821 163.475 52.2981 163.718 52.1301C163.97 51.9528 164.096 51.7288 164.096 51.4581C164.096 51.1688 163.956 50.9541 163.676 50.8141C163.405 50.6741 162.971 50.5201 162.374 50.3521C161.795 50.1934 161.324 50.0394 160.96 49.8901C160.596 49.7408 160.279 49.5121 160.008 49.2041C159.747 48.8961 159.616 48.4901 159.616 47.9861C159.616 47.5754 159.737 47.2021 159.98 46.8661C160.223 46.5208 160.568 46.2501 161.016 46.0541C161.473 45.8581 161.996 45.7601 162.584 45.7601C163.461 45.7601 164.166 45.9841 164.698 46.4321C165.239 46.8708 165.529 47.4728 165.566 48.2381H163.97C163.942 47.8928 163.802 47.6174 163.55 47.4121C163.298 47.2068 162.957 47.1041 162.528 47.1041C162.108 47.1041 161.786 47.1834 161.562 47.3421C161.338 47.5008 161.226 47.7108 161.226 47.9721C161.226 48.1774 161.301 48.3501 161.45 48.4901C161.599 48.6301 161.781 48.7421 161.996 48.8261C162.211 48.9008 162.528 48.9988 162.948 49.1201C163.508 49.2694 163.965 49.4234 164.32 49.5821C164.684 49.7314 164.997 49.9554 165.258 50.2541C165.519 50.5528 165.655 50.9494 165.664 51.4441C165.664 51.8828 165.543 52.2748 165.3 52.6201C165.057 52.9654 164.712 53.2361 164.264 53.4321C163.825 53.6281 163.307 53.7261 162.71 53.7261ZM170.188 53.7261C169.582 53.7261 169.036 53.6188 168.55 53.4041C168.074 53.1801 167.696 52.8814 167.416 52.5081C167.136 52.1254 166.987 51.7008 166.968 51.2341H168.62C168.648 51.5608 168.802 51.8361 169.082 52.0601C169.372 52.2748 169.731 52.3821 170.16 52.3821C170.608 52.3821 170.954 52.2981 171.196 52.1301C171.448 51.9528 171.574 51.7288 171.574 51.4581C171.574 51.1688 171.434 50.9541 171.154 50.8141C170.884 50.6741 170.45 50.5201 169.852 50.3521C169.274 50.1934 168.802 50.0394 168.438 49.8901C168.074 49.7408 167.757 49.5121 167.486 49.2041C167.225 48.8961 167.094 48.4901 167.094 47.9861C167.094 47.5754 167.216 47.2021 167.458 46.8661C167.701 46.5208 168.046 46.2501 168.494 46.0541C168.952 45.8581 169.474 45.7601 170.062 45.7601C170.94 45.7601 171.644 45.9841 172.176 46.4321C172.718 46.8708 173.007 47.4728 173.044 48.2381H171.448C171.42 47.8928 171.28 47.6174 171.028 47.4121C170.776 47.2068 170.436 47.1041 170.006 47.1041C169.586 47.1041 169.264 47.1834 169.04 47.3421C168.816 47.5008 168.704 47.7108 168.704 47.9721C168.704 48.1774 168.779 48.3501 168.928 48.4901C169.078 48.6301 169.26 48.7421 169.474 48.8261C169.689 48.9008 170.006 48.9988 170.426 49.1201C170.986 49.2694 171.444 49.4234 171.798 49.5821C172.162 49.7314 172.475 49.9554 172.736 50.2541C172.998 50.5528 173.133 50.9494 173.142 51.4441C173.142 51.8828 173.021 52.2748 172.778 52.6201C172.536 52.9654 172.19 53.2361 171.742 53.4321C171.304 53.6281 170.786 53.7261 170.188 53.7261ZM180.1 43.2401V53.6001H178.504V43.2401H180.1ZM181.663 49.7081C181.663 48.9334 181.822 48.2474 182.139 47.6501C182.466 47.0528 182.904 46.5908 183.455 46.2641C184.015 45.9281 184.631 45.7601 185.303 45.7601C185.91 45.7601 186.437 45.8814 186.885 46.1241C187.342 46.3574 187.706 46.6514 187.977 47.0061V45.8861H189.587V53.6001H187.977V52.4521C187.706 52.8161 187.338 53.1194 186.871 53.3621C186.404 53.6048 185.872 53.7261 185.275 53.7261C184.612 53.7261 184.006 53.5581 183.455 53.2221C182.904 52.8768 182.466 52.4008 182.139 51.7941C181.822 51.1781 181.663 50.4828 181.663 49.7081ZM187.977 49.7361C187.977 49.2041 187.865 48.7421 187.641 48.3501C187.426 47.9581 187.142 47.6594 186.787 47.4541C186.432 47.2488 186.05 47.1461 185.639 47.1461C185.228 47.1461 184.846 47.2488 184.491 47.4541C184.136 47.6501 183.847 47.9441 183.623 48.3361C183.408 48.7188 183.301 49.1761 183.301 49.7081C183.301 50.2401 183.408 50.7068 183.623 51.1081C183.847 51.5094 184.136 51.8174 184.491 52.0321C184.855 52.2374 185.238 52.3401 185.639 52.3401C186.05 52.3401 186.432 52.2374 186.787 52.0321C187.142 51.8268 187.426 51.5281 187.641 51.1361C187.865 50.7348 187.977 50.2681 187.977 49.7361ZM184.687 44.9201C184.454 44.9201 184.253 44.8408 184.085 44.6821C183.926 44.5141 183.847 44.3134 183.847 44.0801C183.847 43.8468 183.926 43.6508 184.085 43.4921C184.253 43.3241 184.454 43.2401 184.687 43.2401C184.92 43.2401 185.116 43.3241 185.275 43.4921C185.443 43.6508 185.527 43.8468 185.527 44.0801C185.527 44.3134 185.443 44.5141 185.275 44.6821C185.116 44.8408 184.92 44.9201 184.687 44.9201ZM187.095 44.9201C186.862 44.9201 186.661 44.8408 186.493 44.6821C186.334 44.5141 186.255 44.3134 186.255 44.0801C186.255 43.8468 186.334 43.6508 186.493 43.4921C186.661 43.3241 186.862 43.2401 187.095 43.2401C187.328 43.2401 187.524 43.3241 187.683 43.4921C187.851 43.6508 187.935 43.8468 187.935 44.0801C187.935 44.3134 187.851 44.5141 187.683 44.6821C187.524 44.8408 187.328 44.9201 187.095 44.9201ZM198.669 45.8861V53.6001H197.073V52.6901C196.821 53.0074 196.49 53.2594 196.079 53.4461C195.678 53.6234 195.249 53.7121 194.791 53.7121C194.185 53.7121 193.639 53.5861 193.153 53.3341C192.677 53.0821 192.299 52.7088 192.019 52.2141C191.749 51.7194 191.613 51.1221 191.613 50.4221V45.8861H193.195V50.1841C193.195 50.8748 193.368 51.4068 193.713 51.7801C194.059 52.1441 194.53 52.3261 195.127 52.3261C195.725 52.3261 196.196 52.1441 196.541 51.7801C196.896 51.4068 197.073 50.8748 197.073 50.1841V45.8861H198.669ZM204.009 47.1881H202.581V53.6001H200.971V47.1881H200.061V45.8861H200.971V45.3401C200.971 44.4534 201.204 43.8094 201.671 43.4081C202.147 42.9974 202.889 42.7921 203.897 42.7921V44.1221C203.412 44.1221 203.071 44.2154 202.875 44.4021C202.679 44.5794 202.581 44.8921 202.581 45.3401V45.8861H204.009V47.1881ZM207.286 47.1881V51.4581C207.286 51.7474 207.351 51.9574 207.482 52.0881C207.622 52.2094 207.855 52.2701 208.182 52.2701H209.162V53.6001H207.902C207.183 53.6001 206.632 53.4321 206.25 53.0961C205.867 52.7601 205.676 52.2141 205.676 51.4581V47.1881H204.766V45.8861H205.676V43.9681H207.286V45.8861H209.162V47.1881H207.286ZM215.081 44.8641C214.792 44.8641 214.549 44.7661 214.353 44.5701C214.157 44.3741 214.059 44.1314 214.059 43.8421C214.059 43.5528 214.157 43.3101 214.353 43.1141C214.549 42.9181 214.792 42.8201 215.081 42.8201C215.361 42.8201 215.599 42.9181 215.795 43.1141C215.991 43.3101 216.089 43.5528 216.089 43.8421C216.089 44.1314 215.991 44.3741 215.795 44.5701C215.599 44.7661 215.361 44.8641 215.081 44.8641ZM215.865 45.8861V53.6001H214.269V45.8861H215.865ZM221.853 45.7601C222.459 45.7601 223.001 45.8861 223.477 46.1381C223.962 46.3901 224.34 46.7634 224.611 47.2581C224.881 47.7528 225.017 48.3501 225.017 49.0501V53.6001H223.435V49.2881C223.435 48.5974 223.262 48.0701 222.917 47.7061C222.571 47.3328 222.1 47.1461 221.503 47.1461C220.905 47.1461 220.429 47.3328 220.075 47.7061C219.729 48.0701 219.557 48.5974 219.557 49.2881V53.6001H217.961V45.8861H219.557V46.7681C219.818 46.4508 220.149 46.2034 220.551 46.0261C220.961 45.8488 221.395 45.7601 221.853 45.7601ZM235.967 45.7601C235.864 45.3308 235.678 45.0088 235.407 44.7941C235.136 44.5794 234.758 44.4721 234.273 44.4721C233.536 44.4721 232.985 44.7568 232.621 45.3261C232.257 45.8861 232.066 46.8194 232.047 48.1261C232.29 47.7154 232.644 47.3981 233.111 47.1741C233.578 46.9501 234.082 46.8381 234.623 46.8381C235.239 46.8381 235.78 46.9734 236.247 47.2441C236.723 47.5054 237.092 47.8881 237.353 48.3921C237.624 48.8961 237.759 49.4981 237.759 50.1981C237.759 50.8514 237.628 51.4348 237.367 51.9481C237.115 52.4614 236.737 52.8674 236.233 53.1661C235.729 53.4554 235.122 53.6001 234.413 53.6001C233.452 53.6001 232.696 53.3901 232.145 52.9701C231.604 52.5408 231.221 51.9388 230.997 51.1641C230.782 50.3894 230.675 49.4234 230.675 48.2661C230.675 44.8501 231.879 43.1421 234.287 43.1421C235.22 43.1421 235.953 43.3941 236.485 43.8981C237.026 44.4021 237.344 45.0228 237.437 45.7601H235.967ZM234.273 48.1821C233.704 48.1821 233.218 48.3548 232.817 48.7001C232.425 49.0361 232.229 49.5261 232.229 50.1701C232.229 50.8141 232.411 51.3274 232.775 51.7101C233.148 52.0834 233.666 52.2701 234.329 52.2701C234.917 52.2701 235.379 52.0881 235.715 51.7241C236.06 51.3601 236.233 50.8748 236.233 50.2681C236.233 49.6334 236.065 49.1294 235.729 48.7561C235.402 48.3734 234.917 48.1821 234.273 48.1821ZM253.556 43.8701V53.6001H251.96V46.9361L248.992 53.6001H247.886L244.904 46.9361V53.6001H243.308V43.8701H245.03L248.446 51.5001L251.848 43.8701H253.556ZM259 53.7261C258.272 53.7261 257.614 53.5628 257.026 53.2361C256.438 52.9001 255.976 52.4334 255.64 51.8361C255.304 51.2294 255.136 50.5294 255.136 49.7361C255.136 48.9521 255.309 48.2568 255.654 47.6501C255.999 47.0434 256.471 46.5768 257.068 46.2501C257.665 45.9234 258.333 45.7601 259.07 45.7601C259.807 45.7601 260.475 45.9234 261.072 46.2501C261.669 46.5768 262.141 47.0434 262.486 47.6501C262.831 48.2568 263.004 48.9521 263.004 49.7361C263.004 50.5201 262.827 51.2154 262.472 51.8221C262.117 52.4288 261.632 52.9001 261.016 53.2361C260.409 53.5628 259.737 53.7261 259 53.7261ZM259 52.3401C259.411 52.3401 259.793 52.2421 260.148 52.0461C260.512 51.8501 260.806 51.5561 261.03 51.1641C261.254 50.7721 261.366 50.2961 261.366 49.7361C261.366 49.1761 261.259 48.7048 261.044 48.3221C260.829 47.9301 260.545 47.6361 260.19 47.4401C259.835 47.2441 259.453 47.1461 259.042 47.1461C258.631 47.1461 258.249 47.2441 257.894 47.4401C257.549 47.6361 257.273 47.9301 257.068 48.3221C256.863 48.7048 256.76 49.1761 256.76 49.7361C256.76 50.5668 256.97 51.2108 257.39 51.6681C257.819 52.1161 258.356 52.3401 259 52.3401ZM268.474 45.7601C269.08 45.7601 269.622 45.8861 270.098 46.1381C270.583 46.3901 270.961 46.7634 271.232 47.2581C271.502 47.7528 271.638 48.3501 271.638 49.0501V53.6001H270.056V49.2881C270.056 48.5974 269.883 48.0701 269.538 47.7061C269.192 47.3328 268.721 47.1461 268.124 47.1461C267.526 47.1461 267.05 47.3328 266.696 47.7061C266.35 48.0701 266.178 48.5974 266.178 49.2881V53.6001H264.582V45.8861H266.178V46.7681C266.439 46.4508 266.77 46.2034 267.172 46.0261C267.582 45.8488 268.016 45.7601 268.474 45.7601ZM273.142 49.7081C273.142 48.9334 273.3 48.2474 273.618 47.6501C273.944 47.0528 274.383 46.5908 274.934 46.2641C275.494 45.9281 276.11 45.7601 276.782 45.7601C277.388 45.7601 277.916 45.8814 278.364 46.1241C278.821 46.3574 279.185 46.6514 279.456 47.0061V45.8861H281.066V53.6001H279.456V52.4521C279.185 52.8161 278.816 53.1194 278.35 53.3621C277.883 53.6048 277.351 53.7261 276.754 53.7261C276.091 53.7261 275.484 53.5581 274.934 53.2221C274.383 52.8768 273.944 52.4008 273.618 51.7941C273.3 51.1781 273.142 50.4828 273.142 49.7081ZM279.456 49.7361C279.456 49.2041 279.344 48.7421 279.12 48.3501C278.905 47.9581 278.62 47.6594 278.266 47.4541C277.911 47.2488 277.528 47.1461 277.118 47.1461C276.707 47.1461 276.324 47.2488 275.97 47.4541C275.615 47.6501 275.326 47.9441 275.102 48.3361C274.887 48.7188 274.78 49.1761 274.78 49.7081C274.78 50.2401 274.887 50.7068 275.102 51.1081C275.326 51.5094 275.615 51.8174 275.97 52.0321C276.334 52.2374 276.716 52.3401 277.118 52.3401C277.528 52.3401 277.911 52.2374 278.266 52.0321C278.62 51.8268 278.905 51.5281 279.12 51.1361C279.344 50.7348 279.456 50.2681 279.456 49.7361ZM285.024 47.1881V51.4581C285.024 51.7474 285.089 51.9574 285.22 52.0881C285.36 52.2094 285.593 52.2701 285.92 52.2701H286.9V53.6001H285.64C284.921 53.6001 284.37 53.4321 283.988 53.0961C283.605 52.7601 283.414 52.2141 283.414 51.4581V47.1881H282.504V45.8861H283.414V43.9681H285.024V45.8861H286.9V47.1881H285.024ZM295.441 49.5541C295.441 49.8434 295.422 50.1048 295.385 50.3381H289.491C289.537 50.9541 289.766 51.4488 290.177 51.8221C290.587 52.1954 291.091 52.3821 291.689 52.3821C292.547 52.3821 293.154 52.0228 293.509 51.3041H295.231C294.997 52.0134 294.573 52.5968 293.957 53.0541C293.35 53.5021 292.594 53.7261 291.689 53.7261C290.951 53.7261 290.289 53.5628 289.701 53.2361C289.122 52.9001 288.665 52.4334 288.329 51.8361C288.002 51.2294 287.839 50.5294 287.839 49.7361C287.839 48.9428 287.997 48.2474 288.315 47.6501C288.641 47.0434 289.094 46.5768 289.673 46.2501C290.261 45.9234 290.933 45.7601 291.689 45.7601C292.417 45.7601 293.065 45.9188 293.635 46.2361C294.204 46.5534 294.647 47.0014 294.965 47.5801C295.282 48.1494 295.441 48.8074 295.441 49.5541ZM293.775 49.0501C293.765 48.4621 293.555 47.9908 293.145 47.6361C292.734 47.2814 292.225 47.1041 291.619 47.1041C291.068 47.1041 290.597 47.2814 290.205 47.6361C289.813 47.9814 289.579 48.4528 289.505 49.0501H293.775ZM300.903 45.7601C301.51 45.7601 302.051 45.8861 302.527 46.1381C303.013 46.3901 303.391 46.7634 303.661 47.2581C303.932 47.7528 304.067 48.3501 304.067 49.0501V53.6001H302.485V49.2881C302.485 48.5974 302.313 48.0701 301.967 47.7061C301.622 47.3328 301.151 47.1461 300.553 47.1461C299.956 47.1461 299.48 47.3328 299.125 47.7061C298.78 48.0701 298.607 48.5974 298.607 49.2881V53.6001H297.011V45.8861H298.607V46.7681C298.869 46.4508 299.2 46.2034 299.601 46.0261C300.012 45.8488 300.446 45.7601 300.903 45.7601ZM309.208 49.7081C309.208 48.9334 309.367 48.2474 309.684 47.6501C310.011 47.0528 310.449 46.5908 311 46.2641C311.56 45.9281 312.176 45.7601 312.848 45.7601C313.455 45.7601 313.982 45.8814 314.43 46.1241C314.887 46.3574 315.251 46.6514 315.522 47.0061V45.8861H317.132V53.6001H315.522V52.4521C315.251 52.8161 314.883 53.1194 314.416 53.3621C313.949 53.6048 313.417 53.7261 312.82 53.7261C312.157 53.7261 311.551 53.5581 311 53.2221C310.449 52.8768 310.011 52.4008 309.684 51.7941C309.367 51.1781 309.208 50.4828 309.208 49.7081ZM315.522 49.7361C315.522 49.2041 315.41 48.7421 315.186 48.3501C314.971 47.9581 314.687 47.6594 314.332 47.4541C313.977 47.2488 313.595 47.1461 313.184 47.1461C312.773 47.1461 312.391 47.2488 312.036 47.4541C311.681 47.6501 311.392 47.9441 311.168 48.3361C310.953 48.7188 310.846 49.1761 310.846 49.7081C310.846 50.2401 310.953 50.7068 311.168 51.1081C311.392 51.5094 311.681 51.8174 312.036 52.0321C312.4 52.2374 312.783 52.3401 313.184 52.3401C313.595 52.3401 313.977 52.2374 314.332 52.0321C314.687 51.8268 314.971 51.5281 315.186 51.1361C315.41 50.7348 315.522 50.2681 315.522 49.7361ZM320.824 47.0341C321.095 46.6608 321.464 46.3574 321.93 46.1241C322.406 45.8814 322.934 45.7601 323.512 45.7601C324.194 45.7601 324.81 45.9234 325.36 46.2501C325.911 46.5768 326.345 47.0434 326.662 47.6501C326.98 48.2474 327.138 48.9334 327.138 49.7081C327.138 50.4828 326.98 51.1781 326.662 51.7941C326.345 52.4008 325.906 52.8768 325.346 53.2221C324.796 53.5581 324.184 53.7261 323.512 53.7261C322.915 53.7261 322.383 53.6094 321.916 53.3761C321.459 53.1428 321.095 52.8441 320.824 52.4801V53.6001H319.228V43.2401H320.824V47.0341ZM325.514 49.7081C325.514 49.1761 325.402 48.7188 325.178 48.3361C324.964 47.9441 324.674 47.6501 324.31 47.4541C323.956 47.2488 323.573 47.1461 323.162 47.1461C322.761 47.1461 322.378 47.2488 322.014 47.4541C321.66 47.6594 321.37 47.9581 321.146 48.3501C320.932 48.7421 320.824 49.2041 320.824 49.7361C320.824 50.2681 320.932 50.7348 321.146 51.1361C321.37 51.5281 321.66 51.8268 322.014 52.0321C322.378 52.2374 322.761 52.3401 323.162 52.3401C323.573 52.3401 323.956 52.2374 324.31 52.0321C324.674 51.8174 324.964 51.5094 325.178 51.1081C325.402 50.7068 325.514 50.2401 325.514 49.7081Z" fill="black"/>
<path d="M53.6003 33.4876C53.3649 33.6095 53.0907 33.633 52.838 33.5528C52.5854 33.4726 52.3749 33.2954 52.2528 33.0601C51.2983 31.1745 49.8535 29.5808 48.0703 28.4464C47.9592 28.3763 47.8629 28.285 47.7871 28.1777C47.7112 28.0704 47.6572 27.9492 47.6282 27.8211C47.5992 27.693 47.5957 27.5603 47.6179 27.4309C47.6402 27.3014 47.6877 27.1775 47.7578 27.0664C47.8279 26.9552 47.9192 26.859 48.0265 26.7832C48.1337 26.7073 48.2549 26.6533 48.3831 26.6243C48.5112 26.5953 48.6438 26.5918 48.7733 26.614C48.9028 26.6363 49.0267 26.6838 49.1378 26.7539C51.216 28.0845 52.9036 29.9433 54.0278 32.1401C54.1497 32.3755 54.1731 32.6497 54.093 32.9024C54.0128 33.155 53.8356 33.3656 53.6003 33.4876ZM30.064 33.6001C30.2472 33.6 30.4269 33.5496 30.5834 33.4544C30.7399 33.3592 30.8673 33.2228 30.9515 33.0601C31.906 31.1745 33.3508 29.5808 35.134 28.4464C35.3585 28.3048 35.5175 28.0799 35.5761 27.8211C35.6347 27.5623 35.5881 27.2908 35.4465 27.0664C35.305 26.8419 35.0801 26.6829 34.8213 26.6243C34.5625 26.5657 34.291 26.6123 34.0665 26.7539C31.9883 28.0845 30.3008 29.9433 29.1765 32.1401C29.0976 32.2925 29.0592 32.4627 29.065 32.6342C29.0709 32.8058 29.1208 32.9729 29.2099 33.1196C29.2991 33.2662 29.4245 33.3875 29.5741 33.4716C29.7237 33.5558 29.8924 33.6001 30.064 33.6001ZM53.3265 46.5926C53.5037 46.8964 53.5976 47.2416 53.5988 47.5933C53.6 47.9449 53.5085 48.2907 53.3334 48.5957C53.1583 48.9008 52.9059 49.1542 52.6017 49.3305C52.2974 49.5069 51.952 49.5999 51.6003 49.6001H46.5003C46.2708 50.7304 45.6576 51.7466 44.7645 52.4765C43.8715 53.2064 42.7536 53.6051 41.6003 53.6051C40.4469 53.6051 39.329 53.2064 38.436 52.4765C37.543 51.7466 36.9298 50.7304 36.7003 49.6001H31.6003C31.2488 49.5994 30.9037 49.5061 30.5998 49.3296C30.2959 49.1531 30.0438 48.8996 29.869 48.5947C29.6943 48.2897 29.6029 47.9441 29.6042 47.5926C29.6056 47.2412 29.6995 46.8962 29.8765 46.5926C31.0028 44.6489 31.6003 41.8851 31.6003 38.6001C31.6003 35.948 32.6539 33.4044 34.5292 31.5291C36.4046 29.6537 38.9481 28.6001 41.6003 28.6001C44.2524 28.6001 46.796 29.6537 48.6714 31.5291C50.5467 33.4044 51.6003 35.948 51.6003 38.6001C51.6003 41.8839 52.1978 44.6476 53.3265 46.5926ZM44.4278 49.6001H38.7728C38.98 50.1844 39.363 50.6901 39.8694 51.0478C40.3757 51.4055 40.9804 51.5975 41.6003 51.5975C42.2202 51.5975 42.8249 51.4055 43.3312 51.0478C43.8375 50.6901 44.2206 50.1844 44.4278 49.6001ZM51.6003 47.6001C50.2703 45.3164 49.6003 42.2889 49.6003 38.6001C49.6003 36.4784 48.7574 34.4436 47.2571 32.9433C45.7568 31.443 43.722 30.6001 41.6003 30.6001C39.4786 30.6001 37.4437 31.443 35.9434 32.9433C34.4431 34.4436 33.6003 36.4784 33.6003 38.6001C33.6003 42.2901 32.9278 45.3176 31.6003 47.6001H51.6003Z" fill="black"/>
<defs>
<filter id="filter0_d_6559_17480" x="9.72748e-05" y="9.72748e-05" width="374.2" height="90.2" filterUnits="userSpaceOnUse" color-interpolation-filters="sRGB">
<feFlood flood-opacity="0" result="BackgroundImageFix"/>
<feColorMatrix in="SourceAlpha" type="matrix" values="0 0 0 0 0 0 0 0 0 0 0 0 0 0 0 0 0 0 127 0" result="hardAlpha"/>
<feOffset dy="4"/>
<feGaussianBlur stdDeviation="6.8"/>
<feComposite in2="hardAlpha" operator="out"/>
<feColorMatrix type="matrix" values="0 0 0 0 0 0 0 0 0 0 0 0 0 0 0 0 0 0 0.15 0"/>
<feBlend mode="normal" in2="BackgroundImageFix" result="effect1_dropShadow_6559_17480"/>
<feBlend mode="normal" in="SourceGraphic" in2="effect1_dropShadow_6559_17480" result="shape"/>
</filter>
</defs>
</svg>
