<svg width="32" height="32" viewBox="0 0 32 32" fill="none" xmlns="http://www.w3.org/2000/svg">
<g id="Frame">
<path id="Vector" opacity="0.2" d="M14 21C14 21.7911 13.7654 22.5645 13.3259 23.2223C12.8864 23.8801 12.2616 24.3928 11.5307 24.6955C10.7998 24.9983 9.99556 25.0775 9.21964 24.9231C8.44371 24.7688 7.73098 24.3878 7.17157 23.8284C6.61216 23.269 6.2312 22.5563 6.07686 21.7804C5.92252 21.0044 6.00173 20.2002 6.30448 19.4693C6.60723 18.7384 7.11992 18.1136 7.77772 17.6741C8.43552 17.2346 9.20887 17 10 17C11.0609 17 12.0783 17.4214 12.8284 18.1716C13.5786 18.9217 14 19.9391 14 21ZM10 4C9.20887 4 8.43552 4.2346 7.77772 4.67412C7.11992 5.11365 6.60723 5.73836 6.30448 6.46927C6.00173 7.20017 5.92252 8.00444 6.07686 8.78036C6.2312 9.55629 6.61216 10.269 7.17157 10.8284C7.73098 11.3878 8.44371 11.7688 9.21964 11.9231C9.99556 12.0775 10.7998 11.9983 11.5307 11.6955C12.2616 11.3928 12.8864 10.8801 13.3259 10.2223C13.7654 9.56448 14 8.79113 14 8C14 6.93913 13.5786 5.92172 12.8284 5.17157C12.0783 4.42143 11.0609 4 10 4ZM22 17C21.2089 17 20.4355 17.2346 19.7777 17.6741C19.1199 18.1136 18.6072 18.7384 18.3045 19.4693C18.0017 20.2002 17.9225 21.0044 18.0769 21.7804C18.2312 22.5563 18.6122 23.269 19.1716 23.8284C19.731 24.3878 20.4437 24.7688 21.2196 24.9231C21.9956 25.0775 22.7998 24.9983 23.5307 24.6955C24.2616 24.3928 24.8864 23.8801 25.3259 23.2223C25.7654 22.5645 26 21.7911 26 21C26 19.9391 25.5786 18.9217 24.8284 18.1716C24.0783 17.4214 23.0609 17 22 17ZM22 12C22.7911 12 23.5645 11.7654 24.2223 11.3259C24.8801 10.8864 25.3928 10.2616 25.6955 9.53073C25.9983 8.79983 26.0775 7.99556 25.9231 7.21964C25.7688 6.44371 25.3878 5.73098 24.8284 5.17157C24.269 4.61216 23.5563 4.2312 22.7804 4.07686C22.0044 3.92252 21.2002 4.00173 20.4693 4.30448C19.7384 4.60723 19.1136 5.11992 18.6741 5.77772C18.2346 6.43552 18 7.20888 18 8C18 9.06087 18.4214 10.0783 19.1716 10.8284C19.9217 11.5786 20.9391 12 22 12Z" fill="#4f5125"/>
<path id="Vector_2" d="M3.4 15.8C3.50506 15.8788 3.62461 15.9361 3.75182 15.9687C3.87903 16.0013 4.01142 16.0085 4.14142 15.9899C4.27142 15.9714 4.39649 15.9274 4.50949 15.8605C4.62249 15.7936 4.72121 15.7051 4.8 15.6C5.40546 14.7927 6.19055 14.1375 7.09311 13.6862C7.99567 13.2349 8.99091 13 10 13C11.0091 13 12.0043 13.2349 12.9069 13.6862C13.8094 14.1375 14.5945 14.7927 15.2 15.6C15.3593 15.812 15.5963 15.952 15.8588 15.9893C16.1214 16.0265 16.388 15.958 16.6 15.7988C16.6756 15.7425 16.7425 15.6756 16.7987 15.6C17.4042 14.7927 18.1893 14.1375 19.0919 13.6862C19.9944 13.2349 20.9897 13 21.9988 13C23.0078 13 24.0031 13.2349 24.9056 13.6862C25.8082 14.1375 26.5933 14.7927 27.1987 15.6C27.358 15.8122 27.5951 15.9524 27.8578 15.9898C28.1204 16.0272 28.3872 15.9587 28.5994 15.7994C28.8115 15.6401 28.9518 15.403 28.9891 15.1404C29.0265 14.8777 28.958 14.6109 28.7987 14.3988C27.9136 13.2121 26.7332 12.2778 25.375 11.6888C26.1196 11.0089 26.6413 10.1199 26.8716 9.13825C27.1019 8.15663 27.03 7.12832 26.6654 6.18828C26.3009 5.24823 25.6606 4.44037 24.8287 3.87072C23.9967 3.30106 23.012 2.99623 22.0037 2.99623C20.9955 2.99623 20.0108 3.30106 19.1788 3.87072C18.3469 4.44037 17.7066 5.24823 17.3421 6.18828C16.9775 7.12832 16.9056 8.15663 17.1359 9.13825C17.3662 10.1199 17.8879 11.0089 18.6325 11.6888C17.6518 12.1128 16.7609 12.7199 16.0075 13.4775C15.2541 12.7199 14.3632 12.1128 13.3825 11.6888C14.1271 11.0089 14.6488 10.1199 14.8791 9.13825C15.1094 8.15663 15.0375 7.12832 14.6729 6.18828C14.3084 5.24823 13.6681 4.44037 12.8362 3.87072C12.0042 3.30106 11.0195 2.99623 10.0112 2.99623C9.00298 2.99623 8.01827 3.30106 7.18634 3.87072C6.35442 4.44037 5.71415 5.24823 5.34957 6.18828C4.98499 7.12832 4.91313 8.15663 5.14342 9.13825C5.37371 10.1199 5.89539 11.0089 6.64 11.6888C5.27581 12.2759 4.08963 13.2108 3.2 14.4C3.12121 14.5051 3.06388 14.6246 3.03129 14.7518C2.99869 14.879 2.99148 15.0114 3.01005 15.1414C3.02862 15.2714 3.07262 15.3965 3.13953 15.5095C3.20643 15.6225 3.29494 15.7212 3.4 15.8ZM22 5C22.5933 5 23.1734 5.17595 23.6667 5.50559C24.1601 5.83524 24.5446 6.30377 24.7716 6.85195C24.9987 7.40013 25.0581 8.00333 24.9424 8.58527C24.8266 9.16721 24.5409 9.70176 24.1213 10.1213C23.7018 10.5409 23.1672 10.8266 22.5853 10.9424C22.0033 11.0581 21.4001 10.9987 20.8519 10.7716C20.3038 10.5446 19.8352 10.1601 19.5056 9.66671C19.1759 9.17336 19 8.59334 19 8C19 7.20435 19.3161 6.44129 19.8787 5.87868C20.4413 5.31607 21.2044 5 22 5ZM10 5C10.5933 5 11.1734 5.17595 11.6667 5.50559C12.1601 5.83524 12.5446 6.30377 12.7716 6.85195C12.9987 7.40013 13.0581 8.00333 12.9424 8.58527C12.8266 9.16721 12.5409 9.70176 12.1213 10.1213C11.7018 10.5409 11.1672 10.8266 10.5853 10.9424C10.0033 11.0581 9.40013 10.9987 8.85195 10.7716C8.30377 10.5446 7.83524 10.1601 7.50559 9.66671C7.17595 9.17336 7 8.59334 7 8C7 7.20435 7.31607 6.44129 7.87868 5.87868C8.44129 5.31607 9.20435 5 10 5ZM25.375 24.6887C26.1196 24.0089 26.6413 23.1199 26.8716 22.1382C27.1019 21.1566 27.03 20.1283 26.6654 19.1883C26.3009 18.2482 25.6606 17.4404 24.8287 16.8707C23.9967 16.3011 23.012 15.9962 22.0037 15.9962C20.9955 15.9962 20.0108 16.3011 19.1788 16.8707C18.3469 17.4404 17.7066 18.2482 17.3421 19.1883C16.9775 20.1283 16.9056 21.1566 17.1359 22.1382C17.3662 23.1199 17.8879 24.0089 18.6325 24.6887C17.6518 25.1128 16.7609 25.7199 16.0075 26.4775C15.2541 25.7199 14.3632 25.1128 13.3825 24.6887C14.1271 24.0089 14.6488 23.1199 14.8791 22.1382C15.1094 21.1566 15.0375 20.1283 14.6729 19.1883C14.3084 18.2482 13.6681 17.4404 12.8362 16.8707C12.0042 16.3011 11.0195 15.9962 10.0112 15.9962C9.00298 15.9962 8.01827 16.3011 7.18634 16.8707C6.35442 17.4404 5.71415 18.2482 5.34957 19.1883C4.98499 20.1283 4.91313 21.1566 5.14342 22.1382C5.37371 23.1199 5.89539 24.0089 6.64 24.6887C5.27581 25.2759 4.08963 26.2108 3.2 27.4C3.12121 27.5051 3.06388 27.6246 3.03129 27.7518C2.99869 27.879 2.99148 28.0114 3.01005 28.1414C3.02862 28.2714 3.07262 28.3965 3.13953 28.5095C3.20643 28.6225 3.29494 28.7212 3.4 28.8C3.50506 28.8788 3.62461 28.9361 3.75182 28.9687C3.87903 29.0013 4.01142 29.0085 4.14142 28.9899C4.27142 28.9714 4.39649 28.9274 4.50949 28.8605C4.62249 28.7936 4.72121 28.7051 4.8 28.6C5.40546 27.7927 6.19055 27.1375 7.09311 26.6862C7.99567 26.2349 8.99091 26 10 26C11.0091 26 12.0043 26.2349 12.9069 26.6862C13.8094 27.1375 14.5945 27.7927 15.2 28.6C15.3593 28.812 15.5963 28.952 15.8588 28.9893C16.1214 29.0265 16.388 28.958 16.6 28.7987C16.6756 28.7425 16.7425 28.6756 16.7987 28.6C17.4042 27.7927 18.1893 27.1375 19.0919 26.6862C19.9944 26.2349 20.9897 26 21.9988 26C23.0078 26 24.0031 26.2349 24.9056 26.6862C25.8082 27.1375 26.5933 27.7927 27.1987 28.6C27.358 28.8122 27.5951 28.9524 27.8578 28.9898C28.1204 29.0272 28.3872 28.9587 28.5994 28.7994C28.8115 28.6401 28.9518 28.403 28.9891 28.1404C29.0265 27.8777 28.958 27.6109 28.7987 27.3987C27.9136 26.2121 26.7332 25.2778 25.375 24.6887ZM10 18C10.5933 18 11.1734 18.1759 11.6667 18.5056C12.1601 18.8352 12.5446 19.3038 12.7716 19.8519C12.9987 20.4001 13.0581 21.0033 12.9424 21.5853C12.8266 22.1672 12.5409 22.7018 12.1213 23.1213C11.7018 23.5409 11.1672 23.8266 10.5853 23.9424C10.0033 24.0581 9.40013 23.9987 8.85195 23.7716C8.30377 23.5446 7.83524 23.1601 7.50559 22.6667C7.17595 22.1734 7 21.5933 7 21C7 20.2043 7.31607 19.4413 7.87868 18.8787C8.44129 18.3161 9.20435 18 10 18ZM22 18C22.5933 18 23.1734 18.1759 23.6667 18.5056C24.1601 18.8352 24.5446 19.3038 24.7716 19.8519C24.9987 20.4001 25.0581 21.0033 24.9424 21.5853C24.8266 22.1672 24.5409 22.7018 24.1213 23.1213C23.7018 23.5409 23.1672 23.8266 22.5853 23.9424C22.0033 24.0581 21.4001 23.9987 20.8519 23.7716C20.3038 23.5446 19.8352 23.1601 19.5056 22.6667C19.1759 22.1734 19 21.5933 19 21C19 20.2043 19.3161 19.4413 19.8787 18.8787C20.4413 18.3161 21.2044 18 22 18Z" fill="#2c2d1c"/>
</g>
</svg>
