<svg width="34" height="34" viewBox="0 0 34 34" fill="none" xmlns="http://www.w3.org/2000/svg">
<g id="Frame" clip-path="url(#clip0_0_486)">
<path id="Vector" d="M30.5907 18.7345C30.2433 18.4668 29.845 18.2725 29.42 18.1636C28.9951 18.0547 28.5525 18.0334 28.1191 18.101C30.6133 15.5829 31.875 13.0794 31.875 10.625C31.875 7.10945 29.0474 4.25 25.5717 4.25C24.6495 4.24421 23.7371 4.44035 22.8988 4.82466C22.0604 5.20897 21.3163 5.77214 20.7188 6.47461C20.1212 5.77214 19.3771 5.20897 18.5387 4.82466C17.7004 4.44035 16.788 4.24421 15.8658 4.25C12.3901 4.25 9.5625 7.10945 9.5625 10.625C9.5625 12.0859 9.99281 13.5057 10.8986 15.0078C10.1568 15.1958 9.47974 15.5813 8.93961 16.1234L5.93539 19.125H2.125C1.56141 19.125 1.02091 19.3489 0.622398 19.7474C0.223883 20.1459 0 20.6864 0 21.25L0 26.5625C0 27.1261 0.223883 27.6666 0.622398 28.0651C1.02091 28.4636 1.56141 28.6875 2.125 28.6875H15.9375C16.0244 28.6875 16.1109 28.6768 16.1952 28.6556L24.6952 26.5306C24.7493 26.5177 24.8022 26.4999 24.8532 26.4775L30.0156 24.2808L30.0741 24.2542C30.5702 24.0063 30.9951 23.6362 31.3086 23.1787C31.6222 22.7211 31.8141 22.1914 31.8663 21.6392C31.9185 21.087 31.8293 20.5306 31.6071 20.0225C31.3848 19.5143 31.0369 19.0711 30.596 18.7345H30.5907ZM15.8658 6.375C16.6887 6.36296 17.4965 6.59663 18.1859 7.04614C18.8753 7.49566 19.415 8.14058 19.7359 8.89844C19.816 9.09331 19.9522 9.25999 20.1272 9.37729C20.3022 9.49459 20.5081 9.55722 20.7188 9.55722C20.9294 9.55722 21.1353 9.49459 21.3103 9.37729C21.4853 9.25999 21.6215 9.09331 21.7016 8.89844C22.0225 8.14058 22.5622 7.49566 23.2516 7.04614C23.941 6.59663 24.7488 6.36296 25.5717 6.375C27.8362 6.375 29.75 8.3207 29.75 10.625C29.75 13.2162 27.6529 16.1473 23.6858 19.1117L22.2129 19.4504C22.3422 18.9043 22.3462 18.3359 22.2246 17.788C22.103 17.2401 21.8589 16.7269 21.5108 16.2867C21.1626 15.8465 20.7193 15.4909 20.2141 15.2464C19.7089 15.0019 19.155 14.8749 18.5938 14.875H13.3716C12.2254 13.3291 11.6875 11.9691 11.6875 10.625C11.6875 8.3207 13.6013 6.375 15.8658 6.375ZM2.125 21.25H5.3125V26.5625H2.125V21.25ZM29.143 22.3404L24.0962 24.4893L15.8047 26.5625H7.4375V20.6271L10.443 17.6229C10.6397 17.4247 10.8737 17.2676 11.1316 17.1606C11.3894 17.0537 11.666 16.9991 11.9452 17H18.5938C19.0164 17 19.4218 17.1679 19.7207 17.4668C20.0196 17.7657 20.1875 18.1711 20.1875 18.5938C20.1875 19.0164 20.0196 19.4218 19.7207 19.7207C19.4218 20.0196 19.0164 20.1875 18.5938 20.1875H14.875C14.5932 20.1875 14.323 20.2994 14.1237 20.4987C13.9244 20.698 13.8125 20.9682 13.8125 21.25C13.8125 21.5318 13.9244 21.802 14.1237 22.0013C14.323 22.2006 14.5932 22.3125 14.875 22.3125H19.125C19.205 22.3123 19.2847 22.3034 19.3627 22.2859L28.2612 20.2393L28.3023 20.2287C28.574 20.1533 28.8639 20.181 29.1164 20.3065C29.3688 20.432 29.5659 20.6464 29.6697 20.9085C29.7736 21.1706 29.7768 21.4618 29.6789 21.7262C29.5809 21.9905 29.3886 22.2093 29.1391 22.3404H29.143Z" fill="#2c2d1c"/>
</g>
<defs>
<clipPath id="clip0_0_486">
<rect width="34" height="34" fill="white"/>
</clipPath>
</defs>
</svg>
