<svg width="32" height="32" viewBox="0 0 32 32" fill="none" xmlns="http://www.w3.org/2000/svg">
<g id="Frame">
<path id="Vector" opacity="0.2" d="M26 24H6C5.82497 23.9989 5.65329 23.952 5.50211 23.8638C5.35093 23.7756 5.22554 23.6492 5.13848 23.4974C5.05143 23.3456 5.00575 23.1735 5.00602 22.9985C5.00628 22.8235 5.05248 22.6516 5.14 22.5C5.96375 21.075 7 18.4763 7 14C7 11.6131 7.94821 9.32387 9.63604 7.63604C11.3239 5.94821 13.6131 5 16 5C18.3869 5 20.6761 5.94821 22.364 7.63604C24.0518 9.32387 25 11.6131 25 14C25 18.4775 26.0375 21.075 26.8625 22.5C26.9501 22.6518 26.9963 22.8239 26.9965 22.9991C26.9966 23.1744 26.9507 23.3466 26.8634 23.4985C26.776 23.6504 26.6503 23.7767 26.4988 23.8647C26.3472 23.9527 26.1752 23.9994 26 24Z" fill="#2c2d1c"/>
<path id="Vector_2" d="M21 28C21 28.2652 20.8946 28.5196 20.7071 28.7071C20.5196 28.8946 20.2652 29 20 29H12C11.7348 29 11.4804 28.8946 11.2929 28.7071C11.1054 28.5196 11 28.2652 11 28C11 27.7348 11.1054 27.4804 11.2929 27.2929C11.4804 27.1054 11.7348 27 12 27H20C20.2652 27 20.5196 27.1054 20.7071 27.2929C20.8946 27.4804 21 27.7348 21 28ZM28.4238 7.54C27.2998 5.34332 25.6122 3.48486 23.5338 2.155C23.4227 2.08406 23.2987 2.03577 23.1689 2.0129C23.0392 1.99004 22.9061 1.99305 22.7775 2.02176C22.6489 2.05048 22.5273 2.10433 22.4195 2.18022C22.3118 2.25611 22.2201 2.35254 22.1498 2.46398C22.0794 2.57541 22.0318 2.69965 22.0097 2.82955C21.9875 2.95945 21.9912 3.09245 22.0206 3.22091C22.0501 3.34936 22.1046 3.47074 22.181 3.57805C22.2575 3.68537 22.3544 3.77652 22.4662 3.84625C24.2495 4.98063 25.6942 6.57436 26.6488 8.46C26.7749 8.68792 26.985 8.85762 27.2343 8.933C27.4837 9.00838 27.7526 8.98349 27.9839 8.86362C28.2151 8.74375 28.3905 8.53836 28.4727 8.29116C28.5548 8.04396 28.5373 7.77446 28.4238 7.54ZM4.46375 9C4.64695 8.99992 4.82662 8.94952 4.98313 8.85429C5.13963 8.75906 5.26698 8.62267 5.35125 8.46C6.30575 6.57436 7.75052 4.98063 9.53375 3.84625C9.64556 3.77652 9.7425 3.68537 9.81897 3.57805C9.89544 3.47074 9.94995 3.34936 9.97936 3.22091C10.0088 3.09245 10.0125 2.95945 9.99033 2.82955C9.96817 2.69965 9.92055 2.57541 9.85022 2.46398C9.77988 2.35254 9.68821 2.25611 9.58048 2.18022C9.47275 2.10433 9.35108 2.05048 9.22247 2.02176C9.09386 1.99305 8.96084 1.99004 8.83106 2.0129C8.70128 2.03577 8.5773 2.08406 8.46625 2.155C6.38778 3.48486 4.70016 5.34332 3.57625 7.54C3.4973 7.6924 3.4589 7.86255 3.46475 8.03409C3.4706 8.20563 3.52051 8.37277 3.60966 8.51944C3.69881 8.6661 3.82422 8.78735 3.9738 8.87152C4.12338 8.95568 4.29211 8.99993 4.46375 9ZM27.7262 21.9925C27.9034 22.2963 27.9973 22.6415 27.9985 22.9931C27.9997 23.3448 27.9082 23.6906 27.7331 23.9956C27.5581 24.3006 27.3057 24.5541 27.0014 24.7304C26.6971 24.9068 26.3517 24.9997 26 25H6C5.64853 24.9993 5.30344 24.906 4.99951 24.7295C4.69557 24.553 4.44352 24.2995 4.26875 23.9945C4.09397 23.6896 4.00264 23.344 4.00396 22.9925C4.00528 22.641 4.09919 22.2961 4.27625 21.9925C5.4025 20.0488 6 17.285 6 14C6 11.3478 7.05357 8.8043 8.92893 6.92893C10.8043 5.05357 13.3478 4 16 4C18.6522 4 21.1957 5.05357 23.0711 6.92893C24.9464 8.8043 26 11.3478 26 14C26 17.2838 26.5975 20.0475 27.7262 21.9925ZM26 23C24.67 20.7162 24 17.6888 24 14C24 11.8783 23.1571 9.84344 21.6569 8.34315C20.1566 6.84285 18.1217 6 16 6C13.8783 6 11.8434 6.84285 10.3431 8.34315C8.84285 9.84344 8 11.8783 8 14C8 17.69 7.3275 20.7175 6 23H26Z" fill="#4f5125"/>
</g>
</svg>
