<svg width="742" height="478" viewBox="0 0 742 478" fill="none" xmlns="http://www.w3.org/2000/svg">
<style>
.wand-arm{transform-box:view-box;transform-origin:301px 116px;animation:wandWave 3s ease-in-out infinite}
@keyframes wandWave{0%,100%{transform:rotate(-7deg)}50%{transform:rotate(7deg)}}
@media (prefers-reduced-motion:reduce){.wand-arm{animation:none}}
.progress-arc{opacity:1;stroke-dashoffset:0;animation:progFill 4.8s ease-in-out infinite}
.flying-doc{animation:docFly 4.8s ease-in-out infinite}
.upload-card{transform-box:view-box;transform-origin:570px 197px;animation:cardPop 4.8s ease-in-out infinite}
@keyframes docFly{0%{transform:translate(-100px,20px);opacity:0}6%{transform:translate(-100px,20px);opacity:1}33%{transform:translate(34px,-6px);opacity:1}40%{transform:translate(34px,-6px);opacity:0}41%{transform:translate(-100px,20px);opacity:0}100%{transform:translate(-100px,20px);opacity:0}}
@keyframes progFill{0%{opacity:0;stroke-dashoffset:100}30%{opacity:0;stroke-dashoffset:100}33%{opacity:1;stroke-dashoffset:100}55%{opacity:1;stroke-dashoffset:0}90%{opacity:1;stroke-dashoffset:0}100%{opacity:0;stroke-dashoffset:0}}
@keyframes cardPop{0%{opacity:0;transform:scale(0.6)}58%{opacity:0;transform:scale(0.6)}66%{opacity:1;transform:scale(1.06)}72%{opacity:1;transform:scale(1)}90%{opacity:1;transform:scale(1)}100%{opacity:0;transform:scale(1)}}
@media (prefers-reduced-motion:reduce){.flying-doc,.progress-arc,.upload-card{animation:none}}
</style>
<ellipse opacity="0.21" cx="245" cy="445" rx="245" ry="33" fill="#C0B7AC"/>
<rect x="513.732" y="0.73228" width="227.535" height="184.338" rx="15.2677" fill="#FDFCFB"/>
<rect x="513.732" y="0.73228" width="227.535" height="184.338" rx="15.2677" stroke="#DDD5CB" stroke-width="1.46456"/>
<path d="M673.628 69.4013C673.628 94.4758 652.975 114.803 627.5 114.803C602.024 114.803 581.372 94.4758 581.372 69.4013C581.372 44.3269 602.024 24 627.5 24C652.975 24 673.628 44.3269 673.628 69.4013ZM591.457 69.4013C591.457 88.9937 607.594 104.876 627.5 104.876C647.406 104.876 663.543 88.9937 663.543 69.4013C663.543 49.809 647.406 33.9262 627.5 33.9262C607.594 33.9262 591.457 49.809 591.457 69.4013Z" fill="#C7CA79"/>
<circle class="progress-arc" cx="627.5" cy="69.4013" r="41.085" fill="none" stroke="#4F5125" stroke-width="10.085" stroke-linecap="round" pathLength="100" stroke-dasharray="100" transform="rotate(-90 627.5 69.4013)"/>
<path opacity="0.2" d="M637.387 63.1196L629.653 63.1196L629.653 55.3857L637.387 63.1196Z" fill="#4F5125"/>
<path d="M638.169 62.3378L630.435 54.6039C630.332 54.5014 630.21 54.42 630.076 54.3646C629.942 54.3091 629.798 54.2806 629.653 54.2808L616.395 54.2808C615.809 54.2808 615.247 54.5136 614.833 54.928C614.418 55.3424 614.186 55.9044 614.186 56.4904L614.186 80.7969C614.186 81.383 614.418 81.945 614.833 82.3594C615.247 82.7738 615.809 83.0066 616.395 83.0066L636.282 83.0066C636.868 83.0066 637.43 82.7738 637.845 82.3594C638.259 81.945 638.492 81.383 638.492 80.7969L638.492 63.1195C638.492 62.9744 638.464 62.8306 638.408 62.6965C638.353 62.5624 638.271 62.4405 638.169 62.3378ZM630.758 58.0524L634.72 62.0146L630.758 62.0146L630.758 58.0524ZM636.282 80.7969L616.395 80.7969L616.395 56.4904L628.548 56.4904L628.548 63.1195C628.548 63.4125 628.665 63.6935 628.872 63.9007C629.079 64.1079 629.36 64.2243 629.653 64.2243L636.282 64.2243L636.282 80.7969ZM630.435 70.0717C630.538 70.1743 630.619 70.2962 630.675 70.4303C630.73 70.5645 630.759 70.7082 630.759 70.8534C630.759 70.9985 630.73 71.1423 630.675 71.2764C630.619 71.4105 630.538 71.5324 630.435 71.635C630.332 71.7377 630.21 71.8191 630.076 71.8747C629.942 71.9302 629.798 71.9588 629.653 71.9588C629.508 71.9588 629.364 71.9302 629.23 71.8747C629.096 71.8191 628.974 71.7377 628.872 71.635L627.444 70.2057L627.444 76.3776C627.444 76.6706 627.327 76.9516 627.12 77.1588C626.913 77.366 626.632 77.4824 626.339 77.4824C626.046 77.4824 625.765 77.366 625.558 77.1588C625.35 76.9516 625.234 76.6706 625.234 76.3776L625.234 70.2057L623.806 71.635C623.703 71.7377 623.581 71.8191 623.447 71.8747C623.313 71.9302 623.169 71.9588 623.024 71.9588C622.879 71.9588 622.735 71.9302 622.601 71.8747C622.467 71.8191 622.345 71.7377 622.243 71.635C622.14 71.5324 622.059 71.4105 622.003 71.2764C621.947 71.1423 621.919 70.9985 621.919 70.8534C621.919 70.7082 621.947 70.5645 622.003 70.4303C622.059 70.2962 622.14 70.1743 622.243 70.0717L625.557 66.7572C625.66 66.6545 625.782 66.573 625.916 66.5174C626.05 66.4618 626.194 66.4331 626.339 66.4331C626.484 66.4331 626.628 66.4618 626.762 66.5174C626.896 66.573 627.018 66.6545 627.12 66.7572L630.435 70.0717Z" fill="#4F5125"/>
<path d="M551.863 154.935C551.111 154.935 550.428 154.764 549.813 154.422C549.208 154.08 548.729 153.597 548.378 152.972C548.036 152.337 547.865 151.605 547.865 150.775C547.865 149.955 548.041 149.233 548.392 148.608C548.754 147.973 549.242 147.49 549.857 147.158C550.472 146.816 551.16 146.645 551.922 146.645C552.683 146.645 553.372 146.816 553.987 147.158C554.602 147.49 555.085 147.968 555.437 148.593C555.798 149.218 555.979 149.945 555.979 150.775C555.979 151.605 555.793 152.337 555.422 152.972C555.061 153.597 554.568 154.08 553.943 154.422C553.318 154.764 552.625 154.935 551.863 154.935ZM551.863 153.763C552.342 153.763 552.791 153.651 553.211 153.426C553.631 153.201 553.967 152.865 554.221 152.416C554.485 151.966 554.617 151.42 554.617 150.775C554.617 150.131 554.49 149.584 554.236 149.135C553.982 148.686 553.65 148.354 553.24 148.139C552.83 147.914 552.386 147.802 551.907 147.802C551.419 147.802 550.97 147.914 550.56 148.139C550.16 148.354 549.837 148.686 549.593 149.135C549.349 149.584 549.227 150.131 549.227 150.775C549.227 151.429 549.344 151.981 549.579 152.43C549.823 152.879 550.145 153.216 550.545 153.441C550.946 153.655 551.385 153.763 551.863 153.763ZM559.064 148.08C559.298 147.622 559.63 147.265 560.06 147.011C560.499 146.757 561.031 146.63 561.656 146.63V148.007H561.305C559.811 148.007 559.064 148.818 559.064 150.438V154.803H557.731V146.777H559.064V148.08ZM566.504 146.645C567.198 146.645 567.803 146.796 568.32 147.099C568.848 147.402 569.238 147.783 569.492 148.242V146.777H570.84V154.978C570.84 155.711 570.683 156.36 570.371 156.926C570.058 157.502 569.609 157.952 569.023 158.274C568.447 158.596 567.774 158.757 567.002 158.757C565.948 158.757 565.069 158.508 564.366 158.01C563.663 157.512 563.248 156.834 563.121 155.974H564.439C564.586 156.463 564.889 156.853 565.347 157.146C565.806 157.449 566.358 157.6 567.002 157.6C567.735 157.6 568.33 157.371 568.789 156.912C569.258 156.453 569.492 155.808 569.492 154.978V153.294C569.229 153.763 568.838 154.153 568.32 154.466C567.803 154.778 567.198 154.935 566.504 154.935C565.792 154.935 565.142 154.759 564.557 154.407C563.981 154.056 563.526 153.563 563.195 152.928C562.863 152.293 562.697 151.571 562.697 150.761C562.697 149.94 562.863 149.223 563.195 148.608C563.526 147.983 563.981 147.499 564.557 147.158C565.142 146.816 565.792 146.645 566.504 146.645ZM569.492 150.775C569.492 150.17 569.37 149.643 569.126 149.193C568.882 148.744 568.55 148.403 568.13 148.168C567.72 147.924 567.266 147.802 566.768 147.802C566.27 147.802 565.816 147.919 565.406 148.154C564.996 148.388 564.669 148.73 564.425 149.179C564.181 149.628 564.059 150.155 564.059 150.761C564.059 151.376 564.181 151.913 564.425 152.372C564.669 152.821 564.996 153.167 565.406 153.411C565.816 153.646 566.27 153.763 566.768 153.763C567.266 153.763 567.72 153.646 568.13 153.411C568.55 153.167 568.882 152.821 569.126 152.372C569.37 151.913 569.492 151.381 569.492 150.775ZM572.594 150.761C572.594 149.94 572.76 149.223 573.092 148.608C573.424 147.983 573.878 147.499 574.454 147.158C575.04 146.816 575.689 146.645 576.402 146.645C577.105 146.645 577.715 146.796 578.232 147.099C578.75 147.402 579.135 147.783 579.389 148.242V146.777H580.737V154.803H579.389V153.309C579.126 153.778 578.73 154.168 578.203 154.481C577.686 154.783 577.08 154.935 576.387 154.935C575.674 154.935 575.03 154.759 574.454 154.407C573.878 154.056 573.424 153.563 573.092 152.928C572.76 152.293 572.594 151.571 572.594 150.761ZM579.389 150.775C579.389 150.17 579.267 149.643 579.023 149.193C578.779 148.744 578.447 148.403 578.027 148.168C577.617 147.924 577.163 147.802 576.665 147.802C576.167 147.802 575.713 147.919 575.303 148.154C574.893 148.388 574.566 148.73 574.322 149.179C574.078 149.628 573.956 150.155 573.956 150.761C573.956 151.376 574.078 151.913 574.322 152.372C574.566 152.821 574.893 153.167 575.303 153.411C575.713 153.646 576.167 153.763 576.665 153.763C577.163 153.763 577.617 153.646 578.027 153.411C578.447 153.167 578.779 152.821 579.023 152.372C579.267 151.913 579.389 151.381 579.389 150.775ZM586.899 146.63C587.876 146.63 588.667 146.928 589.272 147.524C589.877 148.11 590.18 148.959 590.18 150.072V154.803H588.862V150.263C588.862 149.462 588.662 148.852 588.261 148.432C587.861 148.002 587.314 147.787 586.621 147.787C585.918 147.787 585.357 148.007 584.937 148.447C584.527 148.886 584.322 149.525 584.322 150.365V154.803H582.989V146.777H584.322V147.919C584.585 147.509 584.942 147.192 585.391 146.967C585.85 146.743 586.353 146.63 586.899 146.63ZM593.045 145.473C592.791 145.473 592.577 145.386 592.401 145.21C592.225 145.034 592.137 144.819 592.137 144.565C592.137 144.312 592.225 144.097 592.401 143.921C592.577 143.745 592.791 143.657 593.045 143.657C593.289 143.657 593.494 143.745 593.66 143.921C593.836 144.097 593.924 144.312 593.924 144.565C593.924 144.819 593.836 145.034 593.66 145.21C593.494 145.386 593.289 145.473 593.045 145.473ZM593.69 146.777V154.803H592.357V146.777H593.69ZM596.957 153.704H600.897V154.803H595.434V153.704L599.33 147.861H595.463V146.777H600.867V147.861L596.957 153.704ZM609.949 150.482C609.949 150.736 609.934 151.005 609.905 151.288H603.49C603.539 152.079 603.807 152.699 604.296 153.148C604.794 153.587 605.394 153.807 606.097 153.807C606.673 153.807 607.152 153.675 607.532 153.411C607.923 153.138 608.196 152.777 608.352 152.328H609.788C609.573 153.099 609.143 153.729 608.499 154.217C607.855 154.695 607.054 154.935 606.097 154.935C605.335 154.935 604.652 154.764 604.047 154.422C603.451 154.08 602.982 153.597 602.641 152.972C602.299 152.337 602.128 151.605 602.128 150.775C602.128 149.945 602.294 149.218 602.626 148.593C602.958 147.968 603.422 147.49 604.017 147.158C604.623 146.816 605.316 146.645 606.097 146.645C606.859 146.645 607.532 146.811 608.118 147.143C608.704 147.475 609.153 147.934 609.466 148.52C609.788 149.096 609.949 149.75 609.949 150.482ZM608.572 150.204C608.572 149.696 608.46 149.262 608.235 148.901C608.011 148.53 607.703 148.251 607.313 148.066C606.932 147.87 606.507 147.773 606.038 147.773C605.365 147.773 604.789 147.988 604.31 148.417C603.842 148.847 603.573 149.442 603.505 150.204H608.572ZM615.115 150.761C615.115 149.94 615.281 149.223 615.613 148.608C615.945 147.983 616.399 147.499 616.975 147.158C617.56 146.816 618.215 146.645 618.937 146.645C619.562 146.645 620.143 146.792 620.68 147.085C621.217 147.368 621.627 147.744 621.91 148.212V143.965H623.258V154.803H621.91V153.294C621.647 153.773 621.256 154.168 620.739 154.481C620.221 154.783 619.616 154.935 618.922 154.935C618.21 154.935 617.56 154.759 616.975 154.407C616.399 154.056 615.945 153.563 615.613 152.928C615.281 152.293 615.115 151.571 615.115 150.761ZM621.91 150.775C621.91 150.17 621.788 149.643 621.544 149.193C621.3 148.744 620.968 148.403 620.548 148.168C620.138 147.924 619.684 147.802 619.186 147.802C618.688 147.802 618.234 147.919 617.824 148.154C617.414 148.388 617.087 148.73 616.843 149.179C616.599 149.628 616.477 150.155 616.477 150.761C616.477 151.376 616.599 151.913 616.843 152.372C617.087 152.821 617.414 153.167 617.824 153.411C618.234 153.646 618.688 153.763 619.186 153.763C619.684 153.763 620.138 153.646 620.548 153.411C620.968 153.167 621.3 152.821 621.544 152.372C621.788 151.913 621.91 151.381 621.91 150.775ZM629.01 154.935C628.258 154.935 627.575 154.764 626.96 154.422C626.354 154.08 625.876 153.597 625.524 152.972C625.183 152.337 625.012 151.605 625.012 150.775C625.012 149.955 625.188 149.233 625.539 148.608C625.9 147.973 626.389 147.49 627.004 147.158C627.619 146.816 628.307 146.645 629.069 146.645C629.83 146.645 630.519 146.816 631.134 147.158C631.749 147.49 632.232 147.968 632.584 148.593C632.945 149.218 633.126 149.945 633.126 150.775C633.126 151.605 632.94 152.337 632.569 152.972C632.208 153.597 631.715 154.08 631.09 154.422C630.465 154.764 629.772 154.935 629.01 154.935ZM629.01 153.763C629.489 153.763 629.938 153.651 630.357 153.426C630.777 153.201 631.114 152.865 631.368 152.416C631.632 151.966 631.763 151.42 631.763 150.775C631.763 150.131 631.637 149.584 631.383 149.135C631.129 148.686 630.797 148.354 630.387 148.139C629.977 147.914 629.532 147.802 629.054 147.802C628.566 147.802 628.117 147.914 627.707 148.139C627.306 148.354 626.984 148.686 626.74 149.135C626.496 149.584 626.374 150.131 626.374 150.775C626.374 151.429 626.491 151.981 626.725 152.43C626.969 152.879 627.292 153.216 627.692 153.441C628.092 153.655 628.532 153.763 629.01 153.763ZM634.38 150.775C634.38 149.945 634.546 149.223 634.878 148.608C635.21 147.983 635.669 147.499 636.255 147.158C636.85 146.816 637.529 146.645 638.29 146.645C639.276 146.645 640.087 146.884 640.721 147.363C641.366 147.841 641.791 148.505 641.996 149.355H640.56C640.424 148.866 640.155 148.481 639.755 148.198C639.364 147.914 638.876 147.773 638.29 147.773C637.529 147.773 636.914 148.036 636.445 148.564C635.976 149.081 635.742 149.818 635.742 150.775C635.742 151.742 635.976 152.489 636.445 153.016C636.914 153.543 637.529 153.807 638.29 153.807C638.876 153.807 639.364 153.67 639.755 153.397C640.145 153.123 640.414 152.733 640.56 152.225H641.996C641.781 153.045 641.351 153.704 640.707 154.202C640.062 154.69 639.257 154.935 638.29 154.935C637.529 154.935 636.85 154.764 636.255 154.422C635.669 154.08 635.21 153.597 634.878 152.972C634.546 152.347 634.38 151.615 634.38 150.775ZM650.892 146.777V154.803H649.559V153.616C649.305 154.027 648.949 154.349 648.49 154.583C648.041 154.808 647.543 154.92 646.996 154.92C646.371 154.92 645.81 154.793 645.312 154.539C644.814 154.275 644.418 153.885 644.125 153.367C643.842 152.85 643.701 152.22 643.701 151.478V146.777H645.019V151.302C645.019 152.093 645.219 152.704 645.619 153.133C646.02 153.553 646.566 153.763 647.26 153.763C647.972 153.763 648.534 153.543 648.944 153.104C649.354 152.664 649.559 152.025 649.559 151.185V146.777H650.892ZM662.793 146.63C663.418 146.63 663.975 146.762 664.463 147.026C664.951 147.28 665.337 147.665 665.62 148.183C665.903 148.7 666.045 149.33 666.045 150.072V154.803H664.727V150.263C664.727 149.462 664.526 148.852 664.126 148.432C663.736 148.002 663.203 147.787 662.53 147.787C661.837 147.787 661.285 148.012 660.875 148.461C660.465 148.901 660.26 149.54 660.26 150.38V154.803H658.942V150.263C658.942 149.462 658.741 148.852 658.341 148.432C657.951 148.002 657.418 147.787 656.745 147.787C656.051 147.787 655.5 148.012 655.09 148.461C654.68 148.901 654.475 149.54 654.475 150.38V154.803H653.142V146.777H654.475V147.934C654.738 147.514 655.09 147.192 655.529 146.967C655.978 146.743 656.471 146.63 657.008 146.63C657.682 146.63 658.278 146.782 658.795 147.085C659.313 147.387 659.698 147.831 659.952 148.417C660.177 147.851 660.548 147.412 661.065 147.099C661.583 146.787 662.159 146.63 662.793 146.63ZM675.554 150.482C675.554 150.736 675.539 151.005 675.51 151.288H669.095C669.144 152.079 669.412 152.699 669.9 153.148C670.398 153.587 670.999 153.807 671.702 153.807C672.278 153.807 672.756 153.675 673.137 153.411C673.528 153.138 673.801 152.777 673.957 152.328H675.393C675.178 153.099 674.748 153.729 674.104 154.217C673.459 154.695 672.659 154.935 671.702 154.935C670.94 154.935 670.257 154.764 669.651 154.422C669.056 154.08 668.587 153.597 668.246 152.972C667.904 152.337 667.733 151.605 667.733 150.775C667.733 149.945 667.899 149.218 668.231 148.593C668.563 147.968 669.027 147.49 669.622 147.158C670.228 146.816 670.921 146.645 671.702 146.645C672.463 146.645 673.137 146.811 673.723 147.143C674.309 147.475 674.758 147.934 675.07 148.52C675.393 149.096 675.554 149.75 675.554 150.482ZM674.177 150.204C674.177 149.696 674.065 149.262 673.84 148.901C673.616 148.53 673.308 148.251 672.917 148.066C672.537 147.87 672.112 147.773 671.643 147.773C670.97 147.773 670.394 147.988 669.915 148.417C669.446 148.847 669.178 149.442 669.11 150.204H674.177ZM681.223 146.63C682.2 146.63 682.99 146.928 683.596 147.524C684.201 148.11 684.504 148.959 684.504 150.072V154.803H683.186V150.263C683.186 149.462 682.986 148.852 682.585 148.432C682.185 148.002 681.638 147.787 680.945 147.787C680.242 147.787 679.681 148.007 679.261 148.447C678.851 148.886 678.646 149.525 678.646 150.365V154.803H677.313V146.777H678.646V147.919C678.909 147.509 679.266 147.192 679.715 146.967C680.174 146.743 680.676 146.63 681.223 146.63ZM688.307 147.875V152.606C688.307 152.996 688.39 153.275 688.556 153.441C688.722 153.597 689.01 153.675 689.42 153.675H690.401V154.803H689.2C688.458 154.803 687.901 154.632 687.53 154.29C687.159 153.948 686.974 153.387 686.974 152.606V147.875H685.934V146.777H686.974V144.756H688.307V146.777H690.401V147.875H688.307ZM694.857 154.935C694.242 154.935 693.69 154.832 693.202 154.627C692.714 154.412 692.328 154.119 692.045 153.748C691.762 153.367 691.606 152.933 691.576 152.445H692.953C692.992 152.845 693.178 153.172 693.51 153.426C693.851 153.68 694.295 153.807 694.842 153.807C695.35 153.807 695.75 153.695 696.043 153.47C696.336 153.245 696.483 152.962 696.483 152.621C696.483 152.269 696.326 152.01 696.014 151.844C695.701 151.669 695.218 151.498 694.564 151.332C693.968 151.176 693.48 151.019 693.099 150.863C692.728 150.697 692.406 150.458 692.133 150.145C691.869 149.823 691.737 149.403 691.737 148.886C691.737 148.476 691.859 148.1 692.104 147.758C692.348 147.416 692.694 147.148 693.143 146.953C693.593 146.748 694.105 146.645 694.681 146.645C695.57 146.645 696.287 146.87 696.834 147.319C697.381 147.768 697.674 148.383 697.713 149.164H696.38C696.351 148.744 696.18 148.407 695.867 148.154C695.565 147.9 695.155 147.773 694.637 147.773C694.159 147.773 693.778 147.875 693.495 148.08C693.212 148.285 693.07 148.554 693.07 148.886C693.07 149.15 693.153 149.369 693.319 149.545C693.495 149.711 693.71 149.848 693.964 149.955C694.227 150.053 694.588 150.165 695.047 150.292C695.623 150.448 696.092 150.604 696.453 150.761C696.815 150.907 697.122 151.132 697.376 151.434C697.64 151.737 697.776 152.132 697.786 152.621C697.786 153.06 697.664 153.455 697.42 153.807C697.176 154.158 696.829 154.437 696.38 154.642C695.941 154.837 695.433 154.935 694.857 154.935ZM700.092 154.891C699.838 154.891 699.623 154.803 699.448 154.627C699.272 154.451 699.184 154.236 699.184 153.983C699.184 153.729 699.272 153.514 699.448 153.338C699.623 153.162 699.838 153.075 700.092 153.075C700.336 153.075 700.541 153.162 700.707 153.338C700.883 153.514 700.971 153.729 700.971 153.983C700.971 154.236 700.883 154.451 700.707 154.627C700.541 154.803 700.336 154.891 700.092 154.891ZM703.167 154.891C702.913 154.891 702.698 154.803 702.523 154.627C702.347 154.451 702.259 154.236 702.259 153.983C702.259 153.729 702.347 153.514 702.523 153.338C702.698 153.162 702.913 153.075 703.167 153.075C703.411 153.075 703.616 153.162 703.782 153.338C703.958 153.514 704.046 153.729 704.046 153.983C704.046 154.236 703.958 154.451 703.782 154.627C703.616 154.803 703.411 154.891 703.167 154.891ZM706.242 154.891C705.988 154.891 705.773 154.803 705.598 154.627C705.422 154.451 705.334 154.236 705.334 153.983C705.334 153.729 705.422 153.514 705.598 153.338C705.773 153.162 705.988 153.075 706.242 153.075C706.486 153.075 706.691 153.162 706.857 153.338C707.033 153.514 707.121 153.729 707.121 153.983C707.121 154.236 707.033 154.451 706.857 154.627C706.691 154.803 706.486 154.891 706.242 154.891Z" fill="#2C2D1C"/>
<g class="upload-card">
<path d="M434.294 169.59H705.706C708.856 169.59 711.41 172.144 711.41 175.294V219.349C711.41 222.499 708.856 225.053 705.706 225.053H434.294C431.144 225.053 428.59 222.499 428.59 219.349V175.294C428.59 172.144 431.144 169.59 434.294 169.59Z" fill="white"/>
<path d="M434.294 169.59H705.706C708.856 169.59 711.41 172.144 711.41 175.294V219.349C711.41 222.499 708.856 225.053 705.706 225.053H434.294C431.144 225.053 428.59 222.499 428.59 219.349V175.294C428.59 172.144 431.144 169.59 434.294 169.59Z" stroke="#DDD5CB" stroke-width="1.18006"/>
<rect x="440.587" y="181.587" width="31.4681" height="31.4681" rx="15.7341" fill="#1B312B" fill-opacity="0.1"/>
<path d="M462.639 193.954L458.509 189.823C458.454 189.769 458.389 189.725 458.317 189.696C458.246 189.666 458.169 189.651 458.091 189.651H451.011C450.698 189.651 450.398 189.775 450.177 189.997C449.955 190.218 449.831 190.518 449.831 190.831V203.812C449.831 204.125 449.955 204.425 450.177 204.646C450.398 204.867 450.698 204.992 451.011 204.992H461.632C461.945 204.992 462.245 204.867 462.466 204.646C462.687 204.425 462.812 204.125 462.812 203.812V194.371C462.812 194.294 462.797 194.217 462.767 194.145C462.737 194.074 462.694 194.008 462.639 193.954ZM458.681 191.665L460.797 193.781H458.681V191.665ZM461.632 203.812H451.011V190.831H457.501V194.371C457.501 194.528 457.564 194.678 457.674 194.788C457.785 194.899 457.935 194.961 458.091 194.961H461.632V203.812Z" fill="#4F5125"/>
<rect x="459.892" y="200.892" width="11.74" height="11.74" rx="5.87002" fill="#D2D58B"/>
<rect x="459.892" y="200.892" width="11.74" height="11.74" rx="5.87002" stroke="#F1EDE8" stroke-width="0.847219"/>
<g clip-path="url(#clip0_6831_16364)">
<path d="M468.973 205.302L465.04 209.236C465.005 209.27 464.965 209.298 464.92 209.316C464.875 209.335 464.827 209.344 464.778 209.344C464.73 209.344 464.682 209.335 464.637 209.316C464.592 209.298 464.551 209.27 464.517 209.236L462.796 207.515C462.762 207.481 462.735 207.44 462.716 207.395C462.698 207.35 462.688 207.302 462.688 207.254C462.688 207.205 462.698 207.157 462.716 207.112C462.735 207.068 462.762 207.027 462.796 206.993C462.83 206.958 462.871 206.931 462.916 206.912C462.961 206.894 463.009 206.884 463.057 206.884C463.106 206.884 463.154 206.894 463.199 206.912C463.244 206.931 463.284 206.958 463.319 206.993L464.779 208.453L468.451 204.781C468.521 204.711 468.614 204.672 468.712 204.672C468.81 204.672 468.904 204.711 468.974 204.781C469.043 204.85 469.082 204.944 469.082 205.042C469.082 205.14 469.042 205.233 468.973 205.302Z" fill="#1B312B" fill-opacity="0.9"/>
</g>
<path d="M488.601 195.755C489.307 195.755 489.873 196.013 490.3 196.529C490.73 197.046 490.945 197.813 490.945 198.831C490.945 199.505 490.845 200.073 490.644 200.536C490.447 200.995 490.169 201.343 489.811 201.579C489.456 201.812 489.042 201.929 488.568 201.929C488.267 201.929 488.006 201.889 487.783 201.811C487.561 201.732 487.371 201.629 487.213 201.504C487.055 201.375 486.923 201.235 486.815 201.085H486.74C486.758 201.228 486.774 201.387 486.788 201.563C486.806 201.735 486.815 201.893 486.815 202.036V204.462H485.546V195.868H486.579L486.756 196.691H486.815C486.926 196.522 487.061 196.366 487.219 196.223C487.38 196.08 487.574 195.967 487.799 195.884C488.029 195.798 488.296 195.755 488.601 195.755ZM488.262 196.788C487.914 196.788 487.634 196.858 487.423 196.997C487.215 197.134 487.063 197.34 486.966 197.616C486.873 197.892 486.822 198.238 486.815 198.654V198.831C486.815 199.272 486.86 199.647 486.95 199.955C487.043 200.26 487.195 200.493 487.407 200.654C487.622 200.812 487.912 200.891 488.278 200.891C488.586 200.891 488.841 200.807 489.042 200.638C489.246 200.47 489.398 200.229 489.499 199.918C489.599 199.606 489.649 199.238 489.649 198.815C489.649 198.173 489.535 197.675 489.305 197.32C489.079 196.965 488.732 196.788 488.262 196.788ZM494.742 195.755C495.495 195.755 496.063 195.922 496.447 196.255C496.834 196.589 497.028 197.108 497.028 197.815V201.821H496.13L495.888 200.977H495.845C495.676 201.192 495.502 201.37 495.323 201.509C495.144 201.649 494.936 201.753 494.699 201.821C494.466 201.893 494.181 201.929 493.844 201.929C493.489 201.929 493.172 201.864 492.892 201.735C492.613 201.603 492.392 201.402 492.231 201.133C492.069 200.864 491.989 200.523 491.989 200.111C491.989 199.498 492.216 199.037 492.672 198.729C493.131 198.421 493.823 198.25 494.748 198.218L495.78 198.18V197.869C495.78 197.456 495.683 197.162 495.49 196.987C495.3 196.811 495.031 196.723 494.683 196.723C494.385 196.723 494.097 196.766 493.817 196.852C493.538 196.938 493.265 197.044 493 197.169L492.591 196.277C492.881 196.123 493.211 195.997 493.581 195.9C493.953 195.803 494.341 195.755 494.742 195.755ZM495.775 198.976L495.006 199.003C494.375 199.025 493.932 199.132 493.677 199.326C493.423 199.52 493.296 199.785 493.296 200.122C493.296 200.416 493.383 200.631 493.559 200.767C493.735 200.9 493.966 200.966 494.253 200.966C494.69 200.966 495.052 200.843 495.339 200.595C495.63 200.344 495.775 199.977 495.775 199.493V198.976ZM502.798 200.122C502.798 200.513 502.703 200.843 502.513 201.111C502.323 201.38 502.045 201.585 501.68 201.724C501.318 201.861 500.873 201.929 500.346 201.929C499.93 201.929 499.572 201.898 499.27 201.837C498.973 201.78 498.691 201.69 498.426 201.569V200.477C498.709 200.609 499.027 200.724 499.378 200.821C499.733 200.918 500.068 200.966 500.384 200.966C500.799 200.966 501.099 200.902 501.282 200.773C501.465 200.64 501.556 200.464 501.556 200.246C501.556 200.117 501.518 200.002 501.443 199.901C501.371 199.797 501.235 199.692 501.034 199.584C500.837 199.473 500.547 199.34 500.163 199.186C499.787 199.036 499.469 198.885 499.211 198.734C498.953 198.584 498.758 198.403 498.625 198.191C498.492 197.976 498.426 197.702 498.426 197.368C498.426 196.841 498.634 196.442 499.05 196.169C499.469 195.893 500.023 195.755 500.712 195.755C501.077 195.755 501.421 195.793 501.744 195.868C502.07 195.94 502.39 196.045 502.701 196.185L502.303 197.137C502.035 197.019 501.764 196.922 501.491 196.847C501.223 196.768 500.948 196.728 500.669 196.728C500.342 196.728 500.093 196.779 499.921 196.879C499.753 196.979 499.668 197.123 499.668 197.309C499.668 197.449 499.71 197.567 499.792 197.664C499.874 197.761 500.016 197.858 500.217 197.955C500.421 198.051 500.704 198.172 501.067 198.315C501.421 198.451 501.728 198.595 501.986 198.745C502.248 198.892 502.449 199.073 502.588 199.288C502.728 199.503 502.798 199.781 502.798 200.122ZM508.165 200.122C508.165 200.513 508.07 200.843 507.88 201.111C507.69 201.38 507.412 201.585 507.047 201.724C506.685 201.861 506.24 201.929 505.713 201.929C505.297 201.929 504.939 201.898 504.637 201.837C504.34 201.78 504.058 201.69 503.793 201.569V200.477C504.076 200.609 504.394 200.724 504.745 200.821C505.1 200.918 505.435 200.966 505.751 200.966C506.167 200.966 506.466 200.902 506.649 200.773C506.832 200.64 506.923 200.464 506.923 200.246C506.923 200.117 506.885 200.002 506.81 199.901C506.738 199.797 506.602 199.692 506.401 199.584C506.204 199.473 505.914 199.34 505.53 199.186C505.154 199.036 504.836 198.885 504.578 198.734C504.32 198.584 504.125 198.403 503.992 198.191C503.859 197.976 503.793 197.702 503.793 197.368C503.793 196.841 504.001 196.442 504.417 196.169C504.836 195.893 505.39 195.755 506.079 195.755C506.444 195.755 506.789 195.793 507.111 195.868C507.438 195.94 507.757 196.045 508.069 196.185L507.671 197.137C507.402 197.019 507.131 196.922 506.859 196.847C506.59 196.768 506.315 196.728 506.036 196.728C505.709 196.728 505.46 196.779 505.288 196.879C505.12 196.979 505.035 197.123 505.035 197.309C505.035 197.449 505.077 197.567 505.159 197.664C505.242 197.761 505.383 197.858 505.584 197.955C505.788 198.051 506.072 198.172 506.434 198.315C506.789 198.451 507.095 198.595 507.353 198.745C507.615 198.892 507.816 199.073 507.956 199.288C508.095 199.503 508.165 199.781 508.165 200.122ZM512.586 195.755C513.292 195.755 513.859 196.013 514.285 196.529C514.716 197.046 514.931 197.813 514.931 198.831C514.931 199.505 514.83 200.073 514.63 200.536C514.432 200.995 514.154 201.343 513.796 201.579C513.441 201.812 513.027 201.929 512.554 201.929C512.252 201.929 511.991 201.889 511.768 201.811C511.546 201.732 511.356 201.629 511.198 201.504C511.041 201.375 510.908 201.235 510.8 201.085H510.725C510.743 201.228 510.759 201.387 510.774 201.563C510.792 201.735 510.8 201.893 510.8 202.036V204.462H509.531V195.868H510.564L510.741 196.691H510.8C510.912 196.522 511.046 196.366 511.204 196.223C511.365 196.08 511.559 195.967 511.785 195.884C512.014 195.798 512.281 195.755 512.586 195.755ZM512.247 196.788C511.899 196.788 511.62 196.858 511.408 196.997C511.2 197.134 511.048 197.34 510.951 197.616C510.858 197.892 510.808 198.238 510.8 198.654V198.831C510.8 199.272 510.845 199.647 510.935 199.955C511.028 200.26 511.181 200.493 511.392 200.654C511.607 200.812 511.898 200.891 512.263 200.891C512.572 200.891 512.826 200.807 513.027 200.638C513.231 200.47 513.384 200.229 513.484 199.918C513.584 199.606 513.635 199.238 513.635 198.815C513.635 198.173 513.52 197.675 513.29 197.32C513.065 196.965 512.717 196.788 512.247 196.788ZM521.664 198.831C521.664 199.326 521.599 199.765 521.47 200.149C521.341 200.532 521.153 200.857 520.905 201.122C520.658 201.384 520.361 201.585 520.013 201.724C519.665 201.861 519.272 201.929 518.835 201.929C518.426 201.929 518.052 201.861 517.711 201.724C517.37 201.585 517.075 201.384 516.824 201.122C516.576 200.857 516.384 200.532 516.248 200.149C516.112 199.765 516.044 199.326 516.044 198.831C516.044 198.175 516.157 197.619 516.383 197.164C516.612 196.705 516.938 196.356 517.361 196.115C517.785 195.875 518.288 195.755 518.873 195.755C519.421 195.755 519.905 195.875 520.325 196.115C520.744 196.356 521.072 196.705 521.309 197.164C521.545 197.623 521.664 198.179 521.664 198.831ZM517.345 198.831C517.345 199.265 517.397 199.636 517.501 199.944C517.609 200.253 517.774 200.489 517.996 200.654C518.218 200.816 518.505 200.896 518.857 200.896C519.208 200.896 519.495 200.816 519.717 200.654C519.939 200.489 520.102 200.253 520.206 199.944C520.31 199.636 520.362 199.265 520.362 198.831C520.362 198.397 520.31 198.03 520.206 197.729C520.102 197.424 519.939 197.193 519.717 197.035C519.495 196.874 519.206 196.793 518.851 196.793C518.328 196.793 517.946 196.969 517.706 197.32C517.465 197.671 517.345 198.175 517.345 198.831ZM526.133 195.755C526.233 195.755 526.342 195.76 526.461 195.771C526.579 195.782 526.681 195.796 526.767 195.814L526.649 196.997C526.574 196.976 526.481 196.96 526.369 196.949C526.262 196.938 526.165 196.933 526.079 196.933C525.853 196.933 525.638 196.97 525.434 197.046C525.229 197.117 525.048 197.229 524.89 197.379C524.733 197.526 524.609 197.711 524.519 197.933C524.43 198.155 524.385 198.414 524.385 198.708V201.821H523.116V195.868H524.105L524.277 196.917H524.337C524.455 196.705 524.602 196.512 524.778 196.336C524.953 196.16 525.154 196.02 525.38 195.916C525.609 195.809 525.86 195.755 526.133 195.755ZM530.085 200.907C530.25 200.907 530.414 200.893 530.575 200.864C530.736 200.832 530.883 200.794 531.016 200.751V201.708C530.876 201.769 530.695 201.821 530.473 201.864C530.25 201.907 530.019 201.929 529.779 201.929C529.442 201.929 529.139 201.873 528.87 201.762C528.601 201.647 528.388 201.452 528.23 201.176C528.072 200.9 527.993 200.518 527.993 200.03V196.831H527.181V196.266L528.053 195.82L528.467 194.545H529.263V195.868H530.967V196.831H529.263V200.014C529.263 200.315 529.338 200.54 529.489 200.687C529.639 200.834 529.838 200.907 530.085 200.907Z" fill="#1B312B"/>
<path fill-rule="evenodd" clip-rule="evenodd" d="M684.696 194.405C685.003 194.098 685.501 194.098 685.808 194.405L689.972 198.569L694.136 194.405C694.443 194.098 694.942 194.098 695.249 194.405C695.556 194.712 695.556 195.21 695.249 195.517L690.529 200.238C690.221 200.545 689.723 200.545 689.416 200.238L684.696 195.517C684.389 195.21 684.389 194.712 684.696 194.405Z" fill="#1B312B" fill-opacity="0.9"/>
</g>
<g>
<path d="M83.3315 386.616L118.755 380L130.707 443.991L81.9517 453.097L72.1342 400.533L83.3315 386.616Z" fill="white"/>
</g>
<g>
<rect x="99.3247" y="389.936" width="13.9495" height="13.9495" transform="rotate(-10.5794 99.3247 389.936)" fill="#DED5C9"/>
</g>
<g>
<rect x="80.7891" y="413.107" width="36.4236" height="3.87485" transform="rotate(-10.5794 80.7891 413.107)" fill="#DED5C9"/>
</g>
<g>
<rect x="82.2119" y="420.725" width="36.4236" height="3.87485" transform="rotate(-10.5794 82.2119 420.725)" fill="#DED5C9"/>
</g>
<g>
<rect x="83.6348" y="428.343" width="36.4236" height="3.87485" transform="rotate(-10.5794 83.6348 428.343)" fill="#DED5C9"/>
</g>
<g>
<rect x="85.0576" y="435.961" width="36.4236" height="3.87485" transform="rotate(-10.5794 85.0576 435.961)" fill="#DED5C9"/>
</g>
<g>
<path d="M232.609 358.218L263.817 340.2L320.193 372.749L277.24 397.548L230.931 370.811L232.609 358.218Z" fill="white"/>
</g>
<g>
<rect width="13.9495" height="13.9495" transform="matrix(0.866025 -0.5 0.866025 0.5 251.065 353.762)" fill="#DED5C9"/>
</g>
<g>
<rect width="36.4236" height="3.87485" transform="matrix(0.866025 -0.5 0.866025 0.5 248.38 374.687)" fill="#DED5C9"/>
</g>
<g>
<rect width="36.4236" height="3.87485" transform="matrix(0.866025 -0.5 0.866025 0.5 255.091 378.562)" fill="#DED5C9"/>
</g>
<g>
<rect width="36.4236" height="3.87485" transform="matrix(0.866025 -0.5 0.866025 0.5 261.803 382.436)" fill="#DED5C9"/>
</g>
<g>
<rect width="36.4236" height="3.87485" transform="matrix(0.866025 -0.5 0.866025 0.5 268.514 386.311)" fill="#DED5C9"/>
</g>
<g>
<path d="M129.662 348.397L160.648 330L193.881 385.976L151.233 411.296L123.935 365.316L129.662 348.397Z" fill="white"/>
</g>
<g>
<rect x="145.821" y="346.013" width="13.9495" height="13.9495" transform="rotate(-30.6982 145.821 346.013)" fill="#DED5C9"/>
</g>
<g>
<rect x="136.386" y="374.146" width="36.4236" height="3.87485" transform="rotate(-30.6982 136.386 374.146)" fill="#DED5C9"/>
</g>
<g>
<rect x="140.343" y="380.81" width="36.4236" height="3.87485" transform="rotate(-30.6982 140.343 380.81)" fill="#DED5C9"/>
</g>
<g>
<rect x="144.299" y="387.474" width="36.4236" height="3.87485" transform="rotate(-30.6982 144.299 387.474)" fill="#DED5C9"/>
</g>
<g>
<rect x="148.255" y="394.138" width="36.4236" height="3.87485" transform="rotate(-30.6982 148.255 394.138)" fill="#DED5C9"/>
</g>
<g>
<path d="M168.662 328.397L199.648 310L232.881 365.976L190.233 391.296L162.935 345.316L168.662 328.397Z" fill="white"/>
</g>
<g>
<rect x="184.821" y="326.013" width="13.9495" height="13.9495" transform="rotate(-30.6982 184.821 326.013)" fill="#DED5C9"/>
</g>
<g>
<rect x="175.386" y="354.146" width="36.4236" height="3.87485" transform="rotate(-30.6982 175.386 354.146)" fill="#DED5C9"/>
</g>
<g>
<rect x="179.343" y="360.81" width="36.4236" height="3.87485" transform="rotate(-30.6982 179.343 360.81)" fill="#DED5C9"/>
</g>
<g>
<rect x="183.299" y="367.474" width="36.4236" height="3.87485" transform="rotate(-30.6982 183.299 367.474)" fill="#DED5C9"/>
</g>
<g>
<rect x="187.255" y="374.138" width="36.4236" height="3.87485" transform="rotate(-30.6982 187.255 374.138)" fill="#DED5C9"/>
</g>
<g>
<path d="M140.373 215.222L176.263 218.47L170.396 283.302L121 278.833L125.819 225.577L140.373 215.222Z" fill="white"/>
</g>
<g>
<rect x="154.865" y="222.758" width="13.9495" height="13.9495" transform="rotate(5.17025 154.865 222.758)" fill="#DED5C9"/>
</g>
<g>
<rect x="130.735" y="240.028" width="36.4236" height="3.87485" transform="rotate(5.17025 130.735 240.028)" fill="#DED5C9"/>
</g>
<g>
<rect x="130.037" y="247.747" width="36.4236" height="3.87485" transform="rotate(5.17025 130.037 247.747)" fill="#DED5C9"/>
</g>
<g>
<rect x="129.339" y="255.465" width="36.4236" height="3.87485" transform="rotate(5.17025 129.339 255.465)" fill="#DED5C9"/>
</g>
<g>
<rect x="128.64" y="263.183" width="36.4236" height="3.87485" transform="rotate(5.17025 128.64 263.183)" fill="#DED5C9"/>
</g>
<g>
<path d="M168.327 247.485L202.336 259.403L180.807 320.837L134 304.435L151.684 253.97L168.327 247.485Z" fill="white"/>
</g>
<g>
<rect x="180.539" y="258.333" width="13.9495" height="13.9495" transform="rotate(19.3118 180.539 258.333)" fill="#DED5C9"/>
</g>
<g>
<rect x="152.921" y="269.185" width="36.4236" height="3.87485" transform="rotate(19.3118 152.921 269.185)" fill="#DED5C9"/>
</g>
<g>
<rect x="150.358" y="276.499" width="36.4236" height="3.87485" transform="rotate(19.3118 150.358 276.499)" fill="#DED5C9"/>
</g>
<g>
<rect x="147.795" y="283.812" width="36.4236" height="3.87485" transform="rotate(19.3118 147.795 283.812)" fill="#DED5C9"/>
</g>
<g>
<rect x="145.232" y="291.126" width="36.4236" height="3.87485" transform="rotate(19.3118 145.232 291.126)" fill="#DED5C9"/>
</g>
<g>
<path d="M193.421 190.183L229.082 185L238.446 249.42L189.364 256.555L181.672 203.638L193.421 190.183Z" fill="white"/>
</g>
<g>
<rect x="209.268" y="194.145" width="13.9495" height="13.9495" transform="rotate(-8.27031 209.268 194.145)" fill="#DED5C9"/>
</g>
<g>
<rect x="189.813" y="216.55" width="36.4236" height="3.87485" transform="rotate(-8.27031 189.813 216.55)" fill="#DED5C9"/>
</g>
<g>
<rect x="190.928" y="224.22" width="36.4236" height="3.87485" transform="rotate(-8.27031 190.928 224.22)" fill="#DED5C9"/>
</g>
<g>
<rect x="192.043" y="231.889" width="36.4236" height="3.87485" transform="rotate(-8.27031 192.043 231.889)" fill="#DED5C9"/>
</g>
<g>
<rect x="193.157" y="239.558" width="36.4236" height="3.87485" transform="rotate(-8.27031 193.157 239.558)" fill="#DED5C9"/>
</g>
<g>
<path d="M197.048 252.656L232.387 259.714L219.638 323.55L171 313.837L181.472 261.399L197.048 252.656Z" fill="white"/>
</g>
<g>
<rect x="210.653" y="261.695" width="13.9495" height="13.9495" transform="rotate(11.2941 210.653 261.695)" fill="#DED5C9"/>
</g>
<g>
<rect x="184.82" y="276.292" width="36.4236" height="3.87485" transform="rotate(11.2941 184.82 276.292)" fill="#DED5C9"/>
</g>
<g>
<rect x="183.302" y="283.893" width="36.4236" height="3.87485" transform="rotate(11.2941 183.302 283.893)" fill="#DED5C9"/>
</g>
<g>
<rect x="181.784" y="291.492" width="36.4236" height="3.87485" transform="rotate(11.2941 181.784 291.492)" fill="#DED5C9"/>
</g>
<g>
<rect x="180.266" y="299.092" width="36.4236" height="3.87485" transform="rotate(11.2941 180.266 299.092)" fill="#DED5C9"/>
</g>
<g>
<path d="M122.292 294.149L157.612 287L170.527 350.804L121.915 360.643L111.306 308.233L122.292 294.149Z" fill="white"/>
</g>
<g>
<rect x="138.334" y="297.228" width="13.9495" height="13.9495" transform="rotate(-11.4428 138.334 297.228)" fill="#DED5C9"/>
</g>
<g>
<rect x="120.149" y="320.676" width="36.4236" height="3.87485" transform="rotate(-11.4428 120.149 320.676)" fill="#DED5C9"/>
</g>
<g>
<rect x="121.687" y="328.271" width="36.4236" height="3.87485" transform="rotate(-11.4428 121.687 328.271)" fill="#DED5C9"/>
</g>
<g>
<rect x="123.224" y="335.867" width="36.4236" height="3.87485" transform="rotate(-11.4428 123.224 335.867)" fill="#DED5C9"/>
</g>
<g>
<rect x="124.762" y="343.463" width="36.4236" height="3.87485" transform="rotate(-11.4428 124.762 343.463)" fill="#DED5C9"/>
</g>
<g>
<path d="M269.142 354.386L304.989 358.067L298.338 422.824L249 417.757L254.463 364.564L269.142 354.386Z" fill="white"/>
</g>
<g>
<rect x="283.542" y="362.097" width="13.9495" height="13.9495" transform="rotate(5.86419 283.542 362.097)" fill="#DED5C9"/>
</g>
<g>
<rect x="259.205" y="379.073" width="36.4236" height="3.87485" transform="rotate(5.86419 259.205 379.073)" fill="#DED5C9"/>
</g>
<g>
<rect x="258.413" y="386.783" width="36.4236" height="3.87485" transform="rotate(5.86419 258.413 386.783)" fill="#DED5C9"/>
</g>
<g>
<rect x="257.621" y="394.492" width="36.4236" height="3.87485" transform="rotate(5.86419 257.621 394.492)" fill="#DED5C9"/>
</g>
<g>
<rect x="256.829" y="402.201" width="36.4236" height="3.87485" transform="rotate(5.86419 256.829 402.201)" fill="#DED5C9"/>
</g>
<g>
<path d="M95.1419 300.386L130.989 304.067L124.338 368.824L74.9998 363.757L80.4632 310.564L95.1419 300.386Z" fill="white"/>
</g>
<g>
<rect x="109.542" y="308.097" width="13.9495" height="13.9495" transform="rotate(5.86419 109.542 308.097)" fill="#DED5C9"/>
</g>
<g>
<rect x="85.2046" y="325.073" width="36.4236" height="3.87485" transform="rotate(5.86419 85.2046 325.073)" fill="#DED5C9"/>
</g>
<g>
<rect x="84.4126" y="332.783" width="36.4236" height="3.87485" transform="rotate(5.86419 84.4126 332.783)" fill="#DED5C9"/>
</g>
<g>
<rect x="83.6211" y="340.492" width="36.4236" height="3.87485" transform="rotate(5.86419 83.6211 340.492)" fill="#DED5C9"/>
</g>
<g>
<rect x="82.8291" y="348.201" width="36.4236" height="3.87485" transform="rotate(5.86419 82.8291 348.201)" fill="#DED5C9"/>
</g>
<g>
<path d="M91.2196 367.428L115.717 341L163.459 385.254L129.742 421.629L90.5253 385.277L91.2196 367.428Z" fill="white"/>
</g>
<g>
<rect x="106.04" y="360.56" width="13.9495" height="13.9495" transform="rotate(-47.1711 106.04 360.56)" fill="#DED5C9"/>
</g>
<g>
<rect x="104.97" y="390.213" width="36.4236" height="3.87485" transform="rotate(-47.1711 104.97 390.213)" fill="#DED5C9"/>
</g>
<g>
<rect x="110.653" y="395.482" width="36.4236" height="3.87485" transform="rotate(-47.1711 110.653 395.482)" fill="#DED5C9"/>
</g>
<g>
<rect x="116.337" y="400.75" width="36.4236" height="3.87485" transform="rotate(-47.1711 116.337 400.75)" fill="#DED5C9"/>
</g>
<g>
<rect x="122.021" y="406.019" width="36.4236" height="3.87485" transform="rotate(-47.1711 122.021 406.019)" fill="#DED5C9"/>
</g>
<g>
<path d="M190.121 221.781L221.329 239.799L164.953 272.348L122 247.549L168.309 220.812L190.121 221.781Z" fill="white"/>
</g>
<g>
<rect width="13.9495" height="13.9495" transform="matrix(0.866025 0.5 -0.866025 0.5 197.839 232.437)" fill="#DED5C9"/>
</g>
<g>
<rect width="36.4236" height="3.87485" transform="matrix(0.866025 0.5 -0.866025 0.5 161.597 230.887)" fill="#DED5C9"/>
</g>
<g>
<rect width="36.4236" height="3.87485" transform="matrix(0.866025 0.5 -0.866025 0.5 154.885 234.761)" fill="#DED5C9"/>
</g>
<g>
<rect width="36.4236" height="3.87485" transform="matrix(0.866025 0.5 -0.866025 0.5 148.174 238.636)" fill="#DED5C9"/>
</g>
<g>
<rect width="36.4236" height="3.87485" transform="matrix(0.866025 0.5 -0.866025 0.5 141.462 242.511)" fill="#DED5C9"/>
</g>
<g>
<path d="M360.121 371.781L391.329 389.799L334.953 422.348L292 397.549L338.309 370.812L360.121 371.781Z" fill="white"/>
</g>
<g>
<rect width="13.9495" height="13.9495" transform="matrix(0.866025 0.5 -0.866025 0.5 367.839 382.437)" fill="#DED5C9"/>
</g>
<g>
<rect width="36.4236" height="3.87485" transform="matrix(0.866025 0.5 -0.866025 0.5 331.597 380.887)" fill="#DED5C9"/>
</g>
<g>
<rect width="36.4236" height="3.87485" transform="matrix(0.866025 0.5 -0.866025 0.5 324.885 384.761)" fill="#DED5C9"/>
</g>
<g>
<rect width="36.4236" height="3.87485" transform="matrix(0.866025 0.5 -0.866025 0.5 318.174 388.636)" fill="#DED5C9"/>
</g>
<g>
<rect width="36.4236" height="3.87485" transform="matrix(0.866025 0.5 -0.866025 0.5 311.462 392.511)" fill="#DED5C9"/>
</g>
<g>
<path d="M347.596 381.484L312.46 389.488L298 326.017L346.359 315L358.237 367.137L347.596 381.484Z" fill="white"/>
</g>
<g>
<rect x="331.484" y="378.795" width="13.9495" height="13.9495" transform="rotate(167.166 331.484 378.795)" fill="#DED5C9"/>
</g>
<g>
<rect x="349.094" y="354.913" width="36.4236" height="3.87485" transform="rotate(167.166 349.094 354.913)" fill="#DED5C9"/>
</g>
<g>
<rect x="347.373" y="347.357" width="36.4236" height="3.87485" transform="rotate(167.166 347.373 347.357)" fill="#DED5C9"/>
</g>
<g>
<rect x="345.651" y="339.801" width="36.4236" height="3.87485" transform="rotate(167.166 345.651 339.801)" fill="#DED5C9"/>
</g>
<g>
<rect x="343.93" y="332.245" width="36.4236" height="3.87485" transform="rotate(167.166 343.93 332.245)" fill="#DED5C9"/>
</g>
<g>
<path d="M359.495 396.001L347.175 429.865L286 407.609L302.957 361L353.208 379.282L359.495 396.001Z" fill="white"/>
</g>
<g>
<rect x="348.502" y="408.083" width="13.9495" height="13.9495" transform="rotate(109.992 348.502 408.083)" fill="#DED5C9"/>
</g>
<g>
<rect x="337.979" y="380.338" width="36.4236" height="3.87485" transform="rotate(109.992 337.979 380.338)" fill="#DED5C9"/>
</g>
<g>
<rect x="330.697" y="377.688" width="36.4236" height="3.87485" transform="rotate(109.992 330.697 377.688)" fill="#DED5C9"/>
</g>
<g>
<rect x="323.414" y="375.039" width="36.4236" height="3.87485" transform="rotate(109.992 323.414 375.039)" fill="#DED5C9"/>
</g>
<g>
<rect x="316.131" y="372.389" width="36.4236" height="3.87485" transform="rotate(109.992 316.131 372.389)" fill="#DED5C9"/>
</g>
<g>
<path d="M232.596 407.484L197.46 415.488L183 352.017L231.359 341L243.237 393.137L232.596 407.484Z" fill="white"/>
</g>
<g>
<rect x="216.484" y="404.795" width="13.9495" height="13.9495" transform="rotate(167.166 216.484 404.795)" fill="#DED5C9"/>
</g>
<g>
<rect x="234.094" y="380.913" width="36.4236" height="3.87485" transform="rotate(167.166 234.094 380.913)" fill="#DED5C9"/>
</g>
<g>
<rect x="232.373" y="373.357" width="36.4236" height="3.87485" transform="rotate(167.166 232.373 373.357)" fill="#DED5C9"/>
</g>
<g>
<rect x="230.651" y="365.801" width="36.4236" height="3.87485" transform="rotate(167.166 230.651 365.801)" fill="#DED5C9"/>
</g>
<g>
<rect x="228.93" y="358.245" width="36.4236" height="3.87485" transform="rotate(167.166 228.93 358.245)" fill="#DED5C9"/>
</g>
<rect x="139" y="308.843" width="58.565" height="35.9125" rx="6.0775" transform="rotate(-17.7388 139 308.843)" fill="white"/>
<rect x="145.609" y="311.37" width="16.1179" height="16.1179" transform="rotate(-17.7388 145.609 311.37)" fill="#DED5C9"/>
<rect x="166.132" y="304.805" width="20.995" height="5.525" transform="rotate(-17.7388 166.132 304.805)" fill="#DED5C9"/>
<rect x="168.657" y="312.698" width="15.47" height="5.525" transform="rotate(-17.7388 168.657 312.698)" fill="#DED5C9"/>
<rect x="153.353" y="335.577" width="48.0675" height="2.7625" transform="rotate(-17.7388 153.353 335.577)" fill="#DED5C9"/>
<rect x="243.085" y="205" width="58.565" height="35.9125" rx="6.0775" transform="rotate(23.0913 243.085 205)" fill="white"/>
<rect x="246.434" y="211.233" width="16.1179" height="16.1179" transform="rotate(23.0913 246.434 211.233)" fill="#DED5C9"/>
<rect x="266.255" y="219.684" width="20.995" height="5.525" transform="rotate(23.0913 266.255 219.684)" fill="#DED5C9"/>
<rect x="263.004" y="227.307" width="15.47" height="5.525" transform="rotate(23.0913 263.004 227.307)" fill="#DED5C9"/>
<rect x="236.466" y="234.611" width="48.0675" height="2.7625" transform="rotate(23.0913 236.466 234.611)" fill="#DED5C9"/>
<rect width="58.565" height="35.9125" rx="6.0775" transform="matrix(-0.866025 0.5 0 1 195.719 201)" fill="white"/>
<rect width="16.1179" height="16.1179" transform="matrix(-0.866025 0.5 0 1 190.934 208.183)" fill="#DED5C9"/>
<rect width="20.995" height="5.525" transform="matrix(-0.866025 0.5 0 1 172.273 218.956)" fill="#DED5C9"/>
<rect width="15.47" height="5.525" transform="matrix(-0.866025 0.5 0 1 172.273 227.244)" fill="#DED5C9"/>
<rect width="48.0675" height="2.7625" transform="matrix(-0.866025 0.5 0 1 190.934 233.598)" fill="#DED5C9"/>
<g>
<path d="M99.2924 262.149L134.612 255L147.527 318.804L98.9146 328.643L88.3062 276.233L99.2924 262.149Z" fill="white"/>
</g>
<g>
<rect x="115.334" y="265.228" width="13.9495" height="13.9495" transform="rotate(-11.4428 115.334 265.228)" fill="#DED5C9"/>
</g>
<g>
<rect x="97.1494" y="288.676" width="36.4236" height="3.87485" transform="rotate(-11.4428 97.1494 288.676)" fill="#DED5C9"/>
</g>
<g>
<rect x="98.687" y="296.271" width="36.4236" height="3.87485" transform="rotate(-11.4428 98.687 296.271)" fill="#DED5C9"/>
</g>
<g>
<rect x="100.224" y="303.867" width="36.4236" height="3.87485" transform="rotate(-11.4428 100.224 303.867)" fill="#DED5C9"/>
</g>
<g>
<rect x="101.762" y="311.463" width="36.4236" height="3.87485" transform="rotate(-11.4428 101.762 311.463)" fill="#DED5C9"/>
</g>
<g>
<path d="M244.327 366.485L278.336 378.403L256.807 439.837L210 423.435L227.684 372.97L244.327 366.485Z" fill="white"/>
</g>
<g>
<rect x="256.539" y="377.333" width="13.9495" height="13.9495" transform="rotate(19.3118 256.539 377.333)" fill="#DED5C9"/>
</g>
<g>
<rect x="228.921" y="388.185" width="36.4236" height="3.87485" transform="rotate(19.3118 228.921 388.185)" fill="#DED5C9"/>
</g>
<g>
<rect x="226.358" y="395.499" width="36.4236" height="3.87485" transform="rotate(19.3118 226.358 395.499)" fill="#DED5C9"/>
</g>
<g>
<rect x="223.795" y="402.812" width="36.4236" height="3.87485" transform="rotate(19.3118 223.795 402.812)" fill="#DED5C9"/>
</g>
<g>
<rect x="221.232" y="410.126" width="36.4236" height="3.87485" transform="rotate(19.3118 221.232 410.126)" fill="#DED5C9"/>
</g>
<g>
<path d="M235.327 264.485L269.336 276.403L247.807 337.837L201 321.435L218.684 270.97L235.327 264.485Z" fill="white"/>
</g>
<g>
<rect x="247.539" y="275.333" width="13.9495" height="13.9495" transform="rotate(19.3118 247.539 275.333)" fill="#DED5C9"/>
</g>
<g>
<rect x="219.921" y="286.185" width="36.4236" height="3.87485" transform="rotate(19.3118 219.921 286.185)" fill="#DED5C9"/>
</g>
<g>
<rect x="217.358" y="293.499" width="36.4236" height="3.87485" transform="rotate(19.3118 217.358 293.499)" fill="#DED5C9"/>
</g>
<g>
<rect x="214.795" y="300.812" width="36.4236" height="3.87485" transform="rotate(19.3118 214.795 300.812)" fill="#DED5C9"/>
</g>
<g>
<rect x="212.232" y="308.126" width="36.4236" height="3.87485" transform="rotate(19.3118 212.232 308.126)" fill="#DED5C9"/>
</g>
<g>
<path d="M229.327 308.485L263.336 320.403L241.807 381.837L195 365.435L212.684 314.97L229.327 308.485Z" fill="white"/>
</g>
<g>
<rect x="241.539" y="319.333" width="13.9495" height="13.9495" transform="rotate(19.3118 241.539 319.333)" fill="#DED5C9"/>
</g>
<g>
<rect x="213.921" y="330.185" width="36.4236" height="3.87485" transform="rotate(19.3118 213.921 330.185)" fill="#DED5C9"/>
</g>
<g>
<rect x="211.358" y="337.499" width="36.4236" height="3.87485" transform="rotate(19.3118 211.358 337.499)" fill="#DED5C9"/>
</g>
<g>
<rect x="208.795" y="344.812" width="36.4236" height="3.87485" transform="rotate(19.3118 208.795 344.812)" fill="#DED5C9"/>
</g>
<g>
<rect x="206.232" y="352.126" width="36.4236" height="3.87485" transform="rotate(19.3118 206.232 352.126)" fill="#DED5C9"/>
</g>
<g class="flying-doc" transform="translate(34 -6)">
<g>
<path d="M490.578 42.6079L503.855 76.109L443.337 100.093L425.063 53.9843L474.775 34.2829L490.578 42.6079Z" fill="white"/>
</g>
<g>
<rect x="490.382" y="58.9409" width="13.9495" height="13.9495" transform="rotate(68.3808 490.382 58.9409)" fill="#DED5C9"/>
</g>
<g>
<rect x="464.091" y="45.1855" width="36.4236" height="3.87485" transform="rotate(68.3808 464.091 45.1855)" fill="#DED5C9"/>
</g>
<g>
<rect x="456.886" y="48.0405" width="36.4236" height="3.87485" transform="rotate(68.3808 456.886 48.0405)" fill="#DED5C9"/>
</g>
<g>
<rect x="449.682" y="50.896" width="36.4236" height="3.87485" transform="rotate(68.3808 449.682 50.896)" fill="#DED5C9"/>
</g>
<g>
<rect x="442.477" y="53.751" width="36.4236" height="3.87485" transform="rotate(68.3808 442.477 53.751)" fill="#DED5C9"/>
</g>
<line x1="385.508" y1="104.646" x2="432.446" y2="96.3699" stroke="#C0B7AC" stroke-linecap="round"/>
<line x1="395.438" y1="88.2479" x2="426.516" y2="82.768" stroke="#C0B7AC" stroke-linecap="round"/>
<line x1="376.406" y1="80.0775" x2="421.579" y2="72.1122" stroke="#C0B7AC" stroke-linecap="round"/>
</g>
<g>
<path d="M264.501 255.29L295.71 237.272L352.086 269.821L309.132 294.62L262.824 267.883L264.501 255.29Z" fill="white"/>
</g>
<g>
<rect width="13.9495" height="13.9495" transform="matrix(0.866025 -0.5 0.866025 0.5 282.958 250.833)" fill="#DED5C9"/>
</g>
<g>
<rect width="36.4236" height="3.87485" transform="matrix(0.866025 -0.5 0.866025 0.5 280.272 271.758)" fill="#DED5C9"/>
</g>
<g>
<rect width="36.4236" height="3.87485" transform="matrix(0.866025 -0.5 0.866025 0.5 286.984 275.633)" fill="#DED5C9"/>
</g>
<g>
<rect width="36.4236" height="3.87485" transform="matrix(0.866025 -0.5 0.866025 0.5 293.695 279.508)" fill="#DED5C9"/>
</g>
<g>
<rect width="36.4236" height="3.87485" transform="matrix(0.866025 -0.5 0.866025 0.5 300.407 283.383)" fill="#DED5C9"/>
</g>
<g>
<path d="M252.745 212.018L283.953 194L340.329 226.549L297.376 251.348L251.067 224.611L252.745 212.018Z" fill="white"/>
</g>
<g>
<rect width="13.9495" height="13.9495" transform="matrix(0.866025 -0.5 0.866025 0.5 271.202 207.562)" fill="#DED5C9"/>
</g>
<g>
<rect width="36.4236" height="3.87485" transform="matrix(0.866025 -0.5 0.866025 0.5 268.516 228.486)" fill="#DED5C9"/>
</g>
<g>
<rect width="36.4236" height="3.87485" transform="matrix(0.866025 -0.5 0.866025 0.5 275.228 232.361)" fill="#DED5C9"/>
</g>
<g>
<rect width="36.4236" height="3.87485" transform="matrix(0.866025 -0.5 0.866025 0.5 281.939 236.236)" fill="#DED5C9"/>
</g>
<g>
<rect width="36.4236" height="3.87485" transform="matrix(0.866025 -0.5 0.866025 0.5 288.65 240.111)" fill="#DED5C9"/>
</g>
<g>
<path d="M291.543 221.921L327.528 220L363.035 274.562L313.507 277.205L284.341 232.387L291.543 221.921Z" fill="white"/>
</g>
<g>
<rect width="13.9495" height="13.9495" transform="matrix(0.998579 -0.0532949 0.545444 0.838147 310.015 226.312)" fill="#DED5C9"/>
</g>
<g>
<rect width="36.4236" height="3.87485" transform="matrix(0.998579 -0.0532949 0.545444 0.838147 298.14 243.748)" fill="#DED5C9"/>
</g>
<g>
<rect width="36.4236" height="3.87485" transform="matrix(0.998579 -0.0532949 0.545444 0.838147 302.367 250.243)" fill="#DED5C9"/>
</g>
<g>
<rect width="36.4236" height="3.87485" transform="matrix(0.998579 -0.0532949 0.545444 0.838147 306.593 256.739)" fill="#DED5C9"/>
</g>
<g>
<rect width="36.4236" height="3.87485" transform="matrix(0.998579 -0.0532949 0.545444 0.838147 310.82 263.234)" fill="#DED5C9"/>
</g>
<g>
<path d="M318.543 265.921L354.528 264L390.035 318.562L340.507 321.205L311.341 276.387L318.543 265.921Z" fill="white"/>
</g>
<g>
<rect width="13.9495" height="13.9495" transform="matrix(0.998579 -0.0532949 0.545444 0.838147 337.015 270.312)" fill="#DED5C9"/>
</g>
<g>
<rect width="36.4236" height="3.87485" transform="matrix(0.998579 -0.0532949 0.545444 0.838147 325.14 287.748)" fill="#DED5C9"/>
</g>
<g>
<rect width="36.4236" height="3.87485" transform="matrix(0.998579 -0.0532949 0.545444 0.838147 329.367 294.243)" fill="#DED5C9"/>
</g>
<g>
<rect width="36.4236" height="3.87485" transform="matrix(0.998579 -0.0532949 0.545444 0.838147 333.593 300.739)" fill="#DED5C9"/>
</g>
<g>
<rect width="36.4236" height="3.87485" transform="matrix(0.998579 -0.0532949 0.545444 0.838147 337.82 307.234)" fill="#DED5C9"/>
</g>
<g>
<path d="M367.083 314.159L399.189 330.523L402.587 395.532L358.398 373.009L355.607 319.609L367.083 314.159Z" fill="white"/>
</g>
<g>
<rect width="13.9495" height="13.9495" transform="matrix(0.890942 0.454118 0.0521933 0.998637 380.871 327.212)" fill="#DED5C9"/>
</g>
<g>
<rect width="36.4236" height="3.87485" transform="matrix(0.890942 0.454118 0.0521933 0.998637 361.858 336.354)" fill="#DED5C9"/>
</g>
<g>
<rect width="36.4236" height="3.87485" transform="matrix(0.890942 0.454118 0.0521933 0.998637 362.262 344.093)" fill="#DED5C9"/>
</g>
<g>
<rect width="36.4236" height="3.87485" transform="matrix(0.890942 0.454118 0.0521933 0.998637 362.667 351.833)" fill="#DED5C9"/>
</g>
<g>
<rect width="36.4236" height="3.87485" transform="matrix(0.890942 0.454118 0.0521933 0.998637 363.071 359.572)" fill="#DED5C9"/>
</g>
<g>
<path d="M56.745 431.018L87.9532 413L144.329 445.549L101.376 470.348L55.0672 443.611L56.745 431.018Z" fill="white"/>
</g>
<g>
<rect width="13.9495" height="13.9495" transform="matrix(0.866025 -0.5 0.866025 0.5 75.2017 426.562)" fill="#DED5C9"/>
</g>
<g>
<rect width="36.4236" height="3.87485" transform="matrix(0.866025 -0.5 0.866025 0.5 72.5161 447.486)" fill="#DED5C9"/>
</g>
<g>
<rect width="36.4236" height="3.87485" transform="matrix(0.866025 -0.5 0.866025 0.5 79.2275 451.361)" fill="#DED5C9"/>
</g>
<g>
<rect width="36.4236" height="3.87485" transform="matrix(0.866025 -0.5 0.866025 0.5 85.939 455.236)" fill="#DED5C9"/>
</g>
<g>
<rect width="36.4236" height="3.87485" transform="matrix(0.866025 -0.5 0.866025 0.5 92.6504 459.111)" fill="#DED5C9"/>
</g>
<g>
<path d="M327.584 430.018L296.376 412L240 444.549L282.953 469.348L329.262 442.611L327.584 430.018Z" fill="white"/>
</g>
<g>
<rect width="13.9495" height="13.9495" transform="matrix(-0.866025 -0.5 -0.866025 0.5 309.127 425.562)" fill="#DED5C9"/>
</g>
<g>
<rect width="36.4236" height="3.87485" transform="matrix(-0.866025 -0.5 -0.866025 0.5 311.813 446.486)" fill="#DED5C9"/>
</g>
<g>
<rect width="36.4236" height="3.87485" transform="matrix(-0.866025 -0.5 -0.866025 0.5 305.102 450.361)" fill="#DED5C9"/>
</g>
<g>
<rect width="36.4236" height="3.87485" transform="matrix(-0.866025 -0.5 -0.866025 0.5 298.39 454.236)" fill="#DED5C9"/>
</g>
<g>
<rect width="36.4236" height="3.87485" transform="matrix(-0.866025 -0.5 -0.866025 0.5 291.679 458.111)" fill="#DED5C9"/>
</g>
<g>
<path d="M401.584 426.018L370.376 408L314 440.549L356.953 465.348L403.262 438.611L401.584 426.018Z" fill="white"/>
</g>
<g>
<rect width="13.9495" height="13.9495" transform="matrix(-0.866025 -0.5 -0.866025 0.5 383.127 421.562)" fill="#DED5C9"/>
</g>
<g>
<rect width="36.4236" height="3.87485" transform="matrix(-0.866025 -0.5 -0.866025 0.5 385.813 442.486)" fill="#DED5C9"/>
</g>
<g>
<rect width="36.4236" height="3.87485" transform="matrix(-0.866025 -0.5 -0.866025 0.5 379.102 446.361)" fill="#DED5C9"/>
</g>
<g>
<rect width="36.4236" height="3.87485" transform="matrix(-0.866025 -0.5 -0.866025 0.5 372.39 450.236)" fill="#DED5C9"/>
</g>
<g>
<rect width="36.4236" height="3.87485" transform="matrix(-0.866025 -0.5 -0.866025 0.5 365.679 454.111)" fill="#DED5C9"/>
</g>
<g>
<path d="M51.745 412.018L82.9532 394L139.329 426.549L96.3761 451.348L50.0672 424.611L51.745 412.018Z" fill="white"/>
</g>
<g>
<rect width="13.9495" height="13.9495" transform="matrix(0.866025 -0.5 0.866025 0.5 70.2017 407.562)" fill="#DED5C9"/>
</g>
<g>
<rect width="36.4236" height="3.87485" transform="matrix(0.866025 -0.5 0.866025 0.5 67.5161 428.486)" fill="#DED5C9"/>
</g>
<g>
<rect width="36.4236" height="3.87485" transform="matrix(0.866025 -0.5 0.866025 0.5 74.2275 432.361)" fill="#DED5C9"/>
</g>
<g>
<rect width="36.4236" height="3.87485" transform="matrix(0.866025 -0.5 0.866025 0.5 80.939 436.236)" fill="#DED5C9"/>
</g>
<g>
<rect width="36.4236" height="3.87485" transform="matrix(0.866025 -0.5 0.866025 0.5 87.6504 440.111)" fill="#DED5C9"/>
</g>
<g>
<path d="M16.745 422.018L47.9532 404L104.329 436.549L61.3761 461.348L15.0672 434.611L16.745 422.018Z" fill="white"/>
</g>
<g>
<rect width="13.9495" height="13.9495" transform="matrix(0.866025 -0.5 0.866025 0.5 35.2017 417.562)" fill="#DED5C9"/>
</g>
<g>
<rect width="36.4236" height="3.87485" transform="matrix(0.866025 -0.5 0.866025 0.5 32.5161 438.486)" fill="#DED5C9"/>
</g>
<g>
<rect width="36.4236" height="3.87485" transform="matrix(0.866025 -0.5 0.866025 0.5 39.2275 442.361)" fill="#DED5C9"/>
</g>
<g>
<rect width="36.4236" height="3.87485" transform="matrix(0.866025 -0.5 0.866025 0.5 45.939 446.236)" fill="#DED5C9"/>
</g>
<g>
<rect width="36.4236" height="3.87485" transform="matrix(0.866025 -0.5 0.866025 0.5 52.6504 450.111)" fill="#DED5C9"/>
</g>
<g>
<path d="M332.584 411.018L301.376 393L245 425.549L287.953 450.348L334.262 423.611L332.584 411.018Z" fill="white"/>
</g>
<g>
<rect width="13.9495" height="13.9495" transform="matrix(-0.866025 -0.5 -0.866025 0.5 314.127 406.562)" fill="#DED5C9"/>
</g>
<g>
<rect width="36.4236" height="3.87485" transform="matrix(-0.866025 -0.5 -0.866025 0.5 316.813 427.486)" fill="#DED5C9"/>
</g>
<g>
<rect width="36.4236" height="3.87485" transform="matrix(-0.866025 -0.5 -0.866025 0.5 310.102 431.361)" fill="#DED5C9"/>
</g>
<g>
<rect width="36.4236" height="3.87485" transform="matrix(-0.866025 -0.5 -0.866025 0.5 303.39 435.236)" fill="#DED5C9"/>
</g>
<g>
<rect width="36.4236" height="3.87485" transform="matrix(-0.866025 -0.5 -0.866025 0.5 296.679 439.111)" fill="#DED5C9"/>
</g>
<g>
<path d="M406.584 407.018L375.376 389L319 421.549L361.953 446.348L408.262 419.611L406.584 407.018Z" fill="white"/>
</g>
<g>
<rect width="13.9495" height="13.9495" transform="matrix(-0.866025 -0.5 -0.866025 0.5 388.127 402.562)" fill="#DED5C9"/>
</g>
<g>
<rect width="36.4236" height="3.87485" transform="matrix(-0.866025 -0.5 -0.866025 0.5 390.813 423.486)" fill="#DED5C9"/>
</g>
<g>
<rect width="36.4236" height="3.87485" transform="matrix(-0.866025 -0.5 -0.866025 0.5 384.102 427.361)" fill="#DED5C9"/>
</g>
<g>
<rect width="36.4236" height="3.87485" transform="matrix(-0.866025 -0.5 -0.866025 0.5 377.39 431.236)" fill="#DED5C9"/>
</g>
<g>
<rect width="36.4236" height="3.87485" transform="matrix(-0.866025 -0.5 -0.866025 0.5 370.679 435.111)" fill="#DED5C9"/>
</g>
<g>
<path d="M124.745 433.018L155.953 415L212.329 447.549L169.376 472.348L123.067 445.611L124.745 433.018Z" fill="white"/>
</g>
<g>
<rect width="13.9495" height="13.9495" transform="matrix(0.866025 -0.5 0.866025 0.5 143.202 428.562)" fill="#DED5C9"/>
</g>
<g>
<rect width="36.4236" height="3.87485" transform="matrix(0.866025 -0.5 0.866025 0.5 140.516 449.486)" fill="#DED5C9"/>
</g>
<g>
<rect width="36.4236" height="3.87485" transform="matrix(0.866025 -0.5 0.866025 0.5 147.228 453.361)" fill="#DED5C9"/>
</g>
<g>
<rect width="36.4236" height="3.87485" transform="matrix(0.866025 -0.5 0.866025 0.5 153.939 457.236)" fill="#DED5C9"/>
</g>
<g>
<rect width="36.4236" height="3.87485" transform="matrix(0.866025 -0.5 0.866025 0.5 160.65 461.111)" fill="#DED5C9"/>
</g>
<g>
<path d="M90.745 428.018L121.953 410L178.329 442.549L135.376 467.348L89.0672 440.611L90.745 428.018Z" fill="white"/>
</g>
<g>
<rect width="13.9495" height="13.9495" transform="matrix(0.866025 -0.5 0.866025 0.5 109.202 423.562)" fill="#DED5C9"/>
</g>
<g>
<rect width="36.4236" height="3.87485" transform="matrix(0.866025 -0.5 0.866025 0.5 106.516 444.486)" fill="#DED5C9"/>
</g>
<g>
<rect width="36.4236" height="3.87485" transform="matrix(0.866025 -0.5 0.866025 0.5 113.228 448.361)" fill="#DED5C9"/>
</g>
<g>
<rect width="36.4236" height="3.87485" transform="matrix(0.866025 -0.5 0.866025 0.5 119.939 452.236)" fill="#DED5C9"/>
</g>
<g>
<rect width="36.4236" height="3.87485" transform="matrix(0.866025 -0.5 0.866025 0.5 126.65 456.111)" fill="#DED5C9"/>
</g>
<g>
<path d="M259.584 432.018L228.376 414L172 446.549L214.953 471.348L261.262 444.611L259.584 432.018Z" fill="white"/>
</g>
<g>
<rect width="13.9495" height="13.9495" transform="matrix(-0.866025 -0.5 -0.866025 0.5 241.127 427.562)" fill="#DED5C9"/>
</g>
<g>
<rect width="36.4236" height="3.87485" transform="matrix(-0.866025 -0.5 -0.866025 0.5 243.813 448.486)" fill="#DED5C9"/>
</g>
<g>
<rect width="36.4236" height="3.87485" transform="matrix(-0.866025 -0.5 -0.866025 0.5 237.102 452.361)" fill="#DED5C9"/>
</g>
<g>
<rect width="36.4236" height="3.87485" transform="matrix(-0.866025 -0.5 -0.866025 0.5 230.39 456.236)" fill="#DED5C9"/>
</g>
<g>
<rect width="36.4236" height="3.87485" transform="matrix(-0.866025 -0.5 -0.866025 0.5 223.679 460.111)" fill="#DED5C9"/>
</g>
<g>
<path d="M293.584 427.018L262.376 409L206 441.549L248.953 466.348L295.262 439.611L293.584 427.018Z" fill="white"/>
</g>
<g>
<rect width="13.9495" height="13.9495" transform="matrix(-0.866025 -0.5 -0.866025 0.5 275.127 422.562)" fill="#DED5C9"/>
</g>
<g>
<rect width="36.4236" height="3.87485" transform="matrix(-0.866025 -0.5 -0.866025 0.5 277.813 443.486)" fill="#DED5C9"/>
</g>
<g>
<rect width="36.4236" height="3.87485" transform="matrix(-0.866025 -0.5 -0.866025 0.5 271.102 447.361)" fill="#DED5C9"/>
</g>
<g>
<rect width="36.4236" height="3.87485" transform="matrix(-0.866025 -0.5 -0.866025 0.5 264.39 451.236)" fill="#DED5C9"/>
</g>
<g>
<rect width="36.4236" height="3.87485" transform="matrix(-0.866025 -0.5 -0.866025 0.5 257.679 455.111)" fill="#DED5C9"/>
</g>
<g>
<path d="M333.584 428.018L302.376 410L246 442.549L288.953 467.348L335.262 440.611L333.584 428.018Z" fill="white"/>
</g>
<g>
<rect width="13.9495" height="13.9495" transform="matrix(-0.866025 -0.5 -0.866025 0.5 315.127 423.562)" fill="#DED5C9"/>
</g>
<g>
<rect width="36.4236" height="3.87485" transform="matrix(-0.866025 -0.5 -0.866025 0.5 317.813 444.486)" fill="#DED5C9"/>
</g>
<g>
<rect width="36.4236" height="3.87485" transform="matrix(-0.866025 -0.5 -0.866025 0.5 311.102 448.361)" fill="#DED5C9"/>
</g>
<g>
<rect width="36.4236" height="3.87485" transform="matrix(-0.866025 -0.5 -0.866025 0.5 304.39 452.236)" fill="#DED5C9"/>
</g>
<g>
<rect width="36.4236" height="3.87485" transform="matrix(-0.866025 -0.5 -0.866025 0.5 297.679 456.111)" fill="#DED5C9"/>
</g>
<g>
<path d="M367.584 423.018L336.376 405L280 437.549L322.953 462.348L369.262 435.611L367.584 423.018Z" fill="white"/>
</g>
<g>
<rect width="13.9495" height="13.9495" transform="matrix(-0.866025 -0.5 -0.866025 0.5 349.127 418.562)" fill="#DED5C9"/>
</g>
<g>
<rect width="36.4236" height="3.87485" transform="matrix(-0.866025 -0.5 -0.866025 0.5 351.813 439.486)" fill="#DED5C9"/>
</g>
<g>
<rect width="36.4236" height="3.87485" transform="matrix(-0.866025 -0.5 -0.866025 0.5 345.102 443.361)" fill="#DED5C9"/>
</g>
<g>
<rect width="36.4236" height="3.87485" transform="matrix(-0.866025 -0.5 -0.866025 0.5 338.39 447.236)" fill="#DED5C9"/>
</g>
<g>
<rect width="36.4236" height="3.87485" transform="matrix(-0.866025 -0.5 -0.866025 0.5 331.679 451.111)" fill="#DED5C9"/>
</g>
<g>
<path d="M158.745 413.018L189.953 395L246.329 427.549L203.376 452.348L157.067 425.611L158.745 413.018Z" fill="white"/>
</g>
<g>
<rect width="13.9495" height="13.9495" transform="matrix(0.866025 -0.5 0.866025 0.5 177.202 408.562)" fill="#DED5C9"/>
</g>
<g>
<rect width="36.4236" height="3.87485" transform="matrix(0.866025 -0.5 0.866025 0.5 174.516 429.486)" fill="#DED5C9"/>
</g>
<g>
<rect width="36.4236" height="3.87485" transform="matrix(0.866025 -0.5 0.866025 0.5 181.228 433.361)" fill="#DED5C9"/>
</g>
<g>
<rect width="36.4236" height="3.87485" transform="matrix(0.866025 -0.5 0.866025 0.5 187.939 437.236)" fill="#DED5C9"/>
</g>
<g>
<rect width="36.4236" height="3.87485" transform="matrix(0.866025 -0.5 0.866025 0.5 194.65 441.111)" fill="#DED5C9"/>
</g>
<g>
<path d="M124.745 408.018L155.953 390L212.329 422.549L169.376 447.348L123.067 420.611L124.745 408.018Z" fill="white"/>
</g>
<g>
<rect width="13.9495" height="13.9495" transform="matrix(0.866025 -0.5 0.866025 0.5 143.202 403.562)" fill="#DED5C9"/>
</g>
<g>
<rect width="36.4236" height="3.87485" transform="matrix(0.866025 -0.5 0.866025 0.5 140.516 424.486)" fill="#DED5C9"/>
</g>
<g>
<rect width="36.4236" height="3.87485" transform="matrix(0.866025 -0.5 0.866025 0.5 147.228 428.361)" fill="#DED5C9"/>
</g>
<g>
<rect width="36.4236" height="3.87485" transform="matrix(0.866025 -0.5 0.866025 0.5 153.939 432.236)" fill="#DED5C9"/>
</g>
<g>
<rect width="36.4236" height="3.87485" transform="matrix(0.866025 -0.5 0.866025 0.5 160.65 436.111)" fill="#DED5C9"/>
</g>
<rect width="58.565" height="35.9125" rx="6.0775" transform="matrix(0.866025 0.5 -0.866025 0.5 176.101 375)" fill="white"/>
<rect width="16.1179" height="16.1179" transform="matrix(0.866025 0.5 -0.866025 0.5 177.058 379.973)" fill="#DED5C9"/>
<rect width="20.995" height="5.525" transform="matrix(0.866025 0.5 -0.866025 0.5 195.719 390.746)" fill="#DED5C9"/>
<rect width="15.47" height="5.525" transform="matrix(0.866025 0.5 -0.866025 0.5 188.542 394.89)" fill="#DED5C9"/>
<rect width="48.0675" height="2.7625" transform="matrix(0.866025 0.5 -0.866025 0.5 155.048 392.68)" fill="#DED5C9"/>
<g>
<path d="M225.584 412.018L194.376 394L138 426.549L180.953 451.348L227.262 424.611L225.584 412.018Z" fill="white"/>
</g>
<g>
<rect width="13.9495" height="13.9495" transform="matrix(-0.866025 -0.5 -0.866025 0.5 207.127 407.562)" fill="#DED5C9"/>
</g>
<g>
<rect width="36.4236" height="3.87485" transform="matrix(-0.866025 -0.5 -0.866025 0.5 209.813 428.486)" fill="#DED5C9"/>
</g>
<g>
<rect width="36.4236" height="3.87485" transform="matrix(-0.866025 -0.5 -0.866025 0.5 203.102 432.361)" fill="#DED5C9"/>
</g>
<g>
<rect width="36.4236" height="3.87485" transform="matrix(-0.866025 -0.5 -0.866025 0.5 196.39 436.236)" fill="#DED5C9"/>
</g>
<g>
<rect width="36.4236" height="3.87485" transform="matrix(-0.866025 -0.5 -0.866025 0.5 189.679 440.111)" fill="#DED5C9"/>
</g>
<g>
<path d="M259.584 407.018L228.376 389L172 421.549L214.953 446.348L261.262 419.611L259.584 407.018Z" fill="white"/>
</g>
<g>
<rect width="13.9495" height="13.9495" transform="matrix(-0.866025 -0.5 -0.866025 0.5 241.127 402.562)" fill="#DED5C9"/>
</g>
<g>
<rect width="36.4236" height="3.87485" transform="matrix(-0.866025 -0.5 -0.866025 0.5 243.813 423.486)" fill="#DED5C9"/>
</g>
<g>
<rect width="36.4236" height="3.87485" transform="matrix(-0.866025 -0.5 -0.866025 0.5 237.102 427.361)" fill="#DED5C9"/>
</g>
<g>
<rect width="36.4236" height="3.87485" transform="matrix(-0.866025 -0.5 -0.866025 0.5 230.39 431.236)" fill="#DED5C9"/>
</g>
<g>
<rect width="36.4236" height="3.87485" transform="matrix(-0.866025 -0.5 -0.866025 0.5 223.679 435.111)" fill="#DED5C9"/>
</g>
<rect width="58.565" height="35.9125" rx="6.0775" transform="matrix(0.984808 -0.173648 0.642788 0.766045 104.53 411.949)" fill="white"/>
<rect width="16.1179" height="16.1179" transform="matrix(0.984808 -0.173648 0.642788 0.766045 112.812 414.375)" fill="#DED5C9"/>
<rect width="20.995" height="5.525" transform="matrix(0.984808 -0.173648 0.642788 0.766045 134.032 410.634)" fill="#DED5C9"/>
<rect width="15.47" height="5.525" transform="matrix(0.984808 -0.173648 0.642788 0.766045 139.359 416.982)" fill="#DED5C9"/>
<rect width="48.0675" height="2.7625" transform="matrix(0.984808 -0.173648 0.642788 0.766045 129.148 433.845)" fill="#DED5C9"/>
<rect width="58.565" height="35.9125" rx="6.0775" transform="matrix(0.984808 -0.173648 0.642788 0.766045 211 233.17)" fill="white"/>
<rect width="16.1179" height="16.1179" transform="matrix(0.984808 -0.173648 0.642788 0.766045 219.282 235.596)" fill="#DED5C9"/>
<rect width="20.995" height="5.525" transform="matrix(0.984808 -0.173648 0.642788 0.766045 240.502 231.855)" fill="#DED5C9"/>
<rect width="15.47" height="5.525" transform="matrix(0.984808 -0.173648 0.642788 0.766045 245.83 238.203)" fill="#DED5C9"/>
<rect width="48.0675" height="2.7625" transform="matrix(0.984808 -0.173648 0.642788 0.766045 235.619 255.065)" fill="#DED5C9"/>
<g>
<path d="M299.584 408.018L268.376 390L212 422.549L254.953 447.348L301.262 420.611L299.584 408.018Z" fill="white"/>
</g>
<g>
<rect width="13.9495" height="13.9495" transform="matrix(-0.866025 -0.5 -0.866025 0.5 281.127 403.562)" fill="#DED5C9"/>
</g>
<g>
<rect width="36.4236" height="3.87485" transform="matrix(-0.866025 -0.5 -0.866025 0.5 283.813 424.486)" fill="#DED5C9"/>
</g>
<g>
<rect width="36.4236" height="3.87485" transform="matrix(-0.866025 -0.5 -0.866025 0.5 277.102 428.361)" fill="#DED5C9"/>
</g>
<g>
<rect width="36.4236" height="3.87485" transform="matrix(-0.866025 -0.5 -0.866025 0.5 270.39 432.236)" fill="#DED5C9"/>
</g>
<g>
<rect width="36.4236" height="3.87485" transform="matrix(-0.866025 -0.5 -0.866025 0.5 263.679 436.111)" fill="#DED5C9"/>
</g>
<g>
<path d="M333.584 403.018L302.376 385L246 417.549L288.953 442.348L335.262 415.611L333.584 403.018Z" fill="white"/>
</g>
<g>
<rect width="13.9495" height="13.9495" transform="matrix(-0.866025 -0.5 -0.866025 0.5 315.127 398.562)" fill="#DED5C9"/>
</g>
<g>
<rect width="36.4236" height="3.87485" transform="matrix(-0.866025 -0.5 -0.866025 0.5 317.813 419.486)" fill="#DED5C9"/>
</g>
<g>
<rect width="36.4236" height="3.87485" transform="matrix(-0.866025 -0.5 -0.866025 0.5 311.102 423.361)" fill="#DED5C9"/>
</g>
<g>
<rect width="36.4236" height="3.87485" transform="matrix(-0.866025 -0.5 -0.866025 0.5 304.39 427.236)" fill="#DED5C9"/>
</g>
<g>
<rect width="36.4236" height="3.87485" transform="matrix(-0.866025 -0.5 -0.866025 0.5 297.679 431.111)" fill="#DED5C9"/>
</g>
<g>
<path d="M261.584 200.018L230.376 182L174 214.549L216.953 239.348L263.262 212.611L261.584 200.018Z" fill="white"/>
</g>
<g>
<rect width="13.9495" height="13.9495" transform="matrix(-0.866025 -0.5 -0.866025 0.5 243.127 195.562)" fill="#DED5C9"/>
</g>
<g>
<rect width="36.4236" height="3.87485" transform="matrix(-0.866025 -0.5 -0.866025 0.5 245.813 216.486)" fill="#DED5C9"/>
</g>
<g>
<rect width="36.4236" height="3.87485" transform="matrix(-0.866025 -0.5 -0.866025 0.5 239.102 220.361)" fill="#DED5C9"/>
</g>
<g>
<rect width="36.4236" height="3.87485" transform="matrix(-0.866025 -0.5 -0.866025 0.5 232.39 224.236)" fill="#DED5C9"/>
</g>
<g>
<rect width="36.4236" height="3.87485" transform="matrix(-0.866025 -0.5 -0.866025 0.5 225.679 228.111)" fill="#DED5C9"/>
</g>
<g>
<path d="M295.584 195.018L264.376 177L208 209.549L250.953 234.348L297.262 207.611L295.584 195.018Z" fill="white"/>
</g>
<g>
<rect width="13.9495" height="13.9495" transform="matrix(-0.866025 -0.5 -0.866025 0.5 277.127 190.562)" fill="#DED5C9"/>
</g>
<g>
<rect width="36.4236" height="3.87485" transform="matrix(-0.866025 -0.5 -0.866025 0.5 279.813 211.486)" fill="#DED5C9"/>
</g>
<g>
<rect width="36.4236" height="3.87485" transform="matrix(-0.866025 -0.5 -0.866025 0.5 273.102 215.361)" fill="#DED5C9"/>
</g>
<g>
<rect width="36.4236" height="3.87485" transform="matrix(-0.866025 -0.5 -0.866025 0.5 266.39 219.236)" fill="#DED5C9"/>
</g>
<g>
<rect width="36.4236" height="3.87485" transform="matrix(-0.866025 -0.5 -0.866025 0.5 259.679 223.111)" fill="#DED5C9"/>
</g>
<rect width="58.565" height="35.9125" rx="6.0775" transform="matrix(0.866025 0.5 -0.866025 0.5 392.101 385)" fill="white"/>
<rect width="16.1179" height="16.1179" transform="matrix(0.866025 0.5 -0.866025 0.5 393.058 389.973)" fill="#DED5C9"/>
<rect width="20.995" height="5.525" transform="matrix(0.866025 0.5 -0.866025 0.5 411.719 400.746)" fill="#DED5C9"/>
<rect width="15.47" height="5.525" transform="matrix(0.866025 0.5 -0.866025 0.5 404.542 404.89)" fill="#DED5C9"/>
<rect width="48.0675" height="2.7625" transform="matrix(0.866025 0.5 -0.866025 0.5 371.048 402.68)" fill="#DED5C9"/>
<rect width="58.565" height="35.9125" rx="6.0775" transform="matrix(0.866025 -0.5 -0.866025 -0.5 425.101 449.239)" fill="white"/>
<rect width="16.1179" height="16.1179" transform="matrix(0.866025 -0.5 -0.866025 -0.5 426.058 444.266)" fill="#DED5C9"/>
<rect width="20.995" height="5.525" transform="matrix(0.866025 -0.5 -0.866025 -0.5 444.719 433.493)" fill="#DED5C9"/>
<rect width="15.47" height="5.525" transform="matrix(0.866025 -0.5 -0.866025 -0.5 437.542 429.349)" fill="#DED5C9"/>
<rect width="48.0675" height="2.7625" transform="matrix(0.866025 -0.5 -0.866025 -0.5 404.048 431.559)" fill="#DED5C9"/>
<rect width="58.565" height="35.9125" rx="6.0775" transform="matrix(0.866025 0.5 -0.866025 0.5 419.101 416)" fill="white"/>
<rect width="16.1179" height="16.1179" transform="matrix(0.866025 0.5 -0.866025 0.5 420.058 420.973)" fill="#DED5C9"/>
<rect width="20.995" height="5.525" transform="matrix(0.866025 0.5 -0.866025 0.5 438.719 431.746)" fill="#DED5C9"/>
<rect width="15.47" height="5.525" transform="matrix(0.866025 0.5 -0.866025 0.5 431.542 435.89)" fill="#DED5C9"/>
<rect width="48.0675" height="2.7625" transform="matrix(0.866025 0.5 -0.866025 0.5 398.048 433.68)" fill="#DED5C9"/>
<g>
<path d="M230.745 308.018L261.953 290L318.329 322.549L275.376 347.348L229.067 320.611L230.745 308.018Z" fill="white"/>
</g>
<g>
<rect width="13.9495" height="13.9495" transform="matrix(0.866025 -0.5 0.866025 0.5 249.202 303.562)" fill="#DED5C9"/>
</g>
<g>
<rect width="36.4236" height="3.87485" transform="matrix(0.866025 -0.5 0.866025 0.5 246.516 324.486)" fill="#DED5C9"/>
</g>
<g>
<rect width="36.4236" height="3.87485" transform="matrix(0.866025 -0.5 0.866025 0.5 253.228 328.361)" fill="#DED5C9"/>
</g>
<g>
<rect width="36.4236" height="3.87485" transform="matrix(0.866025 -0.5 0.866025 0.5 259.939 332.236)" fill="#DED5C9"/>
</g>
<g>
<rect width="36.4236" height="3.87485" transform="matrix(0.866025 -0.5 0.866025 0.5 266.65 336.111)" fill="#DED5C9"/>
</g>
<g>
<path d="M208.745 256.018L239.953 238L296.329 270.549L253.376 295.348L207.067 268.611L208.745 256.018Z" fill="white"/>
</g>
<g>
<rect width="13.9495" height="13.9495" transform="matrix(0.866025 -0.5 0.866025 0.5 227.202 251.562)" fill="#DED5C9"/>
</g>
<g>
<rect width="36.4236" height="3.87485" transform="matrix(0.866025 -0.5 0.866025 0.5 224.516 272.486)" fill="#DED5C9"/>
</g>
<g>
<rect width="36.4236" height="3.87485" transform="matrix(0.866025 -0.5 0.866025 0.5 231.228 276.361)" fill="#DED5C9"/>
</g>
<g>
<rect width="36.4236" height="3.87485" transform="matrix(0.866025 -0.5 0.866025 0.5 237.939 280.236)" fill="#DED5C9"/>
</g>
<g>
<rect width="36.4236" height="3.87485" transform="matrix(0.866025 -0.5 0.866025 0.5 244.65 284.111)" fill="#DED5C9"/>
</g>
<g>
<path d="M263.541 271.987L299.523 270L335.13 324.496L285.608 327.231L256.359 282.466L263.541 271.987Z" fill="white"/>
</g>
<g>
<rect width="13.9495" height="13.9495" transform="matrix(0.998479 -0.0551391 0.546991 0.837138 282.021 276.344)" fill="#DED5C9"/>
</g>
<g>
<rect width="36.4236" height="3.87485" transform="matrix(0.998479 -0.0551391 0.546991 0.837138 270.178 293.802)" fill="#DED5C9"/>
</g>
<g>
<rect width="36.4236" height="3.87485" transform="matrix(0.998479 -0.0551391 0.546991 0.837138 274.417 300.29)" fill="#DED5C9"/>
</g>
<g>
<rect width="36.4236" height="3.87485" transform="matrix(0.998479 -0.0551391 0.546991 0.837138 278.656 306.777)" fill="#DED5C9"/>
</g>
<g>
<rect width="36.4236" height="3.87485" transform="matrix(0.998479 -0.0551391 0.546991 0.837138 282.896 313.265)" fill="#DED5C9"/>
</g>
<g>
<path d="M259.541 322.987L295.523 321L331.13 375.496L281.608 378.231L252.359 333.466L259.541 322.987Z" fill="white"/>
</g>
<g>
<rect width="13.9495" height="13.9495" transform="matrix(0.998479 -0.0551391 0.546991 0.837138 278.021 327.344)" fill="#DED5C9"/>
</g>
<g>
<rect width="36.4236" height="3.87485" transform="matrix(0.998479 -0.0551391 0.546991 0.837138 266.178 344.802)" fill="#DED5C9"/>
</g>
<g>
<rect width="36.4236" height="3.87485" transform="matrix(0.998479 -0.0551391 0.546991 0.837138 270.417 351.29)" fill="#DED5C9"/>
</g>
<g>
<rect width="36.4236" height="3.87485" transform="matrix(0.998479 -0.0551391 0.546991 0.837138 274.656 357.777)" fill="#DED5C9"/>
</g>
<g>
<rect width="36.4236" height="3.87485" transform="matrix(0.998479 -0.0551391 0.546991 0.837138 278.896 364.265)" fill="#DED5C9"/>
</g>
<g>
<path d="M317.292 273.149L352.612 266L365.527 329.804L316.915 339.643L306.306 287.233L317.292 273.149Z" fill="white"/>
</g>
<g>
<rect x="333.334" y="276.228" width="13.9495" height="13.9495" transform="rotate(-11.4428 333.334 276.228)" fill="#DED5C9"/>
</g>
<g>
<rect x="315.149" y="299.676" width="36.4236" height="3.87485" transform="rotate(-11.4428 315.149 299.676)" fill="#DED5C9"/>
</g>
<g>
<rect x="316.687" y="307.271" width="36.4236" height="3.87485" transform="rotate(-11.4428 316.687 307.271)" fill="#DED5C9"/>
</g>
<g>
<rect x="318.224" y="314.867" width="36.4236" height="3.87485" transform="rotate(-11.4428 318.224 314.867)" fill="#DED5C9"/>
</g>
<g>
<rect x="319.762" y="322.463" width="36.4236" height="3.87485" transform="rotate(-11.4428 319.762 322.463)" fill="#DED5C9"/>
</g>
<g>
<path d="M79.9513 359.171L92.8483 392.82L51.8551 443.39L34.1045 397.077L67.7774 355.538L79.9513 359.171Z" fill="white"/>
</g>
<g>
<rect width="13.9495" height="13.9495" transform="matrix(0.357888 0.933764 -0.629719 0.776823 81.4556 378.098)" fill="#DED5C9"/>
</g>
<g>
<rect width="36.4236" height="3.87485" transform="matrix(0.357888 0.933764 -0.629719 0.776823 61.2119 372.162)" fill="#DED5C9"/>
</g>
<g>
<rect width="36.4236" height="3.87485" transform="matrix(0.357888 0.933764 -0.629719 0.776823 56.3315 378.182)" fill="#DED5C9"/>
</g>
<g>
<rect width="36.4236" height="3.87485" transform="matrix(0.357888 0.933764 -0.629719 0.776823 51.4517 384.203)" fill="#DED5C9"/>
</g>
<g>
<rect width="36.4236" height="3.87485" transform="matrix(0.357888 0.933764 -0.629719 0.776823 46.5713 390.223)" fill="#DED5C9"/>
</g>
<g>
<path d="M99.4942 337.387L121.791 365.697L97.6404 426.149L66.9526 387.185L86.7904 337.528L99.4942 337.387Z" fill="white"/>
</g>
<g>
<rect width="13.9495" height="13.9495" transform="matrix(0.618729 0.785604 -0.370989 0.928637 106.544 355.017)" fill="#DED5C9"/>
</g>
<g>
<rect width="36.4236" height="3.87485" transform="matrix(0.618729 0.785604 -0.370989 0.928637 85.4512 355.352)" fill="#DED5C9"/>
</g>
<g>
<rect width="36.4236" height="3.87485" transform="matrix(0.618729 0.785604 -0.370989 0.928637 82.5757 362.548)" fill="#DED5C9"/>
</g>
<g>
<rect width="36.4236" height="3.87485" transform="matrix(0.618729 0.785604 -0.370989 0.928637 79.7007 369.745)" fill="#DED5C9"/>
</g>
<g>
<rect width="36.4236" height="3.87485" transform="matrix(0.618729 0.785604 -0.370989 0.928637 76.8257 376.942)" fill="#DED5C9"/>
</g>
<g>
<path d="M398.297 346.654L376 374.965L400.151 435.417L430.838 396.452L411.001 346.795L398.297 346.654Z" fill="white"/>
</g>
<g>
<rect width="13.9495" height="13.9495" transform="matrix(-0.618729 0.785604 0.370989 0.928637 391.247 364.284)" fill="#DED5C9"/>
</g>
<g>
<rect width="36.4236" height="3.87485" transform="matrix(-0.618729 0.785604 0.370989 0.928637 412.34 364.619)" fill="#DED5C9"/>
</g>
<g>
<rect width="36.4236" height="3.87485" transform="matrix(-0.618729 0.785604 0.370989 0.928637 415.215 371.815)" fill="#DED5C9"/>
</g>
<g>
<rect width="36.4236" height="3.87485" transform="matrix(-0.618729 0.785604 0.370989 0.928637 418.09 379.012)" fill="#DED5C9"/>
</g>
<g>
<rect width="36.4236" height="3.87485" transform="matrix(-0.618729 0.785604 0.370989 0.928637 420.965 386.209)" fill="#DED5C9"/>
</g>
<g>
<path d="M348.297 300.654L326 328.965L350.151 389.417L380.838 350.452L361.001 300.795L348.297 300.654Z" fill="white"/>
</g>
<g>
<rect width="13.9495" height="13.9495" transform="matrix(-0.618729 0.785604 0.370989 0.928637 341.247 318.284)" fill="#DED5C9"/>
</g>
<g>
<rect width="36.4236" height="3.87485" transform="matrix(-0.618729 0.785604 0.370989 0.928637 362.34 318.619)" fill="#DED5C9"/>
</g>
<g>
<rect width="36.4236" height="3.87485" transform="matrix(-0.618729 0.785604 0.370989 0.928637 365.215 325.815)" fill="#DED5C9"/>
</g>
<g>
<rect width="36.4236" height="3.87485" transform="matrix(-0.618729 0.785604 0.370989 0.928637 368.09 333.012)" fill="#DED5C9"/>
</g>
<g>
<rect width="36.4236" height="3.87485" transform="matrix(-0.618729 0.785604 0.370989 0.928637 370.965 340.209)" fill="#DED5C9"/>
</g>
<g>
<path d="M352.923 362.435L348 398.133L399.401 438.078L406.176 388.945L363.954 356.133L352.923 362.435Z" fill="white"/>
</g>
<g>
<rect width="13.9495" height="13.9495" transform="matrix(-0.13661 0.990625 0.789601 0.61362 355.753 381.209)" fill="#DED5C9"/>
</g>
<g>
<rect width="36.4236" height="3.87485" transform="matrix(-0.13661 0.990625 0.789601 0.61362 374.122 370.833)" fill="#DED5C9"/>
</g>
<g>
<rect width="36.4236" height="3.87485" transform="matrix(-0.13661 0.990625 0.789601 0.61362 380.241 375.589)" fill="#DED5C9"/>
</g>
<g>
<rect width="36.4236" height="3.87485" transform="matrix(-0.13661 0.990625 0.789601 0.61362 386.36 380.344)" fill="#DED5C9"/>
</g>
<g>
<rect width="36.4236" height="3.87485" transform="matrix(-0.13661 0.990625 0.789601 0.61362 392.479 385.1)" fill="#DED5C9"/>
</g>
<g>
<path d="M336.923 331.435L332 367.133L383.401 407.078L390.176 357.945L347.954 325.133L336.923 331.435Z" fill="white"/>
</g>
<g>
<rect width="13.9495" height="13.9495" transform="matrix(-0.13661 0.990625 0.789601 0.61362 339.753 350.209)" fill="#DED5C9"/>
</g>
<g>
<rect width="36.4236" height="3.87485" transform="matrix(-0.13661 0.990625 0.789601 0.61362 358.122 339.833)" fill="#DED5C9"/>
</g>
<g>
<rect width="36.4236" height="3.87485" transform="matrix(-0.13661 0.990625 0.789601 0.61362 364.241 344.589)" fill="#DED5C9"/>
</g>
<g>
<rect width="36.4236" height="3.87485" transform="matrix(-0.13661 0.990625 0.789601 0.61362 370.36 349.344)" fill="#DED5C9"/>
</g>
<g>
<rect width="36.4236" height="3.87485" transform="matrix(-0.13661 0.990625 0.789601 0.61362 376.479 354.1)" fill="#DED5C9"/>
</g>
<g>
<path d="M257.385 340.214L221.381 341.736L191.242 399.437L240.796 397.342L265.553 349.945L257.385 340.214Z" fill="white"/>
</g>
<g>
<rect width="13.9495" height="13.9495" transform="matrix(-0.999108 0.042231 -0.462981 0.886368 239.416 346.348)" fill="#DED5C9"/>
</g>
<g>
<rect width="36.4236" height="3.87485" transform="matrix(-0.999108 0.042231 -0.462981 0.886368 252.901 362.571)" fill="#DED5C9"/>
</g>
<g>
<rect width="36.4236" height="3.87485" transform="matrix(-0.999108 0.042231 -0.462981 0.886368 249.313 369.44)" fill="#DED5C9"/>
</g>
<g>
<rect width="36.4236" height="3.87485" transform="matrix(-0.999108 0.042231 -0.462981 0.886368 245.725 376.31)" fill="#DED5C9"/>
</g>
<g>
<rect width="36.4236" height="3.87485" transform="matrix(-0.999108 0.042231 -0.462981 0.886368 242.137 383.179)" fill="#DED5C9"/>
</g>
<g>
<path d="M197.745 292.115L228.953 274.097V209L186 233.799V287.272L197.745 292.115Z" fill="white"/>
</g>
<g>
<rect width="13.9495" height="13.9495" transform="matrix(0.866025 -0.5 0 -1 210.833 278.36)" fill="#DED5C9"/>
</g>
<g>
<rect width="36.4236" height="3.87485" transform="matrix(0.866025 -0.5 0 -1 191.369 270.223)" fill="#DED5C9"/>
</g>
<g>
<rect width="36.4236" height="3.87485" transform="matrix(0.866025 -0.5 0 -1 191.369 262.473)" fill="#DED5C9"/>
</g>
<g>
<rect width="36.4236" height="3.87485" transform="matrix(0.866025 -0.5 0 -1 191.369 254.724)" fill="#DED5C9"/>
</g>
<g>
<rect width="36.4236" height="3.87485" transform="matrix(0.866025 -0.5 0 -1 191.369 246.974)" fill="#DED5C9"/>
</g>
<g>
<ellipse cx="236.738" cy="119.558" rx="79.3186" ry="74.5594" fill="#D2D58B"/>
</g>
<g>
<path d="M215.953 198.209C212.909 198.209 210.441 195.742 210.441 192.697C210.441 189.653 212.909 187.185 215.953 187.185L229.299 187.185C232.343 187.185 234.811 189.653 234.811 192.697C234.811 195.742 232.343 198.209 229.299 198.209L215.953 198.209Z" fill="#746B5E"/>
<path d="M210.459 192.003C210.459 189.76 212.278 187.942 214.521 187.942C216.764 187.942 218.583 189.76 218.583 192.003L218.583 198.386C218.583 200.629 216.764 202.447 214.521 202.447C212.278 202.447 210.459 200.629 210.459 198.386L210.459 192.003Z" fill="#746B5E"/>
<path d="M218.583 192.005C218.583 189.762 220.401 187.944 222.644 187.944C224.887 187.944 226.706 189.762 226.706 192.005L226.706 198.388C226.706 200.631 224.887 202.449 222.644 202.449C220.401 202.449 218.583 200.631 218.583 198.388L218.583 192.005Z" fill="#746B5E"/>
<path d="M226.705 192.003C226.705 189.76 228.523 187.942 230.767 187.942C233.01 187.942 234.828 189.76 234.828 192.003L234.828 198.386C234.828 200.629 233.01 202.447 230.767 202.447C228.523 202.447 226.705 200.629 226.705 198.386L226.705 192.003Z" fill="#746B5E"/>
</g>
<g>
<path d="M249.161 198.209C246.117 198.209 243.649 195.742 243.649 192.697C243.649 189.653 246.117 187.185 249.161 187.185L262.506 187.185C265.55 187.185 268.018 189.653 268.018 192.697C268.018 195.742 265.55 198.209 262.506 198.209L249.161 198.209Z" fill="#746B5E"/>
<path d="M243.667 192.006C243.667 189.763 245.485 187.945 247.728 187.945C249.971 187.945 251.79 189.763 251.79 192.006L251.79 198.389C251.79 200.632 249.971 202.45 247.728 202.45C245.485 202.45 243.667 200.632 243.667 198.389L243.667 192.006Z" fill="#746B5E"/>
<path d="M251.78 192.008C251.78 189.765 253.599 187.947 255.842 187.947C258.085 187.947 259.903 189.765 259.903 192.008L259.903 198.391C259.903 200.634 258.085 202.452 255.842 202.452C253.599 202.452 251.78 200.634 251.78 198.391L251.78 192.008Z" fill="#746B5E"/>
<path d="M259.913 192.01C259.913 189.767 261.731 187.948 263.974 187.948C266.217 187.948 268.036 189.767 268.036 192.01L268.036 198.392C268.036 200.635 266.217 202.454 263.974 202.454C261.731 202.454 259.913 200.635 259.913 198.392L259.913 192.01Z" fill="#746B5E"/>
</g>
<g>
<path d="M171.125 73.5788L167.83 82.7875C183.474 70.9926 213.002 50.0358 203.478 52.6474C193.658 55.3405 178.623 59.3043 172.027 59.8836C166.739 60.3482 163.555 53.142 159.035 56.4006C155.366 59.0458 164.705 77.6538 171.125 73.5788Z" fill="#D2D58B"/>
</g>
<g>
<path d="M288.905 57.0044L298.918 73.7329C280.626 66.7136 242.283 46.1059 252.157 45.9878C262.34 45.866 277.759 45.3535 284.258 44.0899C289.47 43.0771 290.541 35.272 295.785 37.1566C300.041 38.6865 296.2 59.1493 288.905 57.0044Z" fill="#D2D58B"/>
</g>
<path d="M191.373 107.305C200.771 114.444 214.191 112.595 221.345 103.175C228.499 93.7557 226.68 80.3326 217.281 73.1938C207.882 66.0551 194.463 67.9042 187.308 77.3238C180.154 86.7434 181.974 100.167 191.373 107.305Z" fill="white"/>
<path d="M206.28 79.2579C202.081 82.8365 201.584 89.1491 205.171 93.3576C208.757 97.566 215.069 98.0766 219.268 94.4981C223.467 90.9195 223.964 84.6069 220.377 80.3985C216.791 76.19 210.479 75.6794 206.28 79.2579Z" fill="#291505"/>
<path d="M216.463 83.1103C215.038 84.3244 214.87 86.4661 216.086 87.8939C217.303 89.3217 219.445 89.4949 220.869 88.2808C222.294 87.0667 222.462 84.9251 221.246 83.4973C220.029 82.0695 217.888 81.8962 216.463 83.1103Z" fill="white"/>
<path d="M247.355 99.0935C256.754 106.233 270.173 104.384 277.327 94.9646C284.482 85.5452 282.663 72.122 273.264 64.983C263.866 57.844 250.447 59.6926 243.292 69.1119C236.137 78.5313 237.956 91.9545 247.355 99.0935Z" fill="white"/>
<path d="M262.263 71.0468C258.064 74.6252 257.567 80.9378 261.153 85.1464C264.74 89.355 271.051 89.8658 275.25 86.2874C279.45 82.709 279.947 76.3964 276.36 72.1878C272.774 67.9792 266.463 67.4684 262.263 71.0468Z" fill="#291505"/>
<path d="M272.446 74.8996C271.021 76.1137 270.853 78.2553 272.069 79.6832C273.286 81.111 275.427 81.2843 276.852 80.0703C278.277 78.8562 278.445 76.7146 277.229 75.2868C276.012 73.8589 273.871 73.6856 272.446 74.8996Z" fill="white"/>
<path d="M232.888 102.399L236.186 101.915C240.349 101.304 242.431 100.999 243.413 102.237C244.394 103.474 243.623 105.432 242.08 109.347L240.873 112.411C239.34 116.301 238.573 118.247 237.018 118.486C235.462 118.725 234.146 117.101 231.515 113.851L229.425 111.27C226.738 107.953 225.395 106.295 225.974 104.811C226.554 103.328 228.665 103.018 232.888 102.399Z" fill="#37271A"/>
<mask id="mask0_6831_16364" style="mask-type:alpha" maskUnits="userSpaceOnUse" x="225" y="101" width="19" height="18">
<path d="M232.888 102.399L236.186 101.915C240.349 101.304 242.431 100.999 243.413 102.237C244.394 103.474 243.623 105.432 242.08 109.347L240.873 112.411C239.34 116.301 238.573 118.247 237.018 118.486C235.462 118.725 234.146 117.101 231.515 113.851L229.425 111.27C226.738 107.953 225.395 106.295 225.974 104.811C226.554 103.328 228.665 103.018 232.888 102.399Z" fill="#37271A"/>
</mask>
<g mask="url(#mask0_6831_16364)">
<ellipse cx="241.124" cy="109.585" rx="5.70896" ry="13.83" transform="rotate(-6.37545 241.124 109.585)" fill="#443122"/>
</g>


<g>
<path d="M146.546 123.13C145.692 117.893 149.245 112.956 154.482 112.102C159.719 111.249 164.656 114.802 165.51 120.039L173.066 166.395C173.919 171.632 170.366 176.569 165.129 177.423C159.892 178.276 154.955 174.723 154.101 169.486L146.546 123.13Z" fill="#2C2D1C"/>
<path d="M162.349 120.554C161.496 115.317 165.049 110.38 170.286 109.527C175.523 108.673 180.46 112.226 181.314 117.463L187.496 155.391C188.349 160.628 184.796 165.565 179.559 166.419C174.322 167.272 169.385 163.719 168.531 158.482L162.349 120.554Z" fill="#2C2D1C"/>
<path d="M153.429 112.274L171.339 109.355L173.4 121.998L155.489 124.917L153.429 112.274Z" fill="#2C2D1C"/>
</g>
<g class="wand-arm">
<line x1="333.864" y1="34.7968" x2="327.668" y2="98.7159" stroke="#746B5E" stroke-width="4.26811" stroke-linecap="round"/>
<path d="M348.465 27.5215L342.035 32.158L343.182 40.0331C343.246 40.4608 343.181 40.8978 342.997 41.2889C342.813 41.68 342.517 42.0077 342.146 42.2306C341.776 42.4535 341.347 42.5616 340.915 42.5413C340.484 42.5209 340.067 42.373 339.719 42.1162L333.371 37.3998L326.295 40.9423C325.908 41.1335 325.474 41.206 325.045 41.1505C324.617 41.095 324.215 40.9141 323.89 40.6305C323.564 40.347 323.33 39.9735 323.216 39.557C323.103 39.1406 323.115 38.6998 323.251 38.2902L325.754 30.7343L320.226 25.052C319.926 24.7426 319.723 24.3515 319.643 23.9275C319.564 23.5035 319.611 23.0655 319.779 22.6681C319.947 22.2707 320.228 21.9316 320.587 21.6931C320.947 21.4546 321.368 21.3272 321.8 21.327L329.694 21.3801L333.359 14.326C333.557 13.9414 333.866 13.6246 334.245 13.4158C334.624 13.207 335.056 13.1157 335.488 13.1534C335.919 13.1911 336.329 13.3561 336.666 13.6275C337.003 13.899 337.252 14.2645 337.381 14.6777L339.763 22.2606L347.548 23.5786C347.973 23.6524 348.368 23.8501 348.682 24.1472C348.996 24.4442 349.215 24.8272 349.312 25.2483C349.409 25.6693 349.38 26.1097 349.228 26.5142C349.076 26.9186 348.808 27.2693 348.457 27.5221L348.465 27.5215Z" fill="url(#paint0_linear_6831_16364)"/>
<path d="M310.594 109.534C306.627 113.058 300.554 112.698 297.03 108.731C293.507 104.765 293.866 98.6923 297.833 95.1687L332.95 63.9774C336.917 60.4538 342.989 60.8132 346.513 64.7801C350.036 68.747 349.677 74.8192 345.71 78.3428L310.594 109.534Z" fill="#2C2D1C"/>
<path d="M321.227 121.505C317.26 125.029 311.188 124.669 307.664 120.703C304.14 116.736 304.5 110.663 308.467 107.14L337.198 81.6197C341.165 78.0961 347.238 78.4555 350.762 82.4224C354.285 86.3892 353.926 92.4615 349.959 95.9851L321.227 121.505Z" fill="#2C2D1C"/>
<path d="M308.373 121.501L296.322 107.933L305.899 99.4266L317.95 112.994L308.373 121.501Z" fill="#2C2D1C"/>
</g>
<rect width="58.565" height="35.9125" rx="6.0775" transform="matrix(0.99863 -0.052336 -0.453991 0.891006 209.304 385.065)" fill="white"/>
<rect width="16.1179" height="16.1179" transform="matrix(0.99863 -0.052336 -0.453991 0.891006 212.814 388.714)" fill="#DED5C9"/>
<rect width="20.995" height="5.525" transform="matrix(0.99863 -0.052336 -0.453991 0.891006 234.333 387.586)" fill="#DED5C9"/>
<rect width="15.47" height="5.525" transform="matrix(0.99863 -0.052336 -0.453991 0.891006 230.57 394.971)" fill="#DED5C9"/>
<rect width="48.0675" height="2.7625" transform="matrix(0.99863 -0.052336 -0.453991 0.891006 201.276 411.359)" fill="#DED5C9"/>
<rect width="58.565" height="35.9125" rx="6.0775" transform="matrix(0.99863 -0.052336 -0.453991 0.891006 275.304 427.065)" fill="white"/>
<rect width="16.1179" height="16.1179" transform="matrix(0.99863 -0.052336 -0.453991 0.891006 278.814 430.714)" fill="#DED5C9"/>
<rect width="20.995" height="5.525" transform="matrix(0.99863 -0.052336 -0.453991 0.891006 300.333 429.586)" fill="#DED5C9"/>
<rect width="15.47" height="5.525" transform="matrix(0.99863 -0.052336 -0.453991 0.891006 296.57 436.971)" fill="#DED5C9"/>
<rect width="48.0675" height="2.7625" transform="matrix(0.99863 -0.052336 -0.453991 0.891006 267.276 453.359)" fill="#DED5C9"/>
<rect width="58.565" height="35.9125" rx="6.0775" transform="matrix(0.99863 -0.052336 -0.453991 0.891006 372.304 428.065)" fill="white"/>
<rect width="16.1179" height="16.1179" transform="matrix(0.99863 -0.052336 -0.453991 0.891006 375.814 431.714)" fill="#DED5C9"/>
<rect width="20.995" height="5.525" transform="matrix(0.99863 -0.052336 -0.453991 0.891006 397.333 430.586)" fill="#DED5C9"/>
<rect width="15.47" height="5.525" transform="matrix(0.99863 -0.052336 -0.453991 0.891006 393.57 437.971)" fill="#DED5C9"/>
<rect width="48.0675" height="2.7625" transform="matrix(0.99863 -0.052336 -0.453991 0.891006 364.276 454.359)" fill="#DED5C9"/>
<defs>





















































































































































































































































































































































































<linearGradient id="paint0_linear_6831_16364" x1="325.843" y1="41.9396" x2="340.108" y2="21.9756" gradientUnits="userSpaceOnUse">
<stop stop-color="#D1953C"/>
<stop offset="1" stop-color="#EBC023"/>
</linearGradient>
<clipPath id="clip0_6831_16364">
<rect width="7.86704" height="7.86704" fill="white" transform="translate(461.829 202.829)"/>
</clipPath>
</defs>
</svg>
