<svg width="25.6" height="25.6" overflow="visible" style="display: block;" viewBox="0 0 25.6 25.6" fill="none" xmlns="http://www.w3.org/2000/svg">
<g id="Frame">
<path id="Vector" opacity="0.2" d="M21.6 9.6001V20.8001C21.6 21.0123 21.5157 21.2158 21.3656 21.3658C21.2156 21.5158 21.0121 21.6001 20.8 21.6001H4.79995C4.58778 21.6001 4.38429 21.5158 4.23427 21.3658C4.08424 21.2158 3.99995 21.0123 3.99995 20.8001V9.6001C3.99995 9.38792 4.08424 9.18444 4.23427 9.03441C4.38429 8.88438 4.58778 8.8001 4.79995 8.8001H20.8C21.0121 8.8001 21.2156 8.88438 21.3656 9.03441C21.5157 9.18444 21.6 9.38792 21.6 9.6001Z" fill="#2C2D1C"/>
<path id="Vector_2" d="M20.8 8.0001H17.6V5.6001C17.6 4.32706 17.0942 3.10616 16.1941 2.20599C15.2939 1.30581 14.073 0.800098 12.8 0.800098C11.5269 0.800098 10.306 1.30581 9.40584 2.20599C8.50566 3.10616 7.99995 4.32706 7.99995 5.6001V8.0001H4.79995C4.3756 8.0001 3.96864 8.16867 3.66858 8.46873C3.36852 8.76879 3.19995 9.17575 3.19995 9.6001V20.8001C3.19995 21.2244 3.36852 21.6314 3.66858 21.9315C3.96864 22.2315 4.3756 22.4001 4.79995 22.4001H20.8C21.2243 22.4001 21.6313 22.2315 21.9313 21.9315C22.2314 21.6314 22.4 21.2244 22.4 20.8001V9.6001C22.4 9.17575 22.2314 8.76879 21.9313 8.46873C21.6313 8.16867 21.2243 8.0001 20.8 8.0001ZM9.59995 5.6001C9.59995 4.7514 9.93709 3.93747 10.5372 3.33736C11.1373 2.73724 11.9513 2.4001 12.8 2.4001C13.6486 2.4001 14.4626 2.73724 15.0627 3.33736C15.6628 3.93747 16 4.7514 16 5.6001V8.0001H9.59995V5.6001ZM20.8 20.8001H4.79995V9.6001H20.8V20.8001ZM14 15.2001C14 15.4374 13.9296 15.6694 13.7977 15.8668C13.6659 16.0641 13.4784 16.2179 13.2592 16.3088C13.0399 16.3996 12.7986 16.4233 12.5658 16.377C12.3331 16.3307 12.1192 16.2164 11.9514 16.0486C11.7836 15.8808 11.6693 15.667 11.623 15.4342C11.5767 15.2014 11.6005 14.9601 11.6913 14.7409C11.7821 14.5216 11.9359 14.3342 12.1333 14.2023C12.3306 14.0705 12.5626 14.0001 12.8 14.0001C13.1182 14.0001 13.4234 14.1265 13.6485 14.3516C13.8735 14.5766 14 14.8818 14 15.2001Z" fill="#2C2D1C"/>
</g>
</svg>
