<svg width="25.6" height="25.6" overflow="visible" style="display: block;" viewBox="0 0 25.6 25.6" fill="none" xmlns="http://www.w3.org/2000/svg">
<g id="Frame">
<path id="Vector" opacity="0.2" d="M21.6 5.6001V11.2001C21.6 20.8001 12.8 23.2001 12.8 23.2001C12.8 23.2001 3.99995 20.8001 3.99995 11.2001V5.6001C3.99995 5.38792 4.08424 5.18444 4.23427 5.03441C4.38429 4.88438 4.58778 4.8001 4.79995 4.8001H20.8C21.0121 4.8001 21.2156 4.88438 21.3656 5.03441C21.5157 5.18444 21.6 5.38792 21.6 5.6001Z" fill="#2C2D1C"/>
<path id="Vector_2" d="M20.8 4.0001H4.79995C4.3756 4.0001 3.96864 4.16867 3.66858 4.46873C3.36852 4.76879 3.19995 5.17575 3.19995 5.6001V11.2001C3.19995 16.4721 5.75195 19.6671 7.89295 21.4191C10.199 23.3051 12.493 23.9451 12.593 23.9721C12.7305 24.0095 12.8755 24.0095 13.013 23.9721C13.113 23.9451 15.404 23.3051 17.713 21.4191C19.848 19.6671 22.4 16.4721 22.4 11.2001V5.6001C22.4 5.17575 22.2314 4.76879 21.9313 4.46873C21.6313 4.16867 21.2243 4.0001 20.8 4.0001ZM20.8 11.2001C20.8 14.9071 19.434 17.9161 16.74 20.1421C15.5672 21.1078 14.2335 21.8593 12.8 22.3621C11.3852 21.8681 10.0679 21.1299 8.90795 20.1811C6.18195 17.9511 4.79995 14.9301 4.79995 11.2001V5.6001H20.8V11.2001ZM8.23395 14.1661C8.08384 14.016 7.99951 13.8124 7.99951 13.6001C7.99951 13.3878 8.08384 13.1842 8.23395 13.0341C8.38406 12.884 8.58766 12.7997 8.79995 12.7997C9.01224 12.7997 9.21584 12.884 9.36595 13.0341L11.2 14.8691L16.234 9.8341C16.3083 9.75977 16.3965 9.70081 16.4936 9.66058C16.5907 9.62036 16.6948 9.59965 16.8 9.59965C16.9051 9.59965 17.0092 9.62036 17.1063 9.66058C17.2034 9.70081 17.2916 9.75977 17.366 9.8341C17.4403 9.90843 17.4992 9.99667 17.5395 10.0938C17.5797 10.1909 17.6004 10.295 17.6004 10.4001C17.6004 10.5052 17.5797 10.6093 17.5395 10.7064C17.4992 10.8035 17.4403 10.8918 17.366 10.9661L11.766 16.5661C11.6917 16.6405 11.6034 16.6995 11.5063 16.7397C11.4092 16.78 11.3051 16.8007 11.2 16.8007C11.0948 16.8007 10.9907 16.78 10.8936 16.7397C10.7965 16.6995 10.7082 16.6405 10.634 16.5661L8.23395 14.1661Z" fill="#2C2D1C"/>
</g>
</svg>
