<svg width="25.6" height="25.6" overflow="visible" style="display: block;" viewBox="0 0 25.6 25.6" fill="none" xmlns="http://www.w3.org/2000/svg">
<g id="Frame">
<path id="Vector" opacity="0.2" d="M22.4 5.6001V9.0061C21.9548 8.6341 21.4404 8.35382 20.8865 8.18138C20.3326 8.00894 19.75 7.94774 19.1724 8.0013C18.5947 8.05487 18.0334 8.22215 17.5206 8.4935C17.0078 8.76486 16.5538 9.13494 16.1846 9.58245C15.8154 10.03 15.5384 10.5461 15.3694 11.1011C15.2004 11.656 15.1429 12.239 15.2001 12.8163C15.2573 13.3936 15.4281 13.9539 15.7027 14.465C15.9772 14.976 16.3502 15.4277 16.8 15.7941V19.2001H3.99998C3.7878 19.2001 3.58432 19.1158 3.43429 18.9658C3.28426 18.8158 3.19998 18.6123 3.19998 18.4001V5.6001C3.19998 5.38792 3.28426 5.18444 3.43429 5.03441C3.58432 4.88438 3.7878 4.8001 3.99998 4.8001H21.6C21.8121 4.8001 22.0156 4.88438 22.1657 5.03441C22.3157 5.18444 22.4 5.38792 22.4 5.6001Z" fill="var(--fill-0, black)"/>
<path id="Vector_2" d="M12.8 13.6001C12.8 13.8123 12.7157 14.0158 12.5657 14.1658C12.4156 14.3158 12.2121 14.4001 12 14.4001H7.19998C6.9878 14.4001 6.78432 14.3158 6.63429 14.1658C6.48426 14.0158 6.39998 13.8123 6.39998 13.6001C6.39998 13.3879 6.48426 13.1844 6.63429 13.0344C6.78432 12.8844 6.9878 12.8001 7.19998 12.8001H12C12.2121 12.8001 12.4156 12.8844 12.5657 13.0344C12.7157 13.1844 12.8 13.3879 12.8 13.6001ZM12 9.6001H7.19998C6.9878 9.6001 6.78432 9.68438 6.63429 9.83441C6.48426 9.98444 6.39998 10.1879 6.39998 10.4001C6.39998 10.6123 6.48426 10.8158 6.63429 10.9658C6.78432 11.1158 6.9878 11.2001 7.19998 11.2001H12C12.2121 11.2001 12.4156 11.1158 12.5657 10.9658C12.7157 10.8158 12.8 10.6123 12.8 10.4001C12.8 10.1879 12.7157 9.98444 12.5657 9.83441C12.4156 9.68438 12.2121 9.6001 12 9.6001ZM23.2 16.1471V22.4001C23.2012 22.5411 23.1652 22.68 23.0955 22.8026C23.0258 22.9252 22.9249 23.0273 22.8031 23.0983C22.6813 23.1694 22.5428 23.207 22.4018 23.2073C22.2607 23.2076 22.1221 23.1706 22 23.1001L19.6 21.7261L17.2 23.1001C17.0778 23.1706 16.9392 23.2076 16.7982 23.2073C16.6571 23.207 16.5187 23.1694 16.3968 23.0983C16.275 23.0273 16.1741 22.9252 16.1044 22.8026C16.0347 22.68 15.9987 22.5411 16 22.4001V20.0001H3.99998C3.57563 20.0001 3.16866 19.8315 2.8686 19.5315C2.56855 19.2314 2.39998 18.8244 2.39998 18.4001V5.6001C2.39998 5.17575 2.56855 4.76879 2.8686 4.46873C3.16866 4.16867 3.57563 4.0001 3.99998 4.0001H21.6C22.0243 4.0001 22.4313 4.16867 22.7313 4.46873C23.0314 4.76879 23.2 5.17575 23.2 5.6001V8.6531C23.7057 9.13738 24.1081 9.71902 24.3831 10.363C24.658 11.0069 24.7998 11.6999 24.7998 12.4001C24.7998 13.1003 24.658 13.7932 24.3831 14.4372C24.1081 15.0812 23.7057 15.6628 23.2 16.1471ZM16 18.4001V16.1471C15.1282 15.3063 14.5772 14.1876 14.4422 12.984C14.3071 11.7804 14.5964 10.5674 15.2602 9.55433C15.924 8.54125 16.9205 7.79165 18.078 7.43488C19.2354 7.07811 20.481 7.13654 21.6 7.6001V5.6001H3.99998V18.4001H16ZM21.6 17.2001C20.9664 17.4648 20.2866 17.6011 19.6 17.6011C18.9133 17.6011 18.2335 17.4648 17.6 17.2001V21.0221L19.2 20.1061C19.3209 20.037 19.4577 20.0006 19.597 20.0006C19.7362 20.0006 19.8731 20.037 19.994 20.1061L21.594 21.0221L21.6 17.2001ZM23.2 12.4001C23.2 11.6881 22.9888 10.9921 22.5933 10.4C22.1977 9.80803 21.6354 9.34661 20.9776 9.07413C20.3198 8.80166 19.596 8.73036 18.8977 8.86927C18.1993 9.00818 17.5579 9.35104 17.0544 9.85451C16.5509 10.358 16.2081 10.9994 16.0691 11.6978C15.9302 12.3961 16.0015 13.1199 16.274 13.7778C16.5465 14.4356 17.0079 14.9978 17.5999 15.3934C18.1919 15.789 18.888 16.0001 19.6 16.0001C20.0727 16.0001 20.5409 15.907 20.9776 15.7261C21.4144 15.5451 21.8113 15.28 22.1456 14.9457C22.4799 14.6114 22.745 14.2145 22.9259 13.7778C23.1069 13.341 23.2 12.8729 23.2 12.4001Z" fill="var(--fill-0, black)"/>
</g>
</svg>
