<svg width="25.6" height="25.6" overflow="visible" style="display: block;" viewBox="0 0 25.6 25.6" fill="none" xmlns="http://www.w3.org/2000/svg">
<g id="Frame">
<path id="Vector" opacity="0.2" d="M6.39998 11.2001V14.4001C6.39998 14.6123 6.31569 14.8158 6.16566 14.9658C6.01563 15.1158 5.81215 15.2001 5.59998 15.2001H2.39998C2.1878 15.2001 1.98432 15.1158 1.83429 14.9658C1.68426 14.8158 1.59998 14.6123 1.59998 14.4001V11.2001C1.59998 10.9879 1.68426 10.7844 1.83429 10.6344C1.98432 10.4844 2.1878 10.4001 2.39998 10.4001H5.59998C5.81215 10.4001 6.01563 10.4844 6.16566 10.6344C6.31569 10.7844 6.39998 10.9879 6.39998 11.2001ZM20.8 4.0001H16C15.7878 4.0001 15.5843 4.08438 15.4343 4.23441C15.2843 4.38444 15.2 4.58792 15.2 4.8001V9.6001C15.2 9.81227 15.2843 10.0158 15.4343 10.1658C15.5843 10.3158 15.7878 10.4001 16 10.4001H20.8C21.0121 10.4001 21.2156 10.3158 21.3657 10.1658C21.5157 10.0158 21.6 9.81227 21.6 9.6001V4.8001C21.6 4.58792 21.5157 4.38444 21.3657 4.23441C21.2156 4.08438 21.0121 4.0001 20.8 4.0001ZM20.8 15.2001H16C15.7878 15.2001 15.5843 15.2844 15.4343 15.4344C15.2843 15.5844 15.2 15.7879 15.2 16.0001V20.8001C15.2 21.0123 15.2843 21.2158 15.4343 21.3658C15.5843 21.5158 15.7878 21.6001 16 21.6001H20.8C21.0121 21.6001 21.2156 21.5158 21.3657 21.3658C21.5157 21.2158 21.6 21.0123 21.6 20.8001V16.0001C21.6 15.7879 21.5157 15.5844 21.3657 15.4344C21.2156 15.2844 21.0121 15.2001 20.8 15.2001Z" fill="var(--fill-0, black)"/>
<path id="Vector_2" d="M16 11.2001H20.8C21.2243 11.2001 21.6313 11.0315 21.9313 10.7315C22.2314 10.4314 22.4 10.0244 22.4 9.6001V4.8001C22.4 4.37575 22.2314 3.96878 21.9313 3.66873C21.6313 3.36867 21.2243 3.2001 20.8 3.2001H16C15.5756 3.2001 15.1687 3.36867 14.8686 3.66873C14.5685 3.96878 14.4 4.37575 14.4 4.8001V6.4001H12.8C12.1635 6.4001 11.553 6.65295 11.1029 7.10304C10.6528 7.55313 10.4 8.16358 10.4 8.8001V12.0001H7.19998V11.2001C7.19998 10.7758 7.0314 10.3688 6.73135 10.0687C6.43129 9.76867 6.02432 9.6001 5.59998 9.6001H2.39998C1.97563 9.6001 1.56866 9.76867 1.2686 10.0687C0.968547 10.3688 0.799976 10.7758 0.799976 11.2001V14.4001C0.799976 14.8244 0.968547 15.2314 1.2686 15.5315C1.56866 15.8315 1.97563 16.0001 2.39998 16.0001H5.59998C6.02432 16.0001 6.43129 15.8315 6.73135 15.5315C7.0314 15.2314 7.19998 14.8244 7.19998 14.4001V13.6001H10.4V16.8001C10.4 17.4366 10.6528 18.0471 11.1029 18.4972C11.553 18.9472 12.1635 19.2001 12.8 19.2001H14.4V20.8001C14.4 21.2244 14.5685 21.6314 14.8686 21.9315C15.1687 22.2315 15.5756 22.4001 16 22.4001H20.8C21.2243 22.4001 21.6313 22.2315 21.9313 21.9315C22.2314 21.6314 22.4 21.2244 22.4 20.8001V16.0001C22.4 15.5758 22.2314 15.1688 21.9313 14.8687C21.6313 14.5687 21.2243 14.4001 20.8 14.4001H16C15.5756 14.4001 15.1687 14.5687 14.8686 14.8687C14.5685 15.1688 14.4 15.5758 14.4 16.0001V17.6001H12.8C12.5878 17.6001 12.3843 17.5158 12.2343 17.3658C12.0843 17.2158 12 17.0123 12 16.8001V8.8001C12 8.58792 12.0843 8.38444 12.2343 8.23441C12.3843 8.08438 12.5878 8.0001 12.8 8.0001H14.4V9.6001C14.4 10.0244 14.5685 10.4314 14.8686 10.7315C15.1687 11.0315 15.5756 11.2001 16 11.2001ZM5.59998 14.4001H2.39998V11.2001H5.59998V14.4001ZM16 16.0001H20.8V20.8001H16V16.0001ZM16 4.8001H20.8V9.6001H16V4.8001Z" fill="var(--fill-0, black)"/>
</g>
</svg>
