<svg width="542" height="217" viewBox="0 0 542 217" fill="none" xmlns="http://www.w3.org/2000/svg">
<path d="M0 12.627C0 9.31324 2.68629 6.62695 6 6.62695H238C241.314 6.62695 244 9.31324 244 12.627V64.627C244 67.9407 241.314 70.627 238 70.627H5.99999C2.68628 70.627 0 67.9407 0 64.627V12.627Z" fill="white"/>
<path d="M14.352 23.869V33.627H13.078V23.869H14.352ZM16.0473 29.777C16.0473 28.9836 16.206 28.293 16.5233 27.705C16.8406 27.1076 17.2793 26.6456 17.8393 26.319C18.4086 25.9923 19.0573 25.829 19.7853 25.829C20.728 25.829 21.5026 26.0576 22.1093 26.515C22.7253 26.9723 23.1313 27.607 23.3273 28.419H21.9553C21.8246 27.9523 21.568 27.5836 21.1853 27.313C20.812 27.0423 20.3453 26.907 19.7853 26.907C19.0573 26.907 18.4693 27.159 18.0213 27.663C17.5733 28.1576 17.3493 28.8623 17.3493 29.777C17.3493 30.701 17.5733 31.415 18.0213 31.919C18.4693 32.423 19.0573 32.675 19.7853 32.675C20.3453 32.675 20.812 32.5443 21.1853 32.283C21.5586 32.0216 21.8153 31.6483 21.9553 31.163H23.3273C23.122 31.947 22.7113 32.577 22.0953 33.053C21.4793 33.5196 20.7093 33.753 19.7853 33.753C19.0573 33.753 18.4086 33.5896 17.8393 33.263C17.2793 32.9363 16.8406 32.4743 16.5233 31.877C16.206 31.2796 16.0473 30.5796 16.0473 29.777ZM28.8352 25.815C29.4139 25.815 29.9366 25.941 30.4032 26.193C30.8699 26.4356 31.2339 26.8043 31.4952 27.299C31.7659 27.7936 31.9012 28.3956 31.9012 29.105V33.627H30.6412V29.287C30.6412 28.5216 30.4499 27.9383 30.0672 27.537C29.6846 27.1263 29.1619 26.921 28.4992 26.921C27.8272 26.921 27.2906 27.131 26.8892 27.551C26.4972 27.971 26.3012 28.5823 26.3012 29.385V33.627H25.0272V23.267H26.3012V27.047C26.5532 26.655 26.8986 26.3516 27.3372 26.137C27.7852 25.9223 28.2846 25.815 28.8352 25.815ZM38.9887 27.383C39.2501 26.9256 39.6327 26.5523 40.1367 26.263C40.6407 25.9736 41.2147 25.829 41.8587 25.829C42.5494 25.829 43.1701 25.9923 43.7207 26.319C44.2714 26.6456 44.7054 27.1076 45.0227 27.705C45.3401 28.293 45.4987 28.979 45.4987 29.763C45.4987 30.5376 45.3401 31.2283 45.0227 31.835C44.7054 32.4416 44.2667 32.913 43.7067 33.249C43.1561 33.585 42.5401 33.753 41.8587 33.753C41.1961 33.753 40.6127 33.6083 40.1087 33.319C39.6141 33.0296 39.2407 32.661 38.9887 32.213V33.627H37.7147V23.267H38.9887V27.383ZM44.1967 29.763C44.1967 29.1843 44.0801 28.6803 43.8467 28.251C43.6134 27.8216 43.2961 27.495 42.8947 27.271C42.5027 27.047 42.0687 26.935 41.5927 26.935C41.1261 26.935 40.6921 27.0516 40.2907 27.285C39.8987 27.509 39.5814 27.8403 39.3387 28.279C39.1054 28.7083 38.9887 29.2076 38.9887 29.777C38.9887 30.3556 39.1054 30.8643 39.3387 31.303C39.5814 31.7323 39.8987 32.0636 40.2907 32.297C40.6921 32.521 41.1261 32.633 41.5927 32.633C42.0687 32.633 42.5027 32.521 42.8947 32.297C43.2961 32.0636 43.6134 31.7323 43.8467 31.303C44.0801 30.8643 44.1967 30.351 44.1967 29.763ZM47.8337 24.709C47.591 24.709 47.3857 24.625 47.2177 24.457C47.0497 24.289 46.9657 24.0836 46.9657 23.841C46.9657 23.5983 47.0497 23.393 47.2177 23.225C47.3857 23.057 47.591 22.973 47.8337 22.973C48.067 22.973 48.263 23.057 48.4217 23.225C48.5897 23.393 48.6737 23.5983 48.6737 23.841C48.6737 24.0836 48.5897 24.289 48.4217 24.457C48.263 24.625 48.067 24.709 47.8337 24.709ZM48.4497 25.955V33.627H47.1757V25.955H48.4497ZM54.359 25.815C55.2923 25.815 56.0483 26.0996 56.627 26.669C57.2056 27.229 57.495 28.041 57.495 29.105V33.627H56.235V29.287C56.235 28.5216 56.0436 27.9383 55.661 27.537C55.2783 27.1263 54.7556 26.921 54.093 26.921C53.421 26.921 52.8843 27.131 52.483 27.551C52.091 27.971 51.895 28.5823 51.895 29.385V33.627H50.621V25.955H51.895V27.047C52.147 26.655 52.4876 26.3516 52.917 26.137C53.3556 25.9223 53.8363 25.815 54.359 25.815ZM75.5725 23.869L72.7445 33.627H71.3165L69.0485 25.773L66.6965 33.627L65.2825 33.641L62.5525 23.869H63.9105L66.0385 32.143L68.3905 23.869H69.8185L72.0585 32.115L74.2005 23.869H75.5725ZM76.4907 29.763C76.4907 28.979 76.6493 28.293 76.9667 27.705C77.284 27.1076 77.718 26.6456 78.2687 26.319C78.8287 25.9923 79.4493 25.829 80.1307 25.829C80.8027 25.829 81.386 25.9736 81.8807 26.263C82.3753 26.5523 82.744 26.9163 82.9867 27.355V25.955H84.2747V33.627H82.9867V32.199C82.7347 32.647 82.3567 33.0203 81.8527 33.319C81.358 33.6083 80.7793 33.753 80.1167 33.753C79.4353 33.753 78.8193 33.585 78.2687 33.249C77.718 32.913 77.284 32.4416 76.9667 31.835C76.6493 31.2283 76.4907 30.5376 76.4907 29.763ZM82.9867 29.777C82.9867 29.1983 82.87 28.6943 82.6367 28.265C82.4033 27.8356 82.086 27.509 81.6847 27.285C81.2927 27.0516 80.8587 26.935 80.3827 26.935C79.9067 26.935 79.4727 27.047 79.0807 27.271C78.6887 27.495 78.376 27.8216 78.1427 28.251C77.9093 28.6803 77.7927 29.1843 77.7927 29.763C77.7927 30.351 77.9093 30.8643 78.1427 31.303C78.376 31.7323 78.6887 32.0636 79.0807 32.297C79.4727 32.521 79.9067 32.633 80.3827 32.633C80.8587 32.633 81.2927 32.521 81.6847 32.297C82.086 32.0636 82.4033 31.7323 82.6367 31.303C82.87 30.8643 82.9867 30.3556 82.9867 29.777ZM87.7016 23.267V33.627H86.4276V23.267H87.7016ZM91.1469 23.267V33.627H89.8729V23.267H91.1469ZM99.9262 25.955L95.3062 37.239H93.9902L95.5022 33.543L92.4082 25.955H93.8222L96.2302 32.171L98.6102 25.955H99.9262ZM101.613 33.711C101.37 33.711 101.165 33.627 100.997 33.459C100.829 33.291 100.745 33.0856 100.745 32.843C100.745 32.6003 100.829 32.395 100.997 32.227C101.165 32.059 101.37 31.975 101.613 31.975C101.846 31.975 102.042 32.059 102.201 32.227C102.369 32.395 102.453 32.6003 102.453 32.843C102.453 33.0856 102.369 33.291 102.201 33.459C102.042 33.627 101.846 33.711 101.613 33.711ZM16.116 43.869C17.18 43.869 18.0993 44.0696 18.874 44.471C19.658 44.863 20.2553 45.4276 20.666 46.165C21.086 46.9023 21.296 47.7703 21.296 48.769C21.296 49.7676 21.086 50.6356 20.666 51.373C20.2553 52.101 19.658 52.661 18.874 53.053C18.0993 53.4356 17.18 53.627 16.116 53.627H13.078V43.869H16.116ZM16.116 52.577C17.376 52.577 18.3373 52.2456 19 51.583C19.6627 50.911 19.994 49.973 19.994 48.769C19.994 47.5556 19.658 46.6083 18.986 45.927C18.3233 45.2456 17.3667 44.905 16.116 44.905H14.352V52.577H16.116ZM29.9764 49.497C29.9764 49.7396 29.9624 49.9963 29.9344 50.267H23.8024C23.8491 51.023 24.1058 51.6156 24.5724 52.045C25.0484 52.465 25.6224 52.675 26.2944 52.675C26.8451 52.675 27.3024 52.549 27.6664 52.297C28.0398 52.0356 28.3011 51.6903 28.4504 51.261H29.8224C29.6171 51.9983 29.2064 52.6003 28.5904 53.067C27.9744 53.5243 27.2091 53.753 26.2944 53.753C25.5664 53.753 24.9131 53.5896 24.3344 53.263C23.7651 52.9363 23.3171 52.4743 22.9904 51.877C22.6638 51.2703 22.5004 50.5703 22.5004 49.777C22.5004 48.9836 22.6591 48.2883 22.9764 47.691C23.2938 47.0936 23.7371 46.6363 24.3064 46.319C24.8851 45.9923 25.5478 45.829 26.2944 45.829C27.0224 45.829 27.6664 45.9876 28.2264 46.305C28.7864 46.6223 29.2158 47.061 29.5144 47.621C29.8224 48.1716 29.9764 48.797 29.9764 49.497ZM28.6604 49.231C28.6604 48.7456 28.5531 48.3303 28.3384 47.985C28.1238 47.6303 27.8298 47.3643 27.4564 47.187C27.0924 47.0003 26.6864 46.907 26.2384 46.907C25.5944 46.907 25.0438 47.1123 24.5864 47.523C24.1384 47.9336 23.8818 48.503 23.8164 49.231H28.6604ZM32.3161 44.709C32.0734 44.709 31.8681 44.625 31.7001 44.457C31.5321 44.289 31.4481 44.0836 31.4481 43.841C31.4481 43.5983 31.5321 43.393 31.7001 43.225C31.8681 43.057 32.0734 42.973 32.3161 42.973C32.5494 42.973 32.7454 43.057 32.9041 43.225C33.0721 43.393 33.1561 43.5983 33.1561 43.841C33.1561 44.0836 33.0721 44.289 32.9041 44.457C32.7454 44.625 32.5494 44.709 32.3161 44.709ZM32.9321 45.955V53.627H31.6581V45.955H32.9321ZM38.8414 45.815C39.7747 45.815 40.5307 46.0996 41.1094 46.669C41.6881 47.229 41.9774 48.041 41.9774 49.105V53.627H40.7174V49.287C40.7174 48.5216 40.5261 47.9383 40.1434 47.537C39.7607 47.1263 39.2381 46.921 38.5754 46.921C37.9034 46.921 37.3667 47.131 36.9654 47.551C36.5734 47.971 36.3774 48.5823 36.3774 49.385V53.627H35.1034V45.955H36.3774V47.047C36.6294 46.655 36.9701 46.3516 37.3994 46.137C37.8381 45.9223 38.3187 45.815 38.8414 45.815ZM52.6769 48.601C53.0316 48.657 53.3536 48.8016 53.6429 49.035C53.9416 49.2683 54.1749 49.5576 54.3429 49.903C54.5202 50.2483 54.6089 50.617 54.6089 51.009C54.6089 51.5036 54.4829 51.9516 54.2309 52.353C53.9789 52.745 53.6102 53.0576 53.1249 53.291C52.6489 53.515 52.0842 53.627 51.4309 53.627H47.7909V43.869H51.2909C51.9536 43.869 52.5182 43.981 52.9849 44.205C53.4516 44.4196 53.8016 44.7136 54.0349 45.087C54.2682 45.4603 54.3849 45.8803 54.3849 46.347C54.3849 46.9256 54.2262 47.4063 53.9089 47.789C53.6009 48.1623 53.1902 48.433 52.6769 48.601ZM49.0649 48.083H51.2069C51.8042 48.083 52.2662 47.943 52.5929 47.663C52.9196 47.383 53.0829 46.9956 53.0829 46.501C53.0829 46.0063 52.9196 45.619 52.5929 45.339C52.2662 45.059 51.7949 44.919 51.1789 44.919H49.0649V48.083ZM51.3189 52.577C51.9536 52.577 52.4482 52.4276 52.8029 52.129C53.1576 51.8303 53.3349 51.415 53.3349 50.883C53.3349 50.3416 53.1482 49.917 52.7749 49.609C52.4016 49.2916 51.9022 49.133 51.2769 49.133H49.0649V52.577H51.3189ZM63.3768 49.497C63.3768 49.7396 63.3628 49.9963 63.3348 50.267H57.2028C57.2495 51.023 57.5062 51.6156 57.9728 52.045C58.4488 52.465 59.0228 52.675 59.6948 52.675C60.2455 52.675 60.7028 52.549 61.0668 52.297C61.4402 52.0356 61.7015 51.6903 61.8508 51.261H63.2228C63.0175 51.9983 62.6068 52.6003 61.9908 53.067C61.3748 53.5243 60.6095 53.753 59.6948 53.753C58.9668 53.753 58.3135 53.5896 57.7348 53.263C57.1655 52.9363 56.7175 52.4743 56.3908 51.877C56.0642 51.2703 55.9008 50.5703 55.9008 49.777C55.9008 48.9836 56.0595 48.2883 56.3768 47.691C56.6942 47.0936 57.1375 46.6363 57.7068 46.319C58.2855 45.9923 58.9482 45.829 59.6948 45.829C60.4228 45.829 61.0668 45.9876 61.6268 46.305C62.1868 46.6223 62.6162 47.061 62.9148 47.621C63.2228 48.1716 63.3768 48.797 63.3768 49.497ZM62.0608 49.231C62.0608 48.7456 61.9535 48.3303 61.7388 47.985C61.5242 47.6303 61.2302 47.3643 60.8568 47.187C60.4928 47.0003 60.0868 46.907 59.6388 46.907C58.9948 46.907 58.4442 47.1123 57.9868 47.523C57.5388 47.9336 57.2822 48.503 57.2168 49.231H62.0608ZM68.2225 45.829C68.8851 45.829 69.4638 45.9736 69.9585 46.263C70.4625 46.5523 70.8358 46.9163 71.0785 47.355V45.955H72.3665V53.795C72.3665 54.495 72.2171 55.1156 71.9185 55.657C71.6198 56.2076 71.1905 56.637 70.6305 56.945C70.0798 57.253 69.4358 57.407 68.6985 57.407C67.6905 57.407 66.8505 57.169 66.1785 56.693C65.5065 56.217 65.1098 55.5683 64.9885 54.747H66.2485C66.3885 55.2136 66.6778 55.587 67.1165 55.867C67.5551 56.1563 68.0825 56.301 68.6985 56.301C69.3985 56.301 69.9678 56.0816 70.4065 55.643C70.8545 55.2043 71.0785 54.5883 71.0785 53.795V52.185C70.8265 52.633 70.4531 53.0063 69.9585 53.305C69.4638 53.6036 68.8851 53.753 68.2225 53.753C67.5411 53.753 66.9205 53.585 66.3605 53.249C65.8098 52.913 65.3758 52.4416 65.0585 51.835C64.7411 51.2283 64.5825 50.5376 64.5825 49.763C64.5825 48.979 64.7411 48.293 65.0585 47.705C65.3758 47.1076 65.8098 46.6456 66.3605 46.319C66.9205 45.9923 67.5411 45.829 68.2225 45.829ZM71.0785 49.777C71.0785 49.1983 70.9618 48.6943 70.7285 48.265C70.4951 47.8356 70.1778 47.509 69.7765 47.285C69.3845 47.0516 68.9505 46.935 68.4745 46.935C67.9985 46.935 67.5645 47.047 67.1725 47.271C66.7805 47.495 66.4678 47.8216 66.2345 48.251C66.0011 48.6803 65.8845 49.1843 65.8845 49.763C65.8845 50.351 66.0011 50.8643 66.2345 51.303C66.4678 51.7323 66.7805 52.0636 67.1725 52.297C67.5645 52.521 67.9985 52.633 68.4745 52.633C68.9505 52.633 69.3845 52.521 69.7765 52.297C70.1778 52.0636 70.4951 51.7323 70.7285 51.303C70.9618 50.8643 71.0785 50.3556 71.0785 49.777ZM75.7934 43.267V53.627H74.5194V43.267H75.7934ZM84.9647 49.497C84.9647 49.7396 84.9507 49.9963 84.9227 50.267H78.7907C78.8374 51.023 79.0941 51.6156 79.5607 52.045C80.0367 52.465 80.6107 52.675 81.2827 52.675C81.8334 52.675 82.2907 52.549 82.6547 52.297C83.0281 52.0356 83.2894 51.6903 83.4387 51.261H84.8107C84.6054 51.9983 84.1947 52.6003 83.5787 53.067C82.9627 53.5243 82.1974 53.753 81.2827 53.753C80.5547 53.753 79.9014 53.5896 79.3227 53.263C78.7534 52.9363 78.3054 52.4743 77.9787 51.877C77.6521 51.2703 77.4887 50.5703 77.4887 49.777C77.4887 48.9836 77.6474 48.2883 77.9647 47.691C78.2821 47.0936 78.7254 46.6363 79.2947 46.319C79.8734 45.9923 80.5361 45.829 81.2827 45.829C82.0107 45.829 82.6547 45.9876 83.2147 46.305C83.7747 46.6223 84.2041 47.061 84.5027 47.621C84.8107 48.1716 84.9647 48.797 84.9647 49.497ZM83.6487 49.231C83.6487 48.7456 83.5414 48.3303 83.3267 47.985C83.1121 47.6303 82.8181 47.3643 82.4447 47.187C82.0807 47.0003 81.6747 46.907 81.2267 46.907C80.5827 46.907 80.0321 47.1123 79.5747 47.523C79.1267 47.9336 78.8701 48.503 78.8047 49.231H83.6487ZM87.3044 44.709C87.0617 44.709 86.8564 44.625 86.6884 44.457C86.5204 44.289 86.4364 44.0836 86.4364 43.841C86.4364 43.5983 86.5204 43.393 86.6884 43.225C86.8564 43.057 87.0617 42.973 87.3044 42.973C87.5377 42.973 87.7337 43.057 87.8924 43.225C88.0604 43.393 88.1444 43.5983 88.1444 43.841C88.1444 44.0836 88.0604 44.289 87.8924 44.457C87.7337 44.625 87.5377 44.709 87.3044 44.709ZM87.9204 45.955V53.627H86.6464V45.955H87.9204ZM91.6457 47.005V51.527C91.6457 51.9003 91.725 52.1663 91.8837 52.325C92.0423 52.4743 92.3177 52.549 92.7097 52.549H93.6477V53.627H92.4997C91.7903 53.627 91.2583 53.4636 90.9037 53.137C90.549 52.8103 90.3717 52.2736 90.3717 51.527V47.005H89.3777V45.955H90.3717V44.023H91.6457V45.955H93.6477V47.005H91.6457ZM102.191 49.497C102.191 49.7396 102.177 49.9963 102.149 50.267H96.0173C96.0639 51.023 96.3206 51.6156 96.7873 52.045C97.2633 52.465 97.8373 52.675 98.5093 52.675C99.0599 52.675 99.5173 52.549 99.8813 52.297C100.255 52.0356 100.516 51.6903 100.665 51.261H102.037C101.832 51.9983 101.421 52.6003 100.805 53.067C100.189 53.5243 99.4239 53.753 98.5093 53.753C97.7813 53.753 97.1279 53.5896 96.5493 53.263C95.9799 52.9363 95.5319 52.4743 95.2053 51.877C94.8786 51.2703 94.7153 50.5703 94.7153 49.777C94.7153 48.9836 94.8739 48.2883 95.1913 47.691C95.5086 47.0936 95.9519 46.6363 96.5213 46.319C97.0999 45.9923 97.7626 45.829 98.5093 45.829C99.2373 45.829 99.8813 45.9876 100.441 46.305C101.001 46.6223 101.431 47.061 101.729 47.621C102.037 48.1716 102.191 48.797 102.191 49.497ZM100.875 49.231C100.875 48.7456 100.768 48.3303 100.553 47.985C100.339 47.6303 100.045 47.3643 99.6713 47.187C99.3073 47.0003 98.9013 46.907 98.4533 46.907C97.8093 46.907 97.2586 47.1123 96.8013 47.523C96.3533 47.9336 96.0966 48.503 96.0313 49.231H100.875ZM105.147 47.201C105.371 46.7623 105.688 46.4216 106.099 46.179C106.519 45.9363 107.028 45.815 107.625 45.815V47.131H107.289C105.861 47.131 105.147 47.9056 105.147 49.455V53.627H103.873V45.955H105.147V47.201ZM109.502 53.711C109.259 53.711 109.054 53.627 108.886 53.459C108.718 53.291 108.634 53.0856 108.634 52.843C108.634 52.6003 108.718 52.395 108.886 52.227C109.054 52.059 109.259 51.975 109.502 51.975C109.735 51.975 109.931 52.059 110.09 52.227C110.258 52.395 110.342 52.6003 110.342 52.843C110.342 53.0856 110.258 53.291 110.09 53.459C109.931 53.627 109.735 53.711 109.502 53.711ZM118.805 43.869C119.869 43.869 120.789 44.0696 121.563 44.471C122.347 44.863 122.945 45.4276 123.355 46.165C123.775 46.9023 123.985 47.7703 123.985 48.769C123.985 49.7676 123.775 50.6356 123.355 51.373C122.945 52.101 122.347 52.661 121.563 53.053C120.789 53.4356 119.869 53.627 118.805 53.627H115.767V43.869H118.805ZM118.805 52.577C120.065 52.577 121.027 52.2456 121.689 51.583C122.352 50.911 122.683 49.973 122.683 48.769C122.683 47.5556 122.347 46.6083 121.675 45.927C121.013 45.2456 120.056 44.905 118.805 44.905H117.041V52.577H118.805ZM132.47 45.955V53.627H131.196V52.493C130.953 52.885 130.613 53.193 130.174 53.417C129.745 53.6316 129.269 53.739 128.746 53.739C128.149 53.739 127.612 53.6176 127.136 53.375C126.66 53.123 126.282 52.7496 126.002 52.255C125.731 51.7603 125.596 51.1583 125.596 50.449V45.955H126.856V50.281C126.856 51.037 127.047 51.6203 127.43 52.031C127.813 52.4323 128.335 52.633 128.998 52.633C129.679 52.633 130.216 52.423 130.608 52.003C131 51.583 131.196 50.9716 131.196 50.169V45.955H132.47ZM139.627 47.383C139.889 46.9256 140.271 46.5523 140.775 46.263C141.279 45.9736 141.853 45.829 142.497 45.829C143.188 45.829 143.809 45.9923 144.359 46.319C144.91 46.6456 145.344 47.1076 145.661 47.705C145.979 48.293 146.137 48.979 146.137 49.763C146.137 50.5376 145.979 51.2283 145.661 51.835C145.344 52.4416 144.905 52.913 144.345 53.249C143.795 53.585 143.179 53.753 142.497 53.753C141.835 53.753 141.251 53.6083 140.747 53.319C140.253 53.0296 139.879 52.661 139.627 52.213V53.627H138.353V43.267H139.627V47.383ZM144.835 49.763C144.835 49.1843 144.719 48.6803 144.485 48.251C144.252 47.8216 143.935 47.495 143.533 47.271C143.141 47.047 142.707 46.935 142.231 46.935C141.765 46.935 141.331 47.0516 140.929 47.285C140.537 47.509 140.22 47.8403 139.977 48.279C139.744 48.7083 139.627 49.2076 139.627 49.777C139.627 50.3556 139.744 50.8643 139.977 51.303C140.22 51.7323 140.537 52.0636 140.929 52.297C141.331 52.521 141.765 52.633 142.231 52.633C142.707 52.633 143.141 52.521 143.533 52.297C143.935 52.0636 144.252 51.7323 144.485 51.303C144.719 50.8643 144.835 50.351 144.835 49.763ZM148.472 44.709C148.23 44.709 148.024 44.625 147.856 44.457C147.688 44.289 147.604 44.0836 147.604 43.841C147.604 43.5983 147.688 43.393 147.856 43.225C148.024 43.057 148.23 42.973 148.472 42.973C148.706 42.973 148.902 43.057 149.06 43.225C149.228 43.393 149.312 43.5983 149.312 43.841C149.312 44.0836 149.228 44.289 149.06 44.457C148.902 44.625 148.706 44.709 148.472 44.709ZM149.088 45.955V53.627H147.814V45.955H149.088ZM153.976 53.753C153.388 53.753 152.86 53.655 152.394 53.459C151.927 53.2536 151.558 52.9736 151.288 52.619C151.017 52.255 150.868 51.8396 150.84 51.373H152.156C152.193 51.7556 152.37 52.0683 152.688 52.311C153.014 52.5536 153.439 52.675 153.962 52.675C154.447 52.675 154.83 52.5676 155.11 52.353C155.39 52.1383 155.53 51.8676 155.53 51.541C155.53 51.205 155.38 50.9576 155.082 50.799C154.783 50.631 154.321 50.4676 153.696 50.309C153.126 50.1596 152.66 50.0103 152.296 49.861C151.941 49.7023 151.633 49.4736 151.372 49.175C151.12 48.867 150.994 48.4656 150.994 47.971C150.994 47.579 151.11 47.2196 151.344 46.893C151.577 46.5663 151.908 46.3096 152.338 46.123C152.767 45.927 153.257 45.829 153.808 45.829C154.657 45.829 155.343 46.0436 155.866 46.473C156.388 46.9023 156.668 47.4903 156.706 48.237H155.432C155.404 47.8356 155.24 47.5136 154.942 47.271C154.652 47.0283 154.26 46.907 153.766 46.907C153.308 46.907 152.944 47.005 152.674 47.201C152.403 47.397 152.268 47.6536 152.268 47.971C152.268 48.223 152.347 48.433 152.506 48.601C152.674 48.7596 152.879 48.8903 153.122 48.993C153.374 49.0863 153.719 49.1936 154.158 49.315C154.708 49.4643 155.156 49.6136 155.502 49.763C155.847 49.903 156.141 50.1176 156.384 50.407C156.636 50.6963 156.766 51.0743 156.776 51.541C156.776 51.961 156.659 52.339 156.426 52.675C156.192 53.011 155.861 53.277 155.432 53.473C155.012 53.6596 154.526 53.753 153.976 53.753ZM160.128 47.005V51.527C160.128 51.9003 160.207 52.1663 160.366 52.325C160.525 52.4743 160.8 52.549 161.192 52.549H162.13V53.627H160.982C160.273 53.627 159.741 53.4636 159.386 53.137C159.031 52.8103 158.854 52.2736 158.854 51.527V47.005H157.86V45.955H158.854V44.023H160.128V45.955H162.13V47.005H160.128ZM171.144 45.815C172.077 45.815 172.833 46.0996 173.412 46.669C173.991 47.229 174.28 48.041 174.28 49.105V53.627H173.02V49.287C173.02 48.5216 172.829 47.9383 172.446 47.537C172.063 47.1263 171.541 46.921 170.878 46.921C170.206 46.921 169.669 47.131 169.268 47.551C168.876 47.971 168.68 48.5823 168.68 49.385V53.627H167.406V45.955H168.68V47.047C168.932 46.655 169.273 46.3516 169.702 46.137C170.141 45.9223 170.621 45.815 171.144 45.815ZM177.019 44.709C176.777 44.709 176.571 44.625 176.403 44.457C176.235 44.289 176.151 44.0836 176.151 43.841C176.151 43.5983 176.235 43.393 176.403 43.225C176.571 43.057 176.777 42.973 177.019 42.973C177.253 42.973 177.449 43.057 177.607 43.225C177.775 43.393 177.859 43.5983 177.859 43.841C177.859 44.0836 177.775 44.289 177.607 44.457C177.449 44.625 177.253 44.709 177.019 44.709ZM177.635 45.955V53.627H176.361V45.955H177.635ZM186.807 49.497C186.807 49.7396 186.793 49.9963 186.765 50.267H180.633C180.679 51.023 180.936 51.6156 181.403 52.045C181.879 52.465 182.453 52.675 183.125 52.675C183.675 52.675 184.133 52.549 184.497 52.297C184.87 52.0356 185.131 51.6903 185.281 51.261H186.653C186.447 51.9983 186.037 52.6003 185.421 53.067C184.805 53.5243 184.039 53.753 183.125 53.753C182.397 53.753 181.743 53.5896 181.165 53.263C180.595 52.9363 180.147 52.4743 179.821 51.877C179.494 51.2703 179.331 50.5703 179.331 49.777C179.331 48.9836 179.489 48.2883 179.807 47.691C180.124 47.0936 180.567 46.6363 181.137 46.319C181.715 45.9923 182.378 45.829 183.125 45.829C183.853 45.829 184.497 45.9876 185.057 46.305C185.617 46.6223 186.046 47.061 186.345 47.621C186.653 48.1716 186.807 48.797 186.807 49.497ZM185.491 49.231C185.491 48.7456 185.383 48.3303 185.169 47.985C184.954 47.6303 184.66 47.3643 184.287 47.187C183.923 47.0003 183.517 46.907 183.069 46.907C182.425 46.907 181.874 47.1123 181.417 47.523C180.969 47.9336 180.712 48.503 180.647 49.231H185.491ZM191.745 49.763C191.745 48.979 191.903 48.293 192.221 47.705C192.538 47.1076 192.972 46.6456 193.523 46.319C194.083 45.9923 194.703 45.829 195.385 45.829C196.057 45.829 196.64 45.9736 197.135 46.263C197.629 46.5523 197.998 46.9163 198.241 47.355V45.955H199.529V53.627H198.241V52.199C197.989 52.647 197.611 53.0203 197.107 53.319C196.612 53.6083 196.033 53.753 195.371 53.753C194.689 53.753 194.073 53.585 193.523 53.249C192.972 52.913 192.538 52.4416 192.221 51.835C191.903 51.2283 191.745 50.5376 191.745 49.763ZM198.241 49.777C198.241 49.1983 198.124 48.6943 197.891 48.265C197.657 47.8356 197.34 47.509 196.939 47.285C196.547 47.0516 196.113 46.935 195.637 46.935C195.161 46.935 194.727 47.047 194.335 47.271C193.943 47.495 193.63 47.8216 193.397 48.251C193.163 48.6803 193.047 49.1843 193.047 49.763C193.047 50.351 193.163 50.8643 193.397 51.303C193.63 51.7323 193.943 52.0636 194.335 52.297C194.727 52.521 195.161 52.633 195.637 52.633C196.113 52.633 196.547 52.521 196.939 52.297C197.34 52.0636 197.657 51.7323 197.891 51.303C198.124 50.8643 198.241 50.3556 198.241 49.777ZM202.956 43.267V53.627H201.682V43.267H202.956ZM206.401 43.267V53.627H205.127V43.267H206.401ZM215.572 49.497C215.572 49.7396 215.558 49.9963 215.53 50.267H209.398C209.445 51.023 209.701 51.6156 210.168 52.045C210.644 52.465 211.218 52.675 211.89 52.675C212.441 52.675 212.898 52.549 213.262 52.297C213.635 52.0356 213.897 51.6903 214.046 51.261H215.418C215.213 51.9983 214.802 52.6003 214.186 53.067C213.57 53.5243 212.805 53.753 211.89 53.753C211.162 53.753 210.509 53.5896 209.93 53.263C209.361 52.9363 208.913 52.4743 208.586 51.877C208.259 51.2703 208.096 50.5703 208.096 49.777C208.096 48.9836 208.255 48.2883 208.572 47.691C208.889 47.0936 209.333 46.6363 209.902 46.319C210.481 45.9923 211.143 45.829 211.89 45.829C212.618 45.829 213.262 45.9876 213.822 46.305C214.382 46.6223 214.811 47.061 215.11 47.621C215.418 48.1716 215.572 48.797 215.572 49.497ZM214.256 49.231C214.256 48.7456 214.149 48.3303 213.934 47.985C213.719 47.6303 213.425 47.3643 213.052 47.187C212.688 47.0003 212.282 46.907 211.834 46.907C211.19 46.907 210.639 47.1123 210.182 47.523C209.734 47.9336 209.477 48.503 209.412 49.231H214.256ZM217.912 44.709C217.669 44.709 217.464 44.625 217.296 44.457C217.128 44.289 217.044 44.0836 217.044 43.841C217.044 43.5983 217.128 43.393 217.296 43.225C217.464 43.057 217.669 42.973 217.912 42.973C218.145 42.973 218.341 43.057 218.5 43.225C218.668 43.393 218.752 43.5983 218.752 43.841C218.752 44.0836 218.668 44.289 218.5 44.457C218.341 44.625 218.145 44.709 217.912 44.709ZM218.528 45.955V53.627H217.254V45.955H218.528ZM224.437 45.815C225.37 45.815 226.126 46.0996 226.705 46.669C227.284 47.229 227.573 48.041 227.573 49.105V53.627H226.313V49.287C226.313 48.5216 226.122 47.9383 225.739 47.537C225.356 47.1263 224.834 46.921 224.171 46.921C223.499 46.921 222.962 47.131 222.561 47.551C222.169 47.971 221.973 48.5823 221.973 49.385V53.627H220.699V45.955H221.973V47.047C222.225 46.655 222.566 46.3516 222.995 46.137C223.434 45.9223 223.914 45.815 224.437 45.815ZM230.06 53.711C229.818 53.711 229.612 53.627 229.444 53.459C229.276 53.291 229.192 53.0856 229.192 52.843C229.192 52.6003 229.276 52.395 229.444 52.227C229.612 52.059 229.818 51.975 230.06 51.975C230.294 51.975 230.49 52.059 230.648 52.227C230.816 52.395 230.9 52.6003 230.9 52.843C230.9 53.0856 230.816 53.291 230.648 53.459C230.49 53.627 230.294 53.711 230.06 53.711Z" fill="#1A2D28" fill-opacity="0.7"/>
<path d="M238 34.4554C238 32.6736 240.154 31.7812 241.414 33.0412L263.586 55.2127C264.846 56.4727 263.953 58.6269 262.172 58.6269L240 58.627C238.895 58.627 238 57.7315 238 56.627L238 34.4554Z" fill="white"/>
<ellipse opacity="0.21" cx="399.285" cy="197.135" rx="108.176" ry="19.7742" fill="#C0B7AC"/>
<g filter="url(#filter0_g_6525_14497)">
<ellipse cx="380.47" cy="99.0426" rx="92.9201" ry="87.3449" fill="#D2D58B"/>
</g>
<g filter="url(#filter1_g_6525_14497)">
<path d="M356.12 191.181C352.554 191.181 349.663 188.29 349.663 184.723C349.663 181.157 352.554 178.266 356.12 178.266L371.754 178.266C375.32 178.266 378.211 181.157 378.211 184.723C378.211 188.29 375.32 191.181 371.754 191.181L356.12 191.181Z" fill="#746B5E"/>
<path d="M349.684 183.91C349.684 181.283 351.814 179.152 354.442 179.152C357.07 179.152 359.2 181.283 359.2 183.91L359.2 191.387C359.2 194.015 357.07 196.145 354.442 196.145C351.814 196.145 349.684 194.015 349.684 191.387L349.684 183.91Z" fill="#746B5E"/>
<path d="M359.2 183.913C359.2 181.285 361.33 179.155 363.958 179.155C366.586 179.155 368.716 181.285 368.716 183.913L368.716 191.39C368.716 194.017 366.586 196.148 363.958 196.148C361.33 196.148 359.2 194.017 359.2 191.39L359.2 183.913Z" fill="#746B5E"/>
<path d="M368.716 183.91C368.716 181.283 370.846 179.152 373.474 179.152C376.102 179.152 378.232 181.283 378.232 183.91L378.232 191.387C378.232 194.015 376.102 196.145 373.474 196.145C370.846 196.145 368.716 194.015 368.716 191.387L368.716 183.91Z" fill="#746B5E"/>
</g>
<g filter="url(#filter2_g_6525_14497)">
<path d="M395.023 191.181C391.456 191.181 388.565 188.29 388.565 184.723C388.565 181.157 391.456 178.266 395.023 178.266L410.656 178.266C414.222 178.266 417.114 181.157 417.114 184.723C417.114 188.29 414.222 191.181 410.656 191.181L395.023 191.181Z" fill="#746B5E"/>
<path d="M388.586 183.914C388.586 181.286 390.717 179.156 393.344 179.156C395.972 179.156 398.102 181.286 398.102 183.914L398.102 191.391C398.102 194.018 395.972 196.149 393.344 196.149C390.717 196.149 388.586 194.018 388.586 191.391L388.586 183.914Z" fill="#746B5E"/>
<path d="M398.092 183.916C398.092 181.288 400.222 179.158 402.85 179.158C405.478 179.158 407.608 181.288 407.608 183.916L407.608 191.393C407.608 194.021 405.478 196.151 402.85 196.151C400.222 196.151 398.092 194.021 398.092 191.393L398.092 183.916Z" fill="#746B5E"/>
<path d="M407.618 183.918C407.618 181.29 409.748 179.16 412.376 179.16C415.004 179.16 417.134 181.29 417.134 183.918L417.134 191.395C417.134 194.022 415.004 196.153 412.376 196.153C409.748 196.153 407.618 194.022 407.618 191.395L407.618 183.918Z" fill="#746B5E"/>
</g>
<g filter="url(#filter3_g_6525_14497)">
<path d="M303.605 45.1783L299.745 55.9661C318.072 42.1486 352.663 17.5981 341.506 20.6576C330.002 23.8125 312.389 28.456 304.662 29.1346C298.467 29.6789 294.737 21.237 289.442 25.0544C285.143 28.1532 296.084 49.9521 303.605 45.1783Z" fill="#D2D58B"/>
</g>
<g filter="url(#filter4_g_6525_14497)">
<path d="M441.582 25.7618L453.312 45.359C431.883 37.1359 386.965 12.9944 398.533 12.8561C410.461 12.7134 428.524 12.1131 436.139 10.6328C442.243 9.44622 443.499 0.302742 449.642 2.51059C454.628 4.30283 450.128 28.2746 441.582 25.7618Z" fill="#D2D58B"/>
</g>
<path d="M340.186 89.6907C353.953 90.966 366.15 80.8145 367.429 67.0167C368.707 53.2189 358.582 40.9996 344.815 39.7243C331.047 38.4489 318.85 48.6004 317.572 62.3982C316.294 76.1961 326.418 88.4153 340.186 89.6907Z" fill="white"/>
<path d="M353.597 79.1993C360.033 79.7954 365.734 75.0501 366.332 68.6002C366.929 62.1503 362.197 56.4383 355.761 55.8422C349.325 55.246 343.624 59.9914 343.026 66.4412C342.429 72.8911 347.161 78.6031 353.597 79.1993Z" fill="#291505"/>
<path d="M358.322 65.956C360.505 66.1583 362.44 64.5484 362.642 62.3601C362.845 60.1719 361.239 58.234 359.056 58.0318C356.873 57.8295 354.938 59.4394 354.736 61.6277C354.533 63.8159 356.138 65.7538 358.322 65.956Z" fill="white"/>
<path d="M405.767 80.0705C419.535 81.3459 431.732 71.1944 433.01 57.3966C434.288 43.5988 424.164 31.3795 410.396 30.1042C396.629 28.8288 384.432 38.9803 383.153 52.7781C381.875 66.5759 392 78.7952 405.767 80.0705Z" fill="white"/>
<path d="M396.406 72.9185C402.842 73.5147 408.544 68.7693 409.141 62.3194C409.738 55.8695 405.006 50.1576 398.57 49.5614C392.134 48.9652 386.433 53.7106 385.835 60.1605C385.238 66.6104 389.97 72.3223 396.406 72.9185Z" fill="#291505"/>
<path d="M391.311 61.2266C393.495 61.4288 395.429 59.8189 395.632 57.6306C395.834 55.4424 394.229 53.5045 392.045 53.3023C389.862 53.1 387.927 54.7099 387.725 56.8982C387.522 59.0864 389.128 61.0243 391.311 61.2266Z" fill="white"/>
<path d="M375.959 78.9399L379.822 78.3732C384.7 77.6578 387.138 77.3001 388.288 78.75C389.438 80.2 388.535 82.4932 386.728 87.0795L385.313 90.6694C383.517 95.2267 382.619 97.5053 380.797 97.7857C378.974 98.0662 377.433 96.1629 374.35 92.3563L371.902 89.333C368.755 85.4472 367.181 83.5043 367.86 81.7664C368.538 80.0284 371.012 79.6656 375.959 78.9399Z" fill="#37271A"/>
<mask id="mask0_6525_14497" style="mask-type:alpha" maskUnits="userSpaceOnUse" x="367" y="77" width="22" height="21">
<path d="M375.96 78.9399L379.823 78.3732C384.7 77.6578 387.139 77.3001 388.289 78.75C389.439 80.2 388.535 82.4932 386.728 87.0795L385.313 90.6694C383.518 95.2267 382.62 97.5053 380.797 97.7857C378.975 98.0662 377.433 96.1629 374.351 92.3563L371.902 89.333C368.755 85.4472 367.182 83.5043 367.86 81.7664C368.539 80.0284 371.013 79.6656 375.96 78.9399Z" fill="#37271A"/>
</mask>
<g mask="url(#mask0_6525_14497)">
<ellipse cx="385.608" cy="87.3588" rx="6.68793" ry="16.2016" transform="rotate(-6.37545 385.608 87.3588)" fill="#443122"/>
</g>
<g opacity="0.3">
<path d="M533.947 64.2691C534.495 64.2691 534.941 64.7137 534.922 65.2617C534.801 68.6777 534.059 72.0475 532.728 75.2103C531.268 78.6791 529.128 81.8309 526.43 84.4858C523.733 87.1407 520.53 89.2467 517.005 90.6836C513.782 91.9976 510.346 92.7285 506.864 92.8437C506.325 92.8616 505.887 92.4225 505.887 91.8828C505.887 91.3432 506.325 90.9076 506.864 90.8884C510.085 90.7739 513.263 90.094 516.245 88.8782C519.529 87.5395 522.513 85.5775 525.026 83.104C527.54 80.6306 529.533 77.6942 530.893 74.4625C532.125 71.5368 532.815 68.4209 532.935 65.2617C532.956 64.7137 533.398 64.2691 533.947 64.2691Z" fill="#C0B7AC"/>
<path d="M520.416 15.8091C520.734 15.3627 520.631 14.7411 520.174 14.4386C517.323 12.5529 514.149 11.2 510.801 10.4469C507.129 9.62092 503.32 9.53256 499.592 10.1869C495.864 10.8412 492.29 12.2253 489.073 14.2603C486.131 16.1214 483.541 18.4935 481.425 21.2611C481.098 21.6898 481.201 22.3011 481.64 22.6145C482.08 22.9279 482.688 22.8246 483.017 22.3967C484.981 19.841 487.38 17.6494 490.102 15.9274C493.099 14.0315 496.429 12.742 499.902 12.1324C503.375 11.5228 506.923 11.6051 510.344 12.3747C513.441 13.0713 516.379 14.3188 519.02 16.0562C519.478 16.3575 520.097 16.2555 520.416 15.8091Z" fill="#C0B7AC"/>
<path d="M540.874 75.6105C541.416 75.7064 541.778 76.2253 541.66 76.7627C540.726 81.0166 538.816 85.009 536.072 88.4326C533.318 91.8671 529.803 94.6306 525.801 96.5148C525.316 96.7433 524.743 96.5183 524.525 96.0281C524.303 95.5298 524.532 94.9478 525.025 94.7138C528.72 92.9593 531.966 90.3988 534.513 87.2222C537.058 84.0476 538.832 80.3479 539.707 76.4057C539.825 75.8728 540.337 75.5154 540.874 75.6105Z" fill="#C0B7AC"/>
<path d="M515.198 3.58199C515.435 3.08524 515.223 2.48912 514.717 2.2731C510.711 0.563106 506.352 -0.200859 501.971 0.0452802C497.576 0.292212 493.285 1.54867 489.427 3.71265C488.959 3.97509 488.809 4.57197 489.082 5.03421C489.359 5.50419 489.965 5.65576 490.442 5.39048C494.016 3.40108 497.986 2.24569 502.051 2.01729C506.113 1.78906 510.156 2.49307 513.873 4.07046C514.376 4.2837 514.964 4.07484 515.198 3.58199Z" fill="#C0B7AC"/>
</g>
<g filter="url(#filter5_g_6525_14497)">
<path d="M274.811 103.227C273.811 97.0919 277.973 91.3081 284.108 90.3082C290.243 89.3083 296.027 93.4709 297.027 99.6057L305.879 153.911C306.878 160.046 302.716 165.83 296.581 166.83C290.446 167.83 284.662 163.667 283.662 157.532L274.811 103.227Z" fill="#2C2D1C"/>
<path d="M293.324 100.209C292.324 94.0744 296.487 88.2906 302.622 87.2907C308.757 86.2908 314.541 90.4534 315.541 96.5882L322.783 141.02C323.783 147.155 319.62 152.939 313.485 153.939C307.35 154.938 301.566 150.776 300.566 144.641L293.324 100.209Z" fill="#2C2D1C"/>
<path d="M282.874 90.5093L303.856 87.0895L306.27 101.9L285.288 105.32L282.874 90.5093Z" fill="#2C2D1C"/>
</g>
<g filter="url(#filter6_g_6525_14497)">
<path d="M466.99 87.2993C462.342 91.4271 455.229 91.0062 451.101 86.359C446.973 81.7119 447.394 74.5984 452.041 70.4706L493.179 33.9306C497.826 29.8028 504.94 30.2238 509.068 34.8709C513.196 39.518 512.775 46.6315 508.128 50.7594L466.99 87.2993Z" fill="#2C2D1C"/>
<path d="M479.447 101.323C474.8 105.451 467.686 105.03 463.558 100.383C459.43 95.7359 459.851 88.6224 464.498 84.4945L498.157 54.5982C502.804 50.4704 509.918 50.8914 514.046 55.5385C518.174 60.1856 517.753 67.2991 513.105 71.4269L479.447 101.323Z" fill="#2C2D1C"/>
<path d="M464.388 101.318L450.27 85.4241L461.49 75.4587L475.608 91.3525L464.388 101.318Z" fill="#2C2D1C"/>
</g>
<defs>
<filter id="filter0_g_6525_14497" x="286.74" y="10.8879" width="187.46" height="176.31" filterUnits="userSpaceOnUse" color-interpolation-filters="sRGB">
<feFlood flood-opacity="0" result="BackgroundImageFix"/>
<feBlend mode="normal" in="SourceGraphic" in2="BackgroundImageFix" result="shape"/>
<feTurbulence type="fractalNoise" baseFrequency="0.30871596932411194 0.30871596932411194" numOctaves="3" seed="2822" />
<feDisplacementMap in="shape" scale="1.6196117401123047" xChannelSelector="R" yChannelSelector="G" result="displacedImage" width="100%" height="100%" />
<feMerge result="effect1_texture_6525_14497">
<feMergeNode in="displacedImage"/>
</feMerge>
</filter>
<filter id="filter1_g_6525_14497" x="348.853" y="177.456" width="30.1885" height="19.501" filterUnits="userSpaceOnUse" color-interpolation-filters="sRGB">
<feFlood flood-opacity="0" result="BackgroundImageFix"/>
<feBlend mode="normal" in="SourceGraphic" in2="BackgroundImageFix" result="shape"/>
<feTurbulence type="fractalNoise" baseFrequency="0.30871596932411194 0.30871596932411194" numOctaves="3" seed="2822" />
<feDisplacementMap in="shape" scale="1.6196117401123047" xChannelSelector="R" yChannelSelector="G" result="displacedImage" width="100%" height="100%" />
<feMerge result="effect1_texture_6525_14497">
<feMergeNode in="displacedImage"/>
</feMerge>
</filter>
<filter id="filter2_g_6525_14497" x="387.756" y="177.456" width="30.1885" height="19.5058" filterUnits="userSpaceOnUse" color-interpolation-filters="sRGB">
<feFlood flood-opacity="0" result="BackgroundImageFix"/>
<feBlend mode="normal" in="SourceGraphic" in2="BackgroundImageFix" result="shape"/>
<feTurbulence type="fractalNoise" baseFrequency="0.30871596932411194 0.30871596932411194" numOctaves="3" seed="2822" />
<feDisplacementMap in="shape" scale="1.6196117401123047" xChannelSelector="R" yChannelSelector="G" result="displacedImage" width="100%" height="100%" />
<feMerge result="effect1_texture_6525_14497">
<feMergeNode in="displacedImage"/>
</feMerge>
</filter>
<filter id="filter3_g_6525_14497" x="287.662" y="19.5867" width="56.8237" height="37.1894" filterUnits="userSpaceOnUse" color-interpolation-filters="sRGB">
<feFlood flood-opacity="0" result="BackgroundImageFix"/>
<feBlend mode="normal" in="SourceGraphic" in2="BackgroundImageFix" result="shape"/>
<feTurbulence type="fractalNoise" baseFrequency="0.30871596932411194 0.30871596932411194" numOctaves="3" seed="2822" />
<feDisplacementMap in="shape" scale="1.6196117401123047" xChannelSelector="R" yChannelSelector="G" result="displacedImage" width="100%" height="100%" />
<feMerge result="effect1_texture_6525_14497">
<feMergeNode in="displacedImage"/>
</feMerge>
</filter>
<filter id="filter4_g_6525_14497" x="395.849" y="1.35816" width="58.272" height="44.8105" filterUnits="userSpaceOnUse" color-interpolation-filters="sRGB">
<feFlood flood-opacity="0" result="BackgroundImageFix"/>
<feBlend mode="normal" in="SourceGraphic" in2="BackgroundImageFix" result="shape"/>
<feTurbulence type="fractalNoise" baseFrequency="0.30871596932411194 0.30871596932411194" numOctaves="3" seed="2822" />
<feDisplacementMap in="shape" scale="1.6196117401123047" xChannelSelector="R" yChannelSelector="G" result="displacedImage" width="100%" height="100%" />
<feMerge result="effect1_texture_6525_14497">
<feMergeNode in="displacedImage"/>
</feMerge>
</filter>
<filter id="filter5_g_6525_14497" x="273.852" y="86.2796" width="49.8886" height="81.5083" filterUnits="userSpaceOnUse" color-interpolation-filters="sRGB">
<feFlood flood-opacity="0" result="BackgroundImageFix"/>
<feBlend mode="normal" in="SourceGraphic" in2="BackgroundImageFix" result="shape"/>
<feTurbulence type="fractalNoise" baseFrequency="0.30871820449829102 0.30871820449829102" numOctaves="3" seed="2822" />
<feDisplacementMap in="shape" scale="1.6195999383926392" xChannelSelector="R" yChannelSelector="G" result="displacedImage" width="100%" height="100%" />
<feMerge result="effect1_texture_6525_14497">
<feMergeNode in="displacedImage"/>
</feMerge>
</filter>
<filter id="filter6_g_6525_14497" x="447.45" y="30.2805" width="70.2451" height="74.6928" filterUnits="userSpaceOnUse" color-interpolation-filters="sRGB">
<feFlood flood-opacity="0" result="BackgroundImageFix"/>
<feBlend mode="normal" in="SourceGraphic" in2="BackgroundImageFix" result="shape"/>
<feTurbulence type="fractalNoise" baseFrequency="0.30871820449829102 0.30871820449829102" numOctaves="3" seed="2822" />
<feDisplacementMap in="shape" scale="1.6195999383926392" xChannelSelector="R" yChannelSelector="G" result="displacedImage" width="100%" height="100%" />
<feMerge result="effect1_texture_6525_14497">
<feMergeNode in="displacedImage"/>
</feMerge>
</filter>
</defs>
</svg>
