<svg width="26" height="26" viewBox="0 0 26 26" fill="none" xmlns="http://www.w3.org/2000/svg">
<path opacity="0.2" d="M22.4002 5.60005V9.00605C21.955 8.63406 21.4407 8.35377 20.8867 8.18133C20.3328 8.00889 19.7503 7.94769 19.1726 8.00126C18.5949 8.05482 18.0336 8.2221 17.5208 8.49345C17.008 8.76481 16.554 9.13489 16.1848 9.5824C15.8156 10.0299 15.5386 10.546 15.3696 11.101C15.2007 11.656 15.1431 12.2389 15.2003 12.8162C15.2575 13.3936 15.4283 13.9539 15.7029 14.4649C15.9774 14.976 16.3504 15.4277 16.8002 15.794V19.2H4.0002C3.78802 19.2 3.58454 19.1158 3.43451 18.9657C3.28448 18.8157 3.2002 18.6122 3.2002 18.4V5.60005C3.2002 5.38788 3.28448 5.18439 3.43451 5.03436C3.58454 4.88433 3.78802 4.80005 4.0002 4.80005H21.6002C21.8124 4.80005 22.0159 4.88433 22.1659 5.03436C22.3159 5.18439 22.4002 5.38788 22.4002 5.60005Z" fill="#1A2D28"/>
<path d="M12.7999 13.6001C12.7999 13.8123 12.7156 14.0158 12.5656 14.1658C12.4156 14.3158 12.2121 14.4001 11.9999 14.4001H7.1999C6.98773 14.4001 6.78425 14.3158 6.63422 14.1658C6.48419 14.0158 6.3999 13.8123 6.3999 13.6001C6.3999 13.3879 6.48419 13.1845 6.63422 13.0344C6.78425 12.8844 6.98773 12.8001 7.1999 12.8001H11.9999C12.2121 12.8001 12.4156 12.8844 12.5656 13.0344C12.7156 13.1845 12.7999 13.3879 12.7999 13.6001ZM11.9999 9.60012H7.1999C6.98773 9.60012 6.78425 9.68441 6.63422 9.83444C6.48419 9.98447 6.3999 10.1879 6.3999 10.4001C6.3999 10.6123 6.48419 10.8158 6.63422 10.9658C6.78425 11.1158 6.98773 11.2001 7.1999 11.2001H11.9999C12.2121 11.2001 12.4156 11.1158 12.5656 10.9658C12.7156 10.8158 12.7999 10.6123 12.7999 10.4001C12.7999 10.1879 12.7156 9.98447 12.5656 9.83444C12.4156 9.68441 12.2121 9.60012 11.9999 9.60012ZM23.1999 16.1471V22.4001C23.2012 22.5412 23.1651 22.68 23.0954 22.8026C23.0257 22.9253 22.9249 23.0273 22.803 23.0983C22.6812 23.1694 22.5427 23.207 22.4017 23.2073C22.2607 23.2076 22.122 23.1706 21.9999 23.1001L19.5999 21.7261L17.1999 23.1001C17.0778 23.1706 16.9391 23.2076 16.7981 23.2073C16.6571 23.207 16.5186 23.1694 16.3968 23.0983C16.2749 23.0273 16.1741 22.9253 16.1044 22.8026C16.0347 22.68 15.9986 22.5412 15.9999 22.4001V20.0001H3.9999C3.57556 20.0001 3.16859 19.8316 2.86853 19.5315C2.56847 19.2314 2.3999 18.8245 2.3999 18.4001V5.60012C2.3999 5.17578 2.56847 4.76881 2.86853 4.46875C3.16859 4.16869 3.57556 4.00012 3.9999 4.00012H21.5999C22.0242 4.00012 22.4312 4.16869 22.7313 4.46875C23.0313 4.76881 23.1999 5.17578 23.1999 5.60012V8.65312C23.7056 9.13741 24.1081 9.71905 24.383 10.363C24.6579 11.007 24.7997 11.6999 24.7997 12.4001C24.7997 13.1003 24.6579 13.7933 24.383 14.4372C24.1081 15.0812 23.7056 15.6628 23.1999 16.1471ZM15.9999 18.4001V16.1471C15.1281 15.3064 14.5772 14.1876 14.4421 12.984C14.307 11.7804 14.5964 10.5674 15.2601 9.55435C15.9239 8.54128 16.9205 7.79168 18.0779 7.4349C19.2353 7.07813 20.481 7.13656 21.5999 7.60012V5.60012H3.9999V18.4001H15.9999ZM21.5999 17.2001C20.9663 17.4648 20.2865 17.6011 19.5999 17.6011C18.9133 17.6011 18.2335 17.4648 17.5999 17.2001V21.0221L19.1999 20.1061C19.3208 20.037 19.4576 20.0007 19.5969 20.0007C19.7362 20.0007 19.873 20.037 19.9939 20.1061L21.5939 21.0221L21.5999 17.2001ZM23.1999 12.4001C23.1999 11.6881 22.9888 10.9921 22.5932 10.4001C22.1976 9.80805 21.6354 9.34663 20.9776 9.07416C20.3197 8.80168 19.5959 8.73039 18.8976 8.86929C18.1992 9.0082 17.5578 9.35107 17.0543 9.85454C16.5508 10.358 16.208 10.9995 16.0691 11.6978C15.9302 12.3961 16.0015 13.12 16.2739 13.7778C16.5464 14.4356 17.0078 14.9978 17.5998 15.3934C18.1919 15.789 18.8879 16.0001 19.5999 16.0001C20.0727 16.0001 20.5408 15.907 20.9776 15.7261C21.4143 15.5452 21.8112 15.28 22.1455 14.9457C22.4798 14.6114 22.745 14.2146 22.9259 13.7778C23.1068 13.341 23.1999 12.8729 23.1999 12.4001Z" fill="#1A2D28"/>
</svg>
