<svg width="24" height="24" viewBox="0 0 24 24" fill="none" xmlns="http://www.w3.org/2000/svg">
<path opacity="0.2" d="M6.4001 11.2001V14.4001C6.4001 14.6123 6.31581 14.8158 6.16578 14.9658C6.01575 15.1158 5.81227 15.2001 5.6001 15.2001H2.4001C2.18792 15.2001 1.98444 15.1158 1.83441 14.9658C1.68438 14.8158 1.6001 14.6123 1.6001 14.4001V11.2001C1.6001 10.9879 1.68438 10.7845 1.83441 10.6344C1.98444 10.4844 2.18792 10.4001 2.4001 10.4001H5.6001C5.81227 10.4001 6.01575 10.4844 6.16578 10.6344C6.31581 10.7845 6.4001 10.9879 6.4001 11.2001ZM20.8001 4.00012H16.0001C15.7879 4.00012 15.5844 4.08441 15.4344 4.23444C15.2844 4.38447 15.2001 4.58795 15.2001 4.80012V9.60012C15.2001 9.8123 15.2844 10.0158 15.4344 10.1658C15.5844 10.3158 15.7879 10.4001 16.0001 10.4001H20.8001C21.0123 10.4001 21.2158 10.3158 21.3658 10.1658C21.5158 10.0158 21.6001 9.8123 21.6001 9.60012V4.80012C21.6001 4.58795 21.5158 4.38447 21.3658 4.23444C21.2158 4.08441 21.0123 4.00012 20.8001 4.00012ZM20.8001 15.2001H16.0001C15.7879 15.2001 15.5844 15.2844 15.4344 15.4344C15.2844 15.5845 15.2001 15.7879 15.2001 16.0001V20.8001C15.2001 21.0123 15.2844 21.2158 15.4344 21.3658C15.5844 21.5158 15.7879 21.6001 16.0001 21.6001H20.8001C21.0123 21.6001 21.2158 21.5158 21.3658 21.3658C21.5158 21.2158 21.6001 21.0123 21.6001 20.8001V16.0001C21.6001 15.7879 21.5158 15.5845 21.3658 15.4344C21.2158 15.2844 21.0123 15.2001 20.8001 15.2001Z" fill="#1A2D28"/>
<path d="M15.9998 11.2001H20.7998C21.2242 11.2001 21.6311 11.0315 21.9312 10.7314C22.2312 10.4314 22.3998 10.0244 22.3998 9.60007V4.80007C22.3998 4.37573 22.2312 3.96876 21.9312 3.6687C21.6311 3.36864 21.2242 3.20007 20.7998 3.20007H15.9998C15.5755 3.20007 15.1685 3.36864 14.8684 3.6687C14.5684 3.96876 14.3998 4.37573 14.3998 4.80007V6.40007H12.7998C12.1633 6.40007 11.5528 6.65293 11.1027 7.10302C10.6527 7.5531 10.3998 8.16355 10.3998 8.80007V12.0001H7.1998V11.2001C7.1998 10.7757 7.03123 10.3688 6.73118 10.0687C6.43112 9.76864 6.02415 9.60007 5.5998 9.60007H2.3998C1.97546 9.60007 1.56849 9.76864 1.26843 10.0687C0.968376 10.3688 0.799805 10.7757 0.799805 11.2001V14.4001C0.799805 14.8244 0.968376 15.2314 1.26843 15.5314C1.56849 15.8315 1.97546 16.0001 2.3998 16.0001H5.5998C6.02415 16.0001 6.43112 15.8315 6.73118 15.5314C7.03123 15.2314 7.1998 14.8244 7.1998 14.4001V13.6001H10.3998V16.8001C10.3998 17.4366 10.6527 18.047 11.1027 18.4971C11.5528 18.9472 12.1633 19.2001 12.7998 19.2001H14.3998V20.8001C14.3998 21.2244 14.5684 21.6314 14.8684 21.9314C15.1685 22.2315 15.5755 22.4001 15.9998 22.4001H20.7998C21.2242 22.4001 21.6311 22.2315 21.9312 21.9314C22.2312 21.6314 22.3998 21.2244 22.3998 20.8001V16.0001C22.3998 15.5757 22.2312 15.1688 21.9312 14.8687C21.6311 14.5686 21.2242 14.4001 20.7998 14.4001H15.9998C15.5755 14.4001 15.1685 14.5686 14.8684 14.8687C14.5684 15.1688 14.3998 15.5757 14.3998 16.0001V17.6001H12.7998C12.5876 17.6001 12.3841 17.5158 12.2341 17.3658C12.0841 17.2157 11.9998 17.0122 11.9998 16.8001V8.80007C11.9998 8.5879 12.0841 8.38442 12.2341 8.23439C12.3841 8.08436 12.5876 8.00007 12.7998 8.00007H14.3998V9.60007C14.3998 10.0244 14.5684 10.4314 14.8684 10.7314C15.1685 11.0315 15.5755 11.2001 15.9998 11.2001ZM5.5998 14.4001H2.3998V11.2001H5.5998V14.4001ZM15.9998 16.0001H20.7998V20.8001H15.9998V16.0001ZM15.9998 4.80007H20.7998V9.60007H15.9998V4.80007Z" fill="#1A2D28"/>
</svg>
