<svg preserveAspectRatio="none" width="100%" height="100%" overflow="visible" style="display: block;" viewBox="0 0 18 18" fill="none" xmlns="http://www.w3.org/2000/svg">
<g id="YoutubeLogo">
<path id="Vector" d="M16.4763 4.88813C16.4101 4.62892 16.2831 4.38918 16.106 4.18868C15.9289 3.98819 15.7066 3.83268 15.4575 3.735C13.0472 2.80407 9.21094 2.8125 9 2.8125C8.78906 2.8125 4.95281 2.80407 2.5425 3.735C2.29343 3.83268 2.07115 3.98819 1.894 4.18868C1.71686 4.38918 1.58992 4.62892 1.52367 4.88813C1.34156 5.58985 1.125 6.87235 1.125 9C1.125 11.1277 1.34156 12.4102 1.52367 13.1119C1.58983 13.3712 1.71672 13.6111 1.89387 13.8117C2.07102 14.0123 2.29335 14.168 2.5425 14.2657C4.85156 15.1566 8.46562 15.1875 8.95359 15.1875H9.04641C9.53438 15.1875 13.1505 15.1566 15.4575 14.2657C15.7067 14.168 15.929 14.0123 16.1061 13.8117C16.2833 13.6111 16.4102 13.3712 16.4763 13.1119C16.6584 12.4088 16.875 11.1277 16.875 9C16.875 6.87235 16.6584 5.58985 16.4763 4.88813ZM11.2915 9.45844L8.47898 11.4272C8.39485 11.4861 8.29619 11.5209 8.19369 11.5277C8.0912 11.5346 7.98879 11.5132 7.89757 11.466C7.80636 11.4187 7.72982 11.3474 7.67626 11.2598C7.6227 11.1721 7.59416 11.0715 7.59375 10.9688V7.03125C7.59378 6.92835 7.62203 6.82743 7.67544 6.73947C7.72884 6.65152 7.80535 6.5799 7.89664 6.5324C7.98792 6.48491 8.09049 6.46337 8.19317 6.47012C8.29585 6.47688 8.39471 6.51167 8.47898 6.57071L11.2915 8.53946C11.3655 8.59134 11.4259 8.66028 11.4676 8.74044C11.5093 8.82061 11.531 8.90964 11.531 9C11.531 9.09036 11.5093 9.1794 11.4676 9.25956C11.4259 9.33973 11.3655 9.40867 11.2915 9.46055V9.45844Z" fill="var(--fill-0, #4F5125)"/>
</g>
</svg>
