<svg preserveAspectRatio="none" width="100%" height="100%" overflow="visible" style="display: block;" viewBox="0 0 18 18" fill="none" xmlns="http://www.w3.org/2000/svg">
<g id="WechatLogo">
<path id="Vector" d="M16.3173 13.1316C16.7059 12.3255 16.8966 11.4383 16.8736 10.5437C16.8505 9.64906 16.6144 8.77287 16.1847 7.98786C15.755 7.20286 15.1443 6.53169 14.4031 6.03012C13.662 5.52855 12.8119 5.21105 11.9234 5.10398C11.6263 4.41879 11.1957 3.79964 10.6567 3.28263C10.1177 2.76563 9.48119 2.36114 8.78424 2.09275C8.08728 1.82436 7.34386 1.69744 6.59734 1.71941C5.85081 1.74138 5.11614 1.9118 4.43618 2.22071C3.75621 2.52962 3.14457 2.97085 2.63694 3.51866C2.1293 4.06646 1.73584 4.70987 1.47951 5.41135C1.22317 6.11283 1.1091 6.85833 1.14393 7.60436C1.17877 8.35039 1.36182 9.08202 1.68241 9.75656L1.17124 11.494C1.11409 11.6879 1.11027 11.8937 1.16018 12.0897C1.21009 12.2856 1.31189 12.4645 1.45487 12.6075C1.59785 12.7504 1.77672 12.8522 1.97267 12.9022C2.16862 12.9521 2.37439 12.9482 2.56835 12.8911L4.30577 12.3799C4.86323 12.6497 5.46187 12.8244 6.07694 12.8967C6.37548 13.5961 6.81273 14.2277 7.36226 14.7533C7.91179 15.2789 8.56219 15.6877 9.27415 15.9548C9.98611 16.222 10.7448 16.342 11.5045 16.3077C12.2642 16.2733 13.009 16.0853 13.6939 15.7549L15.4313 16.2661C15.6253 16.3232 15.8311 16.3271 16.027 16.2772C16.2229 16.2272 16.4018 16.1254 16.5448 15.9825C16.6878 15.8395 16.7896 15.6606 16.8395 15.4647C16.8894 15.2687 16.8856 15.0629 16.8284 14.869L16.3173 13.1316ZM9.28108 10.6875C9.11421 10.6875 8.95108 10.638 8.81232 10.5453C8.67357 10.4526 8.56542 10.3208 8.50156 10.1666C8.4377 10.0125 8.42099 9.84281 8.45355 9.67914C8.4861 9.51547 8.56646 9.36513 8.68446 9.24713C8.80246 9.12913 8.95281 9.04877 9.11648 9.01621C9.28015 8.98365 9.4498 9.00036 9.60397 9.06422C9.75815 9.12809 9.88992 9.23623 9.98264 9.37499C10.0753 9.51374 10.1248 9.67687 10.1248 9.84375C10.1248 10.0675 10.0359 10.2821 9.87771 10.4404C9.71947 10.5986 9.50486 10.6875 9.28108 10.6875ZM5.62483 10.6875C5.62522 11.0247 5.65582 11.3612 5.71624 11.693C5.33679 11.604 4.97062 11.4657 4.6271 11.2816C4.49764 11.2124 4.34624 11.1965 4.20523 11.2373L2.24983 11.8125L2.82429 9.86062C2.86514 9.71961 2.84925 9.5682 2.77999 9.43875C2.20367 8.39315 2.06632 7.16144 2.39815 6.01457C2.72998 4.86771 3.50381 3.89963 4.54941 3.32332C5.595 2.747 6.82671 2.60965 7.97358 2.94148C9.12044 3.27331 10.0885 4.04714 10.6648 5.09273C9.2825 5.23916 8.00311 5.89151 7.07272 6.92431C6.14233 7.95711 5.62664 9.29743 5.62483 10.6875ZM13.2186 10.6875C13.0517 10.6875 12.8886 10.638 12.7498 10.5453C12.6111 10.4526 12.5029 10.3208 12.4391 10.1666C12.3752 10.0125 12.3585 9.84281 12.391 9.67914C12.4236 9.51547 12.504 9.36513 12.622 9.24713C12.74 9.12913 12.8903 9.04877 13.054 9.01621C13.2176 8.98365 13.3873 9.00036 13.5415 9.06422C13.6956 9.12809 13.8274 9.23623 13.9201 9.37499C14.0128 9.51374 14.0623 9.67687 14.0623 9.84375C14.0623 10.0675 13.9734 10.2821 13.8152 10.4404C13.657 10.5986 13.4424 10.6875 13.2186 10.6875Z" fill="var(--fill-0, #4F5125)"/>
</g>
</svg>
