<svg width="32" height="32" overflow="visible" style="display: block;" viewBox="0 0 32.3657 32.3657" fill="none" xmlns="http://www.w3.org/2000/svg">
<g id="Angel">
<g id="Vector">
<path d="M16.1828 8.20282C16.1828 12.6101 12.6101 16.1828 8.20283 16.1828C3.79559 16.1828 0.222824 12.6101 0.222824 8.20282C0.222824 3.79559 3.79559 0.222824 8.20283 0.222824C12.6101 0.222824 16.1828 3.79559 16.1828 8.20282Z" fill="#B6C4DB"/>
<path d="M16.1828 24.1629C16.1828 28.5701 12.6101 32.1429 8.20283 32.1429C3.79559 32.1429 0.222824 28.5701 0.222824 24.1629C0.222824 19.7556 3.79559 16.1828 8.20283 16.1828C12.6101 16.1828 16.1828 19.7556 16.1828 24.1629Z" fill="#B6C4DB"/>
<path d="M32.1429 8.20282C32.1429 12.6101 28.5701 16.1828 24.1629 16.1828C19.7556 16.1828 16.1828 12.6101 16.1828 8.20282C16.1828 3.79559 19.7556 0.222824 24.1629 0.222824C28.5701 0.222824 32.1429 3.79559 32.1429 8.20282Z" fill="#B6C4DB"/>
<path d="M32.1428 24.1629C32.1428 28.5701 28.57 32.1429 24.1628 32.1429C19.7556 32.1429 16.1828 28.5701 16.1828 24.1629C16.1828 19.7556 19.7556 16.1828 24.1629 16.1828C28.5701 16.1828 32.1428 19.7556 32.1428 24.1629Z" fill="#B6C4DB"/>
<path d="M23.664 16.0997C23.664 20.2773 20.2773 23.664 16.0996 23.664C11.9219 23.664 8.53521 20.2773 8.53521 16.0997C8.53521 11.922 11.9219 8.53528 16.0996 8.53528C20.2773 8.53528 23.664 11.922 23.664 16.0997Z" fill="#B6C4DB"/>
</g>
</g>
</svg>